<svg xmlns="http://www.w3.org/2000/svg" xmlns:xlink="http://www.w3.org/1999/xlink" width="450" zoomAndPan="magnify" viewBox="0 0 337.5 449.999984" height="600" preserveAspectRatio="xMidYMid meet" version="1.0"><defs><clipPath id="ecf61e4475"><path d="M 41.527344 186 L 104 186 L 104 230 L 41.527344 230 Z M 41.527344 186 " clip-rule="nonzero"/></clipPath><clipPath id="d2cdc6fee2"><path d="M 59 256 L 295.402344 256 L 295.402344 321 L 59 321 Z M 59 256 " clip-rule="nonzero"/></clipPath><clipPath id="193f1769cb"><path d="M 41.527344 149 L 295.402344 149 L 295.402344 304 L 41.527344 304 Z M 41.527344 149 " clip-rule="nonzero"/></clipPath><clipPath id="f1cdf8b24e"><path d="M 41.527344 149 L 295.402344 149 L 295.402344 304 L 41.527344 304 Z M 41.527344 149 " clip-rule="nonzero"/></clipPath><clipPath id="94cf116ffc"><path d="M 108 126.4375 L 150 126.4375 L 150 182 L 108 182 Z M 108 126.4375 " clip-rule="nonzero"/></clipPath><clipPath id="90184caf7c"><path d="M 130 225 L 207 225 L 207 267 L 130 267 Z M 130 225 " clip-rule="nonzero"/></clipPath><clipPath id="f0a43da42f"><path d="M 206.828125 241.84375 C 206.828125 232.613281 189.636719 225.117188 168.464844 225.117188 C 147.289062 225.117188 130.097656 232.613281 130.097656 241.84375 C 130.097656 242.738281 130.257812 243.613281 130.570312 244.46875 L 131.195312 247.957031 C 132.242188 253.816406 137.691406 260.070312 143.355469 261.910156 L 148.613281 263.621094 C 154.273438 265.464844 163.707031 266.960938 169.664062 266.960938 L 172.660156 266.960938 C 178.613281 266.960938 187.839844 264.933594 193.246094 262.441406 L 197.03125 260.695312 C 202.4375 258.199219 206.828125 251.34375 206.828125 245.390625 Z M 147.75 241.84375 C 147.75 236.859375 157.03125 232.8125 168.464844 232.8125 C 179.894531 232.8125 189.179688 236.859375 189.179688 241.84375 C 189.179688 246.828125 179.894531 250.875 168.464844 250.875 C 157.03125 250.875 147.75 246.828125 147.75 241.84375 Z M 147.75 241.84375 " clip-rule="nonzero"/></clipPath></defs><g clip-path="url(#ecf61e4475)"><path fill="#d9c477" d="M 41.527344 186.753906 L 41.527344 195.949219 C 41.527344 203.53125 46.738281 212.96875 53.15625 217.011719 C 61.804688 222.460938 77.617188 229.03125 88.898438 229.335938 L 103.789062 221.121094 Z M 41.527344 186.753906 " fill-opacity="1" fill-rule="nonzero"/></g><g clip-path="url(#d2cdc6fee2)"><path fill="#d9c477" d="M 59.65625 256.007812 L 59.65625 270.550781 C 59.65625 276.238281 62.917969 284.125 66.933594 288.152344 C 80.355469 301.621094 104.171875 314.054688 139.296875 318.632812 C 174.425781 323.210938 218.539062 319.429688 243.535156 311.761719 C 268.527344 304.097656 282.785156 293.816406 290.609375 285.777344 C 293.253906 283.058594 295.398438 277.777344 295.398438 273.984375 L 295.398438 256.007812 Z M 59.65625 256.007812 " fill-opacity="1" fill-rule="nonzero"/></g><path fill="#d9c477" d="M 226.488281 186.753906 L 226.488281 198.429688 C 226.488281 202.851562 223.949219 208.980469 220.820312 212.109375 L 213.75 219.175781 L 193.132812 213.308594 Z M 226.488281 186.753906 " fill-opacity="1" fill-rule="nonzero"/><g clip-path="url(#193f1769cb)"><path fill="#ebebeb" d="M 96.871094 221.121094 C 73.96875 229.851562 59.65625 242.257812 59.65625 256.007812 C 59.65625 282.421875 112.472656 303.867188 177.527344 303.867188 C 242.582031 303.867188 295.398438 282.421875 295.398438 256.007812 C 295.398438 233.753906 257.921875 215.03125 207.214844 209.6875 C 219.300781 203.34375 226.488281 195.386719 226.488281 186.753906 C 226.488281 166.027344 185.050781 149.203125 134.007812 149.203125 C 82.96875 149.203125 41.527344 166.027344 41.527344 186.753906 C 41.527344 202.113281 64.28125 215.328125 96.871094 221.121094 Z M 96.871094 221.121094 " fill-opacity="1" fill-rule="nonzero"/></g><path fill="#08cce2" d="M 109.515625 220.179688 C 88.957031 228.257812 70.8125 238.730469 70.8125 251.453125 C 70.8125 275.894531 118.226562 295.734375 176.628906 295.734375 C 235.03125 295.734375 282.449219 275.894531 282.449219 251.453125 C 282.449219 230.867188 238.65625 218.253906 193.132812 213.308594 C 203.984375 207.441406 220.585938 195.367188 220.585938 187.378906 C 220.585938 168.203125 183.382812 152.636719 137.558594 152.636719 C 91.738281 152.636719 54.535156 168.203125 54.535156 187.378906 C 54.535156 201.589844 80.261719 214.820312 109.515625 220.179688 Z M 109.515625 220.179688 " fill-opacity="1" fill-rule="nonzero"/><path fill="#d9c477" d="M 193.132812 213.308594 C 244.515625 216.835938 283.625 232.835938 283.625 254.042969 C 283.625 254.332031 283.617188 254.617188 283.605469 254.902344 C 273.21875 238.015625 237.46875 225.003906 193.132812 222.46875 Z M 110.664062 219.175781 C 82.929688 226.984375 64.84375 239.621094 64.84375 254.042969 C 64.84375 257.539062 65.90625 260.9375 67.917969 264.1875 C 68.59375 250.648438 85.203125 238.636719 110.664062 230.929688 Z M 110.664062 219.175781 " fill-opacity="1" fill-rule="evenodd"/><path fill="#d9c477" d="M 221.769531 187.070312 C 220.914062 168.003906 183.523438 152.636719 137.585938 152.636719 C 91.117188 152.636719 53.390625 168.363281 53.390625 187.738281 C 53.390625 190.191406 53.996094 192.589844 55.167969 194.902344 C 55.160156 194.679688 55.15625 194.460938 55.15625 194.238281 C 55.15625 174.863281 92.882812 159.136719 139.351562 159.136719 C 179.925781 159.136719 213.839844 171.128906 221.769531 187.070312 Z M 221.769531 187.070312 " fill-opacity="1" fill-rule="nonzero"/><g clip-path="url(#f1cdf8b24e)"><path fill="#ffeaa0" d="M 96.871094 221.121094 C 73.96875 229.851562 59.65625 242.257812 59.65625 256.007812 C 59.65625 282.421875 112.472656 303.867188 177.527344 303.867188 C 242.582031 303.867188 295.398438 282.421875 295.398438 256.007812 C 295.398438 233.753906 257.921875 215.03125 207.214844 209.6875 C 219.300781 203.34375 226.488281 195.386719 226.488281 186.753906 C 226.488281 166.027344 185.050781 149.203125 134.007812 149.203125 C 82.96875 149.203125 41.527344 166.027344 41.527344 186.753906 C 41.527344 202.113281 64.28125 215.328125 96.871094 221.121094 Z M 110.664062 219.175781 C 90.101562 227.253906 70.8125 238.730469 70.8125 251.453125 C 70.8125 275.894531 118.226562 295.734375 176.628906 295.734375 C 235.03125 295.734375 282.449219 275.894531 282.449219 251.453125 C 282.449219 230.867188 238.65625 218.253906 193.132812 213.308594 C 203.984375 207.441406 220.585938 195.367188 220.585938 187.378906 C 220.585938 168.203125 183.382812 152.636719 137.558594 152.636719 C 91.738281 152.636719 54.535156 168.203125 54.535156 187.378906 C 54.535156 201.589844 81.410156 213.820312 110.664062 219.175781 Z M 110.664062 219.175781 " fill-opacity="1" fill-rule="evenodd"/></g><path fill="#4bedff" d="M 133.503906 176.34375 C 132.25 176.34375 123.957031 175.589844 122.742188 175.335938 C 121.574219 175.113281 120.441406 174.726562 119.375 174.207031 C 118.585938 173.8125 117.746094 173.53125 116.878906 173.367188 C 115.890625 173.164062 114.886719 173.066406 113.882812 173.066406 C 113.101562 173.066406 112.320312 173.128906 111.554688 173.257812 C 110.878906 173.367188 110.207031 173.546875 109.574219 173.804688 L 103.867188 176.128906 C 103.867188 176.128906 103.867188 176.140625 103.859375 176.140625 C 102.347656 176.746094 100.726562 177.046875 99.085938 177.039062 C 98.0625 177.039062 97.042969 176.917969 96.046875 176.652344 C 95.113281 176.429688 94.226562 176.011719 93.453125 175.4375 C 93.179688 175.214844 92.871094 175.035156 92.554688 174.898438 C 92.160156 174.71875 91.738281 174.574219 91.316406 174.460938 C 90.332031 174.207031 89.308594 174.085938 88.289062 174.085938 C 87.25 174.078125 86.21875 174.214844 85.222656 174.488281 L 79.996094 175.984375 L 78.761719 176.34375 C 81.761719 173.65625 84.945312 172.058594 88.289062 171.519531 C 89.53125 171.519531 90.769531 171.675781 91.96875 171.980469 C 92.527344 172.128906 93.078125 172.316406 93.601562 172.554688 C 94.105469 172.777344 94.578125 173.058594 95.007812 173.386719 C 95.515625 173.761719 96.082031 174.027344 96.683594 174.171875 C 97.472656 174.375 98.277344 174.472656 99.09375 174.472656 C 100.390625 174.480469 101.6875 174.238281 102.894531 173.761719 L 108.605469 171.425781 C 108.605469 171.425781 108.605469 171.417969 108.613281 171.417969 C 109.429688 171.09375 110.269531 170.863281 111.136719 170.726562 C 112.046875 170.570312 112.964844 170.503906 113.882812 170.503906 C 115.058594 170.503906 116.226562 170.613281 117.375 170.84375 C 118.464844 171.058594 119.53125 171.410156 120.527344 171.90625 C 121.382812 172.332031 122.292969 172.640625 123.238281 172.820312 C 124.300781 173.035156 134.320312 176.34375 133.503906 176.34375 Z M 193.097656 173.078125 C 192.167969 173.078125 186.007812 172.324219 185.105469 172.066406 C 184.238281 171.84375 183.394531 171.460938 182.605469 170.9375 C 182.019531 170.546875 181.394531 170.261719 180.75 170.101562 C 180.015625 169.894531 179.269531 169.800781 178.523438 169.800781 C 177.945312 169.800781 177.363281 169.859375 176.796875 169.988281 C 176.292969 170.101562 175.796875 170.28125 175.324219 170.535156 L 171.085938 172.863281 C 171.085938 172.863281 171.085938 172.871094 171.078125 172.871094 C 169.957031 173.480469 168.75 173.777344 167.535156 173.769531 C 166.773438 173.769531 166.015625 173.648438 165.277344 173.382812 C 164.582031 173.164062 163.925781 172.742188 163.351562 172.171875 C 163.148438 171.949219 162.917969 171.769531 162.683594 171.632812 C 162.386719 171.453125 162.078125 171.304688 161.765625 171.195312 C 161.03125 170.9375 160.273438 170.820312 159.511719 170.820312 C 158.742188 170.808594 157.976562 170.945312 157.238281 171.21875 L 153.355469 172.71875 L 152.4375 173.078125 C 154.664062 170.390625 157.03125 168.789062 159.511719 168.253906 C 160.4375 168.253906 161.355469 168.40625 162.25 168.714844 C 162.664062 168.859375 163.070312 169.046875 163.460938 169.289062 C 163.835938 169.511719 164.1875 169.792969 164.503906 170.117188 C 164.882812 170.492188 165.300781 170.757812 165.75 170.90625 C 166.335938 171.109375 166.933594 171.203125 167.539062 171.203125 C 168.503906 171.210938 169.464844 170.972656 170.363281 170.492188 L 174.605469 168.160156 C 174.605469 168.160156 174.605469 168.152344 174.609375 168.152344 C 175.214844 167.824219 175.839844 167.59375 176.484375 167.457031 C 177.160156 167.304688 177.84375 167.234375 178.523438 167.234375 C 179.398438 167.234375 180.265625 167.347656 181.121094 167.578125 C 181.929688 167.792969 182.71875 168.140625 183.457031 168.636719 C 184.097656 169.066406 184.773438 169.375 185.472656 169.554688 C 186.265625 169.765625 193.703125 173.078125 193.097656 173.078125 Z M 144.019531 198.347656 C 142.339844 198.347656 131.242188 197.339844 129.613281 196.996094 C 128.050781 196.699219 126.53125 196.183594 125.109375 195.488281 C 124.050781 194.960938 122.925781 194.582031 121.765625 194.367188 C 120.445312 194.089844 119.101562 193.964844 117.757812 193.964844 C 116.710938 193.964844 115.664062 194.042969 114.644531 194.214844 C 113.734375 194.367188 112.839844 194.605469 111.988281 194.949219 L 104.347656 198.0625 C 104.347656 198.0625 104.347656 198.074219 104.335938 198.074219 C 102.316406 198.886719 100.144531 199.289062 97.949219 199.277344 C 96.582031 199.277344 95.214844 199.117188 93.882812 198.761719 C 92.632812 198.464844 91.449219 197.902344 90.414062 197.136719 C 90.046875 196.835938 89.632812 196.597656 89.207031 196.414062 C 88.679688 196.175781 88.117188 195.980469 87.554688 195.832031 C 86.234375 195.488281 84.867188 195.328125 83.5 195.328125 C 82.109375 195.316406 80.730469 195.5 79.398438 195.863281 L 72.402344 197.867188 L 70.746094 198.347656 C 74.761719 194.753906 79.023438 192.613281 83.5 191.890625 C 85.164062 191.890625 86.820312 192.097656 88.425781 192.511719 C 89.171875 192.707031 89.910156 192.957031 90.609375 193.277344 C 91.289062 193.574219 91.917969 193.953125 92.492188 194.386719 C 93.171875 194.890625 93.929688 195.246094 94.734375 195.441406 C 95.789062 195.714844 96.871094 195.839844 97.960938 195.839844 C 99.695312 195.851562 101.433594 195.53125 103.050781 194.890625 L 110.691406 191.765625 C 110.691406 191.765625 110.691406 191.753906 110.703125 191.753906 C 111.792969 191.320312 112.917969 191.011719 114.078125 190.828125 C 115.296875 190.621094 116.527344 190.53125 117.757812 190.53125 C 119.328125 190.53125 120.890625 190.679688 122.429688 190.988281 C 123.890625 191.273438 125.316406 191.742188 126.648438 192.40625 C 127.796875 192.980469 129.015625 193.390625 130.277344 193.632812 C 131.703125 193.917969 145.109375 198.347656 144.019531 198.347656 Z M 193.070312 211.492188 C 191.394531 211.492188 180.296875 210.484375 178.664062 210.140625 C 177.101562 209.84375 175.585938 209.328125 174.160156 208.628906 C 173.105469 208.101562 171.976562 207.726562 170.816406 207.507812 C 169.496094 207.234375 168.152344 207.105469 166.808594 207.105469 C 165.761719 207.105469 164.71875 207.1875 163.695312 207.359375 C 162.789062 207.507812 161.890625 207.746094 161.039062 208.089844 L 153.402344 211.207031 C 153.402344 211.207031 153.402344 211.214844 153.390625 211.214844 C 151.367188 212.03125 149.195312 212.429688 147.003906 212.417969 C 145.636719 212.417969 144.269531 212.257812 142.9375 211.902344 C 141.683594 211.605469 140.5 211.042969 139.464844 210.277344 C 139.097656 209.980469 138.683594 209.738281 138.261719 209.558594 C 137.730469 209.316406 137.167969 209.121094 136.605469 208.972656 C 135.285156 208.628906 133.917969 208.46875 132.550781 208.46875 C 131.160156 208.457031 129.78125 208.640625 128.449219 209.007812 L 121.453125 211.011719 L 119.800781 211.492188 C 123.8125 207.894531 128.074219 205.753906 132.550781 205.035156 C 134.214844 205.035156 135.871094 205.242188 137.480469 205.652344 C 138.226562 205.847656 138.960938 206.097656 139.660156 206.417969 C 140.339844 206.71875 140.972656 207.09375 141.546875 207.53125 C 142.222656 208.035156 142.980469 208.390625 143.785156 208.582031 C 144.84375 208.859375 145.921875 208.984375 147.015625 208.984375 C 148.75 208.996094 150.484375 208.675781 152.101562 208.035156 L 159.742188 204.910156 C 159.742188 204.910156 159.742188 204.898438 159.753906 204.898438 C 160.84375 204.460938 161.972656 204.152344 163.132812 203.96875 C 164.351562 203.765625 165.578125 203.671875 166.808594 203.671875 C 168.382812 203.671875 169.945312 203.820312 171.484375 204.128906 C 172.941406 204.417969 174.367188 204.886719 175.699219 205.550781 C 176.847656 206.121094 178.066406 206.535156 179.332031 206.773438 C 180.753906 207.0625 194.164062 211.492188 193.070312 211.492188 Z M 193.070312 234.355469 C 191.394531 234.355469 180.296875 233.347656 178.664062 233.003906 C 177.101562 232.707031 175.585938 232.191406 174.160156 231.492188 C 173.105469 230.964844 171.976562 230.585938 170.816406 230.371094 C 169.496094 230.09375 168.152344 229.96875 166.808594 229.96875 C 165.761719 229.96875 164.71875 230.050781 163.695312 230.222656 C 162.789062 230.371094 161.890625 230.609375 161.039062 230.953125 L 153.402344 234.066406 C 153.402344 234.066406 153.402344 234.078125 153.390625 234.078125 C 151.367188 234.890625 149.195312 235.292969 147.003906 235.28125 C 145.636719 235.28125 144.269531 235.121094 142.9375 234.765625 C 141.683594 234.46875 140.5 233.90625 139.464844 233.140625 C 139.097656 232.84375 138.683594 232.601562 138.261719 232.417969 C 137.730469 232.179688 137.167969 231.984375 136.605469 231.835938 C 135.285156 231.492188 133.917969 231.332031 132.550781 231.332031 C 131.160156 231.320312 129.78125 231.503906 128.449219 231.871094 L 121.453125 233.871094 L 119.800781 234.355469 C 123.8125 230.757812 128.074219 228.617188 132.550781 227.898438 C 134.214844 227.898438 135.871094 228.101562 137.480469 228.515625 C 138.226562 228.710938 138.960938 228.960938 139.660156 229.28125 C 140.339844 229.578125 140.972656 229.957031 141.546875 230.394531 C 142.222656 230.894531 142.980469 231.25 143.785156 231.445312 C 144.84375 231.722656 145.921875 231.847656 147.015625 231.847656 C 148.75 231.859375 150.484375 231.539062 152.101562 230.894531 L 159.742188 227.769531 C 159.742188 227.769531 159.742188 227.757812 159.753906 227.757812 C 160.84375 227.324219 161.972656 227.015625 163.132812 226.832031 C 164.351562 226.625 165.578125 226.535156 166.808594 226.535156 C 168.382812 226.535156 169.945312 226.683594 171.484375 226.992188 C 172.941406 227.277344 174.367188 227.75 175.699219 228.410156 C 176.847656 228.984375 178.066406 229.398438 179.332031 229.636719 C 180.753906 229.921875 194.164062 234.355469 193.070312 234.355469 Z M 158.84375 259.453125 C 157.167969 259.453125 146.070312 258.445312 144.4375 258.101562 C 142.875 257.804688 141.359375 257.289062 139.933594 256.589844 C 138.878906 256.0625 137.75 255.6875 136.589844 255.46875 C 135.269531 255.195312 133.925781 255.066406 132.582031 255.066406 C 131.535156 255.066406 130.492188 255.148438 129.46875 255.320312 C 128.5625 255.46875 127.664062 255.707031 126.8125 256.050781 L 119.175781 259.164062 C 119.175781 259.164062 119.175781 259.175781 119.164062 259.175781 C 117.140625 259.988281 114.96875 260.390625 112.777344 260.378906 C 111.410156 260.378906 110.042969 260.21875 108.707031 259.863281 C 107.457031 259.566406 106.273438 259.003906 105.238281 258.238281 C 104.871094 257.941406 104.457031 257.699219 104.035156 257.515625 C 103.503906 257.277344 102.941406 257.082031 102.378906 256.933594 C 101.058594 256.589844 99.691406 256.429688 98.324219 256.429688 C 96.933594 256.417969 95.554688 256.601562 94.222656 256.96875 L 87.226562 258.972656 L 85.570312 259.453125 C 89.585938 255.855469 93.847656 253.714844 98.324219 252.996094 C 99.988281 252.996094 101.644531 253.199219 103.253906 253.613281 C 104 253.808594 104.734375 254.058594 105.433594 254.378906 C 106.113281 254.679688 106.746094 255.054688 107.320312 255.492188 C 107.996094 255.996094 108.753906 256.351562 109.558594 256.542969 C 110.617188 256.820312 111.695312 256.945312 112.789062 256.945312 C 114.523438 256.957031 116.257812 256.636719 117.875 255.996094 L 125.515625 252.871094 C 125.515625 252.871094 125.515625 252.859375 125.527344 252.859375 C 126.617188 252.421875 127.746094 252.113281 128.90625 251.929688 C 130.121094 251.726562 131.351562 251.632812 132.582031 251.632812 C 134.15625 251.632812 135.71875 251.78125 137.257812 252.089844 C 138.714844 252.378906 140.140625 252.847656 141.472656 253.511719 C 142.621094 254.082031 143.839844 254.496094 145.105469 254.734375 C 146.527344 255.019531 159.933594 259.453125 158.84375 259.453125 Z M 257.242188 249.75 C 255.566406 249.75 244.46875 248.742188 242.835938 248.398438 C 241.273438 248.101562 239.757812 247.585938 238.332031 246.886719 C 237.273438 246.359375 236.148438 245.984375 234.988281 245.765625 C 233.667969 245.492188 232.324219 245.363281 230.980469 245.363281 C 229.933594 245.363281 228.890625 245.445312 227.867188 245.617188 C 226.957031 245.765625 226.0625 246.003906 225.214844 246.351562 L 217.574219 249.464844 C 217.574219 249.464844 217.574219 249.472656 217.5625 249.472656 C 215.539062 250.289062 213.367188 250.6875 211.175781 250.675781 C 209.808594 250.675781 208.441406 250.515625 207.109375 250.160156 C 205.855469 249.863281 204.671875 249.304688 203.636719 248.535156 C 203.269531 248.238281 202.855469 248 202.429688 247.816406 C 201.902344 247.574219 201.339844 247.378906 200.777344 247.230469 C 199.457031 246.886719 198.089844 246.726562 196.722656 246.726562 C 195.332031 246.714844 193.953125 246.898438 192.621094 247.265625 L 185.625 249.269531 L 183.96875 249.75 C 187.984375 246.152344 192.246094 244.011719 196.722656 243.292969 C 198.386719 243.292969 200.042969 243.5 201.652344 243.910156 C 202.398438 244.105469 203.132812 244.355469 203.832031 244.679688 C 204.511719 244.976562 205.144531 245.351562 205.71875 245.789062 C 206.394531 246.292969 207.152344 246.648438 207.957031 246.84375 C 209.015625 247.117188 210.09375 247.242188 211.1875 247.242188 C 212.921875 247.253906 214.65625 246.933594 216.273438 246.292969 L 223.914062 243.167969 C 223.914062 243.167969 223.914062 243.15625 223.925781 243.15625 C 225.019531 242.71875 226.144531 242.410156 227.304688 242.226562 C 228.519531 242.023438 229.75 241.929688 230.980469 241.929688 C 232.554688 241.929688 234.117188 242.078125 235.65625 242.386719 C 237.113281 242.675781 238.539062 243.144531 239.871094 243.808594 C 241.019531 244.378906 242.238281 244.792969 243.5 245.03125 C 244.925781 245.320312 258.335938 249.75 257.242188 249.75 Z M 205.066406 279.925781 C 203.390625 279.925781 192.292969 278.917969 190.660156 278.574219 C 189.097656 278.277344 187.582031 277.761719 186.15625 277.0625 C 185.101562 276.539062 183.976562 276.160156 182.816406 275.941406 C 181.492188 275.667969 180.148438 275.542969 178.804688 275.542969 C 177.761719 275.542969 176.714844 275.621094 175.691406 275.792969 C 174.785156 275.941406 173.886719 276.183594 173.039062 276.527344 L 165.398438 279.640625 C 165.398438 279.640625 165.398438 279.652344 165.386719 279.652344 C 163.363281 280.464844 161.195312 280.863281 159 280.851562 C 157.632812 280.851562 156.265625 280.695312 154.933594 280.339844 C 153.679688 280.039062 152.496094 279.480469 151.464844 278.710938 C 151.097656 278.414062 150.683594 278.175781 150.257812 277.992188 C 149.730469 277.75 149.167969 277.554688 148.601562 277.40625 C 147.28125 277.0625 145.914062 276.902344 144.546875 276.902344 C 143.15625 276.890625 141.777344 277.074219 140.445312 277.441406 L 133.449219 279.445312 L 131.796875 279.925781 C 135.8125 276.332031 140.074219 274.191406 144.546875 273.46875 C 146.214844 273.46875 147.867188 273.675781 149.476562 274.085938 C 150.222656 274.28125 150.957031 274.535156 151.660156 274.855469 C 152.335938 275.152344 152.96875 275.53125 153.542969 275.964844 C 154.222656 276.46875 154.980469 276.824219 155.78125 277.019531 C 156.839844 277.292969 157.917969 277.417969 159.011719 277.417969 C 160.746094 277.429688 162.480469 277.109375 164.101562 276.46875 L 171.738281 273.34375 C 171.738281 273.34375 171.738281 273.332031 171.75 273.332031 C 172.84375 272.898438 173.96875 272.589844 175.128906 272.40625 C 176.347656 272.199219 177.578125 272.105469 178.804688 272.105469 C 180.378906 272.105469 181.941406 272.257812 183.480469 272.566406 C 184.941406 272.851562 186.363281 273.320312 187.695312 273.984375 C 188.84375 274.558594 190.0625 274.96875 191.328125 275.210938 C 192.75 275.496094 206.160156 279.925781 205.066406 279.925781 Z M 266.40625 271.179688 C 264.730469 271.179688 253.628906 270.171875 252 269.828125 C 250.4375 269.53125 248.921875 269.015625 247.496094 268.316406 C 246.4375 267.792969 245.3125 267.414062 244.152344 267.195312 C 242.832031 266.921875 241.488281 266.792969 240.144531 266.792969 C 239.097656 266.792969 238.050781 266.875 237.03125 267.046875 C 236.121094 267.195312 235.226562 267.4375 234.375 267.78125 L 226.738281 270.894531 C 226.738281 270.894531 226.738281 270.90625 226.726562 270.90625 C 224.703125 271.71875 222.53125 272.117188 220.335938 272.105469 C 218.972656 272.105469 217.601562 271.945312 216.269531 271.59375 C 215.019531 271.292969 213.835938 270.734375 212.800781 269.964844 C 212.433594 269.667969 212.019531 269.429688 211.59375 269.246094 C 211.066406 269.003906 210.503906 268.808594 209.941406 268.660156 C 208.621094 268.316406 207.253906 268.15625 205.886719 268.15625 C 204.496094 268.144531 203.117188 268.328125 201.785156 268.695312 L 194.789062 270.699219 L 193.132812 271.179688 C 197.148438 267.585938 201.410156 265.441406 205.886719 264.722656 C 207.550781 264.722656 209.207031 264.929688 210.8125 265.339844 C 211.5625 265.535156 212.296875 265.789062 212.996094 266.109375 C 213.675781 266.40625 214.304688 266.785156 214.882812 267.21875 C 215.558594 267.722656 216.316406 268.078125 217.121094 268.273438 C 218.179688 268.546875 219.257812 268.671875 220.347656 268.671875 C 222.085938 268.683594 223.820312 268.363281 225.4375 267.722656 L 233.078125 264.597656 C 233.078125 264.597656 233.078125 264.585938 233.089844 264.585938 C 234.179688 264.152344 235.308594 263.839844 236.46875 263.660156 C 237.683594 263.453125 238.914062 263.359375 240.144531 263.359375 C 241.71875 263.359375 243.28125 263.507812 244.820312 263.820312 C 246.277344 264.105469 247.703125 264.574219 249.035156 265.238281 C 250.183594 265.8125 251.402344 266.222656 252.664062 266.464844 C 254.089844 266.75 267.496094 271.179688 266.40625 271.179688 Z M 217.355469 192.703125 C 215.675781 192.703125 204.578125 191.699219 202.945312 191.355469 C 201.382812 191.054688 199.867188 190.542969 198.445312 189.84375 C 197.386719 189.316406 196.261719 188.9375 195.101562 188.722656 C 193.777344 188.445312 192.433594 188.320312 191.089844 188.320312 C 190.046875 188.320312 189 188.402344 187.976562 188.570312 C 187.070312 188.722656 186.175781 188.960938 185.324219 189.304688 L 177.683594 192.417969 C 177.683594 192.417969 177.683594 192.429688 177.671875 192.429688 C 175.652344 193.242188 173.480469 193.644531 171.285156 193.632812 C 169.917969 193.632812 168.550781 193.472656 167.21875 193.117188 C 165.964844 192.820312 164.785156 192.257812 163.75 191.492188 C 163.382812 191.195312 162.96875 190.953125 162.542969 190.769531 C 162.015625 190.53125 161.453125 190.335938 160.890625 190.1875 C 159.566406 189.84375 158.199219 189.683594 156.832031 189.683594 C 155.445312 189.671875 154.066406 189.855469 152.734375 190.222656 L 145.734375 192.222656 L 144.082031 192.703125 C 148.097656 189.109375 152.359375 186.96875 156.832031 186.246094 C 158.5 186.246094 160.152344 186.453125 161.761719 186.867188 C 162.507812 187.0625 163.246094 187.3125 163.945312 187.632812 C 164.621094 187.929688 165.253906 188.308594 165.828125 188.742188 C 166.507812 189.246094 167.265625 189.601562 168.070312 189.796875 C 169.125 190.070312 170.207031 190.199219 171.296875 190.199219 C 173.03125 190.210938 174.765625 189.886719 176.386719 189.246094 L 184.027344 186.121094 C 184.027344 186.121094 184.027344 186.109375 184.039062 186.109375 C 185.128906 185.675781 186.253906 185.367188 187.414062 185.183594 C 188.632812 184.976562 189.863281 184.886719 191.089844 184.886719 C 192.664062 184.886719 194.226562 185.035156 195.765625 185.34375 C 197.226562 185.628906 198.652344 186.097656 199.984375 186.761719 C 201.132812 187.335938 202.347656 187.746094 203.613281 187.988281 C 205.039062 188.273438 218.445312 192.703125 217.355469 192.703125 Z M 217.355469 192.703125 " fill-opacity="1" fill-rule="evenodd"/><path fill="#4bedff" d="M 143.515625 182.046875 C 142.746094 181.820312 142.296875 181.527344 142.296875 181.210938 C 142.296875 180.46875 144.703125 179.867188 147.667969 179.867188 C 150.628906 179.867188 153.035156 180.46875 153.035156 181.210938 C 153.035156 181.433594 152.8125 181.644531 152.394531 181.828125 C 152.5 181.738281 152.546875 181.640625 152.546875 181.539062 C 152.546875 180.882812 150.414062 180.351562 147.789062 180.351562 C 145.160156 180.351562 143.027344 180.882812 143.027344 181.539062 C 143.027344 181.722656 143.191406 181.894531 143.515625 182.046875 Z M 143.515625 182.046875 " fill-opacity="1" fill-rule="nonzero"/><path fill="#4bedff" d="M 139.472656 182.992188 C 137.902344 182.445312 136.988281 181.726562 136.988281 180.945312 C 136.988281 179.132812 141.898438 177.660156 147.949219 177.660156 C 153.996094 177.660156 158.90625 179.132812 158.90625 180.945312 C 158.90625 181.496094 158.457031 182.015625 157.601562 182.460938 C 157.8125 182.238281 157.914062 182 157.914062 181.753906 C 157.914062 180.148438 153.558594 178.84375 148.195312 178.84375 C 142.835938 178.84375 138.480469 180.148438 138.480469 181.753906 C 138.480469 182.199219 138.816406 182.625 139.472656 182.992188 Z M 139.472656 182.992188 " fill-opacity="1" fill-rule="nonzero"/><path fill="#4bedff" d="M 116.390625 182.046875 C 115.621094 181.820312 115.171875 181.527344 115.171875 181.210938 C 115.171875 180.46875 117.578125 179.867188 120.542969 179.867188 C 123.503906 179.867188 125.910156 180.46875 125.910156 181.210938 C 125.910156 181.433594 125.6875 181.644531 125.269531 181.828125 C 125.375 181.738281 125.421875 181.640625 125.421875 181.539062 C 125.421875 180.882812 123.292969 180.351562 120.664062 180.351562 C 118.035156 180.351562 115.902344 180.882812 115.902344 181.539062 C 115.902344 181.722656 116.066406 181.894531 116.390625 182.046875 Z M 116.390625 182.046875 " fill-opacity="1" fill-rule="nonzero"/><path fill="#4bedff" d="M 112.347656 182.992188 C 110.777344 182.445312 109.867188 181.726562 109.867188 180.945312 C 109.867188 179.132812 114.777344 177.660156 120.824219 177.660156 C 126.875 177.660156 131.785156 179.132812 131.785156 180.945312 C 131.785156 181.496094 131.332031 182.015625 130.476562 182.460938 C 130.691406 182.238281 130.789062 182 130.789062 181.753906 C 130.789062 180.148438 126.4375 178.84375 121.074219 178.84375 C 115.710938 178.84375 111.355469 180.148438 111.355469 181.753906 C 111.355469 182.199219 111.691406 182.625 112.347656 182.992188 Z M 112.347656 182.992188 " fill-opacity="1" fill-rule="nonzero"/><g clip-path="url(#94cf116ffc)"><path fill="#db3f64" d="M 146.484375 169.898438 C 146.585938 173.21875 146.632812 176.542969 146.628906 179.867188 L 146.613281 181.191406 L 149.265625 181.207031 L 149.28125 179.878906 C 149.292969 172.445312 149.042969 165.007812 148.523438 157.601562 C 148.3125 154.605469 148.019531 151.609375 147.675781 148.625 C 147.382812 146.136719 147.027344 143.65625 146.601562 141.179688 C 146.269531 139.1875 145.847656 137.214844 145.355469 135.265625 C 144.996094 133.78125 144.53125 132.324219 143.988281 130.890625 C 143.777344 130.335938 143.523438 129.804688 143.261719 129.273438 C 143.019531 128.835938 142.753906 128.414062 142.464844 128.015625 C 142.1875 127.660156 141.867188 127.339844 141.496094 127.074219 C 141.070312 126.785156 140.582031 126.636719 140.078125 126.625 C 139.425781 126.636719 138.832031 126.902344 138.367188 127.355469 C 137.957031 127.75 137.625 128.226562 137.371094 128.757812 C 137.066406 129.382812 136.828125 130.03125 136.640625 130.695312 C 136.390625 131.542969 136.191406 132.402344 136.03125 133.277344 C 135.609375 135.664062 135.328125 138.074219 135.183594 140.5 C 134.972656 143.867188 134.863281 147.25 134.878906 150.628906 L 134.878906 151.4375 L 120.90625 151.4375 C 120.574219 148.199219 120.144531 144.972656 119.628906 141.761719 C 119.308594 139.8125 118.910156 137.890625 118.445312 135.96875 C 118.101562 134.523438 117.675781 133.105469 117.148438 131.714844 C 116.800781 130.707031 116.3125 129.765625 115.703125 128.90625 C 115.4375 128.53125 115.117188 128.214844 114.746094 127.964844 C 114.335938 127.671875 113.84375 127.511719 113.339844 127.511719 C 112.703125 127.527344 112.082031 127.789062 111.644531 128.253906 C 111.234375 128.679688 110.902344 129.15625 110.664062 129.6875 C 110.371094 130.324219 110.117188 130.984375 109.945312 131.660156 C 109.695312 132.523438 109.496094 133.398438 109.351562 134.285156 C 108.925781 136.722656 108.648438 139.175781 108.5 141.640625 C 108.289062 145.074219 108.183594 148.519531 108.195312 151.953125 L 108.195312 153.277344 L 110.847656 153.277344 L 110.847656 151.953125 C 110.835938 148.558594 110.941406 145.179688 111.152344 141.800781 C 111.285156 139.441406 111.550781 137.082031 111.960938 134.738281 C 112.09375 133.941406 112.28125 133.144531 112.492188 132.363281 C 112.636719 131.820312 112.835938 131.289062 113.074219 130.785156 C 113.15625 130.601562 113.261719 130.429688 113.394531 130.269531 C 113.445312 130.324219 113.5 130.386719 113.539062 130.441406 C 114.015625 131.117188 114.390625 131.847656 114.652344 132.617188 C 115.144531 133.914062 115.554688 135.238281 115.875 136.59375 C 116.324219 138.433594 116.695312 140.304688 117.015625 142.183594 C 117.863281 147.445312 118.460938 152.75 118.792969 158.0625 C 119.28125 165.3125 119.519531 172.589844 119.496094 179.867188 L 119.496094 181.191406 L 122.148438 181.207031 L 122.148438 179.878906 C 122.160156 176.550781 122.117188 173.222656 122.019531 169.898438 Z M 146.390625 167.25 C 146.265625 164.089844 146.09375 160.9375 145.871094 157.785156 C 145.785156 156.550781 145.683594 155.320312 145.574219 154.085938 L 121.15625 154.085938 C 121.265625 155.355469 121.363281 156.621094 121.445312 157.890625 C 121.652344 161.007812 121.816406 164.128906 121.933594 167.25 Z M 137.53125 151.4375 L 137.53125 150.628906 C 137.515625 147.300781 137.625 143.976562 137.835938 140.660156 C 137.96875 138.339844 138.246094 136.035156 138.644531 133.742188 C 138.789062 132.960938 138.964844 132.191406 139.1875 131.421875 C 139.335938 130.890625 139.535156 130.386719 139.773438 129.886719 C 139.863281 129.699219 139.96875 129.527344 140.117188 129.367188 C 140.195312 129.433594 140.277344 129.515625 140.34375 129.605469 C 140.554688 129.886719 140.738281 130.175781 140.898438 130.496094 C 141.125 130.933594 141.335938 131.382812 141.523438 131.847656 C 142.027344 133.171875 142.449219 134.523438 142.78125 135.902344 C 143.261719 137.796875 143.65625 139.707031 143.988281 141.628906 C 144.414062 144.054688 144.757812 146.492188 145.050781 148.945312 C 145.144531 149.773438 145.234375 150.605469 145.316406 151.4375 Z M 137.53125 151.4375 " fill-opacity="1" fill-rule="evenodd"/></g><path fill="#4bedff" d="M 114.269531 180.324219 C 113.054688 180.679688 112.347656 181.140625 112.347656 181.644531 C 112.347656 182.816406 116.144531 183.765625 120.824219 183.765625 C 125.503906 183.765625 129.300781 182.816406 129.300781 181.644531 C 129.300781 181.292969 128.953125 180.957031 128.292969 180.667969 C 128.453125 180.8125 128.53125 180.964844 128.53125 181.125 C 128.53125 182.160156 125.164062 183 121.015625 183 C 116.867188 183 113.5 182.160156 113.5 181.125 C 113.5 180.835938 113.761719 180.5625 114.269531 180.324219 Z M 114.269531 180.324219 " fill-opacity="1" fill-rule="nonzero"/><path fill="#4bedff" d="M 141.394531 180.324219 C 140.175781 180.679688 139.472656 181.140625 139.472656 181.644531 C 139.472656 182.816406 143.269531 183.765625 147.949219 183.765625 C 152.625 183.765625 156.425781 182.816406 156.425781 181.644531 C 156.425781 181.292969 156.074219 180.957031 155.414062 180.667969 C 155.578125 180.8125 155.65625 180.964844 155.65625 181.125 C 155.65625 182.160156 152.289062 183 148.140625 183 C 143.992188 183 140.625 182.160156 140.625 181.125 C 140.625 180.835938 140.882812 180.5625 141.394531 180.324219 Z M 141.394531 180.324219 " fill-opacity="1" fill-rule="nonzero"/><path fill="#ffeaa0" d="M 206.828125 241.84375 C 206.828125 232.613281 189.636719 225.117188 168.464844 225.117188 C 147.289062 225.117188 130.097656 232.613281 130.097656 241.84375 C 130.097656 242.738281 130.257812 243.613281 130.570312 244.46875 L 131.195312 247.957031 C 132.242188 253.816406 137.691406 260.070312 143.355469 261.910156 L 148.613281 263.621094 C 154.273438 265.464844 163.707031 266.960938 169.664062 266.960938 L 172.660156 266.960938 C 178.613281 266.960938 187.839844 264.933594 193.246094 262.441406 L 197.03125 260.695312 C 202.4375 258.199219 206.828125 251.34375 206.828125 245.390625 Z M 147.75 241.84375 C 147.75 236.859375 157.03125 232.8125 168.464844 232.8125 C 179.894531 232.8125 189.179688 236.859375 189.179688 241.84375 C 189.179688 246.828125 179.894531 250.875 168.464844 250.875 C 157.03125 250.875 147.75 246.828125 147.75 241.84375 Z M 147.75 241.84375 " fill-opacity="1" fill-rule="evenodd"/><g clip-path="url(#90184caf7c)"><g clip-path="url(#f0a43da42f)"><path fill="#db3f64" d="M 152.878906 240 L 130.097656 231.011719 L 126.503906 248.988281 C 136.925781 245.597656 145.722656 244.207031 152.878906 244.792969 Z M 158.871094 247.1875 L 152.90625 250.722656 C 150.058594 252.410156 147.105469 256.386719 146.308594 259.59375 L 144.484375 266.960938 L 163.070312 271.753906 L 163.070312 264.5625 C 163.070312 261.257812 164.386719 256.234375 166.007812 253.351562 L 168.464844 248.988281 Z M 177.457031 248.988281 L 179.613281 251.574219 C 181.730469 254.113281 183.953125 258.8125 184.570312 262.0625 L 185.847656 268.757812 L 200.835938 263.367188 L 197.816406 256.375 C 196.503906 253.339844 193.042969 249.660156 190.09375 248.164062 L 183.449219 244.792969 Z M 187.644531 240 C 195.238281 238.65625 201.640625 238.664062 206.828125 240 L 200.835938 227.417969 L 195.4375 227.417969 L 183.449219 237.003906 Z M 177.457031 223.222656 L 177.457031 235.207031 L 166.664062 235.207031 L 158.871094 223.222656 Z M 177.457031 223.222656 " fill-opacity="1" fill-rule="evenodd"/></g></g></svg>