<svg width="84" height="84" viewBox="0 0 84 84" fill="none" xmlns="http://www.w3.org/2000/svg">
<g filter="url(#filter0_d_772_11)">
<circle cx="42" cy="40" r="36" fill="white"/>
</g>
<path d="M37.4394 27.5554L31.8787 33.2999H25.5C24.6712 33.2999 24 33.9935 24 34.8498V44.1494C24 45.005 24.6712 45.6993 25.5 45.6993H31.8787L37.4394 51.4437C38.3787 52.4143 40 51.7324 40 50.3478V28.6514C40 27.2655 38.3775 26.5861 37.4394 27.5554ZM52.0219 24.2567C51.3238 23.7833 50.3856 23.9829 49.9275 24.7055C49.4687 25.4269 49.6638 26.3962 50.3619 26.8696C54.5038 29.6782 56.9756 34.3997 56.9756 39.5002C56.9756 44.6008 54.5038 49.3222 50.3619 52.1308C49.6638 52.6036 49.4687 53.5736 49.9275 54.2943C50.3675 54.9859 51.2981 55.2346 52.0219 54.7431C57.0169 51.3552 60 45.656 60 39.4996C60 33.3431 57.0169 27.6446 52.0219 24.2567ZM54 39.4996C54 35.3968 51.9963 31.6246 48.6394 29.4095C47.94 28.9484 47.0125 29.1628 46.5694 29.8913C46.1262 30.6198 46.3331 31.584 47.0325 32.0457C49.5169 33.6854 51 36.4714 51 39.4996C51 42.5277 49.5169 45.3137 47.0325 46.9534C46.3331 47.4145 46.1262 48.3787 46.5694 49.1078C46.9762 49.7769 47.8894 50.0856 48.6394 49.5896C51.9963 47.3745 54 43.603 54 39.4996ZM45.1394 34.5353C44.4156 34.1265 43.5025 34.3958 43.1012 35.1456C42.7019 35.8953 42.9663 36.8376 43.6919 37.2515C44.4988 37.7094 45 38.5716 45 39.4996C45 40.4282 44.4987 41.2897 43.6925 41.7476C42.9669 42.1616 42.7025 43.1038 43.1019 43.8536C43.5038 44.6066 44.4175 44.8739 45.14 44.4639C46.9044 43.4596 48.0006 41.5577 48.0006 39.4989C48.0006 37.4401 46.9044 35.5389 45.1394 34.5353Z" fill="url(#paint0_linear_772_11)"/>
<defs>
<filter id="filter0_d_772_11" x="0" y="0" width="84" height="84" filterUnits="userSpaceOnUse" color-interpolation-filters="sRGB">
<feFlood flood-opacity="0" result="BackgroundImageFix"/>
<feColorMatrix in="SourceAlpha" type="matrix" values="0 0 0 0 0 0 0 0 0 0 0 0 0 0 0 0 0 0 127 0" result="hardAlpha"/>
<feOffset dy="2"/>
<feGaussianBlur stdDeviation="3"/>
<feComposite in2="hardAlpha" operator="out"/>
<feColorMatrix type="matrix" values="0 0 0 0 0 0 0 0 0 0 0 0 0 0 0 0 0 0 0.25 0"/>
<feBlend mode="normal" in2="BackgroundImageFix" result="effect1_dropShadow_772_11"/>
<feBlend mode="normal" in="SourceGraphic" in2="effect1_dropShadow_772_11" result="shape"/>
</filter>
<linearGradient id="paint0_linear_772_11" x1="27.021" y1="24" x2="61.0783" y2="27.0475" gradientUnits="userSpaceOnUse">
<stop stop-color="#7FCB28" stop-opacity="0.91"/>
<stop offset="1" stop-color="#5C9E32"/>
</linearGradient>
</defs>
</svg>
