<svg width="35" height="36" viewBox="0 0 35 36" fill="none" xmlns="http://www.w3.org/2000/svg">
<path d="M11.965 33.8077V28.2874C11.965 26.8885 13.0974 25.752 14.5001 25.7432H19.6505C21.0594 25.7432 22.2016 26.8823 22.2016 28.2874V33.7917C22.2016 35.005 23.1832 35.9911 24.3998 35.9999H27.9136C29.5547 36.0041 31.13 35.357 32.292 34.2012C33.4539 33.0455 34.1069 31.4761 34.1069 29.8395V14.1585C34.1069 12.8365 33.5193 11.5825 32.5024 10.7343L20.565 1.21368C18.4784 -0.451579 15.4981 -0.397785 13.4732 1.34169L1.79254 10.7343C0.727628 11.5575 0.0911454 12.8152 0.0596924 14.1585V29.8235C0.0596924 33.2346 2.83254 35.9999 6.25301 35.9999H9.68662C10.2724 36.0041 10.8356 35.7751 11.2513 35.3635C11.667 34.9519 11.9008 34.3919 11.9008 33.8077H11.965Z" fill="white"/>
</svg>
