<svg width="84" height="84" viewBox="0 0 84 84" fill="none" xmlns="http://www.w3.org/2000/svg">
<g filter="url(#filter0_d_1344_13506)">
<circle cx="42" cy="40" r="36" fill="white"/>
</g>
<path d="M36.8888 55.8077V50.2874C36.8888 48.8885 38.0196 47.752 39.4204 47.7432H44.5636C45.9706 47.7432 47.1112 48.8823 47.1112 50.2874V55.7917C47.1112 57.005 48.0914 57.9911 49.3063 57.9999H52.8153C54.4541 58.0041 56.0272 57.357 57.1876 56.2012C58.3479 55.0455 59 53.4761 59 51.8395V36.1585C59 34.8365 58.4132 33.5825 57.3977 32.7343L45.4769 23.2137C43.3931 21.5484 40.417 21.6022 38.3949 23.3417L26.7304 32.7343C25.667 33.5575 25.0314 34.8152 25 36.1585V51.8235C25 55.2346 27.769 57.9999 31.1847 57.9999H34.6136C35.1985 58.0041 35.761 57.7751 36.1761 57.3635C36.5912 56.9519 36.8247 56.3919 36.8247 55.8077H36.8888Z" fill="url(#paint0_linear_1344_13506)"/>
<defs>
<filter id="filter0_d_1344_13506" x="0" y="0" width="84" height="84" filterUnits="userSpaceOnUse" color-interpolation-filters="sRGB">
<feFlood flood-opacity="0" result="BackgroundImageFix"/>
<feColorMatrix in="SourceAlpha" type="matrix" values="0 0 0 0 0 0 0 0 0 0 0 0 0 0 0 0 0 0 127 0" result="hardAlpha"/>
<feOffset dy="2"/>
<feGaussianBlur stdDeviation="3"/>
<feComposite in2="hardAlpha" operator="out"/>
<feColorMatrix type="matrix" values="0 0 0 0 0 0 0 0 0 0 0 0 0 0 0 0 0 0 0.25 0"/>
<feBlend mode="normal" in2="BackgroundImageFix" result="effect1_dropShadow_1344_13506"/>
<feBlend mode="normal" in="SourceGraphic" in2="effect1_dropShadow_1344_13506" result="shape"/>
</filter>
<linearGradient id="paint0_linear_1344_13506" x1="27.8531" y1="22" x2="60.1051" y2="24.347" gradientUnits="userSpaceOnUse">
<stop stop-color="#7FCB28" stop-opacity="0.91"/>
<stop offset="1" stop-color="#5C9E32"/>
</linearGradient>
</defs>
</svg>
