<svg width="432" height="696" viewBox="0 0 432 696" fill="none" xmlns="http://www.w3.org/2000/svg">
<mask id="mask0_19_2" style="mask-type:luminance" maskUnits="userSpaceOnUse" x="-121" y="689" width="465" height="296">
<path d="M-120.72 720.932L324.823 689.892L343.206 953.768L-102.337 984.808L-120.72 720.932Z" fill="white"/>
</mask>
<g mask="url(#mask0_19_2)">
<path d="M321.04 843.969L27.1313 971.693C15.9935 976.521 1.51873 974.473 -5.19465 967.092L-108.093 854.017C-114.807 846.636 -111.217 836.732 -100.08 831.889L51.2974 766.105L66.3814 759.552L191.786 705.047L193.829 704.165C196.203 703.146 198.656 702.435 201.2 702.016C210.716 700.429 220.857 702.936 226.155 708.766L329.067 821.84C335.766 829.222 332.177 839.126 321.04 843.969Z" fill="url(#paint0_linear_19_2)"/>
</g>
<mask id="mask1_19_2" style="mask-type:luminance" maskUnits="userSpaceOnUse" x="26" y="323" width="386" height="359">
<path d="M26.2295 348.526L388.46 323.29L411.676 656.542L49.4463 681.778L26.2295 348.526Z" fill="white"/>
</mask>
<g mask="url(#mask1_19_2)">
<mask id="mask2_19_2" style="mask-type:luminance" maskUnits="userSpaceOnUse" x="49" y="337" width="342" height="331">
<path d="M388.481 370.138L280.57 595.125L282.613 594.243C284.988 593.224 287.44 592.499 289.985 592.094L284.001 604.568L277.32 618.47L261.875 650.656C256.934 660.967 243.92 668.258 232.812 666.97L140.054 656.185L155.138 649.632L58.7961 638.429C54.883 637.976 51.7235 636.504 49.4839 634.357C49.4677 631.472 50.103 628.755 51.3879 626.177L104.686 515.059L108.857 506.365L150.908 418.709L153.654 413.029L178.805 360.56L179.811 358.457L181.748 354.426C183.757 350.405 186.567 347.067 190.178 344.412C192.244 342.832 194.47 341.526 196.857 340.478L197.174 340.342C198.266 339.882 199.375 339.478 200.503 339.143C203.871 338.098 207.289 337.76 210.783 338.114L381.033 357.917C384.961 358.383 388.119 359.841 390.346 362.003C390.375 364.873 389.753 367.575 388.481 370.138Z" fill="white"/>
</mask>
<g mask="url(#mask2_19_2)">
<path d="M29.6827 350.134L387.781 325.186L410.872 656.626L52.7733 681.574L29.6827 350.134Z" fill="url(#paint1_linear_19_2)"/>
</g>
</g>
<g filter="url(#filter1_d_19_2)">
<path d="M305.074 483.98C305.103 486.845 304.468 489.558 303.17 492.119L195.374 716.767L190.624 726.667L187.201 733.791L185.948 736.405L172.964 763.474C168.028 773.756 155.03 781.05 143.934 779.764L70.1084 771.179L-26.1244 759.996C-30.0472 759.545 -33.2031 758.075 -35.426 755.93C-39.5082 751.97 -40.4711 745.691 -37.2846 739.038L10.4749 639.514L14.6421 630.833L61.3449 533.47L64.0744 527.8L92.9207 467.683C97.8569 457.402 110.841 450.109 121.951 451.393L292.009 471.161C300.057 472.106 304.892 477.291 305.074 483.98Z" fill="url(#paint2_linear_19_2)" shape-rendering="crispEdges"/>
</g>
<mask id="mask3_19_2" style="mask-type:luminance" maskUnits="userSpaceOnUse" x="-274" y="331" width="385" height="334">
<path d="M-273.493 356.667L88.7366 331.432L110.187 639.327L-252.043 664.563L-273.493 356.667Z" fill="white"/>
</mask>
<g mask="url(#mask3_19_2)">
<mask id="mask4_19_2" style="mask-type:luminance" maskUnits="userSpaceOnUse" x="-268" y="342" width="372" height="311">
<path d="M103.404 592.168C101.993 596.618 98.0131 600.506 92.0651 602.684C91.511 602.893 90.9265 603.076 90.328 603.26L15.8872 624.982L6.63476 627.688L10.8055 618.98L-99.6693 651.246C-105.623 652.926 -111.555 652.884 -117.478 651.136C-119.089 649.855 -120.461 648.329 -121.591 646.588L-265.771 418.533C-268.839 413.685 -268.563 408.462 -265.66 404.208C-264.483 402.533 -263.06 401.112 -261.378 399.957C-259.208 398.455 -256.853 397.352 -254.314 396.65L-119.369 357.248L-108.305 354.017L-73.6493 343.896C-67.6952 342.216 -61.7633 342.258 -55.8404 344.006C-50.1064 345.697 -45.1754 348.922 -42.4111 353.294L0.825322 421.643L4.80499 427.949L0.505512 431.135L57.6158 521.48L60.3473 515.787L64.8843 522.95L101.812 581.36C104.052 584.943 104.5 588.722 103.404 592.168Z" fill="white"/>
</mask>
<g mask="url(#mask4_19_2)">
<path d="M-272.822 356.507L86.578 331.468L107.937 638.048L-251.463 663.086L-272.822 356.507Z" fill="url(#paint3_linear_19_2)"/>
</g>
</g>
<g filter="url(#filter2_d_19_2)">
<mask id="mask5_19_2" style="mask-type:luminance" maskUnits="userSpaceOnUse" x="-285" y="325" width="384" height="342">
<path d="M-284.802 351.085L77.0177 325.878L98.9727 641.018L-262.847 666.226L-284.802 351.085Z" fill="white"/>
</mask>
<g mask="url(#mask5_19_2)">
<path d="M80.6482 599.427L19.7397 617.22L10.4722 619.913L-100.017 652.18C-105.971 653.86 -111.903 653.819 -117.826 652.07C-123.56 650.379 -128.52 647.142 -131.27 642.769L-275.451 414.7C-280.914 406.081 -275.783 396.254 -263.994 392.817L-124.799 352.18L-113.734 348.95L-83.2998 340.076C-73.8239 337.311 -62.9086 339.494 -56.1737 344.94C-54.5489 346.22 -53.1782 347.731 -52.0615 349.473L-3.85185 425.737L0.128806 432.057L57.2532 522.401L61.7751 529.551L92.1181 577.528C97.5701 586.191 92.4374 595.989 80.6482 599.427Z" fill="url(#paint4_linear_19_2)"/>
</g>
</g>
<mask id="mask6_19_2" style="mask-type:luminance" maskUnits="userSpaceOnUse" x="-280" y="28" width="413" height="440">
<path d="M-279.95 55.0071L104.014 28.2572L132.783 441.199L-251.181 467.949L-279.95 55.0071Z" fill="white"/>
</mask>
<g mask="url(#mask6_19_2)">
<mask id="mask7_19_2" style="mask-type:luminance" maskUnits="userSpaceOnUse" x="-274" y="45" width="397" height="404">
<path d="M122.308 331.055C121.406 332.184 120.366 333.181 119.204 334.044L0.825351 421.643L4.80501 427.949L0.505555 431.135L-18.8708 445.466C-27.6317 451.963 -41.5595 449.194 -49.8975 439.31L-119.353 357.275L-124.435 351.274L-113.371 348.043L-267.101 166.38C-270.927 161.869 -272.926 156.648 -273.143 151.686C-272.241 150.557 -271.202 149.546 -270.039 148.698L-135.638 49.233C-126.876 42.7646 -112.95 45.5054 -104.612 55.3891L97.6138 294.358L107.809 306.415L109.779 308.766L113.265 312.889L116.21 316.38C120.063 320.875 122.076 326.095 122.308 331.055Z" fill="white"/>
</mask>
<g mask="url(#mask7_19_2)">
<path d="M-280.116 53.4404L101.23 26.873L130.08 440.975L-251.266 467.543L-280.116 53.4404Z" fill="url(#paint5_linear_19_2)"/>
</g>
</g>
<g filter="url(#filter3_d_19_2)">
<path d="M120.846 331.099C119.945 332.227 118.906 333.223 117.745 334.085L-0.507797 421.603L-4.81682 424.786L-16.5138 433.443C-25.2794 439.934 -39.1784 437.167 -47.5077 427.292L-109.495 354.036L-114.572 348.04L-268.126 166.555C-271.948 162.048 -273.959 156.833 -274.176 151.876C-274.446 145.971 -272.175 140.444 -267.407 136.915L-133.15 37.5434C-124.396 31.081 -110.485 33.8194 -102.155 43.7083L118.465 304.459C125.678 312.991 126.421 324.062 120.846 331.099Z" fill="url(#paint6_linear_19_2)" shape-rendering="crispEdges"/>
</g>
<defs>
<filter id="filter1_d_19_2" x="-43.1828" y="451.246" width="352.258" height="336.665" filterUnits="userSpaceOnUse" color-interpolation-filters="sRGB">
<feFlood flood-opacity="0" result="BackgroundImageFix"/>
<feColorMatrix in="SourceAlpha" type="matrix" values="0 0 0 0 0 0 0 0 0 0 0 0 0 0 0 0 0 0 127 0" result="hardAlpha"/>
<feOffset dy="4"/>
<feGaussianBlur stdDeviation="2"/>
<feComposite in2="hardAlpha" operator="out"/>
<feColorMatrix type="matrix" values="0 0 0 0 0 0 0 0 0 0 0 0 0 0 0 0 0 0 0.25 0"/>
<feBlend mode="normal" in2="BackgroundImageFix" result="effect1_dropShadow_19_2"/>
<feBlend mode="normal" in="SourceGraphic" in2="effect1_dropShadow_19_2" result="shape"/>
</filter>
<filter id="filter2_d_19_2" x="-281.636" y="338.877" width="379.933" height="322.534" filterUnits="userSpaceOnUse" color-interpolation-filters="sRGB">
<feFlood flood-opacity="0" result="BackgroundImageFix"/>
<feColorMatrix in="SourceAlpha" type="matrix" values="0 0 0 0 0 0 0 0 0 0 0 0 0 0 0 0 0 0 127 0" result="hardAlpha"/>
<feOffset dy="4"/>
<feGaussianBlur stdDeviation="2"/>
<feComposite in2="hardAlpha" operator="out"/>
<feColorMatrix type="matrix" values="0 0 0 0 0 0 0 0 0 0 0 0 0 0 0 0 0 0 0.25 0"/>
<feBlend mode="normal" in2="BackgroundImageFix" result="effect1_dropShadow_19_2"/>
<feBlend mode="normal" in="SourceGraphic" in2="effect1_dropShadow_19_2" result="shape"/>
</filter>
<filter id="filter3_d_19_2" x="-278.198" y="34.0447" width="406.72" height="410.91" filterUnits="userSpaceOnUse" color-interpolation-filters="sRGB">
<feFlood flood-opacity="0" result="BackgroundImageFix"/>
<feColorMatrix in="SourceAlpha" type="matrix" values="0 0 0 0 0 0 0 0 0 0 0 0 0 0 0 0 0 0 127 0" result="hardAlpha"/>
<feOffset dy="4"/>
<feGaussianBlur stdDeviation="2"/>
<feComposite in2="hardAlpha" operator="out"/>
<feColorMatrix type="matrix" values="0 0 0 0 0 0 0 0 0 0 0 0 0 0 0 0 0 0 0.25 0"/>
<feBlend mode="normal" in2="BackgroundImageFix" result="effect1_dropShadow_19_2"/>
<feBlend mode="normal" in="SourceGraphic" in2="effect1_dropShadow_19_2" result="shape"/>
</filter>
<linearGradient id="paint0_linear_19_2" x1="-119.977" y1="724.235" x2="342.698" y2="947.988" gradientUnits="userSpaceOnUse">
<stop stop-color="white" stop-opacity="0.22"/>
<stop offset="1" stop-color="white" stop-opacity="0.29"/>
</linearGradient>
<linearGradient id="paint1_linear_19_2" x1="29.6827" y1="350.134" x2="462.962" y2="473.131" gradientUnits="userSpaceOnUse">
<stop stop-color="white" stop-opacity="0.22"/>
<stop offset="1" stop-color="white" stop-opacity="0.29"/>
</linearGradient>
<linearGradient id="paint2_linear_19_2" x1="-58.9465" y1="463.61" x2="376.327" y2="589.418" gradientUnits="userSpaceOnUse">
<stop stop-color="white" stop-opacity="0.22"/>
<stop offset="1" stop-color="white" stop-opacity="0.29"/>
</linearGradient>
<linearGradient id="paint3_linear_19_2" x1="-272.822" y1="356.507" x2="154.224" y2="490.231" gradientUnits="userSpaceOnUse">
<stop stop-color="white" stop-opacity="0.22"/>
<stop offset="1" stop-color="white" stop-opacity="0.29"/>
</linearGradient>
<linearGradient id="paint4_linear_19_2" x1="-281.453" y1="353.202" x2="145.617" y2="484.119" gradientUnits="userSpaceOnUse">
<stop stop-color="white" stop-opacity="0.22"/>
<stop offset="1" stop-color="white" stop-opacity="0.29"/>
</linearGradient>
<linearGradient id="paint5_linear_19_2" x1="-280.116" y1="53.4404" x2="194.567" y2="163.931" gradientUnits="userSpaceOnUse">
<stop stop-color="white" stop-opacity="0.22"/>
<stop offset="1" stop-color="white" stop-opacity="0.29"/>
</linearGradient>
<linearGradient id="paint6_linear_19_2" x1="-281.621" y1="45.1138" x2="195.901" y2="159.957" gradientUnits="userSpaceOnUse">
<stop stop-color="white" stop-opacity="0.22"/>
<stop offset="1" stop-color="white" stop-opacity="0.29"/>
</linearGradient>
</defs>
</svg>
