<svg width="1440" height="1024" viewBox="0 0 1440 1024" fill="none" xmlns="http://www.w3.org/2000/svg">
<path d="M1188 204C1225.56 204 1256 173.555 1256 136C1256 98.4446 1225.56 68 1188 68C1150.44 68 1120 98.4446 1120 136C1120 173.555 1150.44 204 1188 204Z" fill="#FFC727"/>
<path d="M1229.65 478.422H1096C1096 478.422 1125.87 447.599 1149.39 447.599C1172.92 447.599 1179.87 468.147 1179.87 468.147C1179.87 468.147 1196.48 458.558 1211.86 460.27C1227.25 461.983 1229.65 478.422 1229.65 478.422Z" fill="white"/>
<path d="M262.326 333.301H2C2 333.301 37.6483 276.606 75.7857 273.062C113.923 269.518 132.162 315.19 132.162 315.19C132.162 315.19 156.758 299.046 176.102 299.046C195.447 299.046 210.371 320.306 210.371 320.306C210.371 320.306 249.063 305.739 262.326 333.301Z" fill="white"/>
<path d="M504.64 280.684H328.784C328.784 280.684 358.993 239.606 391.762 239.008C424.534 238.411 441.76 270.095 441.76 270.095C441.76 270.095 492.736 240.953 504.64 280.684Z" fill="white"/>
<path d="M416.712 564.372H298.017C298.017 564.372 318.407 536.646 340.524 536.243C362.645 535.839 374.272 557.228 374.272 557.228C374.272 557.228 408.677 537.557 416.712 564.372Z" fill="#EBEBEB"/>
<path d="M1442 300.411H1156.01C1156.01 300.411 1184.37 245.238 1228.01 245.238C1271.65 245.238 1285.32 283.32 1285.32 283.32C1285.32 283.32 1314.76 262.629 1338.95 262.629C1363.13 262.629 1384.16 289.97 1384.16 289.97C1384.16 289.97 1418.34 275.269 1442 300.411Z" fill="white"/>
<path d="M1107.53 609.814H962.757V1150.41H1107.53V609.814Z" fill="#DBDBDB"/>
<path d="M1013.37 627.374H985.229V648.015H1013.37V627.374Z" fill="#EBEBEB"/>
<path d="M1049.37 627.374H1021.23V648.015H1049.37V627.374Z" fill="#EBEBEB"/>
<path d="M1013.37 662.419H985.229V683.061H1013.37V662.419Z" fill="#EBEBEB"/>
<path d="M1049.37 662.419H1021.23V683.061H1049.37V662.419Z" fill="#EBEBEB"/>
<path d="M1013.37 697.464H985.229V718.105H1013.37V697.464Z" fill="#EBEBEB"/>
<path d="M1049.37 697.464H1021.23V718.105H1049.37V697.464Z" fill="#EBEBEB"/>
<path d="M1013.37 732.508H985.229V753.149H1013.37V732.508Z" fill="#EBEBEB"/>
<path d="M1049.37 732.508H1021.23V753.149H1049.37V732.508Z" fill="#EBEBEB"/>
<path d="M1013.37 767.555H985.229V788.196H1013.37V767.555Z" fill="#EBEBEB"/>
<path d="M1049.37 767.555H1021.23V788.196H1049.37V767.555Z" fill="#EBEBEB"/>
<path d="M1013.37 802.599H985.229V823.24H1013.37V802.599Z" fill="#EBEBEB"/>
<path d="M1049.37 802.599H1021.23V823.24H1049.37V802.599Z" fill="#EBEBEB"/>
<path d="M1013.37 837.645H985.229V858.286H1013.37V837.645Z" fill="#EBEBEB"/>
<path d="M1049.37 837.645H1021.23V858.286H1049.37V837.645Z" fill="#EBEBEB"/>
<path d="M1013.37 872.689H985.229V893.33H1013.37V872.689Z" fill="#EBEBEB"/>
<path d="M1049.37 872.689H1021.23V893.33H1049.37V872.689Z" fill="#EBEBEB"/>
<path d="M1013.37 907.733H985.229V928.374H1013.37V907.733Z" fill="#EBEBEB"/>
<path d="M1049.37 907.733H1021.23V928.374H1049.37V907.733Z" fill="#EBEBEB"/>
<path d="M1013.37 942.779H985.229V963.421H1013.37V942.779Z" fill="#EBEBEB"/>
<path d="M1049.37 942.779H1021.23V963.421H1049.37V942.779Z" fill="#EBEBEB"/>
<path d="M1013.37 977.823H985.229V998.465H1013.37V977.823Z" fill="#EBEBEB"/>
<path d="M1049.37 977.823H1021.23V998.465H1049.37V977.823Z" fill="#EBEBEB"/>
<path d="M1013.37 1012.87H985.229V1033.51H1013.37V1012.87Z" fill="#EBEBEB"/>
<path d="M1049.37 1012.87H1021.23V1033.51H1049.37V1012.87Z" fill="#EBEBEB"/>
<path d="M1056.92 1033.51H1085.06V1012.87H1056.92V1033.51Z" fill="#EBEBEB"/>
<path d="M1056.92 998.465H1085.06V977.823H1056.92V998.465Z" fill="#EBEBEB"/>
<path d="M1056.92 963.42H1085.06V942.779H1056.92V963.42Z" fill="#EBEBEB"/>
<path d="M1056.92 928.374H1085.06V907.733H1056.92V928.374Z" fill="#EBEBEB"/>
<path d="M1056.92 893.33H1085.06V872.689H1056.92V893.33Z" fill="#EBEBEB"/>
<path d="M1056.92 858.284H1085.06V837.642H1056.92V858.284Z" fill="#EBEBEB"/>
<path d="M1056.92 823.239H1085.06V802.598H1056.92V823.239Z" fill="#EBEBEB"/>
<path d="M1056.92 788.195H1085.06V767.554H1056.92V788.195Z" fill="#EBEBEB"/>
<path d="M1056.92 753.149H1085.06V732.507H1056.92V753.149Z" fill="#EBEBEB"/>
<path d="M1056.92 718.105H1085.06V697.464H1056.92V718.105Z" fill="#EBEBEB"/>
<path d="M1056.92 683.061H1085.06V662.42H1056.92V683.061Z" fill="#EBEBEB"/>
<path d="M1056.92 648.015H1085.06V627.373H1056.92V648.015Z" fill="#EBEBEB"/>
<path d="M1221.67 609.814H1107.53V1150.41H1221.67V609.814Z" fill="#A6A6A6"/>
<path d="M1186.67 1033.51H1209.91V1012.87H1186.67V1033.51Z" fill="#C7C7C7"/>
<path d="M1156.94 1033.51H1180.18V1012.87H1156.94V1033.51Z" fill="#C7C7C7"/>
<path d="M1186.67 998.465H1209.91V977.823H1186.67V998.465Z" fill="#C7C7C7"/>
<path d="M1156.94 998.465H1180.18V977.823H1156.94V998.465Z" fill="#C7C7C7"/>
<path d="M1186.67 963.42H1209.91V942.779H1186.67V963.42Z" fill="#C7C7C7"/>
<path d="M1156.94 963.42H1180.18V942.779H1156.94V963.42Z" fill="#C7C7C7"/>
<path d="M1186.67 928.374H1209.91V907.733H1186.67V928.374Z" fill="#C7C7C7"/>
<path d="M1156.94 928.374H1180.18V907.733H1156.94V928.374Z" fill="#C7C7C7"/>
<path d="M1186.67 893.33H1209.91V872.689H1186.67V893.33Z" fill="#C7C7C7"/>
<path d="M1156.94 893.33H1180.18V872.689H1156.94V893.33Z" fill="#C7C7C7"/>
<path d="M1186.67 858.284H1209.91V837.642H1186.67V858.284Z" fill="#C7C7C7"/>
<path d="M1156.94 858.284H1180.18V837.642H1156.94V858.284Z" fill="#C7C7C7"/>
<path d="M1186.67 823.239H1209.91V802.598H1186.67V823.239Z" fill="#C7C7C7"/>
<path d="M1156.94 823.239H1180.18V802.598H1156.94V823.239Z" fill="#C7C7C7"/>
<path d="M1186.67 788.195H1209.91V767.554H1186.67V788.195Z" fill="#C7C7C7"/>
<path d="M1156.94 788.195H1180.18V767.554H1156.94V788.195Z" fill="#C7C7C7"/>
<path d="M1186.67 753.149H1209.91V732.507H1186.67V753.149Z" fill="#C7C7C7"/>
<path d="M1156.94 753.149H1180.18V732.507H1156.94V753.149Z" fill="#C7C7C7"/>
<path d="M1186.67 718.105H1209.91V697.464H1186.67V718.105Z" fill="#C7C7C7"/>
<path d="M1156.94 718.105H1180.18V697.464H1156.94V718.105Z" fill="#C7C7C7"/>
<path d="M1186.67 683.061H1209.91V662.42H1186.67V683.061Z" fill="#C7C7C7"/>
<path d="M1156.94 683.061H1180.18V662.42H1156.94V683.061Z" fill="#C7C7C7"/>
<path d="M1186.67 648.015H1209.91V627.373H1186.67V648.015Z" fill="#C7C7C7"/>
<path d="M1150.7 627.374H1127.46V648.015H1150.7V627.374Z" fill="#C7C7C7"/>
<path d="M1150.7 662.419H1127.46V683.061H1150.7V662.419Z" fill="#C7C7C7"/>
<path d="M1150.7 697.464H1127.46V718.105H1150.7V697.464Z" fill="#C7C7C7"/>
<path d="M1150.7 732.508H1127.46V753.149H1150.7V732.508Z" fill="#C7C7C7"/>
<path d="M1150.7 767.555H1127.46V788.196H1150.7V767.555Z" fill="#C7C7C7"/>
<path d="M1150.7 802.599H1127.46V823.24H1150.7V802.599Z" fill="#C7C7C7"/>
<path d="M1150.7 837.645H1127.46V858.286H1150.7V837.645Z" fill="#C7C7C7"/>
<path d="M1150.7 872.689H1127.46V893.33H1150.7V872.689Z" fill="#C7C7C7"/>
<path d="M1150.7 907.733H1127.46V928.374H1150.7V907.733Z" fill="#C7C7C7"/>
<path d="M1150.7 942.779H1127.46V963.421H1150.7V942.779Z" fill="#C7C7C7"/>
<path d="M1150.7 977.823H1127.46V998.465H1150.7V977.823Z" fill="#C7C7C7"/>
<path d="M1150.7 1012.87H1127.46V1033.51H1150.7V1012.87Z" fill="#C7C7C7"/>
<path d="M1156.94 648.015H1180.18V627.373H1156.94V648.015Z" fill="#C7C7C7"/>
<path d="M372.508 598.018H221.482V1150.41H372.508V598.018Z" fill="#EBEBEB"/>
<path d="M372.508 587.017H217.85V598.017H372.508V587.017Z" fill="#C7C7C7"/>
<path d="M250.439 614.229H235.137V1150.41H250.439V614.229Z" fill="white"/>
<path d="M277.544 614.229H262.243V1150.41H277.544V614.229Z" fill="white"/>
<path d="M304.647 614.229H289.345V1150.41H304.647V614.229Z" fill="white"/>
<path d="M331.748 614.229H316.446V1150.41H331.748V614.229Z" fill="white"/>
<path d="M358.854 614.229H343.552V1150.41H358.854V614.229Z" fill="white"/>
<path d="M250.439 628.127H235.137V649.84H250.439V628.127Z" fill="#EBEBEB"/>
<path d="M277.544 628.127H262.243V649.84H277.544V628.127Z" fill="#EBEBEB"/>
<path d="M304.647 628.127H289.345V649.84H304.647V628.127Z" fill="#EBEBEB"/>
<path d="M331.748 628.127H316.446V649.84H331.748V628.127Z" fill="#EBEBEB"/>
<path d="M358.854 628.127H343.552V649.84H358.854V628.127Z" fill="#EBEBEB"/>
<path d="M250.439 663.418H235.137V685.133H250.439V663.418Z" fill="#EBEBEB"/>
<path d="M277.544 663.418H262.243V685.133H277.544V663.418Z" fill="#EBEBEB"/>
<path d="M304.647 663.418H289.345V685.133H304.647V663.418Z" fill="#EBEBEB"/>
<path d="M331.748 663.418H316.446V685.133H331.748V663.418Z" fill="#EBEBEB"/>
<path d="M358.854 663.418H343.552V685.133H358.854V663.418Z" fill="#EBEBEB"/>
<path d="M250.439 698.709H235.137V720.424H250.439V698.709Z" fill="#EBEBEB"/>
<path d="M277.544 698.709H262.243V720.424H277.544V698.709Z" fill="#EBEBEB"/>
<path d="M304.647 698.709H289.345V720.424H304.647V698.709Z" fill="#EBEBEB"/>
<path d="M331.748 698.709H316.446V720.424H331.748V698.709Z" fill="#EBEBEB"/>
<path d="M358.854 698.709H343.552V720.424H358.854V698.709Z" fill="#EBEBEB"/>
<path d="M250.439 733.999H235.137V755.714H250.439V733.999Z" fill="#EBEBEB"/>
<path d="M277.544 733.999H262.243V755.714H277.544V733.999Z" fill="#EBEBEB"/>
<path d="M304.647 733.999H289.345V755.714H304.647V733.999Z" fill="#EBEBEB"/>
<path d="M331.748 733.999H316.446V755.714H331.748V733.999Z" fill="#EBEBEB"/>
<path d="M358.854 733.999H343.552V755.714H358.854V733.999Z" fill="#EBEBEB"/>
<path d="M250.439 769.29H235.137V791.004H250.439V769.29Z" fill="#EBEBEB"/>
<path d="M277.544 769.29H262.243V791.004H277.544V769.29Z" fill="#EBEBEB"/>
<path d="M304.647 769.29H289.345V791.004H304.647V769.29Z" fill="#EBEBEB"/>
<path d="M331.748 769.29H316.446V791.004H331.748V769.29Z" fill="#EBEBEB"/>
<path d="M358.854 769.29H343.552V791.004H358.854V769.29Z" fill="#EBEBEB"/>
<path d="M250.439 804.578H235.137V826.293H250.439V804.578Z" fill="#EBEBEB"/>
<path d="M277.544 804.578H262.243V826.293H277.544V804.578Z" fill="#EBEBEB"/>
<path d="M304.647 804.578H289.345V826.293H304.647V804.578Z" fill="#EBEBEB"/>
<path d="M331.748 804.578H316.446V826.293H331.748V804.578Z" fill="#EBEBEB"/>
<path d="M358.854 804.578H343.552V826.293H358.854V804.578Z" fill="#EBEBEB"/>
<path d="M250.439 839.868H235.137V861.58H250.439V839.868Z" fill="#EBEBEB"/>
<path d="M277.544 839.868H262.243V861.58H277.544V839.868Z" fill="#EBEBEB"/>
<path d="M304.647 839.868H289.345V861.58H304.647V839.868Z" fill="#EBEBEB"/>
<path d="M331.748 839.868H316.446V861.58H331.748V839.868Z" fill="#EBEBEB"/>
<path d="M358.854 839.868H343.552V861.58H358.854V839.868Z" fill="#EBEBEB"/>
<path d="M250.439 875.159H235.137V896.873H250.439V875.159Z" fill="#EBEBEB"/>
<path d="M277.544 875.159H262.243V896.873H277.544V875.159Z" fill="#EBEBEB"/>
<path d="M304.647 875.159H289.345V896.873H304.647V875.159Z" fill="#EBEBEB"/>
<path d="M331.748 875.159H316.446V896.873H331.748V875.159Z" fill="#EBEBEB"/>
<path d="M358.854 875.159H343.552V896.873H358.854V875.159Z" fill="#EBEBEB"/>
<path d="M250.439 910.449H235.137V932.164H250.439V910.449Z" fill="#EBEBEB"/>
<path d="M277.544 910.449H262.243V932.164H277.544V910.449Z" fill="#EBEBEB"/>
<path d="M304.647 910.449H289.345V932.164H304.647V910.449Z" fill="#EBEBEB"/>
<path d="M331.748 910.449H316.446V932.164H331.748V910.449Z" fill="#EBEBEB"/>
<path d="M358.854 910.449H343.552V932.164H358.854V910.449Z" fill="#EBEBEB"/>
<path d="M250.439 945.739H235.137V967.454H250.439V945.739Z" fill="#EBEBEB"/>
<path d="M277.544 945.739H262.243V967.454H277.544V945.739Z" fill="#EBEBEB"/>
<path d="M304.647 945.739H289.345V967.454H304.647V945.739Z" fill="#EBEBEB"/>
<path d="M331.748 945.739H316.446V967.454H331.748V945.739Z" fill="#EBEBEB"/>
<path d="M358.854 945.739H343.552V967.454H358.854V945.739Z" fill="#EBEBEB"/>
<path d="M250.439 981.029H235.137V1002.74H250.439V981.029Z" fill="#EBEBEB"/>
<path d="M277.544 981.029H262.243V1002.74H277.544V981.029Z" fill="#EBEBEB"/>
<path d="M304.647 981.029H289.345V1002.74H304.647V981.029Z" fill="#EBEBEB"/>
<path d="M331.748 981.029H316.446V1002.74H331.748V981.029Z" fill="#EBEBEB"/>
<path d="M358.854 981.029H343.552V1002.74H358.854V981.029Z" fill="#EBEBEB"/>
<path d="M250.439 1016.32H235.137V1038.04H250.439V1016.32Z" fill="#EBEBEB"/>
<path d="M277.544 1016.32H262.243V1038.04H277.544V1016.32Z" fill="#EBEBEB"/>
<path d="M304.647 1016.32H289.345V1038.04H304.647V1016.32Z" fill="#EBEBEB"/>
<path d="M331.748 1016.32H316.446V1038.04H331.748V1016.32Z" fill="#EBEBEB"/>
<path d="M358.854 1016.32H343.552V1038.04H358.854V1016.32Z" fill="#EBEBEB"/>
<path d="M469.467 598.018H372.508V1150.41H469.467V598.018Z" fill="#DBDBDB"/>
<path d="M473.663 587.017H372.508V598.017H473.663V587.017Z" fill="#C7C7C7"/>
<path d="M401.464 614.229H386.163V1150.41H401.464V614.229Z" fill="#C7C7C7"/>
<path d="M428.567 614.229H413.265V1150.41H428.567V614.229Z" fill="#C7C7C7"/>
<path d="M455.672 614.229H440.371V1150.41H455.672V614.229Z" fill="#C7C7C7"/>
<path d="M401.464 628.127H386.163V649.84H401.464V628.127Z" fill="#DBDBDB"/>
<path d="M428.567 628.127H413.265V649.84H428.567V628.127Z" fill="#DBDBDB"/>
<path d="M455.672 628.127H440.37V649.84H455.672V628.127Z" fill="#DBDBDB"/>
<path d="M401.464 663.418H386.163V685.133H401.464V663.418Z" fill="#DBDBDB"/>
<path d="M428.567 663.418H413.265V685.133H428.567V663.418Z" fill="#DBDBDB"/>
<path d="M455.672 663.418H440.371V685.133H455.672V663.418Z" fill="#DBDBDB"/>
<path d="M401.464 698.709H386.163V720.424H401.464V698.709Z" fill="#DBDBDB"/>
<path d="M428.567 698.709H413.265V720.424H428.567V698.709Z" fill="#DBDBDB"/>
<path d="M455.672 698.709H440.371V720.424H455.672V698.709Z" fill="#DBDBDB"/>
<path d="M401.464 733.999H386.163V755.714H401.464V733.999Z" fill="#DBDBDB"/>
<path d="M428.567 733.999H413.265V755.714H428.567V733.999Z" fill="#DBDBDB"/>
<path d="M455.672 733.999H440.37V755.714H455.672V733.999Z" fill="#DBDBDB"/>
<path d="M401.464 769.29H386.163V791.004H401.464V769.29Z" fill="#DBDBDB"/>
<path d="M428.567 769.29H413.265V791.004H428.567V769.29Z" fill="#DBDBDB"/>
<path d="M455.672 769.29H440.37V791.004H455.672V769.29Z" fill="#DBDBDB"/>
<path d="M401.464 804.578H386.163V826.293H401.464V804.578Z" fill="#DBDBDB"/>
<path d="M428.567 804.578H413.265V826.293H428.567V804.578Z" fill="#DBDBDB"/>
<path d="M455.672 804.578H440.37V826.293H455.672V804.578Z" fill="#DBDBDB"/>
<path d="M401.464 839.868H386.163V861.58H401.464V839.868Z" fill="#DBDBDB"/>
<path d="M428.567 839.868H413.265V861.58H428.567V839.868Z" fill="#DBDBDB"/>
<path d="M455.672 839.868H440.371V861.58H455.672V839.868Z" fill="#DBDBDB"/>
<path d="M401.464 875.159H386.163V896.873H401.464V875.159Z" fill="#DBDBDB"/>
<path d="M428.567 875.159H413.265V896.873H428.567V875.159Z" fill="#DBDBDB"/>
<path d="M455.672 875.159H440.371V896.873H455.672V875.159Z" fill="#DBDBDB"/>
<path d="M401.464 910.449H386.163V932.164H401.464V910.449Z" fill="#DBDBDB"/>
<path d="M428.567 910.449H413.265V932.164H428.567V910.449Z" fill="#DBDBDB"/>
<path d="M455.672 910.449H440.37V932.164H455.672V910.449Z" fill="#DBDBDB"/>
<path d="M401.464 945.739H386.163V967.454H401.464V945.739Z" fill="#DBDBDB"/>
<path d="M428.567 945.739H413.265V967.454H428.567V945.739Z" fill="#DBDBDB"/>
<path d="M455.672 945.739H440.37V967.454H455.672V945.739Z" fill="#DBDBDB"/>
<path d="M401.464 981.029H386.163V1002.74H401.464V981.029Z" fill="#DBDBDB"/>
<path d="M428.567 981.029H413.265V1002.74H428.567V981.029Z" fill="#DBDBDB"/>
<path d="M455.672 981.029H440.371V1002.74H455.672V981.029Z" fill="#DBDBDB"/>
<path d="M401.464 1016.32H386.163V1038.04H401.464V1016.32Z" fill="#DBDBDB"/>
<path d="M428.567 1016.32H413.265V1038.04H428.567V1016.32Z" fill="#DBDBDB"/>
<path d="M455.672 1016.32H440.371V1038.04H455.672V1016.32Z" fill="#DBDBDB"/>
<path d="M196.124 763.459H52.8958V1150.41H196.124V763.459Z" fill="#EBEBEB"/>
<path d="M196.124 737.795H73.2655V763.458H196.124V737.795Z" fill="#C7C7C7"/>
<path d="M180.421 776.854H68.5981V1066.12H180.421V776.854Z" fill="#DBDBDB"/>
<path d="M180.421 804.458H68.5981V811.293H180.421V804.458Z" fill="white"/>
<path d="M180.421 832.773H68.5981V839.608H180.421V832.773Z" fill="white"/>
<path d="M180.421 861.086H68.5981V867.922H180.421V861.086Z" fill="white"/>
<path d="M180.421 889.402H68.5981V896.237H180.421V889.402Z" fill="white"/>
<path d="M180.421 917.715H68.5981V924.55H180.421V917.715Z" fill="white"/>
<path d="M180.421 946.03H68.5981V952.865H180.421V946.03Z" fill="white"/>
<path d="M180.421 974.344H68.5981V981.179H180.421V974.344Z" fill="white"/>
<path d="M180.421 1002.66H68.5981V1009.49H180.421V1002.66Z" fill="white"/>
<path d="M285.836 763.459H196.124V1150.41H285.836V763.459Z" fill="#DBDBDB"/>
<path d="M272.376 737.795H196.124V763.458H272.376V737.795Z" fill="#A6A6A6"/>
<path d="M277.47 776.854H208.492V1066.12H277.47V776.854Z" fill="#C7C7C7"/>
<path d="M277.47 804.458H208.492V811.293H277.47V804.458Z" fill="white"/>
<path d="M277.47 832.773H208.492V839.608H277.47V832.773Z" fill="white"/>
<path d="M277.47 861.086H208.492V867.922H277.47V861.086Z" fill="white"/>
<path d="M277.47 889.402H208.492V896.237H277.47V889.402Z" fill="white"/>
<path d="M277.47 917.715H208.492V924.55H277.47V917.715Z" fill="white"/>
<path d="M277.47 946.03H208.492V952.865H277.47V946.03Z" fill="white"/>
<path d="M277.47 974.344H208.492V981.179H277.47V974.344Z" fill="white"/>
<path d="M277.47 1002.66H208.492V1009.49H277.47V1002.66Z" fill="white"/>
<path d="M1306.5 769.983H1230.01V834.354H1306.5V769.983Z" fill="#DBDBDB"/>
<path d="M1355.01 769.983H1306.51V836.715H1355.01V769.983Z" fill="#C7C7C7"/>
<path d="M1358.24 798.408H1310.1V836.716H1358.24V798.408Z" fill="#DBDBDB"/>
<path d="M1388.26 798.408H1358.24V836.716H1388.26V798.408Z" fill="#C7C7C7"/>
<path d="M1324.37 830.171H1200.67V1150.41H1324.37V830.171Z" fill="#EBEBEB"/>
<path d="M1253.71 843.937H1214.81V855.258H1253.71V843.937Z" fill="white"/>
<path d="M1303.46 843.937H1264.57V855.258H1303.46V843.937Z" fill="white"/>
<path d="M1253.71 863.16H1214.81V874.482H1253.71V863.16Z" fill="white"/>
<path d="M1303.46 863.16H1264.57V874.482H1303.46V863.16Z" fill="white"/>
<path d="M1253.71 882.381H1214.81V893.703H1253.71V882.381Z" fill="white"/>
<path d="M1303.46 882.381H1264.57V893.703H1303.46V882.381Z" fill="white"/>
<path d="M1253.71 901.603H1214.81V912.924H1253.71V901.603Z" fill="white"/>
<path d="M1303.46 901.603H1264.57V912.924H1303.46V901.603Z" fill="white"/>
<path d="M1253.71 920.823H1214.81V932.145H1253.71V920.823Z" fill="white"/>
<path d="M1303.46 920.823H1264.57V932.145H1303.46V920.823Z" fill="white"/>
<path d="M1253.71 940.046H1214.81V951.368H1253.71V940.046Z" fill="white"/>
<path d="M1303.46 940.046H1264.57V951.368H1303.46V940.046Z" fill="white"/>
<path d="M1253.71 959.268H1214.81V970.589H1253.71V959.268Z" fill="white"/>
<path d="M1303.46 959.268H1264.57V970.589H1303.46V959.268Z" fill="white"/>
<path d="M1253.71 978.491H1214.81V989.812H1253.71V978.491Z" fill="white"/>
<path d="M1303.46 978.491H1264.57V989.812H1303.46V978.491Z" fill="white"/>
<path d="M1253.71 997.712H1214.81V1009.03H1253.71V997.712Z" fill="white"/>
<path d="M1303.46 997.712H1264.57V1009.03H1303.46V997.712Z" fill="white"/>
<path d="M1253.71 1016.94H1214.81V1028.26H1253.71V1016.94Z" fill="white"/>
<path d="M1303.46 1016.94H1264.57V1028.26H1303.46V1016.94Z" fill="white"/>
<path d="M1424.6 830.171H1324.37V1150.41H1424.6V830.171Z" fill="#C7C7C7"/>
<path d="M1382.61 1028.25H1414.55V1016.93H1382.61V1028.25Z" fill="#EBEBEB"/>
<path d="M1341.76 1028.25H1373.69V1016.93H1341.76V1028.25Z" fill="#EBEBEB"/>
<path d="M1382.61 1009.03H1414.55V997.712H1382.61V1009.03Z" fill="#EBEBEB"/>
<path d="M1341.76 1009.03H1373.69V997.712H1341.76V1009.03Z" fill="#EBEBEB"/>
<path d="M1382.61 989.81H1414.55V978.489H1382.61V989.81Z" fill="#EBEBEB"/>
<path d="M1341.76 989.81H1373.69V978.489H1341.76V989.81Z" fill="#EBEBEB"/>
<path d="M1382.61 970.589H1414.55V959.267H1382.61V970.589Z" fill="#EBEBEB"/>
<path d="M1341.76 970.589H1373.69V959.267H1341.76V970.589Z" fill="#EBEBEB"/>
<path d="M1382.61 951.366H1414.55V940.044H1382.61V951.366Z" fill="#EBEBEB"/>
<path d="M1341.76 951.366H1373.69V940.044H1341.76V951.366Z" fill="#EBEBEB"/>
<path d="M1382.61 932.145H1414.55V920.823H1382.61V932.145Z" fill="#EBEBEB"/>
<path d="M1341.76 932.145H1373.69V920.823H1341.76V932.145Z" fill="#EBEBEB"/>
<path d="M1382.61 912.923H1414.55V901.602H1382.61V912.923Z" fill="#EBEBEB"/>
<path d="M1341.76 912.923H1373.69V901.602H1341.76V912.923Z" fill="#EBEBEB"/>
<path d="M1382.61 893.702H1414.55V882.381H1382.61V893.702Z" fill="#EBEBEB"/>
<path d="M1341.76 893.702H1373.69V882.381H1341.76V893.702Z" fill="#EBEBEB"/>
<path d="M1382.61 874.479H1414.55V863.158H1382.61V874.479Z" fill="#EBEBEB"/>
<path d="M1341.76 874.479H1373.69V863.158H1341.76V874.479Z" fill="#EBEBEB"/>
<path d="M1382.61 855.258H1414.55V843.937H1382.61V855.258Z" fill="#EBEBEB"/>
<path d="M1341.76 855.258H1373.69V843.937H1341.76V855.258Z" fill="#EBEBEB"/>
<path d="M877.569 941.738H731.671V1150.41H877.569V941.738Z" fill="#C7C7C7"/>
<path d="M780.433 959.799H754.613V972.585H780.433V959.799Z" fill="#DBDBDB"/>
<path d="M780.433 987.106H754.613V999.891H780.433V987.106Z" fill="#DBDBDB"/>
<path d="M780.433 1014.41H754.613V1027.2H780.433V1014.41Z" fill="#DBDBDB"/>
<path d="M817.574 959.799H791.755V972.585H817.574V959.799Z" fill="#DBDBDB"/>
<path d="M817.574 987.106H791.755V999.891H817.574V987.106Z" fill="#DBDBDB"/>
<path d="M817.574 1014.41H791.755V1027.2H817.574V1014.41Z" fill="#DBDBDB"/>
<path d="M854.626 959.799H828.807V972.585H854.626V959.799Z" fill="#DBDBDB"/>
<path d="M854.626 987.106H828.807V999.891H854.626V987.106Z" fill="#DBDBDB"/>
<path d="M854.626 1014.41H828.807V1027.2H854.626V1014.41Z" fill="#DBDBDB"/>
<path d="M877.572 919.998H780.436V941.739H877.572V919.998Z" fill="#DBDBDB"/>
<path d="M877.569 906.536H815.988V919.997H877.569V906.536Z" fill="#EBEBEB"/>
<path d="M979.933 941.738H877.568V1150.41H979.933V941.738Z" fill="#A6A6A6"/>
<path d="M948.44 1025.16H969.458V1012.37H948.44V1025.16Z" fill="#C7C7C7"/>
<path d="M948.44 997.853H969.458V985.068H948.44V997.853Z" fill="#C7C7C7"/>
<path d="M948.44 970.546H969.458V957.761H948.44V970.546Z" fill="#C7C7C7"/>
<path d="M918.205 1025.16H939.223V1012.37H918.205V1025.16Z" fill="#C7C7C7"/>
<path d="M918.205 997.853H939.223V985.068H918.205V997.853Z" fill="#C7C7C7"/>
<path d="M918.205 970.546H939.223V957.761H918.205V970.546Z" fill="#C7C7C7"/>
<path d="M888.048 1025.16H909.066V1012.37H888.048V1025.16Z" fill="#C7C7C7"/>
<path d="M888.048 997.853H909.066V985.068H888.048V997.853Z" fill="#C7C7C7"/>
<path d="M888.048 970.546H909.066V957.761H888.048V970.546Z" fill="#C7C7C7"/>
<path d="M964.424 919.998H877.569V941.739H964.424V919.998Z" fill="#C7C7C7"/>
<path d="M924.636 906.536H877.568V919.997H924.636V906.536Z" fill="#DBDBDB"/>
<path d="M1262.3 650.843H1041.81V1133.11H1262.3V650.843Z" fill="#455A64"/>
<path d="M1261.47 602.329H1096.48V650.842H1261.47V602.329Z" fill="#37474F"/>
<path d="M1124.32 609.813H1110.22V643.359H1124.32V609.813Z" fill="#455A64"/>
<path d="M1149.01 609.813H1134.91V643.359H1149.01V609.813Z" fill="#455A64"/>
<path d="M1173.69 609.813H1159.58V643.359H1173.69V609.813Z" fill="#455A64"/>
<path d="M1198.37 609.813H1184.27V643.359H1198.37V609.813Z" fill="#455A64"/>
<path d="M1223.05 609.813H1208.95V643.359H1223.05V609.813Z" fill="#455A64"/>
<path d="M1247.73 609.813H1233.63V643.359H1247.73V609.813Z" fill="#455A64"/>
<path d="M1336.5 602.329H1261.47V650.842H1336.5V602.329Z" fill="#455A64"/>
<path d="M1283.99 609.813H1271.99V643.359H1283.99V609.813Z" fill="#37474F"/>
<path d="M1304.98 609.813H1292.99V643.359H1304.98V609.813Z" fill="#37474F"/>
<path d="M1325.98 609.813H1313.98V643.359H1325.98V609.813Z" fill="#37474F"/>
<path d="M1373.7 650.843H1261.47V1133.11H1373.7V650.843Z" fill="#37474F"/>
<path d="M1132.83 577.748H1127.78V602.328H1132.83V577.748Z" fill="#263238"/>
<path d="M1230.18 577.748H1225.13V602.328H1230.18V577.748Z" fill="#263238"/>
<path d="M1248.54 534.764H1109.42C1107.21 534.764 1105.42 536.555 1105.42 538.764V573.746C1105.42 575.955 1107.21 577.746 1109.42 577.746H1248.54C1250.75 577.746 1252.54 575.955 1252.54 573.746V538.764C1252.54 536.555 1250.75 534.764 1248.54 534.764Z" fill="#B2B2B2"/>
<path d="M1127.64 684.061H1086.94V728.454H1127.64V684.061Z" fill="#263238"/>
<path d="M1210.48 684.061H1169.79V728.454H1210.48V684.061Z" fill="#263238"/>
<path d="M1127.64 754.016H1086.94V798.41H1127.64V754.016Z" fill="#263238"/>
<path d="M1210.48 754.016H1169.79V798.41H1210.48V754.016Z" fill="#263238"/>
<path d="M1127.64 823.975H1086.94V868.368H1127.64V823.975Z" fill="#263238"/>
<path d="M1210.48 823.975H1169.79V868.368H1210.48V823.975Z" fill="#263238"/>
<path d="M1127.64 893.927H1086.94V938.321H1127.64V893.927Z" fill="#263238"/>
<path d="M1210.48 893.927H1169.79V938.321H1210.48V893.927Z" fill="#263238"/>
<path d="M1127.64 963.886H1086.94V1008.28H1127.64V963.886Z" fill="#263238"/>
<path d="M1210.48 963.886H1169.79V1008.28H1210.48V963.886Z" fill="#263238"/>
<path d="M1305.47 684.061H1282.09V728.454H1305.47V684.061Z" fill="#263238"/>
<path d="M1353.08 684.061H1329.69V728.454H1353.08V684.061Z" fill="#263238"/>
<path d="M1305.47 754.016H1282.09V798.41H1305.47V754.016Z" fill="#263238"/>
<path d="M1353.08 754.016H1329.69V798.41H1353.08V754.016Z" fill="#263238"/>
<path d="M1305.47 823.975H1282.09V868.368H1305.47V823.975Z" fill="#263238"/>
<path d="M1353.08 823.975H1329.69V868.368H1353.08V823.975Z" fill="#263238"/>
<path d="M1305.47 893.927H1282.09V938.321H1305.47V893.927Z" fill="#263238"/>
<path d="M1353.08 893.927H1329.69V938.321H1353.08V893.927Z" fill="#263238"/>
<path d="M1305.47 963.886H1282.09V1008.28H1305.47V963.886Z" fill="#263238"/>
<path d="M1353.08 963.886H1329.69V1008.28H1353.08V963.886Z" fill="#263238"/>
<path d="M678.004 514.418H560.068V1133.11H678.004V514.418Z" fill="#37474F"/>
<path d="M678.004 549.071H560.068V555.573H678.004V549.071Z" fill="#455A64"/>
<path d="M593.928 574.688H572.222V610.862H593.928V574.688Z" fill="#263238"/>
<path d="M593.928 620.329H572.222V656.502H593.928V620.329Z" fill="#263238"/>
<path d="M593.928 665.973H572.222V702.146H593.928V665.973Z" fill="#263238"/>
<path d="M593.928 711.59H572.222V747.763H593.928V711.59Z" fill="#263238"/>
<path d="M593.928 757.232H572.222V793.406H593.928V757.232Z" fill="#263238"/>
<path d="M593.928 802.875H572.222V839.048H593.928V802.875Z" fill="#263238"/>
<path d="M593.928 848.492H572.222V884.665H593.928V848.492Z" fill="#263238"/>
<path d="M593.928 894.131H572.222V930.304H593.928V894.131Z" fill="#263238"/>
<path d="M593.928 939.776H572.222V975.949H593.928V939.776Z" fill="#263238"/>
<path d="M593.928 985.393H572.222V1021.57H593.928V985.393Z" fill="#263238"/>
<path d="M593.928 574.688H572.222V610.862H593.928V574.688Z" fill="#263238"/>
<path d="M593.928 620.329H572.222V656.502H593.928V620.329Z" fill="#263238"/>
<path d="M593.928 665.973H572.222V702.146H593.928V665.973Z" fill="#263238"/>
<path d="M593.928 711.59H572.222V747.763H593.928V711.59Z" fill="#263238"/>
<path d="M593.928 757.232H572.222V793.406H593.928V757.232Z" fill="#263238"/>
<path d="M593.928 802.875H572.222V839.048H593.928V802.875Z" fill="#263238"/>
<path d="M593.928 848.492H572.222V884.665H593.928V848.492Z" fill="#263238"/>
<path d="M593.928 894.131H572.222V930.304H593.928V894.131Z" fill="#263238"/>
<path d="M593.928 939.776H572.222V975.949H593.928V939.776Z" fill="#263238"/>
<path d="M593.928 985.393H572.222V1021.57H593.928V985.393Z" fill="#263238"/>
<path d="M629.89 574.688H608.184V610.862H629.89V574.688Z" fill="#263238"/>
<path d="M629.89 620.329H608.184V656.502H629.89V620.329Z" fill="#263238"/>
<path d="M629.89 665.973H608.184V702.146H629.89V665.973Z" fill="#263238"/>
<path d="M629.89 711.59H608.184V747.763H629.89V711.59Z" fill="#263238"/>
<path d="M629.89 757.232H608.184V793.406H629.89V757.232Z" fill="#263238"/>
<path d="M629.89 802.875H608.184V839.048H629.89V802.875Z" fill="#263238"/>
<path d="M629.89 848.492H608.184V884.665H629.89V848.492Z" fill="#263238"/>
<path d="M629.89 894.131H608.184V930.304H629.89V894.131Z" fill="#263238"/>
<path d="M629.89 939.776H608.184V975.949H629.89V939.776Z" fill="#263238"/>
<path d="M629.89 985.393H608.184V1021.57H629.89V985.393Z" fill="#263238"/>
<path d="M629.89 574.688H608.184V610.862H629.89V574.688Z" fill="#263238"/>
<path d="M629.89 620.329H608.184V656.502H629.89V620.329Z" fill="#263238"/>
<path d="M629.89 665.973H608.184V702.146H629.89V665.973Z" fill="#263238"/>
<path d="M629.89 711.59H608.184V747.763H629.89V711.59Z" fill="#263238"/>
<path d="M629.89 757.232H608.184V793.406H629.89V757.232Z" fill="#263238"/>
<path d="M629.89 802.875H608.184V839.048H629.89V802.875Z" fill="#263238"/>
<path d="M629.89 848.492H608.184V884.665H629.89V848.492Z" fill="#263238"/>
<path d="M629.89 894.131H608.184V930.304H629.89V894.131Z" fill="#263238"/>
<path d="M629.89 939.776H608.184V975.949H629.89V939.776Z" fill="#263238"/>
<path d="M629.89 985.393H608.184V1021.57H629.89V985.393Z" fill="#263238"/>
<path d="M665.85 574.688H644.144V610.862H665.85V574.688Z" fill="#263238"/>
<path d="M665.85 620.329H644.144V656.502H665.85V620.329Z" fill="#263238"/>
<path d="M665.85 665.973H644.144V702.146H665.85V665.973Z" fill="#263238"/>
<path d="M665.85 711.59H644.144V747.763H665.85V711.59Z" fill="#263238"/>
<path d="M665.85 757.232H644.144V793.406H665.85V757.232Z" fill="#263238"/>
<path d="M665.85 802.875H644.144V839.048H665.85V802.875Z" fill="#263238"/>
<path d="M665.85 848.492H644.144V884.665H665.85V848.492Z" fill="#263238"/>
<path d="M665.85 894.131H644.144V930.304H665.85V894.131Z" fill="#263238"/>
<path d="M665.85 939.776H644.144V975.949H665.85V939.776Z" fill="#263238"/>
<path d="M665.85 985.393H644.144V1021.57H665.85V985.393Z" fill="#263238"/>
<path d="M665.85 574.688H644.144V610.862H665.85V574.688Z" fill="#263238"/>
<path d="M665.85 620.329H644.144V656.502H665.85V620.329Z" fill="#263238"/>
<path d="M665.85 665.973H644.144V702.146H665.85V665.973Z" fill="#263238"/>
<path d="M665.85 711.59H644.144V747.763H665.85V711.59Z" fill="#263238"/>
<path d="M665.85 757.232H644.144V793.406H665.85V757.232Z" fill="#263238"/>
<path d="M665.85 802.875H644.144V839.048H665.85V802.875Z" fill="#263238"/>
<path d="M665.85 848.492H644.144V884.665H665.85V848.492Z" fill="#263238"/>
<path d="M665.85 894.131H644.144V930.304H665.85V894.131Z" fill="#263238"/>
<path d="M665.85 939.776H644.144V975.949H665.85V939.776Z" fill="#263238"/>
<path d="M665.85 985.393H644.144V1021.57H665.85V985.393Z" fill="#263238"/>
<path d="M560.068 514.418H358.453V1133.11H560.068V514.418Z" fill="#455A64"/>
<path d="M560.068 549.071H358.453V555.573H560.068V549.071Z" fill="#37474F"/>
<path d="M560.068 479.657H430.317V514.417H560.068V479.657Z" fill="#37474F"/>
<path d="M560.069 514.418H621.039V479.659H560.069V514.418Z" fill="#263238"/>
<path d="M415.3 574.688H380.056V610.862H415.3V574.688Z" fill="#263238"/>
<path d="M415.3 620.329H380.056V656.502H415.3V620.329Z" fill="#263238"/>
<path d="M415.3 665.973H380.056V702.146H415.3V665.973Z" fill="#263238"/>
<path d="M415.3 711.59H380.056V747.763H415.3V711.59Z" fill="#263238"/>
<path d="M415.3 757.232H380.056V793.406H415.3V757.232Z" fill="#263238"/>
<path d="M415.3 802.875H380.056V839.048H415.3V802.875Z" fill="#263238"/>
<path d="M415.3 848.492H380.056V884.665H415.3V848.492Z" fill="#263238"/>
<path d="M415.3 894.131H380.056V930.304H415.3V894.131Z" fill="#263238"/>
<path d="M415.3 939.776H380.056V975.949H415.3V939.776Z" fill="#263238"/>
<path d="M415.3 985.393H380.056V1021.57H415.3V985.393Z" fill="#263238"/>
<path d="M415.3 574.688H380.056V610.862H415.3V574.688Z" fill="#263238"/>
<path d="M415.3 620.329H380.056V656.502H415.3V620.329Z" fill="#263238"/>
<path d="M415.3 665.973H380.056V702.146H415.3V665.973Z" fill="#263238"/>
<path d="M415.3 711.59H380.056V747.763H415.3V711.59Z" fill="#263238"/>
<path d="M415.3 757.232H380.056V793.406H415.3V757.232Z" fill="#263238"/>
<path d="M415.3 802.875H380.056V839.048H415.3V802.875Z" fill="#263238"/>
<path d="M415.3 848.492H380.056V884.665H415.3V848.492Z" fill="#263238"/>
<path d="M415.3 894.131H380.056V930.304H415.3V894.131Z" fill="#263238"/>
<path d="M415.3 939.776H380.056V975.949H415.3V939.776Z" fill="#263238"/>
<path d="M415.3 985.393H380.056V1021.57H415.3V985.393Z" fill="#263238"/>
<path d="M473.684 574.688H438.44V610.862H473.684V574.688Z" fill="#263238"/>
<path d="M473.684 620.329H438.44V656.502H473.684V620.329Z" fill="#263238"/>
<path d="M473.684 665.973H438.44V702.146H473.684V665.973Z" fill="#263238"/>
<path d="M473.684 711.59H438.44V747.763H473.684V711.59Z" fill="#263238"/>
<path d="M473.684 757.232H438.44V793.406H473.684V757.232Z" fill="#263238"/>
<path d="M473.684 802.875H438.44V839.048H473.684V802.875Z" fill="#263238"/>
<path d="M473.684 848.492H438.44V884.665H473.684V848.492Z" fill="#263238"/>
<path d="M473.684 894.131H438.44V930.304H473.684V894.131Z" fill="#263238"/>
<path d="M473.684 939.776H438.44V975.949H473.684V939.776Z" fill="#263238"/>
<path d="M473.684 985.393H438.44V1021.57H473.684V985.393Z" fill="#263238"/>
<path d="M473.684 574.688H438.44V610.862H473.684V574.688Z" fill="#263238"/>
<path d="M473.684 620.329H438.44V656.502H473.684V620.329Z" fill="#263238"/>
<path d="M473.684 665.973H438.44V702.146H473.684V665.973Z" fill="#263238"/>
<path d="M473.684 711.59H438.44V747.763H473.684V711.59Z" fill="#263238"/>
<path d="M473.684 757.232H438.44V793.406H473.684V757.232Z" fill="#263238"/>
<path d="M473.684 802.875H438.44V839.048H473.684V802.875Z" fill="#263238"/>
<path d="M473.684 848.492H438.44V884.665H473.684V848.492Z" fill="#263238"/>
<path d="M473.684 894.131H438.44V930.304H473.684V894.131Z" fill="#263238"/>
<path d="M473.684 939.776H438.44V975.949H473.684V939.776Z" fill="#263238"/>
<path d="M473.684 985.393H438.44V1021.57H473.684V985.393Z" fill="#263238"/>
<path d="M532.067 574.688H496.823V610.862H532.067V574.688Z" fill="#263238"/>
<path d="M532.067 620.329H496.823V656.502H532.067V620.329Z" fill="#263238"/>
<path d="M532.067 665.973H496.823V702.146H532.067V665.973Z" fill="#263238"/>
<path d="M532.067 711.59H496.823V747.763H532.067V711.59Z" fill="#263238"/>
<path d="M532.067 757.232H496.823V793.406H532.067V757.232Z" fill="#263238"/>
<path d="M532.067 802.875H496.823V839.048H532.067V802.875Z" fill="#263238"/>
<path d="M532.067 848.492H496.823V884.665H532.067V848.492Z" fill="#263238"/>
<path d="M532.067 894.131H496.823V930.304H532.067V894.131Z" fill="#263238"/>
<path d="M532.067 939.776H496.823V975.949H532.067V939.776Z" fill="#263238"/>
<path d="M532.067 985.393H496.823V1021.57H532.067V985.393Z" fill="#263238"/>
<path d="M532.067 574.688H496.823V610.862H532.067V574.688Z" fill="#263238"/>
<path d="M532.067 620.329H496.823V656.502H532.067V620.329Z" fill="#263238"/>
<path d="M532.067 665.973H496.823V702.146H532.067V665.973Z" fill="#263238"/>
<path d="M532.067 711.59H496.823V747.763H532.067V711.59Z" fill="#263238"/>
<path d="M532.067 757.232H496.823V793.406H532.067V757.232Z" fill="#263238"/>
<path d="M532.067 802.875H496.823V839.048H532.067V802.875Z" fill="#263238"/>
<path d="M532.067 848.492H496.823V884.665H532.067V848.492Z" fill="#263238"/>
<path d="M532.067 894.131H496.823V930.304H532.067V894.131Z" fill="#263238"/>
<path d="M532.067 939.776H496.823V975.949H532.067V939.776Z" fill="#263238"/>
<path d="M532.067 985.393H496.823V1021.57H532.067V985.393Z" fill="#263238"/>
<path d="M281.937 1133.11H122.105V775.935L281.937 702.145V1133.11Z" fill="#B2B2B2"/>
<path d="M261.394 1133.11H140.092V785.928L261.394 729.925V1133.11Z" fill="#B2B2B2"/>
<path opacity="0.3" d="M261.394 1133.11H140.092V785.928L261.394 729.925V1133.11Z" fill="black"/>
<g opacity="0.3">
<path d="M261.39 791.938H153.984V794.692H261.39V791.938Z" fill="black"/>
<path d="M261.39 814.497H153.984V817.251H261.39V814.497Z" fill="black"/>
<path d="M261.39 837.061H153.984V839.814H261.39V837.061Z" fill="black"/>
<path d="M261.39 859.622H153.984V862.375H261.39V859.622Z" fill="black"/>
<path d="M261.39 882.182H153.984V884.936H261.39V882.182Z" fill="black"/>
<path d="M261.39 904.743H153.984V907.496H261.39V904.743Z" fill="black"/>
<path d="M261.39 927.306H153.984V930.06H261.39V927.306Z" fill="black"/>
<path d="M261.39 949.865H153.984V952.618H261.39V949.865Z" fill="black"/>
<path d="M261.39 972.428H153.984V975.181H261.39V972.428Z" fill="black"/>
<path d="M261.39 994.989H153.984V997.742H261.39V994.989Z" fill="black"/>
<path d="M261.39 1017.55H153.984V1020.3H261.39V1017.55Z" fill="black"/>
<path d="M205.754 765.72L205.754 1133.11H209.62L209.62 765.72H205.754Z" fill="black"/>
</g>
<path d="M261.39 729.923V742.351L153.984 791.938V1133.11H140.102V785.921L261.39 729.923Z" fill="#B2B2B2"/>
<path opacity="0.2" d="M261.39 729.923V742.351L153.984 791.938V1133.11H140.102V785.921L261.39 729.923Z" fill="black"/>
<path d="M422.747 702.145H281.938V1133.11H422.747V702.145Z" fill="#B2B2B2"/>
<path opacity="0.2" d="M422.747 702.145H281.938V1133.11H422.747V702.145Z" fill="black"/>
<g opacity="0.2">
<path d="M409.086 729.923H295.599V739.676H409.086V729.923Z" fill="black"/>
<path d="M409.086 752.023H295.599V761.777H409.086V752.023Z" fill="black"/>
<path d="M409.086 774.125H295.599V783.878H409.086V774.125Z" fill="black"/>
<path d="M409.086 796.228H295.599V805.981H409.086V796.228Z" fill="black"/>
<path d="M409.086 818.326H295.599V828.079H409.086V818.326Z" fill="black"/>
<path d="M409.086 840.427H295.599V850.18H409.086V840.427Z" fill="black"/>
<path d="M409.086 862.527H295.599V872.28H409.086V862.527Z" fill="black"/>
<path d="M409.086 884.628H295.599V894.381H409.086V884.628Z" fill="black"/>
<path d="M409.086 906.729H295.599V916.482H409.086V906.729Z" fill="black"/>
<path d="M409.086 928.83H295.599V938.583H409.086V928.83Z" fill="black"/>
<path d="M409.086 950.93H295.599V960.683H409.086V950.93Z" fill="black"/>
<path d="M409.086 973.033H295.599V982.786H409.086V973.033Z" fill="black"/>
<path d="M409.086 995.131H295.599V1004.88H409.086V995.131Z" fill="black"/>
<path d="M409.086 1017.23H295.599V1026.99H409.086V1017.23Z" fill="black"/>
</g>
<path d="M1004.99 676.807H878.294V1133.11H1004.99V676.807Z" fill="#B2B2B2"/>
<path opacity="0.2" d="M1004.99 676.807H878.294V1133.11H1004.99V676.807Z" fill="black"/>
<path d="M878.297 676.807H1012.57V661.853H878.297V676.807Z" fill="#B2B2B2"/>
<path d="M878.296 661.851H992.143V638.506H878.296V661.851Z" fill="#B2B2B2"/>
<path opacity="0.2" d="M878.296 661.851H992.143V638.506H878.296V661.851Z" fill="black"/>
<path d="M878.296 638.509H965.396V587.018H878.296V638.509Z" fill="#B2B2B2"/>
<path opacity="0.3" d="M878.296 638.509H965.396V587.018H878.296V638.509Z" fill="black"/>
<g opacity="0.3">
<path d="M907.628 694.104H890.442V742.098H907.628V694.104Z" fill="black"/>
</g>
<g opacity="0.3">
<path d="M907.628 759.488H890.442V807.482H907.628V759.488Z" fill="black"/>
</g>
<g opacity="0.3">
<path d="M907.628 824.875H890.442V872.869H907.628V824.875Z" fill="black"/>
</g>
<g opacity="0.3">
<path d="M907.628 890.258H890.442V938.252H907.628V890.258Z" fill="black"/>
</g>
<g opacity="0.3">
<path d="M907.628 955.642H890.442V1003.64H907.628V955.642Z" fill="black"/>
</g>
<g opacity="0.3">
<path d="M907.628 1021.03H890.442V1069.02H907.628V1021.03Z" fill="black"/>
</g>
<g opacity="0.3">
<path d="M936.033 694.104H918.847V742.098H936.033V694.104Z" fill="black"/>
</g>
<g opacity="0.3">
<path d="M936.033 759.488H918.847V807.482H936.033V759.488Z" fill="black"/>
</g>
<g opacity="0.3">
<path d="M936.033 824.875H918.847V872.869H936.033V824.875Z" fill="black"/>
</g>
<g opacity="0.3">
<path d="M936.033 890.258H918.847V938.252H936.033V890.258Z" fill="black"/>
</g>
<g opacity="0.3">
<path d="M936.033 955.642H918.847V1003.64H936.033V955.642Z" fill="black"/>
</g>
<g opacity="0.3">
<path d="M936.033 1021.03H918.847V1069.02H936.033V1021.03Z" fill="black"/>
</g>
<g opacity="0.3">
<path d="M964.442 694.104H947.256V742.098H964.442V694.104Z" fill="black"/>
</g>
<g opacity="0.3">
<path d="M964.442 759.488H947.256V807.482H964.442V759.488Z" fill="black"/>
</g>
<g opacity="0.3">
<path d="M964.442 824.875H947.256V872.869H964.442V824.875Z" fill="black"/>
</g>
<g opacity="0.3">
<path d="M964.442 890.258H947.256V938.252H964.442V890.258Z" fill="black"/>
</g>
<g opacity="0.3">
<path d="M964.442 955.642H947.256V1003.64H964.442V955.642Z" fill="black"/>
</g>
<g opacity="0.3">
<path d="M964.442 1021.03H947.256V1069.02H964.442V1021.03Z" fill="black"/>
</g>
<g opacity="0.3">
<path d="M992.847 694.104H975.661V742.098H992.847V694.104Z" fill="black"/>
</g>
<g opacity="0.3">
<path d="M992.847 759.488H975.661V807.482H992.847V759.488Z" fill="black"/>
</g>
<g opacity="0.3">
<path d="M992.847 824.875H975.661V872.869H992.847V824.875Z" fill="black"/>
</g>
<g opacity="0.3">
<path d="M992.847 890.258H975.661V938.252H992.847V890.258Z" fill="black"/>
</g>
<g opacity="0.3">
<path d="M992.847 955.642H975.661V1003.64H992.847V955.642Z" fill="black"/>
</g>
<g opacity="0.3">
<path d="M992.847 1021.03H975.661V1069.02H992.847V1021.03Z" fill="black"/>
</g>
<path d="M878.294 676.807H618.585V1133.11H878.294V676.807Z" fill="#B2B2B2"/>
<path d="M878.298 638.509H631.028V661.854H878.298V638.509Z" fill="#B2B2B2"/>
<path d="M878.294 587.017H692.231V638.508H878.294V587.017Z" fill="#B2B2B2"/>
<path opacity="0.2" d="M878.294 587.017H692.231V638.508H878.294V587.017Z" fill="black"/>
<path d="M878.298 661.855H610.815V676.809H878.298V661.855Z" fill="#B2B2B2"/>
<path opacity="0.2" d="M878.298 661.855H610.815V676.809H878.298V661.855Z" fill="black"/>
<g opacity="0.3">
<path d="M678.667 694.104H643.416V742.098H678.667V694.104Z" fill="black"/>
</g>
<g opacity="0.3">
<path d="M678.667 759.488H643.416V807.482H678.667V759.488Z" fill="black"/>
</g>
<g opacity="0.3">
<path d="M678.667 824.875H643.416V872.869H678.667V824.875Z" fill="black"/>
</g>
<g opacity="0.3">
<path d="M678.667 890.258H643.416V938.252H678.667V890.258Z" fill="black"/>
</g>
<g opacity="0.3">
<path d="M678.667 955.642H643.416V1003.64H678.667V955.642Z" fill="black"/>
</g>
<g opacity="0.3">
<path d="M678.667 1021.03H643.416V1069.02H678.667V1021.03Z" fill="black"/>
</g>
<g opacity="0.3">
<path d="M736.934 694.104H701.683V742.098H736.934V694.104Z" fill="black"/>
</g>
<g opacity="0.3">
<path d="M736.934 759.488H701.683V807.482H736.934V759.488Z" fill="black"/>
</g>
<g opacity="0.3">
<path d="M736.934 824.875H701.683V872.869H736.934V824.875Z" fill="black"/>
</g>
<g opacity="0.3">
<path d="M736.934 890.258H701.683V938.252H736.934V890.258Z" fill="black"/>
</g>
<g opacity="0.3">
<path d="M736.934 955.642H701.683V1003.64H736.934V955.642Z" fill="black"/>
</g>
<g opacity="0.3">
<path d="M736.934 1021.03H701.683V1069.02H736.934V1021.03Z" fill="black"/>
</g>
<g opacity="0.3">
<path d="M795.197 694.104H759.946V742.098H795.197V694.104Z" fill="black"/>
</g>
<g opacity="0.3">
<path d="M795.197 759.488H759.946V807.482H795.197V759.488Z" fill="black"/>
</g>
<g opacity="0.3">
<path d="M795.197 824.875H759.946V872.869H795.197V824.875Z" fill="black"/>
</g>
<g opacity="0.3">
<path d="M795.197 890.258H759.946V938.252H795.197V890.258Z" fill="black"/>
</g>
<g opacity="0.3">
<path d="M795.197 955.642H759.946V1003.64H795.197V955.642Z" fill="black"/>
</g>
<g opacity="0.3">
<path d="M795.197 1021.03H759.946V1069.02H795.197V1021.03Z" fill="black"/>
</g>
<g opacity="0.3">
<path d="M853.468 694.104H818.214V742.098H853.468V694.104Z" fill="black"/>
</g>
<g opacity="0.3">
<path d="M853.468 759.488H818.214V807.482H853.468V759.488Z" fill="black"/>
</g>
<g opacity="0.3">
<path d="M853.468 824.875H818.214V872.869H853.468V824.875Z" fill="black"/>
</g>
<g opacity="0.3">
<path d="M853.468 890.258H818.214V938.252H853.468V890.258Z" fill="black"/>
</g>
<g opacity="0.3">
<path d="M853.468 955.642H818.214V1003.64H853.468V955.642Z" fill="black"/>
</g>
<g opacity="0.3">
<path d="M853.468 1021.03H818.214V1069.02H853.468V1021.03Z" fill="black"/>
</g>
<path d="M1264.93 872.912H1138.23V1133.11H1264.93V872.912Z" fill="#B2B2B2"/>
<path opacity="0.2" d="M1264.93 872.912H1138.23V1133.11H1264.93V872.912Z" fill="black"/>
<path d="M1138.23 872.912H1272.51V857.959H1138.23V872.912Z" fill="#B2B2B2"/>
<path d="M1138.23 857.958H1252.08V834.613H1138.23V857.958Z" fill="#B2B2B2"/>
<path opacity="0.2" d="M1138.23 857.958H1252.08V834.613H1138.23V857.958Z" fill="black"/>
<g opacity="0.3">
<path d="M1167.56 890.21H1150.38V938.204H1167.56V890.21Z" fill="black"/>
</g>
<g opacity="0.3">
<path d="M1167.56 955.591H1150.38V1003.59H1167.56V955.591Z" fill="black"/>
</g>
<g opacity="0.3">
<path d="M1167.56 1020.98H1150.38V1068.97H1167.56V1020.98Z" fill="black"/>
</g>
<g opacity="0.3">
<path d="M1195.97 890.21H1178.78V938.204H1195.97V890.21Z" fill="black"/>
</g>
<g opacity="0.3">
<path d="M1195.97 955.591H1178.78V1003.59H1195.97V955.591Z" fill="black"/>
</g>
<g opacity="0.3">
<path d="M1195.97 1020.98H1178.78V1068.97H1195.97V1020.98Z" fill="black"/>
</g>
<g opacity="0.3">
<path d="M1224.38 890.21H1207.19V938.204H1224.38V890.21Z" fill="black"/>
</g>
<g opacity="0.3">
<path d="M1224.38 955.591H1207.19V1003.59H1224.38V955.591Z" fill="black"/>
</g>
<g opacity="0.3">
<path d="M1224.38 1020.98H1207.19V1068.97H1224.38V1020.98Z" fill="black"/>
</g>
<g opacity="0.3">
<path d="M1252.79 890.21H1235.6V938.204H1252.79V890.21Z" fill="black"/>
</g>
<g opacity="0.3">
<path d="M1252.79 955.591H1235.6V1003.59H1252.79V955.591Z" fill="black"/>
</g>
<g opacity="0.3">
<path d="M1252.79 1020.98H1235.6V1068.97H1252.79V1020.98Z" fill="black"/>
</g>
<path d="M1138.23 872.91H878.521V1133.11H1138.23V872.91Z" fill="#B2B2B2"/>
<path d="M1138.23 834.611H890.963V857.956H1138.23V834.611Z" fill="#B2B2B2"/>
<path d="M1138.23 857.956H870.75V872.909H1138.23V857.956Z" fill="#B2B2B2"/>
<path opacity="0.2" d="M1138.23 857.956H870.75V872.909H1138.23V857.956Z" fill="black"/>
<g opacity="0.3">
<path d="M938.603 890.209H903.352V938.203H938.603V890.209Z" fill="black"/>
</g>
<g opacity="0.3">
<path d="M938.603 955.59H903.352V1003.58H938.603V955.59Z" fill="black"/>
</g>
<g opacity="0.3">
<path d="M938.603 1020.98H903.352V1068.97H938.603V1020.98Z" fill="black"/>
</g>
<g opacity="0.3">
<path d="M996.873 890.209H961.618V938.203H996.873V890.209Z" fill="black"/>
</g>
<g opacity="0.3">
<path d="M996.873 955.59H961.618V1003.58H996.873V955.59Z" fill="black"/>
</g>
<g opacity="0.3">
<path d="M996.873 1020.98H961.618V1068.97H996.873V1020.98Z" fill="black"/>
</g>
<g opacity="0.3">
<path d="M1055.14 890.209H1019.88V938.203H1055.14V890.209Z" fill="black"/>
</g>
<g opacity="0.3">
<path d="M1055.14 955.59H1019.88V1003.58H1055.14V955.59Z" fill="black"/>
</g>
<g opacity="0.3">
<path d="M1055.14 1020.98H1019.88V1068.97H1055.14V1020.98Z" fill="black"/>
</g>
<g opacity="0.3">
<path d="M1113.4 890.209H1078.15V938.203H1113.4V890.209Z" fill="black"/>
</g>
<g opacity="0.3">
<path d="M1113.4 955.59H1078.15V1003.58H1113.4V955.59Z" fill="black"/>
</g>
<g opacity="0.3">
<path d="M1113.4 1020.98H1078.15V1068.97H1113.4V1020.98Z" fill="black"/>
</g>
<path d="M1036.81 505.21C1035.08 504.57 1033.29 504.049 1031.45 503.577C1029.6 503.142 1027.75 502.709 1025.62 502.618C1025.08 502.609 1024.51 502.599 1023.81 502.761C1023.64 502.794 1023.44 502.873 1023.25 502.949C1023.11 503.016 1023.01 503.07 1022.89 503.132C1022.66 503.251 1022.47 503.375 1022.27 503.499C1021.48 503.994 1020.81 504.506 1020.14 505.029C1018.83 506.081 1017.66 507.176 1016.49 508.302L1017.94 507.94C1015.97 507.547 1014.02 507.243 1011.98 507.045C1010.97 506.957 1009.94 506.886 1008.87 506.89C1008.33 506.895 1007.79 506.909 1007.22 506.974C1006.94 506.99 1006.62 507.074 1006.33 507.128C1006.03 507.197 1005.72 507.326 1005.43 507.428C1004.42 507.907 1003.75 508.466 1003.08 509.035C1002.43 509.608 1001.87 510.206 1001.32 510.808C1000.27 512.029 999.317 513.278 998.549 514.594C999.828 513.502 1001.06 512.405 1002.38 511.374C1003.02 510.855 1003.68 510.344 1004.38 509.884C1005.06 509.432 1005.78 508.963 1006.47 508.723C1007.02 508.535 1007.9 508.53 1008.81 508.559C1009.71 508.594 1010.65 508.704 1011.59 508.83C1013.46 509.068 1015.36 509.401 1017.2 509.756L1018.12 509.934L1018.65 509.394C1019.72 508.299 1020.88 507.219 1022.04 506.179C1022.62 505.66 1023.22 505.146 1023.84 504.703C1023.99 504.598 1024.15 504.479 1024.3 504.396L1024.51 504.268C1024.53 504.263 1024.53 504.241 1024.6 504.227C1024.8 504.151 1025.21 504.099 1025.62 504.082C1027.34 504.037 1029.27 504.244 1031.13 504.465C1033.02 504.679 1034.9 504.958 1036.81 505.21Z" fill="#263238"/>
<path d="M433.598 452.002C432.044 451.169 430.394 450.446 428.694 449.77C426.963 449.122 425.242 448.482 423.157 448.147C422.623 448.073 422.072 447.999 421.337 448.078C421.166 448.09 420.946 448.144 420.745 448.197C420.585 448.247 420.485 448.289 420.351 448.337C420.087 448.427 419.88 448.527 419.649 448.625C418.764 449.02 417.979 449.448 417.204 449.886C415.664 450.772 414.26 451.717 412.847 452.69L414.361 452.502C412.503 451.886 410.652 451.36 408.691 450.926C407.709 450.722 406.716 450.531 405.657 450.41C405.126 450.353 404.588 450.303 404.004 450.3C403.73 450.286 403.392 450.329 403.092 450.348C402.781 450.381 402.45 450.472 402.143 450.541C401.03 450.893 400.238 451.367 399.453 451.852C398.685 452.345 397.986 452.866 397.312 453.397C395.995 454.48 394.766 455.601 393.707 456.81C395.217 455.882 396.69 454.941 398.224 454.078C398.979 453.64 399.747 453.211 400.539 452.84C401.314 452.473 402.133 452.093 402.874 451.938C403.456 451.817 404.328 451.914 405.213 452.047C406.098 452.19 407 452.407 407.896 452.638C409.687 453.09 411.494 453.64 413.221 454.204L414.09 454.487L414.735 454.016C416.041 453.061 417.438 452.128 418.821 451.238C419.512 450.793 420.221 450.358 420.932 449.991C421.109 449.908 421.29 449.808 421.457 449.741L421.697 449.639C421.724 449.636 421.724 449.615 421.791 449.608C422.005 449.556 422.426 449.553 422.833 449.584C424.537 449.739 426.392 450.167 428.176 450.603C429.983 451.038 431.774 451.533 433.598 452.002Z" fill="#263238"/>
<path d="M481.267 446.504C479.643 444.784 477.802 443.184 475.861 441.63C473.857 440.109 471.859 438.603 469.143 437.399C468.434 437.108 467.706 436.811 466.617 436.666C466.363 436.623 466.015 436.623 465.695 436.628C465.434 436.642 465.26 436.666 465.04 436.687C464.606 436.725 464.241 436.794 463.847 436.849C462.324 437.101 460.917 437.432 459.517 437.782C456.731 438.496 454.095 439.345 451.422 440.231L453.694 440.493C451.489 438.972 449.23 437.579 446.751 436.282C445.502 435.649 444.225 435.033 442.812 434.493C442.101 434.224 441.372 433.967 440.547 433.76C440.169 433.643 439.665 433.586 439.221 433.51C438.756 433.45 438.228 433.462 437.744 433.453C435.923 433.564 434.48 433.957 433.036 434.369C431.61 434.795 430.263 435.29 428.944 435.806C426.334 436.88 423.822 438.036 421.493 439.379C424.273 438.593 426.999 437.777 429.769 437.089C431.139 436.732 432.519 436.397 433.895 436.147C435.248 435.897 436.665 435.647 437.817 435.685C438.726 435.716 439.892 436.159 441.052 436.658C442.208 437.168 443.337 437.791 444.443 438.432C446.664 439.698 448.846 441.107 450.904 442.508L451.936 443.213L453.173 442.77C455.682 441.875 458.294 441.042 460.867 440.266C462.15 439.879 463.453 439.507 464.712 439.238C465.016 439.181 465.344 439.103 465.625 439.069L466.035 439.007C466.072 439.012 466.086 438.984 466.189 438.998C466.527 439 467.125 439.141 467.683 439.326C469.988 440.14 472.317 441.395 474.545 442.635C476.813 443.877 479.008 445.2 481.267 446.504Z" fill="#263238"/>
<path d="M1083.78 535.763C1082.16 534.042 1080.32 532.443 1078.38 530.889C1076.37 529.368 1074.37 527.861 1071.66 526.657C1070.95 526.367 1070.22 526.069 1069.13 525.924C1068.88 525.881 1068.53 525.881 1068.21 525.886C1067.94 525.9 1067.77 525.926 1067.55 525.945C1067.12 525.981 1066.75 526.05 1066.36 526.107C1064.83 526.359 1063.43 526.69 1062.03 527.04C1059.24 527.754 1056.61 528.604 1053.93 529.489L1056.2 529.751C1054 528.23 1051.74 526.838 1049.26 525.541C1048.01 524.908 1046.74 524.291 1045.32 523.751C1044.61 523.482 1043.88 523.225 1043.06 523.018C1042.68 522.901 1042.18 522.844 1041.73 522.768C1041.27 522.709 1040.74 522.72 1040.25 522.711C1038.44 522.823 1036.99 523.216 1035.55 523.627C1034.12 524.056 1032.78 524.551 1031.45 525.065C1028.85 526.138 1026.33 527.295 1024 528.637C1026.78 527.852 1029.51 527.035 1032.28 526.348C1033.65 525.991 1035.03 525.655 1036.41 525.405C1037.76 525.155 1039.18 524.905 1040.33 524.943C1041.24 524.974 1042.4 525.417 1043.56 525.917C1044.72 526.426 1045.85 527.05 1046.95 527.69C1049.17 528.956 1051.35 530.365 1053.41 531.767L1054.44 532.471L1055.68 532.029C1058.19 531.134 1060.81 530.301 1063.38 529.525C1064.66 529.137 1065.96 528.766 1067.22 528.497C1067.53 528.44 1067.85 528.361 1068.14 528.328L1068.55 528.266C1068.59 528.271 1068.6 528.242 1068.7 528.256C1069.04 528.259 1069.64 528.399 1070.19 528.585C1072.5 529.399 1074.83 530.653 1077.06 531.893C1079.33 533.135 1081.52 534.461 1083.78 535.763Z" fill="#263238"/>
<path d="M1236.02 293.1C1233.68 291.642 1231.18 290.363 1228.59 289.161C1225.96 288.008 1223.35 286.867 1220.15 286.221C1219.32 286.077 1218.48 285.933 1217.34 286.034C1217.07 286.047 1216.73 286.13 1216.41 286.213C1216.16 286.29 1216 286.357 1215.79 286.432C1215.38 286.573 1215.05 286.734 1214.69 286.889C1213.29 287.522 1212.05 288.211 1210.82 288.916C1208.38 290.342 1206.14 291.877 1203.89 293.461L1206.24 293.202C1203.41 292.096 1200.58 291.14 1197.58 290.339C1196.07 289.957 1194.55 289.599 1192.93 289.356C1192.11 289.239 1191.28 289.134 1190.37 289.108C1189.95 289.073 1189.43 289.132 1188.96 289.156C1188.48 289.201 1187.96 289.34 1187.48 289.444C1185.73 289.994 1184.48 290.758 1183.23 291.543C1182.01 292.339 1180.9 293.188 1179.81 294.054C1177.7 295.824 1175.72 297.659 1174 299.651C1176.4 298.15 1178.74 296.628 1181.17 295.234C1182.37 294.526 1183.59 293.837 1184.84 293.247C1186.06 292.66 1187.36 292.053 1188.51 291.821C1189.42 291.637 1190.76 291.837 1192.12 292.096C1193.48 292.368 1194.86 292.766 1196.23 293.191C1198.96 294.021 1201.72 295.012 1204.35 296.027L1205.68 296.537L1206.71 295.771C1208.8 294.216 1211.02 292.705 1213.22 291.26C1214.32 290.539 1215.45 289.834 1216.57 289.247C1216.85 289.113 1217.14 288.95 1217.4 288.849L1217.78 288.686C1217.82 288.681 1217.82 288.648 1217.93 288.638C1218.26 288.56 1218.91 288.568 1219.54 288.635C1222.17 288.961 1225.01 289.751 1227.74 290.55C1230.5 291.343 1233.24 292.243 1236.02 293.1Z" fill="#263238"/>
</svg>
