<svg xmlns="http://www.w3.org/2000/svg" xmlns:xlink="http://www.w3.org/1999/xlink" width="450" zoomAndPan="magnify" viewBox="0 0 337.5 449.999984" height="600" preserveAspectRatio="xMidYMid meet" version="1.0"><defs><g/><clipPath id="622b7a13fd"><path d="M 0 0.332031 L 337 0.332031 L 337 449.667969 L 0 449.667969 Z M 0 0.332031 " clip-rule="nonzero"/></clipPath><clipPath id="a3e1eb8eb2"><path d="M 62.148438 232 L 275.148438 232 L 275.148438 268.902344 L 62.148438 268.902344 Z M 62.148438 232 " clip-rule="nonzero"/></clipPath><clipPath id="0700307632"><path d="M 62.148438 250 L 275.148438 250 L 275.148438 268.902344 L 62.148438 268.902344 Z M 62.148438 250 " clip-rule="nonzero"/></clipPath><clipPath id="b10bf7973f"><path d="M 147 114.402344 L 188 114.402344 L 188 125 L 147 125 Z M 147 114.402344 " clip-rule="nonzero"/></clipPath><clipPath id="25a6c6d162"><path d="M 240.390625 374.714844 L 310.140625 374.714844 L 310.140625 416.714844 L 240.390625 416.714844 Z M 240.390625 374.714844 " clip-rule="nonzero"/></clipPath></defs><g clip-path="url(#622b7a13fd)"><path fill="#ffffff" d="M 0 0.332031 L 337.5 0.332031 L 337.5 450.332031 L 0 450.332031 Z M 0 0.332031 " fill-opacity="1" fill-rule="nonzero"/><path fill="#ffffff" d="M 0 0.332031 L 337.5 0.332031 L 337.5 450.332031 L 0 450.332031 Z M 0 0.332031 " fill-opacity="1" fill-rule="nonzero"/></g><path fill="#b0e4db" d="M 66.773438 161.484375 L 142.664062 161.484375 C 142.664062 161.484375 143.082031 156.296875 129.601562 156.710938 C 129.601562 156.710938 131.261719 150.28125 113.011719 150.902344 C 113.011719 150.902344 111.5625 142.398438 100.984375 143.019531 C 100.984375 143.019531 88.542969 142.988281 86.472656 153.394531 C 86.472656 153.394531 74.238281 152.355469 73.613281 157.957031 C 73.613281 157.957031 66.980469 157.75 66.773438 161.484375 " fill-opacity="1" fill-rule="nonzero"/><path fill="#55b2af" d="M 122.089844 182.953125 L 122.492188 182.953125 L 122.492188 181.113281 L 111.519531 181.113281 L 111.519531 182.953125 L 111.921875 182.953125 L 111.921875 185.347656 L 109.949219 185.347656 L 109.949219 184.226562 L 110.398438 184.226562 L 110.398438 182.257812 L 105.875 182.257812 L 105.875 184.226562 L 106.367188 184.226562 L 106.367188 185.347656 L 104.464844 185.347656 L 104.464844 233.648438 L 128.785156 233.648438 L 128.785156 185.347656 L 122.089844 185.347656 L 122.089844 182.953125 " fill-opacity="1" fill-rule="nonzero"/><path fill="#55b2af" d="M 192.636719 209.476562 L 192.644531 209.476562 L 192.644531 208.679688 L 192.976562 208.679688 L 192.976562 207.195312 L 192.636719 207.195312 L 192.636719 198.371094 L 192.96875 198.371094 L 192.96875 196.890625 L 192.636719 196.890625 L 192.636719 187.777344 L 192.96875 187.777344 L 192.96875 186.402344 L 189.941406 186.402344 L 189.941406 184.355469 L 190.191406 184.355469 L 190.191406 183.894531 L 185.394531 183.894531 L 185.394531 184.355469 L 185.71875 184.355469 L 185.71875 186.402344 L 183.824219 186.402344 L 183.824219 180.136719 L 185.066406 180.136719 L 185.066406 179.757812 L 181.925781 179.757812 L 181.925781 180.136719 L 183.496094 180.136719 L 183.496094 186.402344 L 181.925781 186.402344 L 181.925781 184.613281 L 181.59375 184.613281 L 181.59375 184.097656 L 182.035156 184.097656 L 182.035156 183.691406 L 174.144531 183.691406 L 174.144531 184.097656 L 174.796875 184.097656 L 174.796875 184.613281 L 174.605469 184.613281 L 174.605469 186.402344 L 170.195312 186.402344 L 170.195312 187.777344 L 170.546875 187.777344 L 170.546875 196.890625 L 170.195312 196.890625 L 170.195312 198.371094 L 170.546875 198.371094 L 170.546875 207.195312 L 170.207031 207.195312 L 170.207031 208.679688 L 170.546875 208.679688 L 170.546875 218.152344 L 170.214844 218.152344 L 170.214844 219.636719 L 170.546875 219.636719 L 170.546875 235.007812 L 192.636719 235.007812 L 192.636719 220.433594 L 192.65625 220.433594 L 192.65625 219.636719 L 192.988281 219.636719 L 192.988281 218.152344 L 192.636719 218.152344 L 192.636719 209.476562 " fill-opacity="1" fill-rule="nonzero"/><path fill="#55b2af" d="M 250.332031 196.894531 L 248.445312 196.894531 L 248.445312 193.5 L 244.804688 193.5 L 244.804688 192.457031 L 245.238281 192.457031 L 245.238281 190.535156 L 240.832031 190.535156 L 240.832031 192.457031 L 241.308594 192.457031 L 241.308594 193.5 L 235.519531 193.5 L 235.519531 191.558594 L 235.898438 191.558594 L 235.898438 189.726562 L 225.179688 189.726562 L 225.179688 191.558594 L 225.554688 191.558594 L 225.554688 193.5 L 224.261719 193.5 L 224.261719 196.894531 L 209.695312 196.894531 L 209.695312 233.671875 L 263.933594 233.671875 L 263.933594 196.894531 L 250.332031 196.894531 " fill-opacity="1" fill-rule="nonzero"/><g clip-path="url(#a3e1eb8eb2)"><path fill="#57c146" d="M 270.835938 260.335938 L 256.070312 260.335938 C 258.4375 260.335938 260.355469 258.417969 260.355469 256.050781 C 260.355469 253.6875 258.4375 251.769531 256.070312 251.769531 L 270.835938 251.769531 C 273.203125 251.769531 275.121094 249.851562 275.121094 247.484375 C 275.121094 245.117188 273.203125 243.199219 270.835938 243.199219 L 265.722656 243.199219 C 268.394531 243.199219 270.554688 241.035156 270.554688 238.367188 L 270.554688 237.289062 C 270.554688 234.617188 268.394531 232.453125 265.722656 232.453125 L 74.570312 232.453125 C 71.902344 232.453125 69.738281 234.617188 69.738281 237.289062 L 69.738281 238.367188 C 69.738281 241.035156 71.902344 243.199219 74.570312 243.199219 L 81.269531 243.199219 C 78.902344 243.199219 76.988281 245.117188 76.988281 247.484375 C 76.988281 249.851562 78.902344 251.769531 81.269531 251.769531 L 66.503906 251.769531 C 64.136719 251.769531 62.222656 253.6875 62.222656 256.050781 C 62.222656 258.417969 64.136719 260.335938 66.503906 260.335938 L 81.269531 260.335938 C 78.902344 260.335938 76.988281 262.253906 76.988281 264.621094 C 76.988281 266.988281 78.902344 268.90625 81.269531 268.90625 L 270.835938 268.90625 C 273.203125 268.90625 275.121094 266.988281 275.121094 264.621094 C 275.121094 262.253906 273.203125 260.335938 270.835938 260.335938 " fill-opacity="1" fill-rule="nonzero"/></g><g clip-path="url(#0700307632)"><path fill="#4eae48" d="M 270.835938 260.335938 L 256.070312 260.335938 C 257.351562 260.335938 258.496094 259.773438 259.28125 258.878906 L 88.25 258.878906 C 85.882812 258.878906 83.96875 256.960938 83.96875 254.597656 C 83.96875 252.230469 85.882812 250.3125 88.25 250.3125 L 78.058594 250.3125 C 78.84375 251.203125 79.988281 251.769531 81.269531 251.769531 L 66.503906 251.769531 C 64.136719 251.769531 62.222656 253.6875 62.222656 256.050781 C 62.222656 258.417969 64.136719 260.335938 66.503906 260.335938 L 81.269531 260.335938 C 78.902344 260.335938 76.988281 262.253906 76.988281 264.621094 C 76.988281 266.988281 78.902344 268.90625 81.269531 268.90625 L 270.835938 268.90625 C 273.203125 268.90625 275.121094 266.988281 275.121094 264.621094 C 275.121094 262.253906 273.203125 260.335938 270.835938 260.335938 " fill-opacity="1" fill-rule="nonzero"/></g><path fill="#57c146" d="M 227.703125 182.0625 C 227.703125 182.0625 217.785156 184.535156 215.371094 213.152344 C 214.566406 222.675781 238.871094 224.210938 241.152344 214.777344 C 243.625 204.550781 233.652344 181.449219 227.703125 182.0625 " fill-opacity="1" fill-rule="nonzero"/><path fill="#69c644" d="M 228.300781 185.039062 C 232.496094 184.605469 238.691406 195.96875 241.113281 206.289062 C 239.324219 195.316406 232.308594 181.585938 227.703125 182.0625 C 227.703125 182.0625 217.785156 184.535156 215.371094 213.152344 C 215.28125 214.214844 215.503906 215.175781 215.972656 216.035156 C 218.402344 187.507812 228.300781 185.039062 228.300781 185.039062 " fill-opacity="1" fill-rule="nonzero"/><path fill="#4eae48" d="M 217.132812 217.53125 C 222.667969 222.871094 239.285156 222.496094 241.152344 214.777344 C 241.933594 211.539062 241.472656 207.011719 240.28125 202.355469 C 238.21875 214.960938 223.703125 217.179688 217.132812 217.53125 " fill-opacity="1" fill-rule="nonzero"/><path fill="#45a64a" d="M 241.371094 208.1875 C 238.386719 216.695312 228.949219 219.425781 222.390625 220.289062 C 229.527344 222.3125 239.714844 220.722656 241.152344 214.777344 C 241.597656 212.929688 241.636719 210.660156 241.371094 208.1875 " fill-opacity="1" fill-rule="nonzero"/><path fill="#5b2e21" d="M 226.398438 219.804688 C 226.398438 219.804688 227.910156 230.21875 223.003906 235.003906 L 233.488281 235.003906 C 233.488281 235.003906 229.96875 231.605469 230.492188 219.84375 C 230.492188 219.84375 229.769531 220.40625 228.714844 218.75 C 228.714844 218.75 228.066406 219.921875 226.398438 219.804688 " fill-opacity="1" fill-rule="nonzero"/><path fill="#48231b" d="M 230.492188 219.84375 C 230.492188 219.84375 229.769531 220.40625 228.714844 218.75 C 228.714844 218.75 228.582031 218.992188 228.28125 219.246094 C 228.070312 222.753906 227.960938 230.019531 230.089844 235.003906 L 233.488281 235.003906 C 233.488281 235.003906 229.96875 231.605469 230.492188 219.84375 " fill-opacity="1" fill-rule="nonzero"/><path fill="#5b2e21" d="M 253.035156 220.800781 C 253.035156 220.800781 252.066406 233.230469 251.054688 235.121094 L 255.894531 235.121094 C 255.894531 235.121094 254.886719 228.925781 254.601562 220.691406 L 253.035156 220.800781 " fill-opacity="1" fill-rule="nonzero"/><path fill="#48231b" d="M 253.0625 235.121094 L 255.894531 235.121094 C 255.894531 235.121094 254.886719 228.925781 254.601562 220.691406 L 253.882812 220.742188 C 253.742188 224.101562 253.386719 232.152344 253.0625 235.121094 " fill-opacity="1" fill-rule="nonzero"/><path fill="#57c146" d="M 247.757812 199.738281 C 247.757812 199.738281 246.660156 196.085938 251.011719 197.582031 C 251.011719 197.582031 251.320312 195.910156 253.167969 197.230469 C 253.167969 197.230469 255.585938 194.8125 257.566406 198.066406 C 257.566406 198.066406 259.5 196.101562 259.105469 198.339844 C 259.105469 198.339844 261.960938 196.175781 262.269531 199.472656 C 262.269531 199.472656 264.777344 199.078125 263.238281 200.96875 C 263.238281 200.96875 266.230469 201.453125 264.03125 203.390625 C 264.03125 203.390625 266.582031 205.105469 265.085938 206.558594 C 265.085938 206.558594 266.625 206.910156 265.21875 207.613281 C 265.21875 207.613281 266.449219 208.890625 264.605469 209.683594 C 264.605469 209.683594 266.007812 211.046875 264.472656 211.835938 C 264.472656 211.835938 267.199219 213.6875 264.605469 215.625 C 264.605469 215.625 265.878906 217.382812 263.328125 217.867188 C 263.328125 217.867188 263.679688 220.507812 260.644531 219.671875 C 260.644531 219.671875 260.90625 223.585938 257.386719 220.636719 C 257.386719 220.636719 256.992188 222.664062 255.101562 221.035156 C 255.101562 221.035156 254.398438 223.015625 253.035156 221.253906 C 253.035156 221.253906 251.011719 224.113281 249.210938 220.902344 C 249.210938 220.902344 247.363281 222.96875 246.617188 220.152344 C 246.617188 220.152344 244.328125 221.957031 245.207031 218.964844 C 245.207031 218.964844 242.085938 219.140625 244.152344 216.195312 C 244.152344 216.195312 240.371094 216.195312 243.226562 213.597656 C 243.226562 213.597656 241.203125 212.324219 243.714844 209.769531 C 243.714844 209.769531 241.910156 207.4375 244.460938 205.632812 C 244.460938 205.632812 243.449219 203.785156 244.855469 202.730469 C 244.855469 202.730469 243.929688 201.191406 246.042969 200.660156 C 246.042969 200.660156 245.734375 199.125 247.757812 199.738281 " fill-opacity="1" fill-rule="nonzero"/><path fill="#69c644" d="M 245.601562 220.027344 C 245.601562 220.027344 245.347656 220.179688 245.027344 220.3125 C 245.121094 220.769531 245.496094 220.746094 245.859375 220.601562 C 245.765625 220.441406 245.679688 220.253906 245.601562 220.027344 " fill-opacity="1" fill-rule="nonzero"/><path fill="#69c644" d="M 265.414062 205.226562 C 265.414062 205.226562 265.457031 205.25 265.53125 205.292969 L 265.5 205.167969 L 265.414062 205.226562 " fill-opacity="1" fill-rule="nonzero"/><path fill="#69c644" d="M 248.550781 220.683594 C 248.550781 220.683594 247.902344 221.25 247.179688 221.324219 C 247.78125 221.953125 248.542969 221.484375 248.941406 221.15625 C 248.808594 221.019531 248.683594 220.863281 248.550781 220.683594 " fill-opacity="1" fill-rule="nonzero"/><path fill="#69c644" d="M 244.679688 202.878906 C 244.765625 202.859375 244.855469 202.839844 244.949219 202.820312 C 244.949219 202.820312 244.601562 201.460938 246.902344 202.003906 C 246.902344 202.003906 245.648438 198.78125 250.601562 200.101562 C 250.601562 200.101562 250.953125 198.625 253.054688 199.789062 C 253.054688 199.789062 255.808594 197.652344 258.058594 200.527344 C 258.058594 200.527344 260.257812 198.792969 259.808594 200.769531 C 259.808594 200.769531 263.0625 198.859375 263.414062 201.769531 C 263.414062 201.769531 264.308594 201.664062 264.785156 201.859375 C 264.511719 201.175781 263.238281 200.96875 263.238281 200.96875 C 264.777344 199.078125 262.269531 199.472656 262.269531 199.472656 C 261.960938 196.175781 259.105469 198.339844 259.105469 198.339844 C 259.5 196.101562 257.566406 198.066406 257.566406 198.066406 C 255.585938 194.8125 253.167969 197.230469 253.167969 197.230469 C 251.320312 195.910156 251.011719 197.582031 251.011719 197.582031 C 246.660156 196.085938 247.757812 199.738281 247.757812 199.738281 C 245.734375 199.125 246.042969 200.660156 246.042969 200.660156 C 243.929688 201.191406 244.855469 202.730469 244.855469 202.730469 C 244.792969 202.777344 244.730469 202.828125 244.679688 202.878906 " fill-opacity="1" fill-rule="nonzero"/><path fill="#69c644" d="M 255.257812 220.800781 C 255.257812 220.800781 255.210938 220.90625 255.113281 221.042969 C 256.1875 221.964844 256.78125 221.699219 257.085938 221.304688 C 256.691406 221.433594 256.105469 221.367188 255.257812 220.800781 " fill-opacity="1" fill-rule="nonzero"/><path fill="#69c644" d="M 252.90625 220.996094 C 252.90625 220.996094 251.503906 222.53125 249.914062 221.863281 C 251.5 223.421875 253.035156 221.253906 253.035156 221.253906 C 254.273438 222.847656 254.964844 221.375 255.082031 221.082031 C 254.769531 221.503906 254.039062 222.132812 252.90625 220.996094 " fill-opacity="1" fill-rule="nonzero"/><path fill="#69c644" d="M 261.558594 219.597656 C 261.558594 219.597656 261.570312 219.6875 261.5625 219.832031 C 261.898438 219.847656 262.167969 219.804688 262.386719 219.726562 C 262.140625 219.703125 261.867188 219.664062 261.558594 219.597656 " fill-opacity="1" fill-rule="nonzero"/><path fill="#69c644" d="M 257.859375 220.453125 C 257.859375 220.453125 257.808594 220.648438 257.664062 220.859375 C 259.078125 221.960938 259.824219 221.871094 260.21875 221.421875 C 259.675781 221.40625 258.917969 221.140625 257.859375 220.453125 " fill-opacity="1" fill-rule="nonzero"/><path fill="#4eae48" d="M 257.386719 220.636719 C 260.90625 223.585938 260.644531 219.671875 260.644531 219.671875 C 263.679688 220.507812 263.328125 217.867188 263.328125 217.867188 C 265.878906 217.382812 264.605469 215.625 264.605469 215.625 C 267.199219 213.6875 264.472656 211.835938 264.472656 211.835938 C 266.007812 211.046875 264.605469 209.683594 264.605469 209.683594 C 266.449219 208.890625 265.21875 207.613281 265.21875 207.613281 C 266.625 206.910156 265.085938 206.558594 265.085938 206.558594 C 265.410156 206.246094 265.542969 205.921875 265.554688 205.601562 C 264.953125 206.53125 264.207031 206.917969 264.207031 206.917969 C 264.910156 209.601562 263.238281 209.601562 263.238281 209.601562 C 264.472656 212.988281 261.976562 212.636719 261.976562 212.636719 C 261.941406 216.90625 258.445312 214.792969 258.445312 214.792969 C 257.65625 218.3125 254.71875 215.851562 254.71875 215.851562 C 252.359375 218.445312 250.570312 215.585938 250.570312 215.585938 C 246.878906 217.214844 247.179688 213.695312 247.179688 213.695312 C 244.230469 212.417969 245.859375 209.601562 245.859375 209.601562 C 244.304688 209.320312 243.644531 207.84375 243.367188 206.816406 C 242.589844 208.320312 243.714844 209.769531 243.714844 209.769531 C 241.203125 212.324219 243.226562 213.597656 243.226562 213.597656 C 240.371094 216.195312 244.152344 216.195312 244.152344 216.195312 C 242.085938 219.140625 245.207031 218.964844 245.207031 218.964844 C 244.328125 221.957031 246.617188 220.152344 246.617188 220.152344 C 247.363281 222.96875 249.210938 220.902344 249.210938 220.902344 C 251.011719 224.113281 253.035156 221.253906 253.035156 221.253906 C 254.398438 223.015625 255.101562 221.035156 255.101562 221.035156 C 256.992188 222.664062 257.386719 220.636719 257.386719 220.636719 " fill-opacity="1" fill-rule="nonzero"/><path fill="#45a64a" d="M 264.03125 213.34375 C 264.695312 216.699219 262.386719 216.160156 262.386719 216.160156 C 262.285156 218.710938 260.21875 217.742188 260.21875 217.742188 C 259.660156 219.769531 257.386719 218.3125 257.386719 218.3125 C 256.589844 221.035156 254.71875 218.886719 254.71875 218.886719 C 252.800781 220.648438 251.980469 218.445312 251.980469 218.445312 C 250.046875 220.824219 249.167969 218.3125 249.167969 218.3125 C 247.671875 219.722656 246.789062 218.050781 246.789062 218.050781 C 244.722656 218.535156 245.253906 215.980469 245.253906 215.980469 C 243.667969 214.96875 244.65625 213.34375 244.65625 213.34375 C 243.515625 212.769531 242.988281 211.867188 242.757812 211.027344 C 241.871094 212.742188 243.226562 213.597656 243.226562 213.597656 C 240.371094 216.195312 244.152344 216.195312 244.152344 216.195312 C 242.085938 219.140625 245.207031 218.964844 245.207031 218.964844 C 244.328125 221.957031 246.617188 220.152344 246.617188 220.152344 C 247.363281 222.96875 249.210938 220.902344 249.210938 220.902344 C 251.011719 224.113281 253.035156 221.253906 253.035156 221.253906 C 254.398438 223.015625 255.101562 221.035156 255.101562 221.035156 C 256.992188 222.664062 257.386719 220.636719 257.386719 220.636719 C 260.90625 223.585938 260.644531 219.671875 260.644531 219.671875 C 263.679688 220.507812 263.328125 217.867188 263.328125 217.867188 C 265.878906 217.382812 264.605469 215.625 264.605469 215.625 C 266.085938 214.515625 265.828125 213.4375 265.335938 212.714844 C 264.925781 213.597656 264.03125 213.34375 264.03125 213.34375 " fill-opacity="1" fill-rule="nonzero"/><path fill="#5b2e21" d="M 82.460938 217.023438 C 82.460938 217.023438 81.355469 231.195312 80.203125 233.351562 L 85.71875 233.351562 C 85.71875 233.351562 84.570312 226.285156 84.242188 216.902344 L 82.460938 217.023438 " fill-opacity="1" fill-rule="nonzero"/><path fill="#48231b" d="M 82.492188 233.351562 L 85.71875 233.351562 C 85.71875 233.351562 84.570312 226.285156 84.242188 216.902344 L 83.421875 216.957031 C 83.265625 220.789062 82.863281 229.964844 82.492188 233.351562 " fill-opacity="1" fill-rule="nonzero"/><path fill="#57c146" d="M 76.441406 193.007812 C 76.441406 193.007812 75.1875 188.84375 80.152344 190.550781 C 80.152344 190.550781 80.503906 188.644531 82.609375 190.148438 C 82.609375 190.148438 85.367188 187.390625 87.621094 191.101562 C 87.621094 191.101562 89.828125 188.863281 89.378906 191.410156 C 89.378906 191.410156 92.636719 188.945312 92.988281 192.707031 C 92.988281 192.707031 95.847656 192.257812 94.089844 194.414062 C 94.089844 194.414062 97.503906 194.964844 94.996094 197.171875 C 94.996094 197.171875 97.902344 199.128906 96.199219 200.785156 C 96.199219 200.785156 97.953125 201.1875 96.347656 201.988281 C 96.347656 201.988281 97.75 203.445312 95.644531 204.347656 C 95.644531 204.347656 97.25 205.902344 95.496094 206.804688 C 95.496094 206.804688 98.601562 208.914062 95.644531 211.121094 C 95.644531 211.121094 97.097656 213.125 94.191406 213.679688 C 94.191406 213.679688 94.59375 216.6875 91.132812 215.734375 C 91.132812 215.734375 91.433594 220.199219 87.421875 216.839844 C 87.421875 216.839844 86.972656 219.144531 84.816406 217.289062 C 84.816406 217.289062 84.011719 219.546875 82.460938 217.539062 C 82.460938 217.539062 80.152344 220.800781 78.097656 217.136719 C 78.097656 217.136719 75.992188 219.496094 75.140625 216.285156 C 75.140625 216.285156 72.53125 218.34375 73.53125 214.929688 C 73.53125 214.929688 69.972656 215.132812 72.332031 211.769531 C 72.332031 211.769531 68.019531 211.769531 71.277344 208.8125 C 71.277344 208.8125 68.96875 207.355469 71.828125 204.445312 C 71.828125 204.445312 69.773438 201.789062 72.679688 199.730469 C 72.679688 199.730469 71.527344 197.625 73.132812 196.421875 C 73.132812 196.421875 72.078125 194.664062 74.488281 194.0625 C 74.488281 194.0625 74.136719 192.308594 76.441406 193.007812 " fill-opacity="1" fill-rule="nonzero"/><path fill="#69c644" d="M 73.980469 216.140625 C 73.980469 216.140625 73.691406 216.316406 73.328125 216.464844 C 73.4375 216.988281 73.867188 216.960938 74.277344 216.792969 C 74.171875 216.613281 74.070312 216.394531 73.980469 216.140625 " fill-opacity="1" fill-rule="nonzero"/><path fill="#69c644" d="M 96.570312 199.269531 C 96.570312 199.269531 96.621094 199.292969 96.703125 199.339844 L 96.667969 199.199219 L 96.570312 199.269531 " fill-opacity="1" fill-rule="nonzero"/><path fill="#69c644" d="M 77.347656 216.890625 C 77.347656 216.890625 76.605469 217.53125 75.78125 217.617188 C 76.46875 218.335938 77.335938 217.804688 77.789062 217.429688 C 77.640625 217.273438 77.492188 217.09375 77.347656 216.890625 " fill-opacity="1" fill-rule="nonzero"/><path fill="#69c644" d="M 72.929688 196.589844 C 73.027344 196.566406 73.128906 196.542969 73.238281 196.519531 C 73.238281 196.519531 72.839844 194.972656 75.464844 195.589844 C 75.464844 195.589844 74.039062 191.917969 79.6875 193.421875 C 79.6875 193.421875 80.085938 191.742188 82.480469 193.070312 C 82.480469 193.070312 85.617188 190.632812 88.183594 193.910156 C 88.183594 193.910156 90.695312 191.933594 90.183594 194.183594 C 90.183594 194.183594 93.890625 192.003906 94.289062 195.328125 C 94.289062 195.328125 95.308594 195.199219 95.855469 195.425781 C 95.546875 194.648438 94.089844 194.414062 94.089844 194.414062 C 95.847656 192.257812 92.988281 192.707031 92.988281 192.707031 C 92.636719 188.945312 89.378906 191.410156 89.378906 191.410156 C 89.828125 188.863281 87.621094 191.101562 87.621094 191.101562 C 85.367188 187.390625 82.609375 190.148438 82.609375 190.148438 C 80.503906 188.644531 80.152344 190.550781 80.152344 190.550781 C 75.1875 188.84375 76.441406 193.007812 76.441406 193.007812 C 74.136719 192.308594 74.488281 194.0625 74.488281 194.0625 C 72.078125 194.664062 73.132812 196.421875 73.132812 196.421875 C 73.058594 196.476562 72.992188 196.535156 72.929688 196.589844 " fill-opacity="1" fill-rule="nonzero"/><path fill="#69c644" d="M 84.992188 217.023438 C 84.992188 217.023438 84.9375 217.144531 84.828125 217.300781 C 86.054688 218.351562 86.726562 218.050781 87.078125 217.597656 C 86.625 217.746094 85.960938 217.671875 84.992188 217.023438 " fill-opacity="1" fill-rule="nonzero"/><path fill="#69c644" d="M 82.308594 217.246094 C 82.308594 217.246094 80.714844 218.996094 78.898438 218.230469 C 80.710938 220.011719 82.460938 217.539062 82.460938 217.539062 C 83.867188 219.359375 84.65625 217.675781 84.792969 217.34375 C 84.4375 217.824219 83.601562 218.539062 82.308594 217.246094 " fill-opacity="1" fill-rule="nonzero"/><path fill="#69c644" d="M 92.179688 215.652344 C 92.179688 215.652344 92.1875 215.753906 92.183594 215.917969 C 92.5625 215.9375 92.871094 215.886719 93.121094 215.796875 C 92.839844 215.773438 92.527344 215.726562 92.179688 215.652344 " fill-opacity="1" fill-rule="nonzero"/><path fill="#69c644" d="M 87.957031 216.625 C 87.957031 216.625 87.898438 216.851562 87.734375 217.089844 C 89.347656 218.347656 90.199219 218.246094 90.648438 217.730469 C 90.03125 217.710938 89.167969 217.410156 87.957031 216.625 " fill-opacity="1" fill-rule="nonzero"/><path fill="#4eae48" d="M 87.421875 216.839844 C 91.433594 220.199219 91.132812 215.734375 91.132812 215.734375 C 94.59375 216.6875 94.191406 213.679688 94.191406 213.679688 C 97.097656 213.125 95.644531 211.121094 95.644531 211.121094 C 98.601562 208.914062 95.496094 206.804688 95.496094 206.804688 C 97.25 205.902344 95.644531 204.347656 95.644531 204.347656 C 97.75 203.445312 96.347656 201.988281 96.347656 201.988281 C 97.953125 201.1875 96.199219 200.785156 96.199219 200.785156 C 96.5625 200.429688 96.71875 200.058594 96.730469 199.695312 C 96.046875 200.753906 95.195312 201.195312 95.195312 201.195312 C 95.996094 204.257812 94.089844 204.257812 94.089844 204.257812 C 95.496094 208.117188 92.652344 207.714844 92.652344 207.714844 C 92.613281 212.582031 88.625 210.175781 88.625 210.175781 C 87.722656 214.1875 84.378906 211.378906 84.378906 211.378906 C 81.6875 214.339844 79.652344 211.078125 79.652344 211.078125 C 75.4375 212.933594 75.78125 208.921875 75.78125 208.921875 C 72.417969 207.464844 74.277344 204.257812 74.277344 204.257812 C 72.503906 203.933594 71.75 202.246094 71.4375 201.082031 C 70.550781 202.792969 71.828125 204.445312 71.828125 204.445312 C 68.96875 207.355469 71.277344 208.8125 71.277344 208.8125 C 68.019531 211.769531 72.332031 211.769531 72.332031 211.769531 C 69.972656 215.132812 73.53125 214.929688 73.53125 214.929688 C 72.53125 218.34375 75.140625 216.285156 75.140625 216.285156 C 75.992188 219.496094 78.097656 217.136719 78.097656 217.136719 C 80.152344 220.800781 82.460938 217.539062 82.460938 217.539062 C 84.011719 219.546875 84.816406 217.289062 84.816406 217.289062 C 86.972656 219.144531 87.421875 216.839844 87.421875 216.839844 " fill-opacity="1" fill-rule="nonzero"/><path fill="#45a64a" d="M 94.996094 208.519531 C 95.75 212.34375 93.121094 211.730469 93.121094 211.730469 C 93.003906 214.640625 90.648438 213.535156 90.648438 213.535156 C 90.011719 215.84375 87.421875 214.1875 87.421875 214.1875 C 86.511719 217.289062 84.378906 214.839844 84.378906 214.839844 C 82.1875 216.847656 81.253906 214.339844 81.253906 214.339844 C 79.046875 217.046875 78.046875 214.1875 78.046875 214.1875 C 76.339844 215.792969 75.339844 213.886719 75.339844 213.886719 C 72.984375 214.441406 73.585938 211.527344 73.585938 211.527344 C 71.777344 210.375 72.902344 208.519531 72.902344 208.519531 C 71.601562 207.871094 71.003906 206.835938 70.742188 205.878906 C 69.730469 207.832031 71.277344 208.8125 71.277344 208.8125 C 68.019531 211.769531 72.332031 211.769531 72.332031 211.769531 C 69.972656 215.132812 73.53125 214.929688 73.53125 214.929688 C 72.53125 218.34375 75.140625 216.285156 75.140625 216.285156 C 75.992188 219.496094 78.097656 217.136719 78.097656 217.136719 C 80.152344 220.800781 82.460938 217.539062 82.460938 217.539062 C 84.011719 219.546875 84.816406 217.289062 84.816406 217.289062 C 86.972656 219.144531 87.421875 216.839844 87.421875 216.839844 C 91.433594 220.199219 91.132812 215.734375 91.132812 215.734375 C 94.59375 216.6875 94.191406 213.679688 94.191406 213.679688 C 97.097656 213.125 95.644531 211.121094 95.644531 211.121094 C 97.339844 209.855469 97.042969 208.625 96.484375 207.804688 C 96.011719 208.8125 94.996094 208.519531 94.996094 208.519531 " fill-opacity="1" fill-rule="nonzero"/><path fill="#b0e4db" d="M 187.207031 142.988281 L 263.101562 142.988281 C 263.101562 142.988281 263.515625 137.800781 250.039062 138.214844 C 250.039062 138.214844 251.699219 131.785156 233.449219 132.40625 C 233.449219 132.40625 231.996094 123.902344 221.421875 124.523438 C 221.421875 124.523438 208.980469 124.488281 206.90625 134.894531 C 206.90625 134.894531 194.671875 133.859375 194.050781 139.460938 C 194.050781 139.460938 187.414062 139.253906 187.207031 142.988281 " fill-opacity="1" fill-rule="nonzero"/><g clip-path="url(#b10bf7973f)"><path fill="#b0e4db" d="M 147.734375 124.488281 L 187.867188 124.488281 C 187.867188 124.488281 188.085938 121.75 180.960938 121.96875 C 180.960938 121.96875 181.835938 118.566406 172.1875 118.894531 C 172.1875 118.894531 171.417969 114.398438 165.828125 114.726562 C 165.828125 114.726562 159.246094 114.710938 158.152344 120.210938 C 158.152344 120.210938 151.679688 119.664062 151.355469 122.625 C 151.355469 122.625 147.84375 122.515625 147.734375 124.488281 " fill-opacity="1" fill-rule="nonzero"/></g><path fill="#b0e4db" d="M 90.675781 131.765625 L 130.808594 131.765625 C 130.808594 131.765625 131.027344 129.023438 123.902344 129.242188 C 123.902344 129.242188 124.777344 125.839844 115.128906 126.171875 C 115.128906 126.171875 114.359375 121.671875 108.769531 122 C 108.769531 122 102.191406 121.984375 101.09375 127.484375 C 101.09375 127.484375 94.625 126.9375 94.296875 129.898438 C 94.296875 129.898438 90.785156 129.789062 90.675781 131.765625 " fill-opacity="1" fill-rule="nonzero"/><path fill="#a8dbdb" d="M 92.488281 176.015625 L 92.488281 236.042969 L 122.707031 236.042969 L 122.707031 176.015625 L 92.488281 176.015625 " fill-opacity="1" fill-rule="nonzero"/><path fill="#88c9c6" d="M 113.75 176.015625 L 113.75 236.042969 L 122.707031 236.042969 L 122.707031 176.015625 L 113.75 176.015625 " fill-opacity="1" fill-rule="nonzero"/><path fill="#4ec4cb" d="M 121.375 236.042969 L 93.824219 236.042969 L 93.824219 180.527344 L 121.375 180.527344 L 121.375 236.042969 " fill-opacity="1" fill-rule="nonzero"/><path fill="#3a9197" d="M 121.375 229.53125 L 93.824219 229.53125 L 93.824219 226.71875 L 121.375 226.71875 L 121.375 229.53125 " fill-opacity="1" fill-rule="nonzero"/><path fill="#3f9ea8" d="M 121.375 224.378906 L 110.894531 224.378906 L 110.894531 180.527344 L 121.375 180.527344 L 121.375 224.378906 " fill-opacity="1" fill-rule="nonzero"/><path fill="#3a9197" d="M 116.195312 180.527344 L 116.195312 224.378906 L 121.375 224.378906 L 121.375 180.527344 L 116.195312 180.527344 " fill-opacity="1" fill-rule="nonzero"/><path fill="#cfeff1" d="M 122.207031 226.71875 L 92.988281 226.71875 L 92.988281 224.378906 L 122.207031 224.378906 L 122.207031 226.71875 " fill-opacity="1" fill-rule="nonzero"/><path fill="#cfeff1" d="M 99.539062 236.042969 L 98.621094 236.042969 L 98.621094 226.050781 L 99.539062 226.050781 L 99.539062 236.042969 " fill-opacity="1" fill-rule="nonzero"/><path fill="#cfeff1" d="M 105.21875 236.042969 L 104.300781 236.042969 L 104.300781 226.050781 L 105.21875 226.050781 L 105.21875 236.042969 " fill-opacity="1" fill-rule="nonzero"/><path fill="#cfeff1" d="M 110.894531 236.042969 L 109.976562 236.042969 L 109.976562 226.050781 L 110.894531 226.050781 L 110.894531 236.042969 " fill-opacity="1" fill-rule="nonzero"/><path fill="#cfeff1" d="M 116.570312 236.042969 L 115.652344 236.042969 L 115.652344 226.050781 L 116.570312 226.050781 L 116.570312 236.042969 " fill-opacity="1" fill-rule="nonzero"/><path fill="#cfeff1" d="M 121.375 217.949219 L 93.824219 217.949219 L 93.824219 217.445312 L 121.375 217.445312 L 121.375 217.949219 " fill-opacity="1" fill-rule="nonzero"/><path fill="#cfeff1" d="M 121.375 211.015625 L 93.824219 211.015625 L 93.824219 210.511719 L 121.375 210.511719 L 121.375 211.015625 " fill-opacity="1" fill-rule="nonzero"/><path fill="#cfeff1" d="M 121.375 204.121094 L 93.824219 204.121094 L 93.824219 203.59375 L 121.375 203.59375 L 121.375 204.121094 " fill-opacity="1" fill-rule="nonzero"/><path fill="#cfeff1" d="M 121.375 197.152344 L 93.824219 197.152344 L 93.824219 196.648438 L 121.375 196.648438 L 121.375 197.152344 " fill-opacity="1" fill-rule="nonzero"/><path fill="#cfeff1" d="M 121.375 190.21875 L 93.824219 190.21875 L 93.824219 189.714844 L 121.375 189.714844 L 121.375 190.21875 " fill-opacity="1" fill-rule="nonzero"/><path fill="#cfeff1" d="M 121.375 183.285156 L 93.824219 183.285156 L 93.824219 182.78125 L 121.375 182.78125 L 121.375 183.285156 " fill-opacity="1" fill-rule="nonzero"/><path fill="#537a7e" d="M 99.304688 176.015625 L 94.851562 176.015625 L 94.851562 173.234375 L 99.304688 173.234375 L 99.304688 176.015625 " fill-opacity="1" fill-rule="nonzero"/><path fill="#6a9095" d="M 99.863281 174.625 L 94.242188 174.625 L 94.242188 172.175781 L 99.863281 172.175781 L 99.863281 174.625 " fill-opacity="1" fill-rule="nonzero"/><path fill="#85c0bf" d="M 114.386719 176.015625 L 101.753906 176.015625 L 101.753906 171.421875 L 114.386719 171.421875 L 114.386719 176.015625 " fill-opacity="1" fill-rule="nonzero"/><path fill="#5c9296" d="M 114.886719 173.039062 L 101.253906 173.039062 L 101.253906 170.757812 L 114.886719 170.757812 L 114.886719 173.039062 " fill-opacity="1" fill-rule="nonzero"/><path fill="#852e29" d="M 198.484375 211.398438 L 220.054688 211.398438 L 220.054688 220.046875 L 198.484375 220.046875 L 198.484375 211.398438 " fill-opacity="1" fill-rule="nonzero"/><path fill="#c9a870" d="M 219.175781 234.921875 L 210.144531 234.921875 L 210.144531 220.488281 L 219.175781 220.488281 L 219.175781 234.921875 " fill-opacity="1" fill-rule="nonzero"/><path fill="#ac8448" d="M 213.144531 234.917969 L 210.902344 234.917969 L 210.902344 221.058594 L 213.144531 221.058594 L 213.144531 234.917969 " fill-opacity="1" fill-rule="nonzero"/><path fill="#ac8448" d="M 219.175781 222.359375 L 210.902344 222.359375 L 210.902344 221.058594 L 219.175781 221.058594 L 219.175781 222.359375 " fill-opacity="1" fill-rule="nonzero"/><path fill="#d9bf93" d="M 210.902344 234.921875 L 186.703125 234.921875 L 186.703125 218.394531 L 198.800781 212.664062 L 210.902344 218.394531 L 210.902344 234.921875 " fill-opacity="1" fill-rule="nonzero"/><path fill="#b99a62" d="M 210.902344 221.257812 L 210.902344 218.394531 L 198.800781 212.664062 L 186.703125 218.394531 L 186.703125 221.257812 L 198.800781 216.078125 L 210.902344 221.257812 " fill-opacity="1" fill-rule="nonzero"/><path fill="#edefad" d="M 174.242188 234.921875 L 188.945312 234.921875 L 188.945312 222.691406 L 174.242188 222.691406 Z M 174.242188 234.921875 " fill-opacity="1" fill-rule="nonzero"/><path fill="#a5433a" d="M 198.800781 209.964844 L 184.261719 216.90625 L 184.261719 219.605469 L 198.800781 212.664062 L 213.335938 219.605469 L 213.335938 216.90625 L 198.800781 209.964844 " fill-opacity="1" fill-rule="nonzero"/><path fill="#b6c4d4" d="M 175.699219 234.921875 L 187.484375 234.921875 L 187.484375 225.003906 L 175.699219 225.003906 Z M 175.699219 234.921875 " fill-opacity="1" fill-rule="nonzero"/><path fill="#88a3b5" d="M 176.351562 234.921875 L 186.832031 234.921875 L 186.832031 226.105469 L 176.351562 226.105469 Z M 176.351562 234.921875 " fill-opacity="1" fill-rule="nonzero"/><path fill="#7691a4" d="M 176.351562 226.933594 L 186.832031 226.933594 L 186.832031 226.105469 L 176.351562 226.105469 Z M 176.351562 226.933594 " fill-opacity="1" fill-rule="nonzero"/><path fill="#5d8099" d="M 186.832031 226.710938 L 176.351562 226.710938 L 176.351562 226.417969 L 186.832031 226.417969 L 186.832031 226.710938 " fill-opacity="1" fill-rule="nonzero"/><path fill="#5d8099" d="M 186.832031 227.386719 L 176.351562 227.386719 L 176.351562 227.09375 L 186.832031 227.09375 L 186.832031 227.386719 " fill-opacity="1" fill-rule="nonzero"/><path fill="#5d8099" d="M 186.832031 228.0625 L 176.351562 228.0625 L 176.351562 227.769531 L 186.832031 227.769531 L 186.832031 228.0625 " fill-opacity="1" fill-rule="nonzero"/><path fill="#5d8099" d="M 186.832031 228.738281 L 176.351562 228.738281 L 176.351562 228.445312 L 186.832031 228.445312 L 186.832031 228.738281 " fill-opacity="1" fill-rule="nonzero"/><path fill="#5d8099" d="M 186.832031 229.414062 L 176.351562 229.414062 L 176.351562 229.117188 L 186.832031 229.117188 L 186.832031 229.414062 " fill-opacity="1" fill-rule="nonzero"/><path fill="#5d8099" d="M 186.832031 230.085938 L 176.351562 230.085938 L 176.351562 229.792969 L 186.832031 229.792969 L 186.832031 230.085938 " fill-opacity="1" fill-rule="nonzero"/><path fill="#5d8099" d="M 186.832031 230.761719 L 176.351562 230.761719 L 176.351562 230.46875 L 186.832031 230.46875 L 186.832031 230.761719 " fill-opacity="1" fill-rule="nonzero"/><path fill="#5d8099" d="M 186.832031 231.4375 L 176.351562 231.4375 L 176.351562 231.144531 L 186.832031 231.144531 L 186.832031 231.4375 " fill-opacity="1" fill-rule="nonzero"/><path fill="#5d8099" d="M 186.832031 232.109375 L 176.351562 232.109375 L 176.351562 231.816406 L 186.832031 231.816406 L 186.832031 232.109375 " fill-opacity="1" fill-rule="nonzero"/><path fill="#5d8099" d="M 186.832031 232.785156 L 176.351562 232.785156 L 176.351562 232.492188 L 186.832031 232.492188 L 186.832031 232.785156 " fill-opacity="1" fill-rule="nonzero"/><path fill="#5d8099" d="M 186.832031 233.460938 L 176.351562 233.460938 L 176.351562 233.167969 L 186.832031 233.167969 L 186.832031 233.460938 " fill-opacity="1" fill-rule="nonzero"/><path fill="#5d8099" d="M 186.832031 234.136719 L 176.351562 234.136719 L 176.351562 233.84375 L 186.832031 233.84375 L 186.832031 234.136719 " fill-opacity="1" fill-rule="nonzero"/><path fill="#5d8099" d="M 186.832031 234.8125 L 176.351562 234.8125 L 176.351562 234.519531 L 186.832031 234.519531 L 186.832031 234.8125 " fill-opacity="1" fill-rule="nonzero"/><path fill="#c6c77e" d="M 188.117188 234.921875 L 187.484375 234.921875 L 187.484375 225.335938 L 188.117188 225.335938 L 188.117188 234.921875 " fill-opacity="1" fill-rule="nonzero"/><path fill="#b99a62" d="M 198.484375 226.523438 L 190.8125 226.523438 L 190.8125 221.417969 L 198.484375 221.417969 L 198.484375 226.523438 " fill-opacity="1" fill-rule="nonzero"/><path fill="#8b3133" d="M 198.292969 226.164062 L 190.621094 226.164062 L 190.621094 221.058594 L 198.292969 221.058594 L 198.292969 226.164062 " fill-opacity="1" fill-rule="nonzero"/><path fill="#50a6c3" d="M 197.625 225.722656 L 191.292969 225.722656 L 191.292969 221.507812 L 197.625 221.507812 L 197.625 225.722656 " fill-opacity="1" fill-rule="nonzero"/><path fill="#8b3133" d="M 194.648438 226.164062 L 194.335938 226.164062 L 194.335938 221.1875 L 194.648438 221.1875 L 194.648438 226.164062 " fill-opacity="1" fill-rule="nonzero"/><path fill="#8b3133" d="M 198.292969 223.523438 L 198.292969 223.835938 L 190.621094 223.835938 L 190.621094 223.523438 L 198.292969 223.523438 " fill-opacity="1" fill-rule="nonzero"/><path fill="#b99a62" d="M 208.394531 226.566406 L 200.722656 226.566406 L 200.722656 221.460938 L 208.394531 221.460938 L 208.394531 226.566406 " fill-opacity="1" fill-rule="nonzero"/><path fill="#8b3133" d="M 208.207031 226.207031 L 200.53125 226.207031 L 200.53125 221.105469 L 208.207031 221.105469 L 208.207031 226.207031 " fill-opacity="1" fill-rule="nonzero"/><path fill="#50a6c3" d="M 207.535156 225.761719 L 201.203125 225.761719 L 201.203125 221.550781 L 207.535156 221.550781 L 207.535156 225.761719 " fill-opacity="1" fill-rule="nonzero"/><path fill="#8b3133" d="M 204.558594 226.207031 L 204.246094 226.207031 L 204.246094 221.230469 L 204.558594 221.230469 L 204.558594 226.207031 " fill-opacity="1" fill-rule="nonzero"/><path fill="#8b3133" d="M 208.207031 223.5625 L 208.207031 223.878906 L 200.53125 223.878906 L 200.53125 223.5625 L 208.207031 223.5625 " fill-opacity="1" fill-rule="nonzero"/><path fill="#ffffff" d="M 220.054688 221.058594 L 210.902344 221.058594 L 210.902344 220.046875 L 220.054688 220.046875 L 220.054688 221.058594 " fill-opacity="1" fill-rule="nonzero"/><path fill="#99554e" d="M 217.007812 234.917969 L 212.3125 234.917969 L 212.3125 227.09375 L 217.007812 227.09375 L 217.007812 234.917969 " fill-opacity="1" fill-rule="nonzero"/><path fill="#844141" d="M 216.570312 234.917969 L 212.75 234.917969 L 212.75 227.570312 L 216.570312 227.570312 L 216.570312 234.917969 " fill-opacity="1" fill-rule="nonzero"/><path fill="#742e31" d="M 216.570312 228.058594 L 216.570312 227.570312 L 212.75 227.570312 L 212.75 228.058594 L 216.570312 228.058594 " fill-opacity="1" fill-rule="nonzero"/><path fill="#b99a62" d="M 190.320312 234.921875 L 188.945312 234.921875 L 188.945312 223.632812 L 190.320312 223.632812 L 190.320312 234.921875 " fill-opacity="1" fill-rule="nonzero"/><path fill="#537a7e" d="M 133.742188 159.707031 L 130.644531 159.707031 L 130.644531 157.773438 L 133.742188 157.773438 L 133.742188 159.707031 " fill-opacity="1" fill-rule="nonzero"/><path fill="#6a9095" d="M 134.128906 158.742188 L 130.21875 158.742188 L 130.21875 157.035156 L 134.128906 157.035156 L 134.128906 158.742188 " fill-opacity="1" fill-rule="nonzero"/><path fill="#85c0bf" d="M 146.425781 159.707031 L 136.917969 159.707031 L 136.917969 156.25 L 146.425781 156.25 L 146.425781 159.707031 " fill-opacity="1" fill-rule="nonzero"/><path fill="#5c9296" d="M 146.804688 157.464844 L 136.542969 157.464844 L 136.542969 155.75 L 146.804688 155.75 L 146.804688 157.464844 " fill-opacity="1" fill-rule="nonzero"/><path fill="#e5732b" d="M 172.4375 235.316406 L 148.898438 235.316406 L 148.898438 166.160156 L 172.4375 166.160156 L 172.4375 235.316406 " fill-opacity="1" fill-rule="nonzero"/><path fill="#b6532c" d="M 155.898438 235.316406 L 152.980469 235.316406 L 152.980469 166.160156 L 155.898438 166.160156 L 155.898438 235.316406 " fill-opacity="1" fill-rule="nonzero"/><path fill="#f1b624" d="M 152.980469 235.316406 L 126.578125 235.316406 L 126.578125 160.457031 L 152.980469 160.457031 L 152.980469 235.316406 " fill-opacity="1" fill-rule="nonzero"/><path fill="#e78f2c" d="M 147.304688 227.6875 L 132.917969 227.6875 L 132.917969 223.898438 L 147.304688 223.898438 L 147.304688 227.6875 " fill-opacity="1" fill-rule="nonzero"/><path fill="#e78f2c" d="M 126.578125 184.355469 L 152.980469 184.355469 L 152.980469 183.152344 L 126.578125 183.152344 L 126.578125 184.355469 " fill-opacity="1" fill-rule="nonzero"/><path fill="#e78f2c" d="M 126.578125 203.21875 L 152.980469 203.21875 L 152.980469 202.015625 L 126.578125 202.015625 L 126.578125 203.21875 " fill-opacity="1" fill-rule="nonzero"/><path fill="#e78f2c" d="M 126.578125 221.988281 L 152.980469 221.988281 L 152.980469 220.785156 L 126.578125 220.785156 L 126.578125 221.988281 " fill-opacity="1" fill-rule="nonzero"/><path fill="#f8d996" d="M 153.414062 220.785156 L 126.144531 220.785156 L 126.144531 218.542969 L 153.414062 218.542969 L 153.414062 220.785156 " fill-opacity="1" fill-rule="nonzero"/><path fill="#f8d996" d="M 153.414062 202.015625 L 126.144531 202.015625 L 126.144531 199.773438 L 153.414062 199.773438 L 153.414062 202.015625 " fill-opacity="1" fill-rule="nonzero"/><path fill="#f8d996" d="M 153.414062 183.152344 L 126.144531 183.152344 L 126.144531 180.910156 L 153.414062 180.910156 L 153.414062 183.152344 " fill-opacity="1" fill-rule="nonzero"/><path fill="#f8d996" d="M 153.414062 161.953125 L 126.144531 161.953125 L 126.144531 159.707031 L 153.414062 159.707031 L 153.414062 161.953125 " fill-opacity="1" fill-rule="nonzero"/><path fill="#4ec4cb" d="M 151.121094 180.910156 L 128.207031 180.910156 L 128.207031 164.285156 L 151.121094 164.285156 L 151.121094 180.910156 " fill-opacity="1" fill-rule="nonzero"/><path fill="#3f9ea8" d="M 141.882812 164.285156 L 141.882812 180.910156 L 151.121094 180.910156 L 151.121094 164.285156 L 141.882812 164.285156 " fill-opacity="1" fill-rule="nonzero"/><path fill="#3a9197" d="M 146.679688 164.285156 L 146.679688 180.910156 L 151.121094 180.910156 L 151.121094 164.285156 L 146.679688 164.285156 " fill-opacity="1" fill-rule="nonzero"/><path fill="#4ec4cb" d="M 151.234375 199.773438 L 128.320312 199.773438 L 128.320312 183.152344 L 151.234375 183.152344 L 151.234375 199.773438 " fill-opacity="1" fill-rule="nonzero"/><path fill="#3f9ea8" d="M 141.996094 183.152344 L 141.996094 199.773438 L 151.234375 199.773438 L 151.234375 183.152344 L 141.996094 183.152344 " fill-opacity="1" fill-rule="nonzero"/><path fill="#3a9197" d="M 146.796875 183.152344 L 146.796875 199.773438 L 151.234375 199.773438 L 151.234375 183.152344 L 146.796875 183.152344 " fill-opacity="1" fill-rule="nonzero"/><path fill="#4ec4cb" d="M 151.234375 218.542969 L 128.320312 218.542969 L 128.320312 201.921875 L 151.234375 201.921875 L 151.234375 218.542969 " fill-opacity="1" fill-rule="nonzero"/><path fill="#3f9ea8" d="M 141.996094 201.921875 L 141.996094 218.542969 L 151.234375 218.542969 L 151.234375 201.921875 L 141.996094 201.921875 " fill-opacity="1" fill-rule="nonzero"/><path fill="#3a9197" d="M 146.796875 201.921875 L 146.796875 218.542969 L 151.234375 218.542969 L 151.234375 201.921875 L 146.796875 201.921875 " fill-opacity="1" fill-rule="nonzero"/><path fill="#f1b624" d="M 135.1875 180.910156 L 134.328125 180.910156 L 134.328125 164.285156 L 135.1875 164.285156 L 135.1875 180.910156 " fill-opacity="1" fill-rule="nonzero"/><path fill="#f1b624" d="M 145 180.910156 L 144.140625 180.910156 L 144.140625 164.285156 L 145 164.285156 L 145 180.910156 " fill-opacity="1" fill-rule="nonzero"/><path fill="#f1b624" d="M 135.1875 199.773438 L 134.328125 199.773438 L 134.328125 183.152344 L 135.1875 183.152344 L 135.1875 199.773438 " fill-opacity="1" fill-rule="nonzero"/><path fill="#f1b624" d="M 145 199.773438 L 144.140625 199.773438 L 144.140625 183.152344 L 145 183.152344 L 145 199.773438 " fill-opacity="1" fill-rule="nonzero"/><path fill="#f1b624" d="M 135.1875 218.542969 L 134.328125 218.542969 L 134.328125 201.921875 L 135.1875 201.921875 L 135.1875 218.542969 " fill-opacity="1" fill-rule="nonzero"/><path fill="#f1b624" d="M 145 218.542969 L 144.140625 218.542969 L 144.140625 201.921875 L 145 201.921875 L 145 218.542969 " fill-opacity="1" fill-rule="nonzero"/><path fill="#f8d996" d="M 151.902344 224.921875 L 128.320312 224.921875 L 128.320312 222.878906 L 151.902344 222.878906 L 151.902344 224.921875 " fill-opacity="1" fill-rule="nonzero"/><path fill="#f8d996" d="M 133.878906 236.042969 L 131.957031 236.042969 L 131.957031 224.921875 L 133.878906 224.921875 L 133.878906 236.042969 " fill-opacity="1" fill-rule="nonzero"/><path fill="#f8d996" d="M 148.265625 236.042969 L 146.34375 236.042969 L 146.34375 224.921875 L 148.265625 224.921875 L 148.265625 236.042969 " fill-opacity="1" fill-rule="nonzero"/><path fill="#4ec4cb" d="M 170.097656 230.480469 L 156.707031 230.480469 L 156.707031 171.667969 L 170.097656 171.667969 L 170.097656 230.480469 " fill-opacity="1" fill-rule="nonzero"/><path fill="#3f9ea8" d="M 163.722656 171.667969 L 163.722656 230.480469 L 170.097656 230.480469 L 170.097656 171.667969 L 163.722656 171.667969 " fill-opacity="1" fill-rule="nonzero"/><path fill="#3a9197" d="M 167.304688 171.667969 L 167.304688 230.480469 L 170.097656 230.480469 L 170.097656 171.667969 L 167.304688 171.667969 " fill-opacity="1" fill-rule="nonzero"/><path fill="#e5732b" d="M 160.667969 230.480469 L 161.289062 230.480469 L 161.289062 171.667969 L 160.667969 171.667969 L 160.667969 230.480469 " fill-opacity="1" fill-rule="nonzero"/><path fill="#e5732b" d="M 166.0625 230.480469 L 166.683594 230.480469 L 166.683594 171.667969 L 166.0625 171.667969 L 166.0625 230.480469 " fill-opacity="1" fill-rule="nonzero"/><path fill="#b6532c" d="M 172.4375 167.773438 L 152.980469 167.773438 L 152.980469 166.160156 L 172.4375 166.160156 L 172.4375 167.773438 " fill-opacity="1" fill-rule="nonzero"/><path fill="#e78f2c" d="M 126.578125 163.152344 L 152.980469 163.152344 L 152.980469 161.953125 L 126.578125 161.953125 L 126.578125 163.152344 " fill-opacity="1" fill-rule="nonzero"/><path fill="#ffffff" d="M 145.429688 235.316406 L 134.757812 235.316406 L 134.757812 225.792969 L 145.429688 225.792969 L 145.429688 235.316406 " fill-opacity="1" fill-rule="nonzero"/><path fill="#4ec4cb" d="M 144.929688 235.316406 L 135.257812 235.316406 L 135.257812 226.6875 L 144.929688 226.6875 L 144.929688 235.316406 " fill-opacity="1" fill-rule="nonzero"/><path fill="#ffffff" d="M 140.667969 235.316406 L 139.777344 235.316406 L 139.777344 225.792969 L 140.667969 225.792969 L 140.667969 235.316406 " fill-opacity="1" fill-rule="nonzero"/><g clip-path="url(#25a6c6d162)"><path fill="#efefed" d="M 289.199219 416.597656 C 289.035156 416.632812 288.890625 416.664062 288.761719 416.664062 C 288.355469 416.679688 287.9375 416.679688 287.53125 416.664062 C 287.433594 416.664062 287.335938 416.550781 287.207031 416.484375 C 287.109375 416.550781 287.011719 416.632812 286.964844 416.664062 C 286.722656 416.582031 286.511719 416.535156 286.332031 416.417969 C 286.21875 416.355469 286.15625 416.191406 286.089844 416.078125 C 286.042969 415.980469 286.011719 415.851562 285.992188 415.769531 C 285.394531 415.65625 285.054688 415.246094 284.765625 414.777344 C 284.730469 414.710938 284.699219 414.628906 284.632812 414.597656 L 284.050781 414.304688 C 284.019531 414.289062 284.019531 414.222656 284.003906 414.191406 C 283.875 414.027344 283.726562 413.898438 283.632812 413.71875 C 283.519531 413.539062 283.4375 413.34375 283.355469 413.164062 C 283.308594 413.066406 283.308594 412.96875 283.273438 412.871094 C 282.820312 412.984375 282.386719 412.707031 282.289062 412.253906 C 282.238281 412.007812 282.078125 411.894531 281.898438 411.925781 C 281.785156 411.945312 281.707031 412.15625 281.625 412.300781 C 281.574219 412.398438 281.542969 412.496094 281.480469 412.628906 C 281.347656 412.511719 281.269531 412.449219 281.203125 412.382812 C 281.027344 412.464844 280.863281 412.546875 280.703125 412.628906 C 280.554688 412.707031 280.410156 412.804688 280.265625 412.886719 C 280.167969 412.886719 280.007812 412.855469 279.910156 412.921875 C 279.601562 413.097656 279.179688 413.097656 278.953125 413.472656 C 278.90625 413.554688 278.679688 413.523438 278.550781 413.554688 C 278.308594 413.636719 278.0625 413.734375 277.773438 413.847656 C 277.59375 413.71875 276.65625 413.78125 276.429688 413.996094 C 276.316406 413.734375 276.15625 413.703125 275.929688 413.863281 C 275.457031 414.222656 274.925781 414.289062 274.359375 414.304688 C 274.117188 414.320312 273.855469 414.402344 273.613281 414.417969 C 272.933594 414.433594 272.253906 414.433594 271.558594 414.417969 C 271.21875 414.402344 270.878906 414.335938 270.472656 414.289062 C 270.457031 414.253906 270.394531 414.15625 270.328125 414.027344 C 270.230469 414.109375 270.132812 414.171875 270.039062 414.253906 C 269.828125 413.996094 269.566406 414.207031 269.324219 414.191406 C 269.210938 414.191406 269.097656 414.222656 268.96875 414.222656 C 268.742188 414.238281 268.515625 414.253906 268.289062 414.238281 C 267.964844 414.222656 267.640625 414.171875 267.320312 414.125 C 267.058594 414.09375 266.800781 413.996094 266.542969 413.976562 C 266.21875 413.945312 265.960938 413.832031 265.683594 413.652344 C 265.472656 413.523438 265.183594 413.523438 265.054688 413.230469 C 264.957031 413.3125 264.859375 413.375 264.746094 413.457031 C 264.714844 413.359375 264.679688 413.277344 264.648438 413.214844 C 264.617188 413.214844 264.601562 413.214844 264.582031 413.230469 C 264.324219 413.488281 264.050781 413.292969 263.789062 413.261719 C 263.335938 413.195312 262.917969 413.035156 262.464844 412.9375 C 262.089844 412.855469 261.765625 412.707031 261.460938 412.496094 C 261.3125 412.398438 261.121094 412.398438 260.972656 412.300781 C 260.8125 412.1875 260.699219 412.007812 260.539062 411.894531 C 260.425781 411.8125 260.277344 411.765625 260.148438 411.765625 C 259.761719 411.75 259.46875 411.535156 259.144531 411.339844 C 258.773438 411.113281 258.320312 411.046875 257.914062 410.886719 C 257.738281 410.820312 257.59375 410.675781 257.429688 410.59375 C 257.074219 410.414062 256.71875 410.234375 256.363281 410.089844 C 256.085938 409.957031 255.796875 409.859375 255.519531 409.761719 C 255.457031 409.746094 255.390625 409.746094 255.308594 409.746094 C 255.277344 409.484375 255.148438 409.371094 254.855469 409.355469 C 254.726562 409.355469 254.597656 409.160156 254.453125 409.078125 C 254.324219 408.996094 254.195312 408.898438 254.0625 408.820312 C 253.933594 408.738281 253.773438 408.703125 253.660156 408.605469 C 253.402344 408.378906 253.15625 408.152344 252.929688 407.890625 C 252.671875 407.597656 252.445312 407.273438 252.1875 406.980469 C 252.136719 406.929688 251.992188 406.980469 251.878906 406.980469 C 251.863281 406.898438 251.832031 406.800781 251.796875 406.6875 C 251.589844 406.800781 251.378906 406.671875 251.378906 406.394531 C 251.378906 406.101562 251.28125 406.117188 251.070312 406.230469 C 251.003906 406.261719 250.890625 406.28125 250.84375 406.230469 C 250.601562 406.035156 250.359375 405.808594 250.132812 405.597656 C 249.871094 405.351562 249.613281 405.125 249.371094 404.878906 C 249.273438 404.78125 249.242188 404.636719 249.144531 404.554688 C 248.804688 404.230469 248.496094 403.804688 248.09375 403.609375 C 247.800781 403.449219 247.703125 403.171875 247.492188 403.039062 C 247.171875 402.84375 247.089844 402.488281 246.8125 402.277344 C 246.699219 402.195312 246.667969 401.964844 246.570312 401.835938 C 246.410156 401.640625 246.230469 401.429688 246.070312 401.234375 C 245.746094 400.828125 245.40625 400.4375 245.097656 400.011719 C 244.871094 399.703125 244.695312 399.363281 244.5 399.035156 C 244.320312 398.742188 244.160156 398.433594 244.015625 398.125 C 243.886719 397.847656 243.773438 397.539062 243.722656 397.246094 C 243.640625 396.773438 243.480469 396.367188 243.15625 396.007812 C 242.996094 395.832031 242.882812 395.539062 242.847656 395.292969 C 242.785156 394.738281 242.460938 394.316406 242.265625 393.84375 C 242.121094 393.488281 242.089844 393.078125 241.992188 392.707031 C 241.960938 392.542969 241.878906 392.378906 241.828125 392.234375 C 241.78125 392.070312 241.714844 391.90625 241.699219 391.746094 C 241.683594 391.5 241.683594 391.273438 241.554688 391.046875 C 241.457031 390.882812 241.488281 390.636719 241.523438 390.425781 C 241.570312 390.003906 241.425781 389.660156 241.199219 389.320312 C 240.921875 388.878906 240.695312 388.425781 240.679688 387.871094 C 240.695312 387.121094 240.550781 386.421875 240.503906 385.722656 C 240.453125 384.828125 240.453125 383.898438 240.4375 382.988281 C 240.421875 382.417969 240.375 381.832031 240.390625 381.261719 C 240.40625 380.855469 240.503906 380.449219 240.550781 380.027344 C 240.617188 379.503906 240.632812 378.96875 240.730469 378.449219 C 240.792969 378.136719 240.988281 377.863281 241.070312 377.550781 C 241.214844 377.03125 241.457031 376.59375 241.894531 376.234375 C 242.152344 376.023438 242.316406 375.648438 242.492188 375.339844 C 242.589844 375.144531 242.65625 375.0625 242.914062 375.0625 C 243.253906 375.0625 243.609375 374.867188 244.046875 374.71875 C 244.320312 375.109375 244.660156 375.617188 245.019531 376.105469 C 245.132812 376.25 245.277344 376.378906 245.390625 376.542969 C 245.488281 376.671875 245.601562 376.789062 245.648438 376.933594 C 245.730469 377.144531 245.8125 377.324219 246.054688 377.375 C 246.070312 377.375 246.070312 377.375 246.085938 377.390625 C 246.472656 377.78125 246.847656 378.171875 247.234375 378.5625 C 247.316406 378.644531 247.378906 378.707031 247.445312 378.789062 L 248.191406 379.539062 C 248.253906 379.601562 248.351562 379.636719 248.398438 379.71875 C 248.53125 379.894531 248.625 380.109375 248.773438 380.335938 C 248.835938 380.269531 248.933594 380.207031 249.03125 380.125 C 249.273438 380.238281 249.484375 380.367188 249.484375 380.675781 C 249.484375 380.726562 249.550781 380.808594 249.597656 380.824219 C 250.019531 380.9375 250.164062 381.378906 250.472656 381.589844 C 250.796875 381.800781 250.941406 382.109375 251.167969 382.386719 C 251.507812 382.824219 251.878906 383.25 252.234375 383.671875 C 252.269531 383.722656 252.347656 383.769531 252.382812 383.769531 C 252.609375 383.738281 252.625 383.882812 252.65625 384.0625 C 252.671875 384.160156 252.800781 384.257812 252.882812 384.324219 C 253.0625 384.46875 253.367188 384.503906 253.289062 384.84375 C 253.382812 384.828125 253.480469 384.777344 253.53125 384.8125 C 253.835938 384.992188 254.113281 385.203125 254.402344 385.398438 C 254.453125 385.429688 254.484375 385.445312 254.535156 385.480469 C 254.890625 385.675781 255.261719 385.851562 255.601562 386.046875 C 255.746094 386.128906 255.875 386.277344 256.023438 386.390625 C 256.6875 386.925781 257.332031 387.464844 257.996094 387.984375 C 258.175781 388.132812 258.417969 388.214844 258.628906 388.3125 C 258.660156 388.328125 258.707031 388.328125 258.707031 388.34375 C 258.789062 388.71875 259.144531 388.652344 259.386719 388.765625 C 259.839844 388.996094 260.3125 389.171875 260.472656 389.777344 C 260.570312 390.101562 260.8125 390.394531 260.652344 390.769531 C 260.617188 390.851562 260.585938 390.929688 260.519531 390.980469 C 260.199219 391.289062 259.859375 391.597656 259.550781 391.925781 C 259.339844 392.136719 259.144531 392.378906 258.953125 392.625 C 258.742188 392.902344 258.515625 393.195312 258.335938 393.488281 C 258.027344 394.023438 257.722656 394.5625 257.480469 395.128906 C 257.269531 395.601562 257.140625 396.105469 257.007812 396.613281 C 256.960938 396.773438 256.960938 396.984375 257.027344 397.132812 C 257.1875 397.523438 257.347656 397.621094 257.851562 397.457031 C 258.304688 397.3125 258.726562 397.425781 259.160156 397.441406 C 259.613281 397.457031 260.085938 397.472656 260.539062 397.492188 C 261.054688 397.523438 261.589844 397.570312 262.105469 397.605469 C 262.480469 397.621094 262.835938 397.703125 263.191406 397.523438 C 263.371094 397.441406 263.597656 397.472656 263.789062 397.425781 C 264.148438 397.328125 264.488281 397.082031 264.828125 397.101562 C 265.394531 397.132812 265.894531 396.886719 266.414062 396.773438 C 266.507812 396.757812 266.589844 396.628906 266.640625 396.59375 C 266.769531 396.613281 266.867188 396.660156 266.945312 396.628906 C 267.253906 396.53125 267.511719 396.335938 267.867188 396.382812 C 268 396.398438 268.144531 396.238281 268.289062 396.171875 C 268.695312 395.992188 269.097656 395.765625 269.519531 395.699219 C 269.84375 395.652344 270.039062 395.503906 270.230469 395.292969 C 270.246094 395.277344 270.265625 395.261719 270.28125 395.261719 C 270.78125 395.292969 271.089844 394.835938 271.542969 394.722656 C 271.800781 394.660156 271.945312 394.054688 271.753906 393.78125 C 271.527344 393.453125 271.414062 393.015625 271.023438 392.804688 C 271.007812 392.785156 270.992188 392.738281 270.976562 392.722656 C 270.523438 392.070312 270.054688 391.4375 269.601562 390.785156 C 269.585938 390.769531 269.566406 390.753906 269.566406 390.734375 C 269.519531 390.070312 269.164062 389.5 268.921875 388.898438 C 268.90625 388.847656 268.886719 388.78125 268.855469 388.75 C 268.144531 388.117188 268.144531 387.253906 268.078125 386.40625 L 267.933594 384.648438 C 267.917969 384.386719 268.113281 384.015625 268.355469 383.882812 L 268.402344 383.835938 C 268.695312 383.265625 269.375 383.3125 269.777344 382.957031 C 270.070312 382.695312 270.378906 382.726562 270.699219 382.679688 C 270.847656 382.664062 270.976562 382.53125 271.105469 382.453125 C 271.171875 382.417969 271.234375 382.355469 271.316406 382.335938 C 271.625 382.289062 271.929688 382.289062 272.222656 382.207031 C 272.351562 382.175781 272.464844 382.027344 272.5625 381.964844 C 272.691406 381.996094 272.820312 382.042969 272.949219 382.042969 C 273.289062 382.042969 273.644531 382.320312 274.003906 382.027344 C 274.035156 382.011719 274.082031 382.027344 274.132812 382.027344 C 274.535156 382.011719 274.957031 381.964844 275.363281 381.980469 C 275.78125 381.996094 276.203125 382.078125 276.640625 382.109375 C 276.980469 382.125 277.304688 382.09375 277.644531 382.09375 C 277.675781 382.09375 277.707031 382.078125 277.742188 382.09375 C 278.113281 382.355469 278.515625 382.335938 278.9375 382.335938 C 279.003906 382.335938 279.066406 382.371094 279.117188 382.402344 C 279.40625 382.566406 279.714844 382.53125 279.957031 382.289062 C 280.152344 382.515625 280.363281 382.695312 280.6875 382.566406 C 280.75 382.53125 280.863281 382.648438 280.976562 382.710938 C 281.027344 382.648438 281.089844 382.582031 281.140625 382.53125 C 281.253906 382.566406 281.367188 382.597656 281.460938 382.628906 C 282.207031 382.746094 282.953125 382.890625 283.710938 382.972656 C 284.292969 383.039062 284.894531 383.070312 285.425781 383.347656 C 285.476562 383.363281 285.523438 383.363281 285.589844 383.378906 C 285.945312 383.410156 286.285156 383.460938 286.640625 383.492188 C 286.671875 383.492188 286.707031 383.507812 286.738281 383.492188 C 287.09375 383.25 287.402344 383.542969 287.726562 383.589844 C 288.015625 383.640625 288.308594 383.6875 288.597656 383.753906 C 288.777344 383.785156 288.9375 383.867188 289.101562 383.882812 C 289.34375 383.898438 289.570312 383.882812 289.8125 383.882812 C 289.894531 383.882812 289.992188 383.820312 290.039062 383.851562 C 290.445312 384.09375 290.914062 383.933594 291.351562 384.03125 C 291.675781 384.09375 292.03125 384.03125 292.371094 384.03125 C 292.515625 384.03125 292.675781 384.046875 292.808594 384.113281 C 293.066406 384.242188 293.261719 384.257812 293.355469 383.980469 C 293.519531 384.046875 293.679688 384.144531 293.828125 384.144531 C 294.75 384.210938 295.671875 384.226562 296.578125 384.308594 C 296.886719 384.324219 297.175781 384.46875 297.484375 384.519531 C 297.710938 384.550781 297.953125 384.535156 298.195312 384.535156 C 298.324219 384.535156 298.457031 384.519531 298.585938 384.535156 C 299.117188 384.648438 299.652344 384.777344 300.203125 384.875 C 300.332031 384.894531 300.496094 384.796875 300.609375 384.84375 C 300.949219 385.007812 301.320312 384.972656 301.675781 385.039062 C 301.757812 385.054688 301.855469 385.105469 301.917969 385.152344 C 302.0625 385.25 302.195312 385.234375 302.371094 385.21875 C 302.648438 385.1875 302.9375 385.265625 303.230469 385.316406 C 303.421875 385.332031 303.601562 385.363281 303.796875 385.382812 C 304.054688 385.414062 304.3125 385.445312 304.574219 385.460938 C 304.894531 385.496094 305.21875 385.496094 305.542969 385.527344 C 305.722656 385.542969 305.898438 385.59375 306.09375 385.625 C 306.140625 385.640625 306.207031 385.675781 306.238281 385.65625 C 306.902344 385.542969 307.5 385.917969 308.132812 385.917969 C 308.472656 385.917969 308.601562 386.066406 308.730469 386.339844 C 308.828125 386.519531 309.023438 386.652344 309.167969 386.8125 C 309.265625 386.925781 309.363281 387.042969 309.445312 387.171875 C 309.878906 387.839844 310.042969 388.605469 310.105469 389.367188 C 310.140625 389.742188 310.058594 390.132812 309.976562 390.507812 C 309.816406 391.273438 309.621094 392.039062 309.410156 392.785156 C 309.378906 392.882812 309.296875 392.964844 309.234375 393.046875 C 309.199219 393.097656 309.136719 393.128906 309.105469 393.195312 C 308.941406 393.617188 308.796875 394.023438 308.40625 394.347656 C 308.246094 394.496094 308.261719 394.835938 308.148438 395.066406 C 308.019531 395.34375 307.839844 395.585938 307.695312 395.847656 C 307.519531 396.1875 307.355469 396.546875 307.144531 396.855469 C 307.066406 396.984375 307.097656 397.277344 306.804688 397.246094 C 306.789062 397.246094 306.773438 397.34375 306.742188 397.410156 C 306.707031 397.507812 306.691406 397.621094 306.628906 397.703125 C 306.351562 398.058594 306.109375 398.417969 306.027344 398.875 C 306.027344 398.890625 306.011719 398.921875 305.996094 398.921875 C 305.460938 399.347656 305.332031 400.03125 304.945312 400.550781 C 304.894531 400.617188 304.832031 400.679688 304.78125 400.746094 C 304.621094 400.972656 304.476562 401.21875 304.296875 401.445312 C 304.199219 401.574219 304.054688 401.671875 303.941406 401.804688 C 303.859375 401.886719 303.8125 402 303.746094 402.097656 C 303.714844 402.144531 303.730469 402.210938 303.683594 402.226562 C 303.148438 402.570312 303.132812 403.234375 302.695312 403.660156 C 302.4375 403.902344 302.273438 404.261719 302.082031 404.570312 C 301.757812 405.074219 301.433594 405.5625 301.109375 406.066406 C 301.0625 406.148438 301.011719 406.230469 300.964844 406.296875 C 300.382812 406.980469 299.796875 407.648438 299.34375 408.429688 C 299.183594 408.703125 299.054688 409.015625 298.875 409.273438 C 298.519531 409.777344 298.148438 410.265625 297.757812 410.753906 C 297.5 411.082031 297.242188 411.40625 296.980469 411.714844 C 296.933594 411.78125 296.851562 411.8125 296.789062 411.863281 C 296.640625 411.976562 296.449219 412.074219 296.367188 412.238281 C 296.125 412.742188 295.65625 413.050781 295.300781 413.425781 C 294.828125 413.929688 294.261719 414.367188 293.730469 414.824219 C 293.375 415.132812 292.984375 415.425781 292.613281 415.703125 C 292.5625 415.753906 292.449219 415.703125 292.371094 415.734375 C 292.03125 415.882812 291.691406 416.046875 291.335938 416.175781 C 291.171875 416.242188 290.960938 416.191406 290.832031 416.273438 C 290.476562 416.515625 290.070312 416.46875 289.683594 416.515625 C 289.554688 416.535156 289.441406 416.613281 289.3125 416.632812 C 289.3125 416.664062 289.246094 416.613281 289.199219 416.597656 Z M 301.191406 387.042969 C 300.949219 387.042969 300.738281 387.058594 300.558594 387.042969 C 299.992188 386.960938 299.441406 386.730469 298.859375 386.960938 C 298.8125 386.976562 298.746094 386.925781 298.699219 386.910156 C 298.292969 386.8125 297.871094 386.683594 297.46875 386.632812 C 296.933594 386.570312 296.367188 386.652344 295.847656 386.488281 C 295.152344 386.277344 294.441406 386.339844 293.730469 386.261719 C 293.164062 386.195312 292.582031 386.242188 292.015625 386.226562 C 291.769531 386.226562 291.527344 386.164062 291.285156 386.144531 C 290.785156 386.097656 290.265625 386.082031 289.75 386.03125 C 289.261719 385.984375 288.792969 385.851562 288.308594 385.851562 C 287.902344 385.851562 287.5 385.851562 287.109375 385.707031 C 287.046875 385.675781 286.964844 385.675781 286.898438 385.675781 C 286.203125 385.625 285.507812 385.59375 284.828125 385.511719 C 284.570312 385.480469 284.34375 385.332031 284.085938 385.285156 C 283.726562 385.21875 283.371094 385.203125 283.015625 385.152344 C 282.464844 385.054688 281.898438 384.941406 281.347656 384.84375 C 281.1875 384.8125 281.007812 384.875 280.847656 384.84375 C 280.296875 384.746094 279.761719 384.601562 279.230469 384.519531 C 278.628906 384.4375 278.015625 384.40625 277.417969 384.339844 C 276.738281 384.273438 276.058594 384.324219 275.363281 384.257812 C 274.714844 384.191406 274.050781 384.191406 273.402344 384.339844 C 273.273438 384.371094 273.128906 384.386719 273 384.371094 C 272.351562 384.308594 271.738281 384.453125 271.121094 384.664062 C 271.023438 384.699219 270.894531 384.796875 270.894531 384.859375 C 270.960938 385.347656 270.992188 385.851562 271.121094 386.324219 C 271.203125 386.632812 271.378906 386.910156 271.574219 387.171875 C 271.882812 387.5625 272.078125 388.019531 272.238281 388.472656 C 272.382812 388.898438 272.464844 389.335938 272.625 389.742188 C 272.722656 389.988281 272.738281 390.363281 273.078125 390.378906 L 273.582031 391.386719 C 273.824219 391.84375 274.082031 392.28125 274.324219 392.738281 C 274.40625 392.882812 274.503906 393.046875 274.550781 393.210938 C 274.714844 393.714844 274.859375 394.234375 275.023438 394.738281 C 275.039062 394.773438 275.054688 394.789062 275.070312 394.804688 C 275.265625 395.082031 275.230469 395.34375 274.972656 395.539062 C 274.875 395.617188 274.714844 395.667969 274.683594 395.765625 C 274.585938 396.058594 274.277344 395.992188 274.179688 395.945312 C 273.984375 395.863281 273.921875 395.992188 273.839844 396.058594 C 273.695312 396.171875 273.582031 396.335938 273.46875 396.464844 C 273.160156 396.320312 272.496094 396.59375 272.222656 396.984375 C 271.945312 396.789062 271.378906 397.035156 271.105469 397.457031 C 270.945312 397.457031 270.796875 397.425781 270.699219 397.457031 C 270.394531 397.589844 270.101562 397.75 269.792969 397.882812 C 269.550781 397.980469 269.261719 397.996094 269.035156 398.140625 C 268.546875 398.433594 267.980469 398.566406 267.464844 398.582031 C 266.980469 398.597656 266.574219 398.808594 266.121094 398.875 C 265.601562 398.972656 265.148438 399.28125 264.617188 399.28125 C 264.4375 399.28125 264.226562 399.347656 264.082031 399.445312 C 263.839844 399.621094 263.695312 399.671875 263.597656 399.230469 C 263.449219 399.460938 263.355469 399.621094 263.289062 399.71875 C 262.496094 399.71875 261.75 399.703125 260.992188 399.71875 C 260.570312 399.738281 260.148438 399.785156 259.746094 399.816406 C 259.679688 399.816406 259.613281 399.769531 259.535156 399.769531 C 259.324219 399.753906 259.113281 399.71875 258.902344 399.71875 C 258.691406 399.71875 258.480469 399.769531 258.273438 399.753906 C 258.160156 399.753906 258.046875 399.621094 257.933594 399.640625 C 257.671875 399.65625 257.382812 399.460938 257.140625 399.71875 C 257.121094 399.738281 257.074219 399.71875 257.042969 399.71875 C 256.589844 399.574219 256.121094 399.914062 255.667969 399.640625 C 255.648438 399.640625 255.632812 399.65625 255.601562 399.65625 C 255.34375 399.6875 255.035156 399.835938 254.824219 399.753906 C 254.484375 399.621094 254.046875 399.867188 253.789062 399.476562 C 253.773438 399.460938 253.707031 399.460938 253.660156 399.476562 C 253.382812 399.558594 253.367188 399.394531 253.402344 399.199219 C 253.417969 399.054688 253.464844 398.90625 253.496094 398.761719 C 253.480469 398.761719 253.464844 398.742188 253.449219 398.742188 C 253.304688 398.921875 253.15625 399.117188 253.027344 399.296875 C 252.996094 399.28125 252.949219 399.265625 252.914062 399.25 C 252.835938 398.839844 252.542969 399.085938 252.363281 399.019531 C 252.285156 399.003906 252.203125 398.921875 252.121094 398.890625 C 252.089844 398.875 252.042969 398.859375 252.007812 398.839844 C 251.878906 398.792969 251.75 398.742188 251.636719 398.679688 C 251.394531 398.53125 251.167969 398.386719 250.925781 398.238281 C 250.84375 398.191406 250.746094 398.15625 250.683594 398.109375 C 250.457031 397.945312 250.230469 397.800781 249.921875 397.847656 C 249.855469 397.863281 249.777344 397.800781 249.710938 397.785156 C 249.644531 397.75 249.582031 397.703125 249.515625 397.703125 C 249.191406 397.71875 248.886719 397.765625 248.609375 397.507812 C 248.578125 397.472656 248.511719 397.472656 248.464844 397.457031 C 248.222656 397.394531 247.996094 397.328125 247.753906 397.261719 C 247.753906 397.230469 247.753906 397.199219 247.769531 397.164062 C 247.6875 397.230469 247.589844 397.296875 247.429688 397.425781 C 247.6875 397.785156 247.929688 398.125 248.191406 398.46875 C 248.398438 398.761719 248.675781 399.035156 248.820312 399.363281 C 249.128906 400.03125 249.664062 400.484375 250.164062 400.988281 C 250.535156 401.363281 250.925781 401.722656 251.328125 402.0625 C 251.816406 402.472656 252.089844 403.039062 252.589844 403.449219 C 253.042969 403.820312 253.53125 404.164062 253.984375 404.539062 C 254.195312 404.71875 254.421875 404.894531 254.628906 405.089844 C 254.839844 405.269531 255.019531 405.480469 255.246094 405.644531 C 255.457031 405.808594 255.761719 405.855469 255.894531 406.050781 C 256.25 406.554688 256.75 406.867188 257.253906 407.160156 C 257.527344 407.320312 257.835938 407.453125 258.125 407.566406 C 258.367188 407.664062 258.628906 407.859375 258.902344 407.921875 C 259.242188 407.988281 259.519531 408.199219 259.808594 408.347656 C 260.035156 408.445312 260.292969 408.507812 260.519531 408.605469 C 260.859375 408.753906 261.183594 408.917969 261.492188 409.09375 C 261.878906 409.308594 262.253906 409.550781 262.691406 409.828125 C 262.804688 409.796875 262.789062 409.84375 263.207031 410.054688 C 263.757812 410.316406 264.339844 410.511719 264.921875 410.691406 C 265.34375 410.820312 265.796875 410.886719 266.234375 411 C 266.378906 411.03125 266.507812 411.097656 266.640625 411.144531 C 266.929688 411.226562 267.238281 411.292969 267.527344 411.390625 L 268.597656 411.730469 C 268.679688 411.75 268.742188 411.796875 268.824219 411.796875 C 269.097656 411.796875 269.375 411.714844 269.632812 411.78125 C 270.054688 411.878906 270.441406 412.042969 270.878906 411.894531 C 270.910156 411.878906 270.960938 411.863281 271.007812 411.878906 C 271.234375 411.894531 271.460938 411.925781 271.6875 411.960938 C 272.011719 411.992188 272.417969 411.925781 272.644531 412.089844 C 273 412.382812 273.0625 412.121094 273.210938 411.925781 C 273.417969 411.992188 273.597656 412.074219 273.855469 412.15625 C 273.984375 412.105469 274.210938 412.023438 274.457031 411.925781 C 274.457031 411.945312 274.488281 412.023438 274.503906 412.121094 C 274.714844 412.074219 274.925781 412.042969 275.136719 411.976562 C 275.28125 411.925781 275.425781 411.796875 275.570312 411.8125 C 276.398438 411.910156 277.125 411.554688 277.886719 411.359375 C 278.257812 411.261719 278.628906 411.144531 279.003906 411.015625 C 279.292969 410.917969 279.699219 410.886719 279.84375 410.675781 C 280.023438 410.414062 280.183594 410.527344 280.363281 410.542969 C 280.878906 410.578125 281.042969 410.445312 281.140625 409.910156 C 281.15625 409.796875 281.234375 409.699219 281.253906 409.582031 C 281.300781 409.324219 281.511719 409.289062 281.707031 409.210938 C 281.800781 409.160156 281.882812 409.09375 281.980469 409.046875 L 282.0625 409.128906 C 282.140625 408.996094 282.207031 408.851562 282.304688 408.722656 C 282.351562 408.671875 282.449219 408.640625 282.53125 408.625 C 282.789062 408.589844 283.066406 408.574219 283.292969 408.558594 C 283.421875 408.753906 283.519531 408.996094 283.679688 409.175781 C 283.9375 409.46875 284.261719 409.699219 284.539062 409.992188 C 284.941406 410.429688 285.332031 410.902344 285.734375 411.359375 L 285.832031 411.457031 C 286.414062 412.023438 286.964844 412.59375 287.417969 413.277344 C 287.53125 413.441406 287.757812 413.570312 287.953125 413.585938 C 288.292969 413.621094 288.484375 413.71875 288.550781 414.140625 C 289.085938 414.140625 289.636719 414.191406 290.183594 414.125 C 290.507812 414.074219 290.898438 414.058594 291.125 413.703125 C 291.203125 413.570312 291.367188 413.507812 291.480469 413.390625 C 291.578125 413.34375 291.640625 413.246094 291.707031 413.179688 C 291.949219 412.9375 292.207031 412.691406 292.46875 412.449219 C 292.546875 412.382812 292.597656 412.269531 292.695312 412.21875 C 293.324219 411.945312 293.601562 411.339844 293.988281 410.851562 C 294.054688 410.773438 294.167969 410.609375 294.214844 410.625 C 294.472656 410.691406 294.472656 410.511719 294.539062 410.363281 C 294.585938 410.265625 294.652344 410.167969 294.714844 410.070312 C 294.925781 409.777344 295.167969 409.519531 295.347656 409.210938 C 295.574219 408.835938 295.929688 408.542969 295.996094 408.070312 C 296.011719 407.921875 296.207031 407.792969 296.300781 407.664062 C 296.640625 407.207031 297 406.734375 297.339844 406.28125 C 297.515625 406.050781 297.679688 405.808594 297.839844 405.5625 C 298.082031 405.222656 298.359375 404.894531 298.601562 404.554688 C 298.8125 404.261719 298.988281 403.9375 299.183594 403.625 C 299.34375 403.367188 299.539062 403.121094 299.636719 402.828125 C 299.847656 402.277344 300.269531 401.902344 300.671875 401.511719 C 300.949219 401.25 301.253906 400.941406 301.351562 400.582031 C 301.464844 400.226562 301.660156 399.964844 301.871094 399.6875 C 302.273438 399.183594 302.613281 398.613281 302.988281 398.078125 C 303.101562 397.914062 303.179688 397.734375 303.40625 397.75 C 303.421875 397.75 303.421875 397.71875 303.441406 397.6875 C 303.390625 397.652344 303.34375 397.621094 303.308594 397.605469 C 303.40625 397.492188 303.535156 397.394531 303.601562 397.261719 C 303.941406 396.613281 304.265625 395.945312 304.621094 395.292969 C 305.089844 394.429688 305.609375 393.617188 305.914062 392.671875 C 306.109375 392.101562 306.273438 391.5 306.53125 390.964844 C 306.839844 390.3125 307.066406 389.726562 306.773438 388.976562 C 306.660156 388.667969 306.53125 388.410156 306.335938 388.148438 C 306.0625 387.757812 305.738281 387.5625 305.253906 387.742188 C 305.234375 387.757812 305.1875 387.707031 305.15625 387.691406 C 304.71875 387.449219 304.234375 387.351562 303.730469 387.449219 C 303.683594 387.464844 303.617188 387.480469 303.570312 387.464844 C 303.050781 387.382812 302.515625 387.269531 302 387.1875 C 301.789062 387.15625 301.578125 387.140625 301.367188 387.121094 C 301.367188 387.15625 301.351562 387.171875 301.351562 387.203125 C 301.269531 387.15625 301.222656 387.074219 301.191406 387.042969 Z M 249.5 392.039062 C 249.417969 392.101562 249.402344 392.121094 249.386719 392.136719 C 249.113281 392.558594 248.949219 392.574219 248.449219 392.527344 C 248.15625 392.492188 247.851562 392.65625 247.542969 392.738281 C 247.511719 392.753906 247.460938 392.835938 247.460938 392.867188 C 247.558594 393.113281 247.625 393.390625 247.800781 393.566406 C 248.011719 393.796875 248.285156 393.957031 248.5625 394.136719 C 248.609375 394.171875 248.722656 394.171875 248.789062 394.136719 C 249.078125 393.992188 249.371094 393.828125 249.679688 393.683594 C 249.726562 393.648438 249.824219 393.648438 249.855469 393.683594 C 250.003906 393.859375 250.132812 393.730469 250.246094 393.664062 C 250.457031 393.566406 250.648438 393.421875 250.859375 393.339844 C 251.023438 393.273438 251.230469 393.175781 251.394531 393.226562 C 251.636719 393.292969 251.816406 393.226562 251.945312 393.078125 C 252.316406 392.640625 252.898438 392.753906 253.351562 392.527344 C 253.660156 392.378906 254.015625 392.378906 254.339844 392.296875 C 254.386719 392.28125 254.4375 392.21875 254.484375 392.183594 C 254.597656 392.121094 254.710938 392.023438 254.824219 391.972656 C 255.035156 391.90625 255.261719 391.941406 255.457031 391.84375 C 255.761719 391.679688 256.039062 391.453125 256.347656 391.257812 C 256.425781 391.191406 256.523438 391.144531 256.621094 391.09375 C 256.832031 390.996094 256.929688 390.753906 256.78125 390.558594 C 256.734375 390.507812 256.523438 390.492188 256.523438 390.507812 C 256.378906 390.898438 255.957031 390.800781 255.683594 390.949219 C 255.308594 391.160156 254.875 391.222656 254.453125 391.339844 C 254.03125 391.453125 253.644531 391.710938 253.175781 391.582031 C 253.109375 391.566406 253.027344 391.597656 252.949219 391.613281 C 252.558594 391.695312 252.1875 391.859375 251.816406 391.941406 C 251.378906 392.023438 250.910156 392.085938 250.4375 392.121094 C 250.246094 392.136719 250.050781 392.183594 249.871094 392.25 C 249.628906 392.378906 249.484375 392.394531 249.5 392.039062 Z M 247.511719 391.664062 L 247.605469 391.710938 C 247.640625 391.664062 247.671875 391.597656 247.6875 391.550781 C 247.753906 391.304688 247.898438 391.175781 248.15625 391.144531 C 248.5625 391.078125 248.917969 390.929688 249.242188 390.671875 C 249.273438 390.65625 249.324219 390.636719 249.355469 390.636719 C 249.742188 390.539062 250.164062 390.492188 250.519531 390.328125 C 250.859375 390.167969 251.183594 390.050781 251.554688 390.019531 C 251.765625 390.003906 251.960938 389.890625 252.171875 389.839844 C 252.363281 389.792969 252.558594 389.757812 252.753906 389.695312 C 252.980469 389.628906 253.207031 389.53125 253.433594 389.464844 C 253.644531 389.402344 253.886719 389.386719 254.082031 389.269531 C 254.160156 389.222656 254.226562 388.996094 254.195312 388.878906 C 254.113281 388.605469 253.886719 388.539062 253.628906 388.605469 C 253.207031 388.71875 252.785156 388.832031 252.398438 388.976562 C 251.765625 389.222656 251.167969 389.5625 250.4375 389.5625 C 250.148438 389.5625 249.777344 389.824219 249.566406 389.710938 C 249.160156 389.5 248.886719 389.792969 248.5625 389.808594 C 248.027344 389.839844 247.558594 390.246094 246.976562 390.230469 C 246.652344 390.214844 246.3125 390.296875 245.988281 390.363281 C 245.875 390.378906 245.730469 390.460938 245.679688 390.539062 C 245.632812 390.605469 245.679688 390.785156 245.746094 390.851562 C 246.085938 391.175781 246.425781 391.5 246.621094 391.941406 C 246.652344 392.003906 246.683594 392.054688 246.734375 392.101562 C 246.960938 391.84375 247.1875 391.613281 247.445312 391.320312 C 247.460938 391.515625 247.492188 391.582031 247.511719 391.664062 Z M 245.632812 389.351562 C 245.601562 389.320312 245.585938 389.269531 245.550781 389.238281 C 245.617188 389.320312 245.664062 389.386719 245.730469 389.464844 C 245.761719 389.417969 245.792969 389.402344 245.8125 389.386719 C 245.972656 389.140625 246.085938 388.832031 246.472656 388.847656 C 246.621094 388.847656 246.796875 388.816406 246.925781 388.75 C 247.152344 388.652344 247.363281 388.539062 247.574219 388.425781 C 247.625 388.390625 247.671875 388.375 247.738281 388.34375 C 247.945312 388.230469 248.140625 388.050781 248.382812 387.984375 C 248.949219 387.839844 249.515625 387.742188 250.082031 387.628906 C 250.34375 387.578125 250.585938 387.53125 250.84375 387.480469 C 251.054688 387.449219 251.378906 387.023438 251.28125 386.894531 C 251.117188 386.714844 250.875 386.488281 250.664062 386.488281 C 250.148438 386.488281 249.679688 386.796875 249.144531 386.796875 C 249.113281 386.796875 249.078125 386.847656 249.046875 386.863281 C 248.660156 387.023438 248.285156 387.21875 247.882812 387.316406 C 247.332031 387.449219 246.734375 387.433594 246.199219 387.59375 C 245.859375 387.691406 245.421875 387.578125 245.179688 387.96875 C 245.164062 388 245.082031 387.984375 245.035156 387.984375 C 244.644531 387.984375 244.515625 388.230469 244.695312 388.585938 C 244.855469 388.929688 245 389.289062 245.210938 389.742188 C 245.308594 389.613281 245.472656 389.484375 245.632812 389.351562 Z M 254.160156 394.332031 C 253.902344 394.429688 253.675781 394.5625 253.449219 394.59375 C 253.078125 394.640625 252.6875 394.789062 252.300781 394.625 C 252.269531 394.609375 252.21875 394.640625 252.1875 394.660156 C 251.910156 394.871094 251.605469 394.953125 251.265625 394.933594 C 251.070312 394.917969 250.910156 395.050781 250.941406 395.246094 C 250.957031 395.34375 251.152344 395.472656 251.28125 395.488281 C 251.589844 395.539062 251.847656 395.699219 252.203125 395.714844 C 252.589844 395.734375 252.964844 396.042969 253.351562 396.203125 C 253.433594 396.238281 253.59375 396.1875 253.644531 396.125 C 253.820312 395.863281 254 395.601562 254.113281 395.308594 C 254.226562 395 254.308594 394.660156 254.160156 394.332031 Z M 243.933594 385.167969 C 243.933594 385.300781 243.917969 385.429688 243.933594 385.542969 C 243.964844 385.789062 244 386.03125 244.0625 386.261719 C 244.09375 386.375 244.160156 386.503906 244.257812 386.554688 C 244.386719 386.632812 244.566406 386.683594 244.660156 386.472656 C 244.679688 386.421875 244.773438 386.375 244.808594 386.375 C 245.179688 386.472656 245.359375 386.226562 245.519531 385.933594 C 245.730469 386.210938 245.957031 386.082031 246.183594 386 C 246.734375 385.789062 247.332031 385.675781 247.769531 385.25 C 247.867188 385.152344 248.058594 385.1875 248.171875 385.105469 C 248.320312 384.992188 248.433594 384.84375 248.53125 384.730469 C 248.351562 384.730469 248.125 384.699219 247.914062 384.730469 C 247.65625 384.777344 247.398438 384.894531 247.136719 384.925781 C 246.847656 384.957031 246.636719 385.136719 246.378906 385.21875 C 246.214844 385.265625 246.117188 385.480469 245.925781 385.285156 C 245.875 385.285156 245.777344 385.316406 245.730469 385.316406 C 245.488281 385.332031 245.246094 385.398438 245.019531 385.382812 C 244.679688 385.347656 244.339844 385.25 243.933594 385.167969 Z M 245.941406 383.003906 C 245.890625 382.972656 245.828125 382.890625 245.761719 382.890625 C 245.519531 382.921875 245.277344 382.972656 245.035156 383.019531 C 244.871094 383.054688 244.710938 383.070312 244.566406 383.136719 C 244.355469 383.234375 244.015625 383.101562 243.917969 383.429688 C 243.753906 383.949219 243.835938 384.46875 243.902344 384.941406 C 244.09375 384.777344 244.273438 384.632812 244.453125 384.484375 C 244.679688 384.308594 244.808594 383.964844 245.179688 383.996094 L 245.179688 383.964844 C 245.246094 383.933594 245.308594 383.917969 245.375 383.898438 C 245.664062 383.785156 245.957031 383.640625 246.199219 383.429688 C 246.3125 383.332031 246.328125 383.152344 246.378906 383.003906 C 246.394531 382.972656 246.3125 382.859375 246.296875 382.859375 C 246.183594 382.890625 246.085938 382.941406 245.941406 383.003906 Z M 243.773438 381.929688 C 243.835938 381.980469 243.886719 382.011719 243.949219 382.0625 C 244.046875 381.457031 244.566406 381.652344 244.871094 381.425781 C 244.9375 381.378906 245 381.34375 245.050781 381.296875 C 245.261719 381.085938 245.226562 380.824219 245.019531 380.628906 C 244.660156 380.320312 244.304688 379.976562 243.964844 379.667969 C 243.917969 379.621094 243.835938 379.601562 243.773438 379.554688 C 243.738281 379.621094 243.675781 379.699219 243.675781 379.765625 C 243.691406 379.976562 243.738281 380.1875 243.738281 380.402344 C 243.738281 380.921875 243.753906 381.425781 243.773438 381.929688 Z M 243.773438 381.929688 " fill-opacity="1" fill-rule="nonzero"/></g><g fill="#1d7b1a" fill-opacity="1"><g transform="translate(48.75291, 307.765934)"><g><path d="M 8.703125 -24.375 L 8.703125 -17.078125 L 18.5 -17.078125 L 18.5 -12.453125 L 8.703125 -12.453125 L 8.703125 -4.75 L 19.75 -4.75 L 19.75 0 L 2.875 0 L 2.875 -29.125 L 19.75 -29.125 L 19.75 -24.375 Z M 8.703125 -24.375 "/></g></g></g><g fill="#1d7b1a" fill-opacity="1"><g transform="translate(70.910971, 307.765934)"><g><path d="M 1.453125 -14.578125 C 1.453125 -17.441406 2.097656 -20.003906 3.390625 -22.265625 C 4.679688 -24.523438 6.441406 -26.285156 8.671875 -27.546875 C 10.910156 -28.816406 13.421875 -29.453125 16.203125 -29.453125 C 19.453125 -29.453125 22.296875 -28.617188 24.734375 -26.953125 C 27.179688 -25.285156 28.894531 -22.976562 29.875 -20.03125 L 23.15625 -20.03125 C 22.488281 -21.425781 21.550781 -22.46875 20.34375 -23.15625 C 19.132812 -23.851562 17.738281 -24.203125 16.15625 -24.203125 C 14.46875 -24.203125 12.960938 -23.804688 11.640625 -23.015625 C 10.328125 -22.222656 9.300781 -21.101562 8.5625 -19.65625 C 7.820312 -18.21875 7.453125 -16.523438 7.453125 -14.578125 C 7.453125 -12.660156 7.820312 -10.972656 8.5625 -9.515625 C 9.300781 -8.054688 10.328125 -6.929688 11.640625 -6.140625 C 12.960938 -5.347656 14.46875 -4.953125 16.15625 -4.953125 C 17.738281 -4.953125 19.132812 -5.304688 20.34375 -6.015625 C 21.550781 -6.722656 22.488281 -7.773438 23.15625 -9.171875 L 29.875 -9.171875 C 28.894531 -6.191406 27.191406 -3.875 24.765625 -2.21875 C 22.335938 -0.570312 19.484375 0.25 16.203125 0.25 C 13.421875 0.25 10.910156 -0.378906 8.671875 -1.640625 C 6.441406 -2.910156 4.679688 -4.671875 3.390625 -6.921875 C 2.097656 -9.171875 1.453125 -11.722656 1.453125 -14.578125 Z M 1.453125 -14.578125 "/></g></g></g><g fill="#1d7b1a" fill-opacity="1"><g transform="translate(102.89855, 307.765934)"><g><path d="M 16.375 0.296875 C 13.644531 0.296875 11.140625 -0.34375 8.859375 -1.625 C 6.585938 -2.90625 4.785156 -4.675781 3.453125 -6.9375 C 2.117188 -9.195312 1.453125 -11.757812 1.453125 -14.625 C 1.453125 -17.457031 2.117188 -20.003906 3.453125 -22.265625 C 4.785156 -24.523438 6.585938 -26.296875 8.859375 -27.578125 C 11.140625 -28.859375 13.644531 -29.5 16.375 -29.5 C 19.125 -29.5 21.628906 -28.859375 23.890625 -27.578125 C 26.148438 -26.296875 27.941406 -24.523438 29.265625 -22.265625 C 30.585938 -20.003906 31.25 -17.457031 31.25 -14.625 C 31.25 -11.757812 30.585938 -9.195312 29.265625 -6.9375 C 27.941406 -4.675781 26.140625 -2.90625 23.859375 -1.625 C 21.585938 -0.34375 19.09375 0.296875 16.375 0.296875 Z M 16.375 -4.921875 C 18.125 -4.921875 19.664062 -5.316406 21 -6.109375 C 22.332031 -6.898438 23.375 -8.03125 24.125 -9.5 C 24.875 -10.96875 25.25 -12.675781 25.25 -14.625 C 25.25 -16.5625 24.875 -18.257812 24.125 -19.71875 C 23.375 -21.175781 22.332031 -22.296875 21 -23.078125 C 19.664062 -23.859375 18.125 -24.25 16.375 -24.25 C 14.625 -24.25 13.070312 -23.859375 11.71875 -23.078125 C 10.375 -22.296875 9.328125 -21.175781 8.578125 -19.71875 C 7.828125 -18.257812 7.453125 -16.5625 7.453125 -14.625 C 7.453125 -12.675781 7.828125 -10.96875 8.578125 -9.5 C 9.328125 -8.03125 10.375 -6.898438 11.71875 -6.109375 C 13.070312 -5.316406 14.625 -4.921875 16.375 -4.921875 Z M 16.375 -4.921875 "/></g></g></g><g fill="#1d7b1a" fill-opacity="1"><g transform="translate(135.594182, 307.765934)"><g><path d="M 34.578125 -29.078125 L 34.578125 0 L 28.75 0 L 28.75 -18.90625 L 20.953125 0 L 16.53125 0 L 8.703125 -18.90625 L 8.703125 0 L 2.875 0 L 2.875 -29.078125 L 9.5 -29.078125 L 18.75 -7.453125 L 28 -29.078125 Z M 34.578125 -29.078125 "/></g></g></g><g fill="#1d7b1a" fill-opacity="1"><g transform="translate(173.037979, 307.765934)"><g><path d="M 20.703125 -5.546875 L 9.125 -5.546875 L 7.203125 0 L 1.078125 0 L 11.53125 -29.125 L 18.328125 -29.125 L 28.78125 0 L 22.625 0 Z M 19.125 -10.203125 L 14.90625 -22.375 L 10.703125 -10.203125 Z M 19.125 -10.203125 "/></g></g></g><g fill="#1d7b1a" fill-opacity="1"><g transform="translate(202.859734, 307.765934)"><g><path d="M 22.65625 -29.078125 L 22.65625 -24.375 L 14.90625 -24.375 L 14.90625 0 L 9.078125 0 L 9.078125 -24.375 L 1.328125 -24.375 L 1.328125 -29.078125 Z M 22.65625 -29.078125 "/></g></g></g><g fill="#1d7b1a" fill-opacity="1"><g transform="translate(226.89207, 307.765934)"><g><path d="M 1.453125 -14.578125 C 1.453125 -17.441406 2.097656 -20.003906 3.390625 -22.265625 C 4.679688 -24.523438 6.441406 -26.285156 8.671875 -27.546875 C 10.910156 -28.816406 13.421875 -29.453125 16.203125 -29.453125 C 19.453125 -29.453125 22.296875 -28.617188 24.734375 -26.953125 C 27.179688 -25.285156 28.894531 -22.976562 29.875 -20.03125 L 23.15625 -20.03125 C 22.488281 -21.425781 21.550781 -22.46875 20.34375 -23.15625 C 19.132812 -23.851562 17.738281 -24.203125 16.15625 -24.203125 C 14.46875 -24.203125 12.960938 -23.804688 11.640625 -23.015625 C 10.328125 -22.222656 9.300781 -21.101562 8.5625 -19.65625 C 7.820312 -18.21875 7.453125 -16.523438 7.453125 -14.578125 C 7.453125 -12.660156 7.820312 -10.972656 8.5625 -9.515625 C 9.300781 -8.054688 10.328125 -6.929688 11.640625 -6.140625 C 12.960938 -5.347656 14.46875 -4.953125 16.15625 -4.953125 C 17.738281 -4.953125 19.132812 -5.304688 20.34375 -6.015625 C 21.550781 -6.722656 22.488281 -7.773438 23.15625 -9.171875 L 29.875 -9.171875 C 28.894531 -6.191406 27.191406 -3.875 24.765625 -2.21875 C 22.335938 -0.570312 19.484375 0.25 16.203125 0.25 C 13.421875 0.25 10.910156 -0.378906 8.671875 -1.640625 C 6.441406 -2.910156 4.679688 -4.671875 3.390625 -6.921875 C 2.097656 -9.171875 1.453125 -11.722656 1.453125 -14.578125 Z M 1.453125 -14.578125 "/></g></g></g><g fill="#1d7b1a" fill-opacity="1"><g transform="translate(258.879649, 307.765934)"><g><path d="M 27 -29.078125 L 27 0 L 21.15625 0 L 21.15625 -12.375 L 8.703125 -12.375 L 8.703125 0 L 2.875 0 L 2.875 -29.078125 L 8.703125 -29.078125 L 8.703125 -17.125 L 21.15625 -17.125 L 21.15625 -29.078125 Z M 27 -29.078125 "/></g></g></g></svg>