<svg width="24" height="28" viewBox="0 0 24 28" fill="none" xmlns="http://www.w3.org/2000/svg">
<path d="M24 14C24.0009 14.3656 23.9059 14.7253 23.7243 15.0439C23.5427 15.3626 23.2807 15.6295 22.9636 15.8186L3.31636 27.683C2.98512 27.8832 2.60573 27.9925 2.21738 27.9996C1.82903 28.0067 1.4458 27.9114 1.10727 27.7234C0.771968 27.5383 0.492649 27.2684 0.298042 26.9415C0.103434 26.6145 0.000560261 26.2423 0 25.8631V2.13692C0.000560261 1.7577 0.103434 1.38548 0.298042 1.05852C0.492649 0.73157 0.771968 0.461684 1.10727 0.27662C1.4458 0.0886368 1.82903 -0.00672981 2.21738 0.000369295C2.60573 0.0074684 2.98512 0.116776 3.31636 0.317003L22.9636 12.1814C23.2807 12.3705 23.5427 12.6374 23.7243 12.9561C23.9059 13.2747 24.0009 13.6344 24 14Z" fill="white"/>
</svg>
