<svg xmlns="http://www.w3.org/2000/svg" xmlns:xlink="http://www.w3.org/1999/xlink" width="450" zoomAndPan="magnify" viewBox="0 0 337.5 449.999984" height="600" preserveAspectRatio="xMidYMid meet" version="1.0"><defs><g/><clipPath id="e28b543970"><path d="M 0 0.332031 L 337 0.332031 L 337 449.667969 L 0 449.667969 Z M 0 0.332031 " clip-rule="nonzero"/></clipPath><clipPath id="8b89766d3f"><path d="M 40 101 L 62 101 L 62 125.921875 L 40 125.921875 Z M 40 101 " clip-rule="nonzero"/></clipPath><clipPath id="8d92188bac"><path d="M 38.34375 99.671875 L 63 99.671875 L 63 114 L 38.34375 114 Z M 38.34375 99.671875 " clip-rule="nonzero"/></clipPath><clipPath id="1b1ec02491"><path d="M 43 116 L 50 116 L 50 125.921875 L 43 125.921875 Z M 43 116 " clip-rule="nonzero"/></clipPath><clipPath id="ac5abcabcc"><path d="M 50 121 L 63 121 L 63 125.921875 L 50 125.921875 Z M 50 121 " clip-rule="nonzero"/></clipPath><clipPath id="ec31cd1aa8"><path d="M 116 293 L 283 293 L 283 333.96875 L 116 333.96875 Z M 116 293 " clip-rule="nonzero"/></clipPath><clipPath id="22abae7d5f"><path d="M 122 116.46875 L 263 116.46875 L 263 321 L 122 321 Z M 122 116.46875 " clip-rule="nonzero"/></clipPath><clipPath id="f99eb70008"><path d="M 49.714844 173 L 82 173 L 82 206 L 49.714844 206 Z M 49.714844 173 " clip-rule="nonzero"/></clipPath></defs><g clip-path="url(#e28b543970)"><path fill="#ffffff" d="M 0 0.332031 L 337.5 0.332031 L 337.5 450.332031 L 0 450.332031 Z M 0 0.332031 " fill-opacity="1" fill-rule="nonzero"/><path fill="#ffffff" d="M 0 0.332031 L 337.5 0.332031 L 337.5 450.332031 L 0 450.332031 Z M 0 0.332031 " fill-opacity="1" fill-rule="nonzero"/></g><g fill="#f46e16" fill-opacity="1"><g transform="translate(35.343407, 87.688453)"><g><path d="M 39.40625 -11.4375 C 39.40625 -7.789062 38.039062 -4.972656 35.3125 -2.984375 C 32.582031 -0.992188 28.789062 0 23.9375 0 L 3.890625 0 L 3.890625 -40.0625 L 22.234375 -40.0625 C 27.128906 -40.0625 30.832031 -39.210938 33.34375 -37.515625 C 35.851562 -35.816406 37.109375 -33.3125 37.109375 -30 C 37.109375 -27.726562 36.476562 -25.804688 35.21875 -24.234375 C 33.957031 -22.671875 32.035156 -21.613281 29.453125 -21.0625 C 32.703125 -20.6875 35.171875 -19.671875 36.859375 -18.015625 C 38.554688 -16.359375 39.40625 -14.164062 39.40625 -11.4375 Z M 28.65625 -28.859375 C 28.65625 -30.660156 28.082031 -31.941406 26.9375 -32.703125 C 25.789062 -33.460938 24.09375 -33.84375 21.84375 -33.84375 L 12.28125 -33.84375 L 12.28125 -23.90625 L 21.890625 -23.90625 C 24.265625 -23.90625 25.984375 -24.316406 27.046875 -25.140625 C 28.117188 -25.972656 28.65625 -27.210938 28.65625 -28.859375 Z M 31 -12.078125 C 31 -15.835938 28.304688 -17.71875 22.921875 -17.71875 L 12.28125 -17.71875 L 12.28125 -6.234375 L 23.234375 -6.234375 C 25.921875 -6.234375 27.882812 -6.71875 29.125 -7.6875 C 30.375 -8.664062 31 -10.128906 31 -12.078125 Z M 31 -12.078125 "/></g></g></g><g clip-path="url(#8b89766d3f)"><path fill="#f7e3b5" d="M 60.929688 111.730469 C 60.925781 111.726562 60.925781 111.726562 60.925781 111.722656 L 52.898438 103.265625 C 51.796875 102.175781 51.648438 101.773438 50.75 101.773438 C 50.050781 101.773438 49.566406 102.234375 48.382812 103.394531 L 40.621094 111.722656 C 40.386719 111.957031 40.234375 112.292969 40.234375 112.667969 L 40.234375 124.605469 C 40.234375 125.324219 40.78125 125.90625 41.457031 125.90625 L 60.082031 125.90625 C 60.757812 125.90625 61.304688 125.324219 61.304688 124.605469 L 61.304688 112.667969 C 61.304688 112.300781 61.160156 111.96875 60.929688 111.730469 " fill-opacity="1" fill-rule="nonzero"/></g><path fill="#ea8342" d="M 51.324219 122.554688 C 51.03125 122.554688 50.792969 122.25 50.792969 121.871094 L 50.792969 116.777344 C 50.792969 116.402344 51.03125 116.09375 51.324219 116.09375 L 58.867188 116.09375 C 59.164062 116.09375 59.402344 116.402344 59.402344 116.777344 L 59.402344 121.871094 C 59.402344 122.25 59.164062 122.554688 58.867188 122.554688 L 51.324219 122.554688 " fill-opacity="1" fill-rule="nonzero"/><g clip-path="url(#8d92188bac)"><path fill="#e0464c" d="M 62.65625 111.515625 L 51.308594 100.117188 C 51.027344 99.832031 50.726562 99.675781 50.484375 99.921875 C 50.484375 99.921875 49.796875 100.449219 49.652344 100.597656 L 38.761719 111.539062 C 38.492188 111.808594 38.347656 112.101562 38.589844 112.34375 L 39.269531 113.027344 C 39.511719 113.273438 39.800781 113.125 40.074219 112.855469 L 50.71875 102.15625 L 61.34375 112.835938 C 61.625 113.117188 61.925781 113.273438 62.167969 113.027344 L 62.847656 112.34375 C 63.089844 112.101562 62.9375 111.800781 62.65625 111.515625 " fill-opacity="1" fill-rule="nonzero"/></g><g clip-path="url(#1b1ec02491)"><path fill="#ea8342" d="M 49.4375 125.890625 L 49.4375 116.75 C 49.4375 116.390625 49.148438 116.09375 48.785156 116.09375 L 43.925781 116.09375 C 43.566406 116.09375 43.273438 116.390625 43.273438 116.75 L 43.273438 125.890625 L 49.4375 125.890625 " fill-opacity="1" fill-rule="nonzero"/></g><path fill="#a6d1ee" d="M 51.800781 121.941406 C 51.542969 121.941406 51.335938 121.695312 51.335938 121.386719 L 51.335938 117.261719 C 51.335938 116.957031 51.542969 116.710938 51.800781 116.710938 L 58.390625 116.710938 C 58.648438 116.710938 58.855469 116.957031 58.855469 117.261719 L 58.855469 121.386719 C 58.855469 121.695312 58.648438 121.941406 58.390625 121.941406 L 51.800781 121.941406 " fill-opacity="1" fill-rule="nonzero"/><path fill="#f8a64b" d="M 58.855469 118.316406 L 58.855469 117.261719 C 58.855469 116.957031 58.648438 116.710938 58.390625 116.710938 L 51.800781 116.710938 C 51.542969 116.710938 51.335938 116.957031 51.335938 117.261719 L 51.335938 118.316406 L 58.855469 118.316406 " fill-opacity="1" fill-rule="nonzero"/><path fill="#ea8342" d="M 52.695312 110.332031 C 52.695312 111.429688 51.808594 112.316406 50.71875 112.316406 C 49.625 112.316406 48.738281 111.429688 48.738281 110.332031 C 48.738281 109.234375 49.625 108.34375 50.71875 108.34375 C 51.808594 108.34375 52.695312 109.234375 52.695312 110.332031 " fill-opacity="1" fill-rule="nonzero"/><path fill="#a6d1ee" d="M 52.21875 110.332031 C 52.21875 111.164062 51.546875 111.84375 50.71875 111.84375 C 49.886719 111.84375 49.214844 111.164062 49.214844 110.332031 C 49.214844 109.496094 49.886719 108.820312 50.71875 108.820312 C 51.546875 108.820312 52.21875 109.496094 52.21875 110.332031 " fill-opacity="1" fill-rule="nonzero"/><g clip-path="url(#ac5abcabcc)"><path fill="#53c285" d="M 61.371094 123.613281 C 61.128906 123.613281 60.90625 123.691406 60.722656 123.824219 C 60.738281 123.757812 60.746094 123.6875 60.746094 123.613281 C 60.746094 123.128906 60.355469 122.734375 59.871094 122.734375 C 59.5625 122.734375 59.292969 122.894531 59.136719 123.136719 C 58.980469 122.894531 58.710938 122.734375 58.402344 122.734375 C 58.238281 122.734375 58.085938 122.78125 57.953125 122.859375 C 57.839844 122.355469 57.394531 121.980469 56.859375 121.980469 C 56.308594 121.980469 55.851562 122.375 55.753906 122.898438 C 55.609375 122.796875 55.433594 122.734375 55.246094 122.734375 C 54.992188 122.734375 54.769531 122.84375 54.609375 123.011719 C 54.410156 122.695312 54.058594 122.484375 53.65625 122.484375 C 53.035156 122.484375 52.53125 122.988281 52.53125 123.613281 C 52.53125 123.644531 52.535156 123.675781 52.535156 123.703125 C 52.402344 123.648438 52.25 123.613281 52.09375 123.613281 C 51.472656 123.613281 50.96875 124.121094 50.96875 124.746094 C 50.96875 125.371094 51.472656 125.875 52.09375 125.875 L 61.371094 125.875 C 61.992188 125.875 62.496094 125.371094 62.496094 124.746094 C 62.496094 124.121094 61.992188 123.613281 61.371094 123.613281 " fill-opacity="1" fill-rule="nonzero"/></g><g clip-path="url(#ec31cd1aa8)"><path fill="#2b3244" d="M 153.292969 332.761719 C 153 332.890625 149.082031 333.003906 146.914062 333.101562 C 146.550781 331.828125 146.035156 330.375 145.554688 330.414062 C 145.09375 330.453125 144.714844 331.894531 144.46875 333.195312 C 142.902344 333.25 141.140625 333.296875 139.28125 333.335938 C 138.777344 332.113281 138.195312 330.898438 137.925781 331.0625 C 137.65625 331.226562 137.457031 332.335938 137.324219 333.371094 C 135.160156 333.410156 132.921875 333.4375 130.757812 333.453125 C 130.492188 332.328125 130.097656 330.992188 129.707031 331.066406 C 129.328125 331.144531 128.707031 332.40625 128.167969 333.46875 C 126.359375 333.472656 124.648438 333.472656 123.125 333.457031 C 122.941406 332.335938 122.660156 330.996094 122.371094 331.070312 C 122.070312 331.152344 121.4375 332.464844 121.003906 333.433594 C 118.507812 333.390625 116.894531 333.3125 116.828125 333.183594 C 116.535156 332.621094 115.816406 330.550781 116.828125 326.769531 C 117.171875 325.484375 118.015625 324.375 119.054688 323.386719 L 120.191406 323.679688 L 119.964844 322.589844 C 120.777344 321.921875 121.652344 321.308594 122.476562 320.726562 L 123.511719 321 L 123.53125 319.960938 C 124.160156 319.492188 124.71875 319.035156 125.136719 318.582031 C 125.210938 318.5 125.277344 318.410156 125.347656 318.320312 L 126.4375 318.289062 L 126.074219 317.175781 C 126.511719 316.273438 126.769531 315.289062 126.917969 314.421875 L 127.632812 314.40625 L 127.082031 313.28125 C 127.152344 312.636719 127.164062 312.183594 127.199219 312.085938 L 156.414062 312.085938 C 156.613281 312.144531 154.792969 332.109375 153.292969 332.761719 Z M 267.335938 329.40625 C 267.484375 329.222656 269.085938 330.832031 270.25 332.121094 C 272.191406 331.324219 274.195312 330.242188 275.839844 328.914062 C 274.796875 327.609375 273.511719 325.828125 273.800781 325.335938 C 274.101562 324.816406 276.359375 325.921875 277.9375 326.78125 C 278.15625 326.492188 278.359375 326.191406 278.535156 325.886719 C 279.3125 324.53125 279.996094 322.898438 280.578125 321.167969 C 279.546875 320.074219 278.265625 318.785156 278.324219 318.351562 C 278.382812 317.863281 280.164062 318.25 281.359375 318.566406 C 281.847656 316.742188 282.226562 314.898438 282.476562 313.230469 C 281.359375 312.671875 280.078125 311.960938 280.058594 311.632812 C 280.039062 311.292969 281.519531 311.003906 282.765625 310.824219 C 282.902344 309.183594 283.066406 306.324219 282.84375 305.667969 C 282.046875 303.296875 268.996094 296.171875 261.714844 294.007812 C 254.902344 291.988281 255.15625 313.507812 255.15625 313.507812 C 255.242188 313.484375 256.714844 314.039062 258.265625 314.691406 C 258.570312 314.820312 259.136719 314.242188 259.179688 315.085938 C 259.785156 315.351562 260.363281 315.613281 260.824219 315.847656 C 261.199219 316.03125 261.667969 315.882812 261.695312 316.328125 C 261.761719 316.375 261.820312 316.417969 261.855469 316.453125 C 262.109375 316.6875 262.164062 317.441406 262.09375 318.410156 C 262.070312 318.753906 262.480469 319.066406 261.976562 319.5 C 261.855469 320.355469 261.671875 321.28125 261.449219 322.113281 C 261.375 322.402344 261.976562 322.671875 261.210938 322.941406 C 261.070312 323.371094 260.925781 323.753906 260.777344 324.066406 C 259.839844 326.054688 260.171875 331.605469 263.007812 333.675781 C 263.535156 333.96875 265.472656 333.71875 267.835938 332.980469 C 267.550781 331.503906 267.199219 329.578125 267.335938 329.40625 Z M 267.335938 329.40625 " fill-opacity="1" fill-rule="nonzero"/></g><g clip-path="url(#22abae7d5f)"><path fill="#c54844" d="M 169.179688 143.8125 C 169.179688 143.8125 161.996094 137.320312 162.390625 133.679688 C 162.484375 131.839844 165.75 132.691406 166.640625 132.371094 C 166.734375 132.078125 170.292969 122.695312 179.632812 119.105469 C 179.632812 119.105469 181.933594 116.910156 183.925781 116.910156 C 185.917969 116.910156 198.25 116.476562 202.964844 128.914062 C 202.964844 128.914062 205.597656 135.542969 205.417969 141.613281 C 205.417969 141.613281 207.28125 142.460938 205.753906 145.257812 C 204.226562 148.054688 196.492188 149.953125 196.492188 149.953125 M 140.054688 215.394531 C 154.28125 222.269531 166.625 217.039062 166.625 217.039062 C 166.625 217.039062 166.640625 225.597656 166.5625 231.132812 L 171.785156 236.992188 L 165.121094 236.867188 C 162.226562 239.207031 156.5625 242.84375 156.5625 242.84375 L 156.550781 244.195312 C 136.804688 253.355469 130.050781 257.25 127.519531 264.453125 C 126.105469 268.476562 124.273438 282.640625 123.324219 294.652344 C 123.324219 294.652344 127.074219 301.097656 122.835938 302.125 C 122.546875 308.09375 122.636719 312.480469 123.34375 313.003906 C 125.566406 314.628906 158.492188 314.515625 158.421875 314.125 C 158.398438 313.988281 158.21875 310.417969 157.972656 303.035156 L 155.140625 298.839844 L 157.492188 295.511719 C 157.554688 286.085938 157.71875 276.554688 158.078125 276.285156 C 158.792969 275.753906 186.425781 262.792969 186.425781 262.792969 C 186.425781 262.792969 197.867188 290.640625 203.714844 297.496094 C 207.042969 301.40625 221.847656 308.40625 234.152344 313.570312 C 238.738281 312.003906 239.136719 310.890625 239.574219 310.347656 C 240.007812 309.804688 241.648438 316.613281 241.648438 316.613281 C 247.328125 318.832031 251.410156 320.214844 251.722656 319.988281 C 257.316406 313.078125 263.101562 291.78125 262.488281 291.78125 C 262.296875 291.78125 257.773438 289.675781 254.1875 288.78125 L 250.125 292.058594 L 247 285.609375 C 238.183594 280.878906 228.785156 275.703125 228.679688 275.28125 C 228.488281 274.492188 221.214844 250.804688 221.214844 250.804688 C 222.027344 247.984375 225.585938 245.726562 225.585938 245.726562 C 225.585938 245.726562 224.910156 242.535156 224 238.042969 L 221.9375 235.351562 L 222.929688 232.660156 C 221.144531 223.582031 219.152344 212.664062 219.328125 210.046875 C 219.328125 210.046875 228.582031 204.710938 229.632812 198.132812 C 230.113281 193.566406 227.683594 187.773438 224.5 182.347656 L 221.027344 181.589844 L 221.027344 176.933594 C 217.402344 171.703125 213.761719 167.488281 212.597656 166.125 C 209.945312 163.015625 197.761719 158.007812 197.742188 157.9375 C 197.71875 157.867188 197.207031 155.460938 197.058594 155.101562 L 178.5 158.953125 L 178.59375 162.347656 C 178.59375 162.347656 169.425781 165.054688 165.757812 170.167969 C 163.890625 172.769531 161.183594 180.265625 158.96875 187 C 158.96875 187 161.992188 190.953125 162.371094 191.0625 C 162.75 191.171875 156.996094 193.207031 156.996094 193.210938 C 155.894531 196.773438 155.171875 199.277344 155.171875 199.277344 C 153.777344 198.558594 149.875 196.800781 145.59375 194.921875 C 145.59375 194.921875 143.390625 196.941406 141.757812 197.484375 C 140.125 198.027344 139.160156 192.125 139.160156 192.125 C 134.597656 190.164062 130.867188 188.601562 130.839844 188.667969 C 130.78125 188.824219 130.535156 189.96875 130.535156 189.96875 C 130.414062 190.28125 121.503906 198.558594 122.671875 203.945312 C 123.84375 209.332031 140.054688 215.394531 140.054688 215.394531 Z M 140.054688 215.394531 " fill-opacity="1" fill-rule="nonzero"/></g><path fill="#2b3244" d="M 167.449219 137.222656 L 167.832031 137.800781 C 167.832031 137.800781 166.386719 137.957031 166.308594 137.785156 C 166.222656 137.617188 167.449219 137.222656 167.449219 137.222656 Z M 180.339844 129.527344 C 180.0625 129.578125 170.65625 131.898438 166.898438 131.722656 C 166.738281 132.097656 166.648438 132.328125 166.632812 132.371094 C 171.109375 132.203125 179.753906 130.085938 180.796875 129.867188 C 181.460938 129.582031 180.625 129.472656 180.339844 129.527344 Z M 179.632812 119.105469 C 179.28125 119.242188 178.941406 119.382812 178.605469 119.535156 C 175.5 123.226562 172.855469 129.609375 173.046875 129.511719 C 173.242188 129.40625 176.660156 121.988281 179.632812 119.105469 Z M 184.492188 122.070312 C 185.191406 121.1875 187.40625 118.839844 188.894531 117.929688 C 189.363281 117.597656 189.164062 117.394531 188.894531 117.519531 C 188.175781 117.738281 184.046875 120.746094 182.78125 124.75 C 182.734375 125.441406 183.785156 122.957031 184.492188 122.070312 Z M 186.242188 122.570312 C 184.335938 125.082031 182.542969 128.558594 182.957031 128.351562 C 183.230469 128.476562 186.902344 120.769531 190.191406 119.335938 C 190.769531 119.113281 196.523438 120.460938 200.878906 125.683594 C 200.878906 125.683594 200.804688 124.828125 198.996094 123.175781 C 195.765625 120.191406 190.710938 118.78125 190.328125 118.894531 C 189.941406 119.003906 188.144531 120.054688 186.242188 122.570312 Z M 199.269531 137.1875 C 199.378906 137.558594 203.246094 139.910156 205.417969 141.617188 C 205.425781 141.375 205.425781 141.136719 205.425781 140.894531 C 203.542969 139.480469 199.167969 136.839844 199.269531 137.1875 Z M 200.71875 141.964844 C 203.316406 144.632812 203.300781 144.117188 201.148438 141.699219 C 201.148438 141.695312 198.121094 139.292969 200.71875 141.964844 Z M 186.0625 128.960938 C 186.285156 129.480469 191.160156 130.726562 195.773438 134.28125 C 196.492188 134.78125 195.09375 132.996094 192.964844 131.800781 C 188.773438 129.574219 186.027344 128.734375 186.0625 128.960938 Z M 180.757812 157.875 C 180.757812 157.875 178.371094 158.503906 178.503906 158.960938 C 178.636719 159.414062 179.019531 159.699219 180.398438 160.40625 L 192.992188 156.949219 L 195.289062 156.75 C 195.289062 156.75 197.605469 155.425781 196.949219 154.960938 C 194.714844 154.199219 180.757812 157.875 180.757812 157.875 Z M 180.757812 157.875 " fill-opacity="1" fill-rule="nonzero"/><path fill="#f6bc2d" d="M 157.492188 295.511719 C 157.472656 298.089844 157.976562 300.664062 157.972656 303.035156 C 149.019531 303.058594 130.414062 302.414062 122.832031 302.125 C 122.945312 299.824219 123.109375 297.292969 123.320312 294.652344 C 129.417969 295.566406 147.929688 295.527344 157.492188 295.511719 Z M 195.121094 153.066406 C 195.070312 151.914062 200.542969 148.257812 201.148438 141.699219 C 200.582031 140.8125 196.839844 138.003906 194.140625 136.914062 C 191.441406 135.824219 191.484375 151.410156 195.121094 153.066406 Z M 139.160156 192.125 C 141.222656 193.015625 143.457031 193.988281 145.59375 194.921875 L 140.347656 208.722656 L 133.144531 206.292969 C 133.144531 206.269531 133.167969 206.1875 133.21875 206.054688 C 133.757812 204.511719 137.234375 196.035156 139.160156 192.125 Z M 221.03125 176.9375 C 222.222656 178.65625 223.410156 180.484375 224.507812 182.359375 C 220.222656 186.191406 208.863281 191.675781 208.863281 191.675781 C 208.519531 191.808594 207.902344 191.988281 207.097656 192.191406 L 213.222656 212.894531 L 210.375 213.8125 C 210.375 213.8125 206.367188 216.042969 206.109375 215.664062 C 205.875 215.320312 201.441406 197.34375 200.613281 193.675781 C 196.757812 194.511719 193.03125 195.296875 192.945312 195.453125 C 192.78125 195.753906 193.28125 197.546875 193.28125 197.546875 C 193.28125 197.546875 192.410156 201.183594 188.367188 201.472656 C 184.320312 201.757812 167.214844 199.613281 167.214844 199.613281 L 167.3125 197.84375 C 164.359375 197.179688 159.144531 194.402344 157 193.21875 C 157.574219 191.371094 158.25 189.230469 158.980469 187.011719 C 162.273438 188.679688 167.855469 190.671875 167.855469 190.671875 L 168.066406 193.03125 C 185.625 195.726562 206.210938 191.039062 208.074219 190.597656 C 207.078125 189.226562 205.480469 187.039062 205.425781 186.964844 C 205.921875 186.621094 217.042969 179.496094 221.03125 176.9375 Z M 166.558594 231.132812 C 171.539062 232.035156 182.140625 237.761719 182.109375 237.835938 C 182.082031 237.921875 179.207031 244.191406 179.207031 244.191406 C 175.675781 241.4375 168.265625 238.152344 165.117188 236.859375 C 165.648438 236.429688 166.089844 236.042969 166.382812 235.726562 C 166.46875 235.605469 166.527344 233.695312 166.558594 231.132812 Z M 222.929688 232.667969 C 223.300781 234.574219 223.664062 236.402344 224 238.054688 C 212.972656 243.230469 184.738281 244.195312 184.738281 244.195312 C 183.980469 242.671875 182.683594 238.257812 182.683594 238.257812 C 202.136719 238.179688 217.558594 234.234375 222.929688 232.667969 Z M 254.1875 288.78125 C 251.921875 295.292969 246.523438 310.523438 241.644531 316.613281 C 239.355469 315.71875 236.808594 314.6875 234.144531 313.570312 C 236.453125 308.824219 244.136719 291.789062 247 285.617188 C 249.523438 286.960938 251.992188 287.625 254.1875 288.78125 Z M 254.1875 288.78125 " fill-opacity="1" fill-rule="nonzero"/><g clip-path="url(#f99eb70008)"><path fill="#90aeb0" d="M 81.164062 187.875 L 77.828125 199.832031 C 70.089844 198.621094 62.003906 199.714844 54.867188 202.929688 C 54.21875 203.226562 53.554688 203.539062 52.84375 203.550781 C 52.179688 203.566406 51.761719 202.726562 51.8125 202.0625 C 51.867188 201.394531 52.394531 200.839844 53.011719 200.574219 C 52.105469 200.4375 51.164062 200.03125 50.753906 199.214844 C 50.34375 198.402344 50.792969 197.171875 51.707031 197.097656 C 51.164062 196.683594 50.65625 196.226562 50.1875 195.734375 C 49.960938 195.492188 49.722656 195.160156 49.847656 194.851562 C 49.917969 194.671875 50.097656 194.558594 50.261719 194.457031 C 50.859375 194.089844 51.453125 193.726562 52.046875 193.355469 C 51.246094 192.828125 50.386719 192.207031 50.195312 191.269531 C 50.03125 190.457031 50.453125 189.617188 51.058594 189.054688 C 51.667969 188.492188 52.441406 188.15625 53.203125 187.828125 C 51.894531 187.265625 51.230469 185.644531 51.527344 184.246094 C 51.820312 182.851562 52.90625 181.710938 54.183594 181.070312 C 55.460938 180.433594 56.914062 180.234375 58.34375 180.179688 C 62.40625 180.03125 66.453125 180.992188 70.246094 182.460938 C 74.03125 183.925781 77.605469 185.902344 81.164062 187.875 Z M 78.574219 185.472656 C 76.914062 184.140625 77.796875 172.613281 75.25 173.613281 C 72.703125 174.609375 73.585938 181.367188 78.574219 185.472656 Z M 62.285156 204.871094 C 62.507812 206.753906 72.058594 200.882812 72.058594 200.882812 C 71.597656 200.878906 62.0625 202.984375 62.285156 204.871094 Z M 73.15625 182.816406 C 73.144531 182.792969 73.066406 182.726562 72.953125 182.625 C 73.019531 182.703125 73.085938 182.769531 73.15625 182.816406 Z M 72.953125 182.625 C 71.472656 180.859375 70.449219 171.066406 66.753906 173.550781 C 64.238281 175.246094 71.621094 181.429688 72.953125 182.625 Z M 72.953125 182.625 " fill-opacity="1" fill-rule="nonzero"/></g><path fill="#d9865a" d="M 194.65625 139.328125 C 197.484375 138.476562 199.179688 141.648438 198.566406 144.675781 C 197.949219 147.703125 194.886719 147.769531 194.886719 147.769531 L 195.292969 156.746094 C 192.601562 160.863281 184.976562 159.976562 184.546875 160.230469 C 184.117188 160.488281 183.601562 162.230469 183.601562 162.230469 C 183.601562 162.230469 182.929688 160.714844 182.550781 160.660156 C 182.175781 160.601562 181.054688 161.003906 180.402344 160.402344 C 180.402344 160.402344 180.003906 157.933594 179.886719 156.941406 C 179.773438 155.957031 176.90625 156.628906 176.90625 156.628906 C 167.570312 153.941406 167.449219 137.214844 167.449219 137.214844 C 167.449219 137.214844 179.84375 134.09375 186.066406 134.804688 C 192.28125 135.511719 192.652344 136.710938 192.652344 136.710938 Z M 194.65625 139.328125 " fill-opacity="1" fill-rule="nonzero"/><path fill="#2b3244" d="M 180.796875 155.5625 C 182.253906 155.488281 184.054688 153.765625 185.121094 154.679688 C 190.625 148.988281 191.023438 141.6875 190.90625 135.679688 L 194.140625 136.914062 C 196.371094 148.382812 188.355469 155.371094 184.140625 156.636719 C 179.925781 157.898438 176.90625 156.636719 176.90625 156.636719 C 176.074219 155.210938 179.375 155.632812 180.796875 155.5625 Z M 115.890625 207.199219 C 120.765625 208.96875 130.230469 214.023438 130.230469 214.023438 C 140.976562 216.253906 164.566406 216.925781 183.898438 215.214844 L 192.152344 215.214844 C 201.851562 217.308594 224.972656 230.984375 235.109375 245.523438 C 245.246094 260.0625 270.472656 277.769531 282.164062 279.152344 C 287.476562 277.664062 286.257812 270.25 286.257812 270.25 C 273.890625 266.675781 258.660156 259.15625 242.21875 238.433594 C 227.574219 219.980469 210.386719 213.8125 210.386719 213.8125 C 207.214844 214.863281 197.722656 216.503906 197.46875 216.113281 C 197.214844 215.71875 196.566406 212.609375 196.566406 212.609375 L 189.390625 204.554688 L 182.21875 207.050781 C 164.8125 208.871094 131.601562 204.269531 131.601562 204.269531 C 131.601562 204.269531 115.46875 204.984375 109.90625 202.21875 C 104.339844 199.449219 97.65625 192.996094 97.304688 192.855469 C 96.957031 192.714844 83.941406 187.40625 83.941406 187.40625 C 84.523438 185.222656 83.1875 184.152344 81.859375 184.421875 C 80.527344 184.691406 79.253906 186.316406 77.34375 192.214844 C 75.433594 198.117188 75.035156 202.535156 77.046875 203.171875 C 79.058594 203.808594 80.082031 201.246094 80.082031 201.246094 C 80.082031 201.246094 91.960938 202.457031 93.710938 203.269531 C 93.695312 203.269531 111.015625 205.429688 115.890625 207.199219 Z M 115.890625 207.199219 " fill-opacity="1" fill-rule="nonzero"/><path fill="#f6bc2d" d="M 192.25 150.171875 C 192.070312 150.820312 190.722656 152.617188 189.941406 153.011719 C 189.15625 153.398438 187.304688 151.582031 187.515625 151.109375 C 187.863281 150.296875 188.773438 148.65625 188.964844 148.449219 C 189.160156 148.238281 192.429688 149.523438 192.25 150.171875 Z M 120.570312 327.925781 C 120.152344 328.328125 148.816406 328.042969 149.042969 327.589844 C 149.265625 327.132812 121.21875 327.296875 120.570312 327.925781 Z M 125.351562 318.320312 C 126.351562 319.132812 127.679688 320.144531 127.894531 320.015625 C 128.105469 319.878906 126.957031 318.316406 126.078125 317.175781 C 125.875 317.578125 125.632812 317.96875 125.351562 318.320312 Z M 130.308594 315.492188 C 130.308594 315.351562 129.1875 314.597656 127.882812 313.777344 C 127.679688 313.691406 127.265625 313.667969 127.03125 313.703125 C 127.003906 313.925781 126.964844 314.167969 126.925781 314.417969 C 128.1875 314.921875 130.308594 315.734375 130.308594 315.492188 Z M 124.511719 322.761719 C 124.753906 322.578125 124.058594 321.019531 123.542969 319.953125 C 123.207031 320.207031 122.851562 320.457031 122.484375 320.714844 C 123.296875 321.753906 124.296875 322.921875 124.511719 322.761719 Z M 121.285156 325.40625 C 121.535156 325.195312 120.710938 323.761719 119.96875 322.582031 C 119.65625 322.835938 119.347656 323.101562 119.0625 323.375 C 119.898438 324.382812 121.015625 325.640625 121.285156 325.40625 Z M 278.515625 308.917969 C 278.226562 310.769531 276.648438 317.601562 272.457031 322.320312 C 268.269531 327.039062 264.765625 328.15625 265.367188 328.558594 C 265.863281 328.734375 278.199219 321.972656 279.078125 309.144531 C 279.15625 308.335938 278.804688 307.070312 278.515625 308.917969 Z M 258.261719 314.695312 C 258.5625 314.824219 258.871094 314.957031 259.175781 315.089844 C 259.785156 313.933594 260.757812 311.980469 260.503906 311.796875 C 260.238281 311.597656 258.929688 313.621094 258.261719 314.695312 Z M 262.09375 318.417969 C 262.070312 318.757812 262.027344 319.125 261.976562 319.503906 C 262.984375 319.636719 264.597656 319.820312 264.574219 319.660156 C 264.554688 319.511719 263.085938 318.847656 262.09375 318.417969 Z M 261.457031 322.117188 C 261.378906 322.40625 261.300781 322.679688 261.214844 322.945312 C 262.230469 323.257812 263.652344 323.703125 263.753906 323.53125 C 263.859375 323.359375 262.4375 322.609375 261.457031 322.117188 Z M 263.753906 314.636719 C 263.800781 314.269531 261.863281 315.285156 260.824219 315.847656 C 261.199219 316.03125 261.503906 316.203125 261.695312 316.328125 C 262.535156 315.78125 263.710938 314.953125 263.753906 314.636719 Z M 93.695312 203.269531 C 93.441406 202.792969 97.027344 193.117188 97.296875 192.855469 L 103.980469 195.542969 C 103.980469 195.542969 108.035156 188.355469 109.523438 187.054688 C 111.011719 185.75 113.476562 186.320312 113.476562 186.320312 C 113.476562 186.320312 123.039062 186.75 125.34375 190.46875 C 127.644531 194.183594 127.515625 197.546875 126.605469 198.902344 C 125.699219 200.261719 125.363281 202.738281 125.363281 202.738281 C 125.363281 202.738281 131.257812 203.957031 131.59375 204.269531 C 131.929688 204.582031 130.878906 213.34375 130.230469 214.03125 C 129.582031 214.714844 102.332031 207.039062 93.695312 203.269531 Z M 121.167969 198.136719 C 120.933594 197.308594 110.113281 193.914062 109.527344 194.527344 C 108.941406 195.136719 108.367188 197.03125 108.367188 197.03125 C 108.371094 197.171875 119.628906 202.648438 120.375 202.386719 C 121.125 202.132812 121.394531 198.964844 121.167969 198.136719 Z M 82.09375 194.582031 C 82.222656 194.839844 84.710938 187.726562 84.710938 187.726562 L 83.929688 187.40625 C 83.929688 187.402344 81.96875 194.324219 82.09375 194.582031 Z M 82.09375 194.582031 " fill-opacity="1" fill-rule="nonzero"/><path fill="#d9865a" d="M 125.363281 202.734375 L 123.828125 202.300781 C 123.828125 202.300781 126.570312 195.933594 125.839844 194.246094 C 125.105469 192.5625 117.097656 188.417969 117.117188 188.367188 C 117.136719 188.320312 116.792969 191.488281 116.265625 191.957031 C 116.265625 191.957031 117.636719 191.957031 117.589844 193.417969 C 119.570312 192.496094 120.09375 194.941406 120.09375 194.941406 C 121.929688 194.546875 122.539062 197.390625 121.160156 199.074219 C 119.785156 200.757812 117.539062 200.375 117.300781 199.179688 C 115.644531 199.847656 114.753906 198.140625 114.753906 198.140625 C 113.628906 198.71875 111.945312 197.59375 112.058594 196.746094 C 110.855469 197.246094 108.894531 195.9375 109.515625 194.535156 C 110.460938 192.433594 113.097656 190.164062 113.097656 190.164062 C 113.097656 190.164062 112.289062 186.371094 113.074219 185.734375 C 113.855469 185.09375 119.054688 183.214844 120.257812 183.835938 C 121.460938 184.460938 130.53125 189.972656 130.53125 189.972656 C 129.792969 194.9375 125.363281 202.734375 125.363281 202.734375 Z M 193.28125 197.539062 C 193.28125 197.539062 186.300781 200.777344 184.5625 202.785156 C 182.820312 204.792969 182.210938 207.042969 182.210938 207.042969 C 182.210938 207.042969 185 206.972656 185.894531 207.199219 C 186.789062 207.429688 187.023438 213.53125 185.59375 214.433594 C 185.15625 214.757812 183.898438 215.214844 183.898438 215.214844 C 183.898438 215.214844 186.71875 218.644531 188.324219 216.097656 C 188.324219 216.097656 189.65625 217.644531 190.933594 216.066406 C 190.933594 216.066406 191.824219 217.410156 193.28125 215.945312 C 193.28125 215.945312 195.507812 216.8125 196.558594 212.605469 Z M 193.28125 197.539062 " fill-opacity="1" fill-rule="nonzero"/><path fill="#2b3244" d="M 186.425781 262.789062 L 185.253906 263.335938 C 185.253906 263.335938 183.335938 258.207031 183.652344 257.96875 C 183.96875 257.738281 186.425781 262.789062 186.425781 262.789062 Z M 156.554688 242.84375 C 156.300781 243.042969 156.546875 244.195312 156.546875 244.195312 L 158.316406 243.203125 C 158.316406 243.203125 156.816406 242.644531 156.554688 242.84375 Z M 178.566406 245.023438 C 174.613281 249.738281 171.085938 249.484375 168.390625 247.796875 C 165.699219 246.109375 159.085938 243.195312 158.941406 243.492188 C 158.941406 243.492188 162.621094 245.332031 164.648438 246.1875 C 166.671875 247.050781 168.359375 248.636719 170.113281 249.101562 C 171.863281 249.5625 175.605469 250.042969 178.746094 245.304688 C 178.851562 245.164062 178.875 244.664062 178.566406 245.023438 Z M 216.757812 247.609375 C 215.679688 248.011719 200.824219 252.890625 195.429688 253.195312 C 193.933594 253.675781 188.871094 250.734375 185.679688 244.796875 C 185.332031 243.957031 184.65625 244.074219 185.023438 244.796875 C 184.945312 245.507812 189.738281 252.996094 194.574219 253.828125 C 199.410156 254.660156 216.53125 248.457031 217.980469 247.953125 C 219.421875 247.453125 217.835938 247.207031 216.757812 247.609375 Z M 225.585938 245.734375 C 225.433594 244.761719 219.871094 246.910156 219.871094 246.910156 L 221.214844 250.8125 C 221.214844 250.8125 225.796875 247.082031 225.585938 245.734375 Z M 182.820312 222.507812 C 183.140625 226.378906 182.65625 233.960938 182.210938 235.796875 C 181.769531 237.632812 182.210938 238.195312 182.480469 237.4375 C 182.679688 236.878906 184.195312 224.058594 182.976562 216.519531 C 182.425781 215.339844 182.5 218.636719 182.820312 222.507812 Z M 183.359375 199.992188 C 183.199219 199.054688 182.277344 174.675781 183.917969 163.449219 C 184.117188 162.140625 183.582031 162.203125 183.359375 162.683594 C 182.082031 163.78125 181.269531 192.183594 182.757812 202.023438 C 183.394531 203.523438 183.519531 200.929688 183.359375 199.992188 Z M 168.464844 181.429688 C 168.054688 181.113281 166.195312 205.433594 166.914062 206.296875 C 167.636719 207.15625 169.03125 181.871094 168.464844 181.429688 Z M 201.777344 182.253906 C 201.746094 182.457031 207.195312 190.507812 208.527344 191.667969 C 205.957031 192.019531 199.074219 193.546875 199.695312 193.875 C 200.273438 194.175781 209.03125 192.15625 209.460938 191.664062 C 209.539062 191.578125 209.269531 191.578125 208.785156 191.632812 C 208.371094 190.285156 201.902344 181.53125 201.777344 182.253906 Z M 206.894531 166.261719 C 207.210938 166.101562 207.820312 165.296875 206.425781 165.859375 C 201.484375 168 198.953125 173.507812 199.535156 174.6875 C 200.136719 174.820312 201.433594 168.871094 206.894531 166.261719 Z M 219.332031 210.054688 C 217.222656 211.503906 214.261719 212.523438 214.21875 212.894531 C 214.179688 213.222656 217.867188 212.03125 219.359375 211.355469 C 219.324219 210.8125 219.308594 210.371094 219.332031 210.054688 Z M 195.117188 145.042969 C 195.167969 145.527344 195.46875 145.152344 195.484375 144.71875 C 195.503906 144.28125 195.679688 142.703125 197.003906 142.417969 C 197.441406 142.390625 197.179688 141.96875 197.003906 141.984375 C 194.855469 142.113281 195.132812 144.9375 195.117188 145.042969 Z M 189.871094 152.726562 C 190.097656 152.664062 190.757812 151.871094 190.753906 151.695312 C 190.746094 151.519531 188.890625 149.996094 188.613281 150.109375 C 188.332031 150.222656 187.882812 151.121094 187.925781 151.214844 C 188.011719 151.390625 189.644531 152.789062 189.871094 152.726562 Z M 191.125 151.210938 C 191.316406 151.164062 191.75 150.3125 191.820312 150.199219 C 191.890625 150.085938 189.375 148.875 189.242188 148.941406 C 189.109375 149.007812 188.875 149.503906 188.972656 149.621094 C 189.042969 149.722656 190.925781 151.257812 191.125 151.210938 Z M 171.375 143.488281 C 171.375 144.300781 171.859375 144.964844 172.453125 144.964844 C 173.050781 144.964844 173.53125 144.300781 173.53125 143.488281 C 173.53125 142.671875 173.050781 142.011719 172.453125 142.011719 C 171.863281 142.011719 171.375 142.667969 171.375 143.488281 Z M 181.40625 138.375 C 181.902344 138.164062 184.015625 137.167969 184.789062 137.1875 C 185.558594 137.203125 183.824219 135.867188 180.699219 137.347656 C 180.273438 137.554688 180.910156 138.589844 181.40625 138.375 Z M 173.539062 139.382812 C 174.242188 139.414062 174.335938 138.4375 173.972656 138.109375 C 173.605469 137.785156 168.96875 138.640625 169.546875 139.382812 C 169.769531 139.671875 171.980469 138.914062 173.539062 139.382812 Z M 177.339844 146.871094 C 177.9375 146.980469 177.160156 146.511719 176.90625 146.101562 C 176.746094 145.839844 176.9375 144.8125 177.339844 143.628906 C 177.910156 141.964844 176.808594 140.3125 176.613281 140.703125 C 176.691406 140.851562 177.535156 142.113281 176.769531 143.820312 C 176.007812 145.519531 176.328125 146.648438 177.339844 146.871094 Z M 176.074219 150.761719 C 176.199219 150.898438 181.703125 150.355469 181.738281 149.957031 C 181.769531 149.554688 175.785156 150.453125 176.074219 150.761719 Z M 182.957031 142.011719 C 182.957031 141.195312 182.476562 140.535156 181.878906 140.535156 C 181.28125 140.535156 180.800781 141.195312 180.800781 142.011719 C 180.800781 142.824219 181.28125 143.488281 181.878906 143.488281 C 182.476562 143.488281 182.957031 142.824219 182.957031 142.011719 Z M 117.117188 188.367188 C 117.117188 188.367188 117.117188 188.386719 117.117188 188.410156 C 117.121094 188.382812 117.121094 188.363281 117.117188 188.367188 Z M 116.695312 192.03125 C 116.457031 191.957031 116.269531 191.957031 116.269531 191.957031 C 115.398438 192.605469 114.164062 192.65625 113.109375 190.15625 C 113.109375 190.15625 112.984375 190.28125 112.792969 190.480469 C 113.152344 191.265625 113.769531 192.339844 114.53125 192.59375 C 114.300781 193.296875 113.332031 196.011719 112.0625 196.742188 C 112.046875 196.835938 112.0625 196.933594 112.089844 197.03125 C 113.8125 195.875 114.628906 193.398438 114.839844 192.652344 C 115.785156 192.746094 116.433594 192.269531 116.695312 192.03125 Z M 117.476562 187.390625 C 117.277344 187.359375 117.117188 188.367188 117.117188 188.367188 C 117.109375 188.375 117.257812 188.457031 117.511719 188.601562 C 117.5625 188.160156 117.617188 187.414062 117.476562 187.390625 Z M 117.59375 193.417969 C 117.59375 193.417969 116.449219 197.304688 114.761719 198.140625 C 114.761719 198.140625 114.796875 198.214844 114.867188 198.316406 C 116.960938 197.433594 117.699219 194.441406 117.90625 193.304688 C 117.808594 193.328125 117.703125 193.367188 117.59375 193.417969 Z M 117.304688 199.171875 C 117.324219 199.273438 117.363281 199.363281 117.40625 199.449219 C 119.773438 197.734375 120.273438 195.6875 120.371094 194.90625 C 120.28125 194.910156 120.191406 194.914062 120.09375 194.9375 C 120.082031 195.671875 118.832031 198.472656 117.304688 199.171875 Z M 188.324219 216.101562 C 188.324219 216.101562 188.421875 216.214844 188.59375 216.355469 C 189.222656 215 189.222656 212.882812 189.03125 213.023438 C 188.824219 213.164062 188.921875 215.074219 188.324219 216.101562 Z M 194.027344 213.40625 C 193.910156 213.460938 193.796875 215.386719 193.28125 215.945312 C 193.28125 215.945312 193.46875 216.023438 193.769531 216.023438 C 194.132812 214.902344 194.136719 213.351562 194.027344 213.40625 Z M 190.933594 216.070312 C 190.933594 216.070312 191.042969 216.234375 191.246094 216.382812 C 191.605469 215.171875 191.847656 213.25 191.695312 213.269531 C 191.542969 213.285156 191.40625 215.355469 190.933594 216.070312 Z M 190.933594 216.070312 " fill-opacity="1" fill-rule="nonzero"/><g fill="#f46e16" fill-opacity="1"><g transform="translate(16.275746, 387.651946)"><g><path d="M 29.921875 -8.671875 C 29.921875 -5.910156 28.882812 -3.773438 26.8125 -2.265625 C 24.738281 -0.753906 21.859375 0 18.171875 0 L 2.953125 0 L 2.953125 -30.40625 L 16.875 -30.40625 C 20.59375 -30.40625 23.40625 -29.757812 25.3125 -28.46875 C 27.21875 -27.1875 28.171875 -25.285156 28.171875 -22.765625 C 28.171875 -21.046875 27.691406 -19.59375 26.734375 -18.40625 C 25.773438 -17.21875 24.316406 -16.414062 22.359375 -16 C 24.816406 -15.707031 26.691406 -14.929688 27.984375 -13.671875 C 29.273438 -12.410156 29.921875 -10.742188 29.921875 -8.671875 Z M 21.75 -21.90625 C 21.75 -23.269531 21.3125 -24.238281 20.4375 -24.8125 C 19.570312 -25.394531 18.285156 -25.6875 16.578125 -25.6875 L 9.328125 -25.6875 L 9.328125 -18.15625 L 16.625 -18.15625 C 18.414062 -18.15625 19.71875 -18.46875 20.53125 -19.09375 C 21.34375 -19.71875 21.75 -20.65625 21.75 -21.90625 Z M 23.53125 -9.171875 C 23.53125 -12.023438 21.484375 -13.453125 17.390625 -13.453125 L 9.328125 -13.453125 L 9.328125 -4.734375 L 17.640625 -4.734375 C 19.679688 -4.734375 21.171875 -5.101562 22.109375 -5.84375 C 23.054688 -6.582031 23.53125 -7.691406 23.53125 -9.171875 Z M 23.53125 -9.171875 "/></g></g></g><g fill="#737373" fill-opacity="1"><g transform="translate(57.033554, 387.651946)"><g><path d="M 32.53125 -15.34375 C 32.53125 -12.175781 31.898438 -9.390625 30.640625 -6.984375 C 29.390625 -4.585938 27.597656 -2.75 25.265625 -1.46875 C 22.941406 -0.195312 20.222656 0.4375 17.109375 0.4375 C 12.335938 0.4375 8.59375 -0.96875 5.875 -3.78125 C 3.164062 -6.59375 1.8125 -10.445312 1.8125 -15.34375 C 1.8125 -20.21875 3.160156 -24.019531 5.859375 -26.75 C 8.566406 -29.488281 12.332031 -30.859375 17.15625 -30.859375 C 21.976562 -30.859375 25.742188 -29.476562 28.453125 -26.71875 C 31.171875 -23.957031 32.53125 -20.164062 32.53125 -15.34375 Z M 26.03125 -15.34375 C 26.03125 -18.625 25.253906 -21.195312 23.703125 -23.0625 C 22.148438 -24.925781 19.96875 -25.859375 17.15625 -25.859375 C 14.3125 -25.859375 12.109375 -24.929688 10.546875 -23.078125 C 8.992188 -21.234375 8.21875 -18.65625 8.21875 -15.34375 C 8.21875 -12.007812 9.015625 -9.378906 10.609375 -7.453125 C 12.203125 -5.535156 14.367188 -4.578125 17.109375 -4.578125 C 19.960938 -4.578125 22.160156 -5.507812 23.703125 -7.375 C 25.253906 -9.25 26.03125 -11.90625 26.03125 -15.34375 Z M 26.03125 -15.34375 "/></g></g></g><g fill="#737373" fill-opacity="1"><g transform="translate(100.247057, 387.651946)"><g><path d="M 28.203125 0 L 28.203125 -18.4375 C 28.203125 -18.851562 28.207031 -19.269531 28.21875 -19.6875 C 28.226562 -20.101562 28.296875 -21.894531 28.421875 -25.0625 C 27.398438 -21.1875 26.644531 -18.488281 26.15625 -16.96875 L 20.671875 0 L 16.140625 0 L 10.65625 -16.96875 L 8.359375 -25.0625 C 8.523438 -21.71875 8.609375 -19.507812 8.609375 -18.4375 L 8.609375 0 L 2.953125 0 L 2.953125 -30.40625 L 11.484375 -30.40625 L 16.921875 -13.40625 L 17.390625 -11.765625 L 18.4375 -7.6875 L 19.796875 -12.5625 L 25.375 -30.40625 L 33.859375 -30.40625 L 33.859375 0 Z M 28.203125 0 "/></g></g></g><g fill="#737373" fill-opacity="1"><g transform="translate(145.89885, 387.651946)"><g><path d="M 29.921875 -8.671875 C 29.921875 -5.910156 28.882812 -3.773438 26.8125 -2.265625 C 24.738281 -0.753906 21.859375 0 18.171875 0 L 2.953125 0 L 2.953125 -30.40625 L 16.875 -30.40625 C 20.59375 -30.40625 23.40625 -29.757812 25.3125 -28.46875 C 27.21875 -27.1875 28.171875 -25.285156 28.171875 -22.765625 C 28.171875 -21.046875 27.691406 -19.59375 26.734375 -18.40625 C 25.773438 -17.21875 24.316406 -16.414062 22.359375 -16 C 24.816406 -15.707031 26.691406 -14.929688 27.984375 -13.671875 C 29.273438 -12.410156 29.921875 -10.742188 29.921875 -8.671875 Z M 21.75 -21.90625 C 21.75 -23.269531 21.3125 -24.238281 20.4375 -24.8125 C 19.570312 -25.394531 18.285156 -25.6875 16.578125 -25.6875 L 9.328125 -25.6875 L 9.328125 -18.15625 L 16.625 -18.15625 C 18.414062 -18.15625 19.71875 -18.46875 20.53125 -19.09375 C 21.34375 -19.71875 21.75 -20.65625 21.75 -21.90625 Z M 23.53125 -9.171875 C 23.53125 -12.023438 21.484375 -13.453125 17.390625 -13.453125 L 9.328125 -13.453125 L 9.328125 -4.734375 L 17.640625 -4.734375 C 19.679688 -4.734375 21.171875 -5.101562 22.109375 -5.84375 C 23.054688 -6.582031 23.53125 -7.691406 23.53125 -9.171875 Z M 23.53125 -9.171875 "/></g></g></g><g fill="#737373" fill-opacity="1"><g transform="translate(186.652481, 387.651946)"><g><path d="M 2.953125 0 L 2.953125 -30.40625 L 26.875 -30.40625 L 26.875 -25.484375 L 9.328125 -25.484375 L 9.328125 -17.84375 L 25.5625 -17.84375 L 25.5625 -12.921875 L 9.328125 -12.921875 L 9.328125 -4.921875 L 27.75 -4.921875 L 27.75 0 Z M 2.953125 0 "/></g></g></g><g fill="#737373" fill-opacity="1"><g transform="translate(224.967811, 387.651946)"><g><path d="M 2.953125 0 L 2.953125 -30.40625 L 9.328125 -30.40625 L 9.328125 0 Z M 2.953125 0 "/></g></g></g><g fill="#737373" fill-opacity="1"><g transform="translate(246.085614, 387.651946)"><g><path d="M 23.84375 0 L 16.796875 -11.546875 L 9.328125 -11.546875 L 9.328125 0 L 2.953125 0 L 2.953125 -30.40625 L 18.15625 -30.40625 C 21.78125 -30.40625 24.578125 -29.625 26.546875 -28.0625 C 28.515625 -26.507812 29.5 -24.269531 29.5 -21.34375 C 29.5 -19.21875 28.894531 -17.378906 27.6875 -15.828125 C 26.476562 -14.285156 24.847656 -13.269531 22.796875 -12.78125 L 31.015625 0 Z M 23.09375 -21.09375 C 23.09375 -24.007812 21.222656 -25.46875 17.484375 -25.46875 L 9.328125 -25.46875 L 9.328125 -16.484375 L 17.65625 -16.484375 C 19.4375 -16.484375 20.785156 -16.882812 21.703125 -17.6875 C 22.628906 -18.5 23.09375 -19.632812 23.09375 -21.09375 Z M 23.09375 -21.09375 "/></g></g></g><g fill="#737373" fill-opacity="1"><g transform="translate(286.839245, 387.651946)"><g><path d="M 32.53125 -15.34375 C 32.53125 -12.175781 31.898438 -9.390625 30.640625 -6.984375 C 29.390625 -4.585938 27.597656 -2.75 25.265625 -1.46875 C 22.941406 -0.195312 20.222656 0.4375 17.109375 0.4375 C 12.335938 0.4375 8.59375 -0.96875 5.875 -3.78125 C 3.164062 -6.59375 1.8125 -10.445312 1.8125 -15.34375 C 1.8125 -20.21875 3.160156 -24.019531 5.859375 -26.75 C 8.566406 -29.488281 12.332031 -30.859375 17.15625 -30.859375 C 21.976562 -30.859375 25.742188 -29.476562 28.453125 -26.71875 C 31.171875 -23.957031 32.53125 -20.164062 32.53125 -15.34375 Z M 26.03125 -15.34375 C 26.03125 -18.625 25.253906 -21.195312 23.703125 -23.0625 C 22.148438 -24.925781 19.96875 -25.859375 17.15625 -25.859375 C 14.3125 -25.859375 12.109375 -24.929688 10.546875 -23.078125 C 8.992188 -21.234375 8.21875 -18.65625 8.21875 -15.34375 C 8.21875 -12.007812 9.015625 -9.378906 10.609375 -7.453125 C 12.203125 -5.535156 14.367188 -4.578125 17.109375 -4.578125 C 19.960938 -4.578125 22.160156 -5.507812 23.703125 -7.375 C 25.253906 -9.25 26.03125 -11.90625 26.03125 -15.34375 Z M 26.03125 -15.34375 "/></g></g></g></svg>