<svg xmlns="http://www.w3.org/2000/svg" xmlns:xlink="http://www.w3.org/1999/xlink" width="450" zoomAndPan="magnify" viewBox="0 0 337.5 449.999984" height="600" preserveAspectRatio="xMidYMid meet" version="1.0"><defs><clipPath id="ae1ff118c3"><path d="M 116 293 L 283 293 L 283 333.476562 L 116 333.476562 Z M 116 293 " clip-rule="nonzero"/></clipPath><clipPath id="519dfbc704"><path d="M 122 116.296875 L 263 116.296875 L 263 320 L 122 320 Z M 122 116.296875 " clip-rule="nonzero"/></clipPath><clipPath id="7ccc60edbd"><path d="M 49.640625 172 L 82 172 L 82 205 L 49.640625 205 Z M 49.640625 172 " clip-rule="nonzero"/></clipPath></defs><g clip-path="url(#ae1ff118c3)"><path fill="#2b3244" d="M 153.066406 332.269531 C 152.773438 332.398438 148.859375 332.511719 146.695312 332.609375 C 146.332031 331.339844 145.816406 329.886719 145.339844 329.925781 C 144.878906 329.964844 144.5 331.40625 144.253906 332.703125 C 142.691406 332.757812 140.933594 332.804688 139.078125 332.839844 C 138.570312 331.621094 137.988281 330.40625 137.71875 330.574219 C 137.453125 330.738281 137.253906 331.84375 137.121094 332.878906 C 134.960938 332.917969 132.726562 332.945312 130.5625 332.960938 C 130.296875 331.835938 129.90625 330.503906 129.515625 330.578125 C 129.136719 330.652344 128.515625 331.914062 127.980469 332.972656 C 126.175781 332.980469 124.464844 332.980469 122.941406 332.964844 C 122.757812 331.84375 122.480469 330.507812 122.191406 330.582031 C 121.890625 330.664062 121.257812 331.972656 120.828125 332.941406 C 118.332031 332.898438 116.722656 332.816406 116.65625 332.691406 C 116.363281 332.128906 115.644531 330.0625 116.65625 326.285156 C 117 325 117.839844 323.894531 118.878906 322.90625 L 120.011719 323.199219 L 119.785156 322.113281 C 120.597656 321.449219 121.472656 320.832031 122.296875 320.253906 L 123.332031 320.527344 L 123.347656 319.488281 C 123.976562 319.019531 124.535156 318.566406 124.949219 318.113281 C 125.027344 318.03125 125.09375 317.941406 125.164062 317.851562 L 126.25 317.820312 L 125.886719 316.707031 C 126.324219 315.804688 126.582031 314.824219 126.730469 313.957031 L 127.445312 313.941406 L 126.890625 312.820312 C 126.964844 312.175781 126.976562 311.722656 127.011719 311.621094 L 156.183594 311.621094 C 156.382812 311.683594 154.5625 331.617188 153.066406 332.269531 Z M 266.941406 328.917969 C 267.085938 328.734375 268.6875 330.339844 269.851562 331.632812 C 271.789062 330.832031 273.792969 329.753906 275.429688 328.429688 C 274.390625 327.125 273.105469 325.347656 273.394531 324.855469 C 273.695312 324.335938 275.949219 325.441406 277.527344 326.296875 C 277.746094 326.007812 277.949219 325.710938 278.125 325.402344 C 278.898438 324.050781 279.582031 322.421875 280.164062 320.691406 C 279.132812 319.601562 277.855469 318.316406 277.910156 317.878906 C 277.972656 317.394531 279.75 317.78125 280.945312 318.097656 C 281.429688 316.273438 281.808594 314.433594 282.058594 312.765625 C 280.945312 312.207031 279.664062 311.5 279.644531 311.175781 C 279.625 310.832031 281.105469 310.546875 282.347656 310.367188 C 282.484375 308.726562 282.648438 305.871094 282.425781 305.214844 C 281.628906 302.847656 268.597656 295.734375 261.328125 293.574219 C 254.523438 291.558594 254.78125 313.046875 254.78125 313.046875 C 254.867188 313.023438 256.335938 313.574219 257.882812 314.226562 C 258.1875 314.355469 258.753906 313.777344 258.796875 314.617188 C 259.402344 314.882812 259.976562 315.148438 260.441406 315.378906 C 260.8125 315.5625 261.28125 315.417969 261.308594 315.863281 C 261.375 315.910156 261.433594 315.953125 261.46875 315.984375 C 261.71875 316.222656 261.777344 316.972656 261.707031 317.941406 C 261.683594 318.28125 262.09375 318.59375 261.589844 319.027344 C 261.46875 319.882812 261.285156 320.804688 261.0625 321.636719 C 260.988281 321.925781 261.589844 322.195312 260.824219 322.464844 C 260.6875 322.894531 260.539062 323.277344 260.394531 323.589844 C 259.457031 325.574219 259.789062 331.117188 262.617188 333.183594 C 263.148438 333.476562 265.078125 333.222656 267.441406 332.488281 C 267.152344 331.011719 266.804688 329.089844 266.941406 328.917969 Z M 266.941406 328.917969 " fill-opacity="1" fill-rule="nonzero"/></g><g clip-path="url(#519dfbc704)"><path fill="#c54844" d="M 168.929688 143.601562 C 168.929688 143.601562 161.757812 137.117188 162.148438 133.484375 C 162.246094 131.644531 165.503906 132.496094 166.390625 132.175781 C 166.488281 131.882812 170.039062 122.515625 179.367188 118.929688 C 179.367188 118.929688 181.667969 116.734375 183.65625 116.734375 C 185.644531 116.734375 197.957031 116.304688 202.664062 128.726562 C 202.664062 128.726562 205.292969 135.339844 205.113281 141.40625 C 205.113281 141.40625 206.972656 142.25 205.449219 145.042969 C 203.921875 147.835938 196.203125 149.730469 196.203125 149.730469 M 139.847656 215.074219 C 154.050781 221.941406 166.378906 216.71875 166.378906 216.71875 C 166.378906 216.71875 166.390625 225.265625 166.316406 230.792969 L 171.53125 236.644531 L 164.875 236.515625 C 161.984375 238.855469 156.328125 242.484375 156.328125 242.484375 L 156.320312 243.835938 C 136.601562 252.980469 129.859375 256.871094 127.332031 264.0625 C 125.917969 268.078125 124.089844 282.222656 123.140625 294.21875 C 123.140625 294.21875 126.886719 300.65625 122.65625 301.679688 C 122.367188 307.640625 122.457031 312.019531 123.160156 312.539062 C 125.378906 314.164062 158.257812 314.050781 158.1875 313.660156 C 158.164062 313.523438 157.984375 309.960938 157.738281 302.585938 L 154.914062 298.398438 L 157.261719 295.074219 C 157.320312 285.664062 157.488281 276.144531 157.847656 275.878906 C 158.558594 275.347656 186.148438 262.402344 186.148438 262.402344 C 186.148438 262.402344 197.574219 290.210938 203.414062 297.058594 C 206.738281 300.960938 221.519531 307.949219 233.804688 313.105469 C 238.386719 311.542969 238.785156 310.433594 239.21875 309.886719 C 239.652344 309.34375 241.292969 316.144531 241.292969 316.144531 C 246.960938 318.363281 251.039062 319.742188 251.351562 319.515625 C 256.933594 312.617188 262.710938 291.347656 262.097656 291.347656 C 261.910156 291.347656 257.394531 289.246094 253.8125 288.351562 L 249.753906 291.628906 L 246.636719 285.1875 C 237.828125 280.464844 228.445312 275.296875 228.34375 274.875 C 228.148438 274.085938 220.886719 250.433594 220.886719 250.433594 C 221.699219 247.617188 225.253906 245.363281 225.253906 245.363281 C 225.253906 245.363281 224.578125 242.175781 223.671875 237.691406 L 221.609375 235.003906 L 222.597656 232.316406 C 220.816406 223.25 218.828125 212.347656 219.003906 209.734375 C 219.003906 209.734375 228.242188 204.410156 229.292969 197.839844 C 229.773438 193.28125 227.347656 187.496094 224.167969 182.078125 L 220.699219 181.324219 L 220.699219 176.671875 C 217.078125 171.449219 213.445312 167.242188 212.285156 165.878906 C 209.632812 162.773438 197.46875 157.773438 197.449219 157.703125 C 197.425781 157.632812 196.917969 155.230469 196.765625 154.875 L 178.238281 158.71875 L 178.332031 162.109375 C 178.332031 162.109375 169.175781 164.8125 165.515625 169.914062 C 163.648438 172.515625 160.945312 180 158.734375 186.726562 C 158.734375 186.726562 161.753906 190.671875 162.132812 190.78125 C 162.507812 190.886719 156.765625 192.921875 156.765625 192.925781 C 155.664062 196.484375 154.941406 198.984375 154.941406 198.984375 C 153.550781 198.265625 149.652344 196.511719 145.378906 194.636719 C 145.378906 194.636719 143.175781 196.648438 141.546875 197.191406 C 139.917969 197.734375 138.953125 191.84375 138.953125 191.84375 C 134.398438 189.882812 130.671875 188.320312 130.648438 188.386719 C 130.585938 188.542969 130.339844 189.6875 130.339844 189.6875 C 130.222656 190 121.324219 198.265625 122.488281 203.644531 C 123.660156 209.019531 139.847656 215.074219 139.847656 215.074219 Z M 139.847656 215.074219 " fill-opacity="1" fill-rule="nonzero"/></g><path fill="#2b3244" d="M 167.199219 137.019531 L 167.582031 137.59375 C 167.582031 137.59375 166.140625 137.75 166.0625 137.582031 C 165.976562 137.414062 167.199219 137.019531 167.199219 137.019531 Z M 180.074219 129.335938 C 179.796875 129.386719 170.402344 131.703125 166.652344 131.527344 C 166.492188 131.902344 166.402344 132.132812 166.386719 132.175781 C 170.855469 132.007812 179.488281 129.890625 180.527344 129.675781 C 181.195312 129.390625 180.359375 129.28125 180.074219 129.335938 Z M 179.367188 118.929688 C 179.015625 119.066406 178.675781 119.207031 178.339844 119.359375 C 175.242188 123.042969 172.601562 129.421875 172.789062 129.320312 C 172.988281 129.214844 176.398438 121.808594 179.367188 118.929688 Z M 184.21875 121.890625 C 184.917969 121.007812 187.128906 118.664062 188.617188 117.757812 C 189.082031 117.425781 188.886719 117.222656 188.617188 117.34375 C 187.898438 117.5625 183.773438 120.570312 182.511719 124.566406 C 182.464844 125.257812 183.511719 122.777344 184.21875 121.890625 Z M 185.964844 122.386719 C 184.0625 124.898438 182.269531 128.371094 182.6875 128.164062 C 182.960938 128.285156 186.625 120.59375 189.910156 119.160156 C 190.488281 118.9375 196.230469 120.285156 200.582031 125.496094 C 200.582031 125.496094 200.507812 124.640625 198.703125 122.992188 C 195.476562 120.015625 190.429688 118.605469 190.046875 118.722656 C 189.660156 118.828125 187.863281 119.878906 185.964844 122.386719 Z M 198.976562 136.984375 C 199.085938 137.355469 202.945312 139.703125 205.113281 141.410156 C 205.121094 141.167969 205.121094 140.925781 205.121094 140.6875 C 203.242188 139.273438 198.871094 136.636719 198.976562 136.984375 Z M 200.421875 141.753906 C 203.015625 144.417969 203 143.90625 200.851562 141.488281 C 200.851562 141.484375 197.828125 139.089844 200.421875 141.753906 Z M 185.785156 128.773438 C 186.007812 129.289062 190.878906 130.535156 195.484375 134.085938 C 196.203125 134.582031 194.804688 132.800781 192.679688 131.609375 C 188.492188 129.382812 185.753906 128.546875 185.785156 128.773438 Z M 180.488281 157.640625 C 180.488281 157.640625 178.109375 158.269531 178.242188 158.722656 C 178.375 159.179688 178.757812 159.460938 180.132812 160.171875 L 192.707031 156.714844 L 195 156.519531 C 195 156.519531 197.3125 155.195312 196.65625 154.730469 C 194.425781 153.96875 180.488281 157.640625 180.488281 157.640625 Z M 180.488281 157.640625 " fill-opacity="1" fill-rule="nonzero"/><path fill="#f6bc2d" d="M 157.261719 295.074219 C 157.242188 297.648438 157.742188 300.21875 157.738281 302.585938 C 148.800781 302.609375 130.222656 301.96875 122.648438 301.679688 C 122.761719 299.382812 122.929688 296.855469 123.136719 294.21875 C 129.226562 295.128906 147.710938 295.09375 157.261719 295.074219 Z M 194.832031 152.839844 C 194.78125 151.6875 200.246094 148.039062 200.851562 141.488281 C 200.285156 140.605469 196.546875 137.796875 193.855469 136.710938 C 191.15625 135.625 191.199219 151.1875 194.832031 152.839844 Z M 138.953125 191.84375 C 141.011719 192.730469 143.242188 193.699219 145.378906 194.636719 L 140.140625 208.417969 L 132.949219 205.988281 C 132.949219 205.964844 132.972656 205.882812 133.019531 205.75 C 133.558594 204.210938 137.03125 195.746094 138.953125 191.84375 Z M 220.703125 176.679688 C 221.894531 178.394531 223.078125 180.21875 224.175781 182.089844 C 219.894531 185.917969 208.550781 191.394531 208.550781 191.394531 C 208.210938 191.527344 207.59375 191.707031 206.789062 191.910156 L 212.910156 212.578125 L 210.0625 213.496094 C 210.0625 213.496094 206.0625 215.722656 205.804688 215.34375 C 205.570312 215.003906 201.144531 197.050781 200.316406 193.386719 C 196.46875 194.226562 192.746094 195.007812 192.660156 195.164062 C 192.496094 195.464844 192.996094 197.253906 192.996094 197.253906 C 192.996094 197.253906 192.125 200.886719 188.085938 201.175781 C 184.046875 201.460938 166.96875 199.320312 166.96875 199.320312 L 167.0625 197.550781 C 164.117188 196.890625 158.910156 194.117188 156.769531 192.933594 C 157.339844 191.085938 158.015625 188.949219 158.742188 186.734375 C 162.03125 188.402344 167.605469 190.390625 167.605469 190.390625 L 167.820312 192.746094 C 185.351562 195.4375 205.90625 190.757812 207.769531 190.316406 C 206.773438 188.945312 205.175781 186.761719 205.121094 186.6875 C 205.617188 186.347656 216.722656 179.230469 220.703125 176.679688 Z M 166.3125 230.792969 C 171.285156 231.691406 181.871094 237.410156 181.839844 237.484375 C 181.8125 237.570312 178.941406 243.832031 178.941406 243.832031 C 175.414062 241.082031 168.019531 237.800781 164.871094 236.511719 C 165.40625 236.082031 165.84375 235.695312 166.136719 235.378906 C 166.222656 235.257812 166.277344 233.347656 166.3125 230.792969 Z M 222.597656 232.324219 C 222.972656 234.230469 223.335938 236.054688 223.671875 237.703125 C 212.65625 242.871094 184.464844 243.835938 184.464844 243.835938 C 183.707031 242.3125 182.414062 237.90625 182.414062 237.90625 C 201.839844 237.828125 217.234375 233.886719 222.597656 232.324219 Z M 253.8125 288.351562 C 251.546875 294.855469 246.160156 310.0625 241.289062 316.144531 C 239 315.253906 236.460938 314.222656 233.800781 313.105469 C 236.105469 308.367188 243.777344 291.359375 246.636719 285.195312 C 249.152344 286.539062 251.621094 287.199219 253.8125 288.351562 Z M 253.8125 288.351562 " fill-opacity="1" fill-rule="nonzero"/><g clip-path="url(#7ccc60edbd)"><path fill="#90aeb0" d="M 81.042969 187.597656 L 77.710938 199.535156 C 69.988281 198.328125 61.914062 199.417969 54.785156 202.632812 C 54.136719 202.925781 53.476562 203.238281 52.765625 203.25 C 52.101562 203.265625 51.683594 202.429688 51.738281 201.761719 C 51.789062 201.097656 52.320312 200.542969 52.933594 200.277344 C 52.03125 200.140625 51.089844 199.734375 50.679688 198.921875 C 50.269531 198.109375 50.71875 196.878906 51.628906 196.804688 C 51.089844 196.394531 50.578125 195.933594 50.113281 195.445312 C 49.886719 195.203125 49.648438 194.871094 49.773438 194.566406 C 49.84375 194.386719 50.023438 194.273438 50.1875 194.167969 C 50.78125 193.804688 51.378906 193.441406 51.96875 193.070312 C 51.171875 192.542969 50.3125 191.921875 50.121094 190.988281 C 49.957031 190.175781 50.375 189.339844 50.980469 188.777344 C 51.589844 188.214844 52.367188 187.878906 53.125 187.550781 C 51.816406 186.988281 51.15625 185.367188 51.449219 183.972656 C 51.742188 182.582031 52.828125 181.441406 54.105469 180.804688 C 55.378906 180.164062 56.832031 179.96875 58.257812 179.914062 C 62.316406 179.765625 66.355469 180.722656 70.144531 182.191406 C 73.921875 183.652344 77.488281 185.628906 81.042969 187.597656 Z M 78.457031 185.199219 C 76.800781 183.871094 77.683594 172.359375 75.136719 173.355469 C 72.59375 174.351562 73.480469 181.101562 78.457031 185.199219 Z M 62.191406 204.570312 C 62.414062 206.449219 71.953125 200.585938 71.953125 200.585938 C 71.488281 200.582031 61.96875 202.683594 62.191406 204.570312 Z M 73.050781 182.546875 C 73.035156 182.523438 72.960938 182.457031 72.847656 182.355469 C 72.910156 182.433594 72.976562 182.5 73.050781 182.546875 Z M 72.847656 182.355469 C 71.367188 180.589844 70.347656 170.8125 66.65625 173.292969 C 64.144531 174.984375 71.511719 181.164062 72.847656 182.355469 Z M 72.847656 182.355469 " fill-opacity="1" fill-rule="nonzero"/></g><path fill="#d9865a" d="M 194.371094 139.121094 C 197.191406 138.269531 198.886719 141.4375 198.273438 144.460938 C 197.660156 147.488281 194.597656 147.554688 194.597656 147.554688 L 195.003906 156.511719 C 192.316406 160.625 184.703125 159.742188 184.273438 159.996094 C 183.84375 160.25 183.328125 161.988281 183.328125 161.988281 C 183.328125 161.988281 182.660156 160.476562 182.28125 160.421875 C 181.90625 160.363281 180.789062 160.765625 180.136719 160.164062 C 180.136719 160.164062 179.738281 157.699219 179.621094 156.710938 C 179.507812 155.726562 176.644531 156.398438 176.644531 156.398438 C 167.324219 153.714844 167.199219 137.015625 167.199219 137.015625 C 167.199219 137.015625 179.578125 133.894531 185.789062 134.605469 C 192 135.3125 192.367188 136.507812 192.367188 136.507812 Z M 194.371094 139.121094 " fill-opacity="1" fill-rule="nonzero"/><path fill="#2b3244" d="M 180.527344 155.332031 C 181.984375 155.261719 183.78125 153.539062 184.847656 154.453125 C 190.34375 148.765625 190.742188 141.480469 190.625 135.476562 L 193.855469 136.710938 C 196.082031 148.164062 188.078125 155.140625 183.867188 156.402344 C 179.660156 157.667969 176.644531 156.402344 176.644531 156.402344 C 175.8125 154.980469 179.109375 155.402344 180.527344 155.332031 Z M 115.71875 206.894531 C 120.585938 208.660156 130.039062 213.710938 130.039062 213.710938 C 140.769531 215.933594 164.324219 216.605469 183.625 214.894531 L 191.867188 214.894531 C 201.550781 216.988281 224.640625 230.640625 234.761719 245.160156 C 244.882812 259.675781 270.074219 277.359375 281.746094 278.742188 C 287.050781 277.253906 285.832031 269.851562 285.832031 269.851562 C 273.484375 266.285156 258.277344 258.773438 241.859375 238.082031 C 227.238281 219.652344 210.074219 213.496094 210.074219 213.496094 C 206.910156 214.546875 197.429688 216.183594 197.175781 215.792969 C 196.921875 215.402344 196.273438 212.296875 196.273438 212.296875 L 189.113281 204.253906 L 181.949219 206.742188 C 164.570312 208.5625 131.410156 203.96875 131.410156 203.96875 C 131.410156 203.96875 115.296875 204.683594 109.742188 201.917969 C 104.1875 199.152344 97.511719 192.710938 97.160156 192.570312 C 96.8125 192.429688 83.816406 187.132812 83.816406 187.132812 C 84.398438 184.949219 83.066406 183.878906 81.738281 184.148438 C 80.410156 184.417969 79.136719 186.039062 77.230469 191.933594 C 75.320312 197.824219 74.925781 202.234375 76.933594 202.871094 C 78.941406 203.507812 79.964844 200.949219 79.964844 200.949219 C 79.964844 200.949219 91.824219 202.160156 93.570312 202.96875 C 93.558594 202.96875 110.851562 205.128906 115.71875 206.894531 Z M 115.71875 206.894531 " fill-opacity="1" fill-rule="nonzero"/><path fill="#f6bc2d" d="M 191.964844 149.949219 C 191.785156 150.597656 190.4375 152.390625 189.660156 152.785156 C 188.875 153.171875 187.027344 151.355469 187.234375 150.882812 C 187.585938 150.078125 188.492188 148.4375 188.6875 148.230469 C 188.878906 148.019531 192.144531 149.300781 191.964844 149.949219 Z M 120.390625 327.441406 C 119.976562 327.84375 148.597656 327.558594 148.824219 327.105469 C 149.042969 326.652344 121.039062 326.8125 120.390625 327.441406 Z M 125.167969 317.851562 C 126.164062 318.660156 127.492188 319.671875 127.703125 319.542969 C 127.917969 319.40625 126.769531 317.847656 125.890625 316.707031 C 125.6875 317.109375 125.445312 317.496094 125.167969 317.851562 Z M 130.113281 315.027344 C 130.113281 314.882812 128.996094 314.132812 127.695312 313.316406 C 127.492188 313.230469 127.078125 313.207031 126.84375 313.238281 C 126.816406 313.460938 126.777344 313.703125 126.738281 313.953125 C 127.996094 314.457031 130.113281 315.265625 130.113281 315.027344 Z M 124.328125 322.285156 C 124.566406 322.101562 123.875 320.546875 123.359375 319.480469 C 123.023438 319.730469 122.667969 319.984375 122.304688 320.242188 C 123.113281 321.277344 124.113281 322.445312 124.328125 322.285156 Z M 121.105469 324.925781 C 121.355469 324.714844 120.535156 323.28125 119.792969 322.105469 C 119.480469 322.359375 119.171875 322.625 118.882812 322.898438 C 119.722656 323.90625 120.835938 325.15625 121.105469 324.925781 Z M 278.105469 308.460938 C 277.816406 310.308594 276.238281 317.132812 272.050781 321.84375 C 267.871094 326.554688 264.375 327.671875 264.976562 328.074219 C 265.472656 328.25 277.789062 321.496094 278.667969 308.6875 C 278.742188 307.878906 278.390625 306.617188 278.105469 308.460938 Z M 257.878906 314.230469 C 258.183594 314.359375 258.488281 314.492188 258.792969 314.625 C 259.402344 313.472656 260.375 311.519531 260.117188 311.335938 C 259.855469 311.136719 258.546875 313.160156 257.878906 314.230469 Z M 261.707031 317.945312 C 261.683594 318.285156 261.640625 318.65625 261.589844 319.03125 C 262.59375 319.164062 264.207031 319.347656 264.183594 319.1875 C 264.164062 319.039062 262.699219 318.375 261.707031 317.945312 Z M 261.070312 321.640625 C 260.992188 321.929688 260.914062 322.203125 260.828125 322.46875 C 261.84375 322.78125 263.261719 323.226562 263.363281 323.054688 C 263.46875 322.878906 262.050781 322.132812 261.070312 321.640625 Z M 263.363281 314.171875 C 263.410156 313.804688 261.476562 314.816406 260.441406 315.378906 C 260.8125 315.5625 261.117188 315.734375 261.308594 315.863281 C 262.144531 315.3125 263.320312 314.488281 263.363281 314.171875 Z M 93.558594 202.96875 C 93.300781 202.496094 96.882812 192.832031 97.152344 192.570312 L 103.828125 195.253906 C 103.828125 195.253906 107.875 188.078125 109.359375 186.777344 C 110.847656 185.476562 113.308594 186.042969 113.308594 186.042969 C 113.308594 186.042969 122.859375 186.472656 125.160156 190.1875 C 127.453125 193.898438 127.328125 197.253906 126.417969 198.609375 C 125.511719 199.964844 125.175781 202.4375 125.175781 202.4375 C 125.175781 202.4375 131.0625 203.65625 131.398438 203.96875 C 131.734375 204.28125 130.6875 213.027344 130.039062 213.714844 C 129.390625 214.398438 102.179688 206.734375 93.558594 202.96875 Z M 120.988281 197.84375 C 120.753906 197.019531 109.949219 193.628906 109.363281 194.238281 C 108.777344 194.847656 108.207031 196.738281 108.207031 196.738281 C 108.210938 196.878906 119.453125 202.347656 120.199219 202.089844 C 120.945312 201.832031 121.214844 198.671875 120.988281 197.84375 Z M 81.972656 194.296875 C 82.101562 194.550781 84.585938 187.449219 84.585938 187.449219 L 83.804688 187.132812 C 83.804688 187.125 81.84375 194.035156 81.972656 194.296875 Z M 81.972656 194.296875 " fill-opacity="1" fill-rule="nonzero"/><path fill="#d9865a" d="M 125.175781 202.433594 L 123.648438 202.003906 C 123.648438 202.003906 126.382812 195.640625 125.65625 193.960938 C 124.921875 192.277344 116.925781 188.136719 116.941406 188.089844 C 116.960938 188.042969 116.621094 191.203125 116.09375 191.671875 C 116.09375 191.671875 117.460938 191.671875 117.414062 193.132812 C 119.394531 192.210938 119.914062 194.65625 119.914062 194.65625 C 121.746094 194.257812 122.355469 197.097656 120.980469 198.78125 C 119.605469 200.460938 117.363281 200.078125 117.128906 198.882812 C 115.472656 199.550781 114.585938 197.847656 114.585938 197.847656 C 113.460938 198.425781 111.777344 197.300781 111.890625 196.457031 C 110.691406 196.957031 108.730469 195.648438 109.355469 194.25 C 110.296875 192.148438 112.933594 189.882812 112.933594 189.882812 C 112.933594 189.882812 112.125 186.097656 112.90625 185.457031 C 113.6875 184.820312 118.878906 182.945312 120.078125 183.5625 C 121.28125 184.1875 130.335938 189.691406 130.335938 189.691406 C 129.597656 194.648438 125.175781 202.433594 125.175781 202.433594 Z M 192.996094 197.25 C 192.996094 197.25 186.027344 200.480469 184.289062 202.484375 C 182.550781 204.488281 181.941406 206.738281 181.941406 206.738281 C 181.941406 206.738281 184.726562 206.667969 185.621094 206.894531 C 186.511719 207.121094 186.746094 213.21875 185.316406 214.117188 C 184.882812 214.441406 183.625 214.894531 183.625 214.894531 C 183.625 214.894531 186.441406 218.320312 188.042969 215.777344 C 188.042969 215.777344 189.375 217.324219 190.652344 215.746094 C 190.652344 215.746094 191.539062 217.089844 192.996094 215.628906 C 192.996094 215.628906 195.21875 216.492188 196.269531 212.292969 Z M 192.996094 197.25 " fill-opacity="1" fill-rule="nonzero"/><path fill="#2b3244" d="M 186.148438 262.398438 L 184.976562 262.945312 C 184.976562 262.945312 183.066406 257.824219 183.382812 257.589844 C 183.699219 257.355469 186.148438 262.398438 186.148438 262.398438 Z M 156.324219 242.484375 C 156.070312 242.683594 156.316406 243.835938 156.316406 243.835938 L 158.082031 242.84375 C 158.082031 242.84375 156.585938 242.285156 156.324219 242.484375 Z M 178.300781 244.664062 C 174.351562 249.371094 170.832031 249.113281 168.140625 247.433594 C 165.453125 245.746094 158.851562 242.835938 158.707031 243.132812 C 158.707031 243.132812 162.382812 244.96875 164.402344 245.824219 C 166.425781 246.6875 168.113281 248.269531 169.859375 248.730469 C 171.609375 249.195312 175.34375 249.671875 178.480469 244.941406 C 178.585938 244.800781 178.609375 244.304688 178.300781 244.664062 Z M 216.4375 247.242188 C 215.359375 247.644531 200.527344 252.515625 195.140625 252.820312 C 193.648438 253.300781 188.59375 250.363281 185.402344 244.4375 C 185.058594 243.59375 184.382812 243.714844 184.75 244.4375 C 184.671875 245.144531 189.457031 252.621094 194.285156 253.453125 C 199.113281 254.285156 216.210938 248.089844 217.65625 247.589844 C 219.097656 247.085938 217.515625 246.839844 216.4375 247.242188 Z M 225.253906 245.371094 C 225.101562 244.398438 219.546875 246.542969 219.546875 246.542969 L 220.886719 250.441406 C 220.886719 250.441406 225.460938 246.71875 225.253906 245.371094 Z M 182.550781 222.179688 C 182.871094 226.042969 182.382812 233.613281 181.941406 235.449219 C 181.5 237.28125 181.941406 237.84375 182.210938 237.085938 C 182.40625 236.53125 183.925781 223.726562 182.707031 216.199219 C 182.15625 215.023438 182.230469 218.3125 182.550781 222.179688 Z M 183.089844 199.695312 C 182.925781 198.761719 182.007812 174.417969 183.644531 163.210938 C 183.84375 161.898438 183.308594 161.960938 183.089844 162.445312 C 181.8125 163.539062 181 191.898438 182.488281 201.722656 C 183.121094 203.222656 183.25 200.632812 183.089844 199.695312 Z M 168.214844 181.164062 C 167.804688 180.847656 165.949219 205.132812 166.667969 205.992188 C 167.390625 206.851562 168.78125 181.601562 168.214844 181.164062 Z M 201.480469 181.984375 C 201.445312 182.1875 206.890625 190.226562 208.21875 191.382812 C 205.652344 191.734375 198.777344 193.261719 199.402344 193.585938 C 199.976562 193.890625 208.722656 191.871094 209.152344 191.378906 C 209.226562 191.292969 208.957031 191.292969 208.476562 191.351562 C 208.0625 190.003906 201.601562 181.261719 201.480469 181.984375 Z M 206.585938 166.015625 C 206.902344 165.855469 207.511719 165.050781 206.121094 165.613281 C 201.1875 167.75 198.660156 173.25 199.242188 174.429688 C 199.839844 174.5625 201.136719 168.621094 206.585938 166.015625 Z M 219.007812 209.746094 C 216.902344 211.191406 213.941406 212.210938 213.902344 212.578125 C 213.863281 212.90625 217.542969 211.71875 219.035156 211.042969 C 219 210.5 218.984375 210.0625 219.007812 209.746094 Z M 194.828125 144.832031 C 194.878906 145.3125 195.179688 144.941406 195.195312 144.503906 C 195.214844 144.070312 195.390625 142.492188 196.714844 142.207031 C 197.148438 142.179688 196.886719 141.757812 196.714844 141.773438 C 194.570312 141.90625 194.84375 144.722656 194.828125 144.832031 Z M 189.589844 152.5 C 189.816406 152.4375 190.476562 151.644531 190.472656 151.46875 C 190.464844 151.296875 188.609375 149.773438 188.332031 149.886719 C 188.054688 150 187.605469 150.898438 187.648438 150.992188 C 187.730469 151.167969 189.363281 152.5625 189.589844 152.5 Z M 190.839844 150.988281 C 191.035156 150.941406 191.464844 150.089844 191.535156 149.976562 C 191.605469 149.863281 189.09375 148.652344 188.960938 148.71875 C 188.828125 148.785156 188.597656 149.28125 188.691406 149.402344 C 188.761719 149.5 190.640625 151.035156 190.839844 150.988281 Z M 171.121094 143.277344 C 171.121094 144.089844 171.601562 144.75 172.199219 144.75 C 172.792969 144.75 173.277344 144.089844 173.277344 143.277344 C 173.277344 142.464844 172.792969 141.800781 172.199219 141.800781 C 171.609375 141.800781 171.121094 142.457031 171.121094 143.277344 Z M 181.136719 138.171875 C 181.632812 137.960938 183.746094 136.96875 184.515625 136.984375 C 185.285156 137 183.550781 135.667969 180.433594 137.148438 C 180.007812 137.351562 180.640625 138.386719 181.136719 138.171875 Z M 173.28125 139.179688 C 173.984375 139.207031 174.078125 138.234375 173.714844 137.90625 C 173.347656 137.582031 168.71875 138.4375 169.296875 139.179688 C 169.519531 139.46875 171.726562 138.710938 173.28125 139.179688 Z M 177.078125 146.65625 C 177.675781 146.761719 176.898438 146.296875 176.644531 145.882812 C 176.484375 145.625 176.675781 144.597656 177.078125 143.417969 C 177.644531 141.753906 176.546875 140.105469 176.351562 140.496094 C 176.433594 140.644531 177.273438 141.90625 176.507812 143.605469 C 175.746094 145.304688 176.066406 146.433594 177.078125 146.65625 Z M 175.8125 150.539062 C 175.941406 150.675781 181.433594 150.132812 181.46875 149.734375 C 181.5 149.335938 175.523438 150.230469 175.8125 150.539062 Z M 182.6875 141.800781 C 182.6875 140.988281 182.203125 140.328125 181.609375 140.328125 C 181.015625 140.328125 180.53125 140.988281 180.53125 141.800781 C 180.53125 142.613281 181.015625 143.277344 181.609375 143.277344 C 182.203125 143.277344 182.6875 142.613281 182.6875 141.800781 Z M 116.941406 188.089844 C 116.941406 188.089844 116.941406 188.109375 116.941406 188.132812 C 116.949219 188.105469 116.949219 188.085938 116.941406 188.089844 Z M 116.523438 191.75 C 116.285156 191.671875 116.097656 191.671875 116.097656 191.671875 C 115.226562 192.320312 113.996094 192.371094 112.941406 189.878906 C 112.941406 189.878906 112.820312 190 112.625 190.199219 C 112.984375 190.984375 113.601562 192.054688 114.363281 192.3125 C 114.132812 193.011719 113.164062 195.722656 111.898438 196.449219 C 111.882812 196.546875 111.898438 196.644531 111.925781 196.738281 C 113.644531 195.585938 114.457031 193.113281 114.671875 192.367188 C 115.617188 192.460938 116.261719 191.984375 116.523438 191.75 Z M 117.300781 187.113281 C 117.101562 187.085938 116.941406 188.089844 116.941406 188.089844 C 116.9375 188.09375 117.085938 188.179688 117.339844 188.320312 C 117.386719 187.882812 117.445312 187.136719 117.300781 187.113281 Z M 117.421875 193.132812 C 117.421875 193.132812 116.277344 197.011719 114.589844 197.847656 C 114.589844 197.847656 114.628906 197.921875 114.699219 198.023438 C 116.785156 197.140625 117.523438 194.152344 117.730469 193.019531 C 117.632812 193.042969 117.527344 193.082031 117.421875 193.132812 Z M 117.132812 198.878906 C 117.152344 198.980469 117.1875 199.070312 117.230469 199.152344 C 119.597656 197.441406 120.09375 195.398438 120.191406 194.617188 C 120.101562 194.621094 120.011719 194.625 119.914062 194.648438 C 119.90625 195.382812 118.65625 198.179688 117.132812 198.878906 Z M 188.042969 215.785156 C 188.042969 215.785156 188.144531 215.898438 188.3125 216.035156 C 188.941406 214.683594 188.941406 212.570312 188.753906 212.707031 C 188.546875 212.847656 188.644531 214.757812 188.042969 215.785156 Z M 193.742188 213.089844 C 193.625 213.148438 193.511719 215.070312 192.996094 215.628906 C 192.996094 215.628906 193.183594 215.703125 193.480469 215.703125 C 193.84375 214.582031 193.851562 213.039062 193.742188 213.089844 Z M 190.652344 215.75 C 190.652344 215.75 190.761719 215.917969 190.964844 216.0625 C 191.324219 214.851562 191.5625 212.933594 191.414062 212.953125 C 191.261719 212.972656 191.125 215.039062 190.652344 215.75 Z M 190.652344 215.75 " fill-opacity="1" fill-rule="nonzero"/></svg>