<svg xmlns="http://www.w3.org/2000/svg" xmlns:xlink="http://www.w3.org/1999/xlink" width="450" zoomAndPan="magnify" viewBox="0 0 337.5 449.999984" height="600" preserveAspectRatio="xMidYMid meet" version="1.0"><defs><clipPath id="4f7ea83289"><path d="M 140 93.621094 L 219 93.621094 L 219 225 L 140 225 Z M 140 93.621094 " clip-rule="nonzero"/></clipPath><clipPath id="5a94083519"><path d="M 178 176 L 220.738281 176 L 220.738281 247 L 178 247 Z M 178 176 " clip-rule="nonzero"/></clipPath></defs><g clip-path="url(#4f7ea83289)"><path fill="#f9c758" d="M 214.566406 161.03125 C 214.222656 158.109375 214.386719 155.089844 215.351562 152.308594 C 216.042969 150.308594 217.171875 148.441406 218.671875 146.960938 C 217.554688 146.5 216.53125 145.878906 215.765625 144.949219 C 214.964844 143.984375 214.519531 142.765625 214.265625 141.535156 C 213.707031 138.851562 214.011719 135.992188 215.121094 133.484375 C 215.605469 132.398438 216.230469 131.378906 216.746094 130.3125 C 215.03125 130.0625 213.390625 129.550781 211.957031 128.566406 C 206.203125 124.613281 205.242188 118.167969 206.367188 111.894531 C 204.625 112.015625 202.875 112.035156 201.128906 111.96875 C 199.046875 111.890625 196.933594 111.699219 195 110.917969 C 193.066406 110.136719 191.316406 108.6875 190.601562 106.726562 C 190.097656 105.351562 190.132812 103.84375 190.175781 102.382812 C 190.207031 101.359375 190.238281 100.339844 190.265625 99.320312 C 189.863281 99.832031 189.441406 100.328125 188.972656 100.78125 C 186.519531 103.140625 182.976562 104.359375 179.613281 103.867188 C 176.25 103.375 173.160156 101.125 171.78125 98.007812 C 171.199219 96.6875 170.910156 95.238281 170.5625 93.824219 C 170.296875 94.3125 170.050781 94.8125 169.777344 95.296875 C 166.53125 101.0625 162.390625 103.980469 155.691406 104.46875 C 150.605469 104.835938 145.550781 104.195312 140.585938 103.039062 C 143.210938 104.371094 145.636719 106.167969 147.414062 108.515625 C 152.832031 115.667969 150.730469 127.902344 147.214844 135.429688 C 187.230469 108.128906 202.203125 124.015625 189.238281 188.054688 C 188.332031 190.21875 187.445312 192.394531 186.5625 194.574219 C 183.710938 201.597656 181.613281 207.996094 184.035156 215.460938 C 184.78125 217.765625 185.707031 220.003906 186.628906 222.238281 C 186.886719 222.859375 187.15625 223.503906 187.660156 223.949219 C 188.355469 224.558594 189.355469 224.675781 190.277344 224.632812 C 191.441406 224.578125 192.628906 224.300781 193.574219 223.617188 C 194.660156 222.832031 195.335938 221.578125 195.675781 220.28125 C 196.210938 218.234375 196.449219 215.375 195.933594 213.308594 C 195.378906 211.089844 194.363281 208.992188 193.804688 206.777344 C 193.347656 204.964844 193.460938 202.984375 194.277344 201.304688 C 195.191406 199.417969 197 197.90625 199.167969 197.921875 C 198.222656 197.433594 197.582031 196.4375 197.609375 195.347656 C 197.628906 194.539062 198.003906 193.765625 198.515625 193.132812 C 199.464844 191.957031 200.691406 190.855469 202.046875 190.195312 C 200.113281 184.761719 204.859375 179.011719 210.414062 177.996094 C 209.746094 177.003906 209.554688 175.679688 209.609375 174.457031 C 209.792969 170.324219 212.375 166.464844 215.953125 164.457031 C 215.601562 164.066406 215.292969 163.644531 215.074219 163.160156 C 214.769531 162.496094 214.652344 161.761719 214.566406 161.03125 " fill-opacity="1" fill-rule="nonzero"/></g><path fill="#63d3c0" d="M 201.128906 176.613281 C 208.34375 158 212.082031 137.660156 196.855469 121.660156 C 185.851562 110.097656 169.210938 107.242188 155.800781 117.078125 C 148.296875 122.574219 143.742188 133.132812 141.898438 142 C 140.5 148.730469 140.824219 155.285156 137.828125 161.695312 C 135.6875 166.273438 132.335938 170.363281 127.964844 172.890625 C 126.621094 173.671875 125.144531 174.308594 123.585938 174.386719 C 121.757812 174.476562 119.804688 173.804688 118.148438 174.601562 C 116.699219 175.296875 115.917969 177.101562 116.316406 178.660156 C 116.710938 180.222656 118.191406 181.414062 119.792969 181.554688 C 122.542969 181.796875 124.453125 180.328125 124.914062 183.730469 C 125.238281 186.117188 124.714844 189.226562 128.25 189.355469 C 130.136719 189.425781 131.902344 187.929688 132.324219 186.085938 C 132.667969 184.597656 132.246094 183.007812 132.601562 181.519531 C 133.132812 179.320312 135.179688 177.898438 136.929688 176.472656 C 139.476562 174.394531 141.691406 171.898438 144.433594 170.089844 C 147.175781 168.28125 150.714844 167.230469 153.761719 168.453125 C 158.308594 170.273438 162.285156 171.925781 167.109375 172.277344 C 166.757812 172.574219 166.402344 172.871094 166.054688 173.175781 C 157.746094 180.5 150.640625 190.855469 146.03125 200.894531 C 140.183594 213.617188 140.410156 227.535156 147.324219 239.765625 C 151.777344 247.644531 158.074219 254.320312 164.757812 260.414062 C 168.683594 263.996094 172.996094 268.425781 174.335938 273.75 C 176.472656 282.265625 171.433594 294.230469 163.472656 298.125 C 156.925781 301.328125 149.730469 300.328125 143.699219 296.476562 C 138.117188 292.910156 132.320312 287.40625 132.460938 280.351562 C 132.535156 276.578125 133.9375 273.101562 137.207031 270.96875 C 139.679688 269.351562 143.855469 268.402344 146.535156 270.039062 C 149.09375 271.601562 149.964844 275.585938 148.1875 278.019531 C 145.839844 277.066406 142.871094 278.445312 141.957031 280.8125 C 141.046875 283.179688 142.226562 286.117188 144.460938 287.304688 C 149.273438 289.863281 153.660156 285.152344 154.875 280.917969 C 156.363281 275.695312 156.339844 268.695312 152.585938 264.398438 C 147.097656 258.125 137.105469 259.667969 131.355469 264.707031 C 122.277344 272.660156 122.625 285.34375 128.296875 295.203125 C 134.988281 306.828125 147.429688 312.820312 160.65625 312.6875 C 162.476562 312.667969 164.296875 312.527344 166.101562 312.269531 C 189.980469 308.816406 202.695312 284.09375 202.671875 261.78125 C 202.664062 250.207031 197.460938 239.429688 193.632812 228.664062 C 191.679688 223.164062 190.023438 217.507812 189.609375 211.65625 C 189.148438 205.121094 191.148438 199.113281 193.878906 193.242188 C 196.324219 187.984375 198.894531 182.382812 201.128906 176.613281 " fill-opacity="1" fill-rule="nonzero"/><path fill="#bdf0eb" d="M 180.234375 148.097656 C 184.710938 148.0625 187.167969 141.523438 185.816406 137.25 C 184.460938 132.976562 178.796875 130.546875 175 132.921875 C 178.011719 130.789062 177.101562 126.382812 174.640625 124.332031 C 171.984375 122.121094 168.292969 121.285156 164.902344 121.617188 C 157.097656 122.382812 149.164062 126.507812 143.589844 135.753906 C 142.886719 137.871094 142.320312 139.980469 141.898438 142 C 140.5 148.730469 140.824219 155.285156 137.828125 161.695312 C 135.6875 166.273438 132.335938 170.363281 127.964844 172.890625 C 126.621094 173.671875 125.144531 174.308594 123.585938 174.386719 C 121.757812 174.476562 119.804688 173.804688 118.148438 174.601562 C 116.699219 175.296875 115.917969 177.101562 116.316406 178.660156 C 116.710938 180.222656 118.191406 181.414062 119.792969 181.554688 C 122.542969 181.796875 124.453125 180.328125 124.914062 183.730469 C 125.238281 186.117188 124.714844 189.226562 128.25 189.355469 C 130.136719 189.425781 131.902344 187.929688 132.324219 186.085938 C 132.667969 184.597656 132.246094 183.007812 132.601562 181.519531 C 133.132812 179.320312 135.179688 177.898438 136.929688 176.472656 C 139.476562 174.394531 141.691406 171.898438 144.433594 170.089844 C 147.175781 168.28125 150.714844 167.230469 153.761719 168.453125 C 158.308594 170.273438 162.285156 171.925781 167.109375 172.277344 C 175.46875 172.59375 189.515625 169.324219 190.417969 159.347656 C 190.902344 153.945312 188.515625 148.027344 180.234375 148.097656 " fill-opacity="1" fill-rule="nonzero"/><path fill="#bdf0eb" d="M 185.492188 168.21875 C 185.785156 167.746094 186.050781 167.28125 186.308594 166.820312 C 181.304688 171.015625 172.863281 172.496094 167.109375 172.277344 C 166.757812 172.574219 166.402344 172.871094 166.054688 173.175781 C 157.746094 180.5 150.640625 190.855469 146.03125 200.894531 C 140.183594 213.617188 140.410156 227.535156 147.324219 239.765625 C 151.777344 247.644531 158.074219 254.320312 164.757812 260.414062 C 168.683594 263.996094 172.996094 268.425781 174.335938 273.75 C 176.472656 282.265625 171.433594 294.230469 163.472656 298.125 C 159.96875 299.839844 156.28125 300.339844 152.683594 299.855469 C 159.546875 302.601562 167.933594 301.304688 173.542969 296.445312 C 177.480469 293.035156 179.957031 288.242188 181.851562 283.386719 C 183.140625 280.082031 184.214844 276.675781 184.671875 273.15625 C 185.808594 264.417969 183.09375 255.636719 179.648438 247.53125 C 176.984375 241.257812 173.855469 235.179688 171.566406 228.75 C 169.558594 223.101562 168.914062 216.988281 168.949219 210.992188 C 169.03125 198.816406 172.699219 186.640625 179.597656 176.59375 C 181.53125 173.78125 183.699219 171.125 185.492188 168.21875 " fill-opacity="1" fill-rule="nonzero"/><path stroke-linecap="round" transform="matrix(0.0503335, 0, 0, -0.0504297, 42.40727, 329.330082)" fill="none" stroke-linejoin="round" d="M 2621.246085 4079.747394 C 2620.081975 4090.43679 2620.470012 4101.281104 2622.410196 4111.893041 C 2623.108662 4116.153307 2624.738417 4121.033249 2628.851607 4122.272599 C 2631.41265 4122.969733 2634.128908 4122.040221 2636.612343 4121.033249 C 2646.080442 4117.315198 2655.54854 4113.597147 2665.094246 4109.879096 C 2667.422467 4108.949584 2669.98351 4108.020071 2672.544553 4108.252449 C 2677.35621 4108.794665 2680.615719 4113.597147 2681.77983 4118.244711 C 2686.125842 4136.757505 2668.198541 4159.220728 2681.081363 4173.163418 C 2688.454063 4181.219194 2701.414493 4179.824925 2711.969095 4177.036387 C 2722.601304 4174.247849 2734.47523 4170.762177 2743.943329 4176.339253 C 2759.930446 4185.789298 2756.050078 4213.209922 2771.649158 4223.357102 C 2782.281367 4230.328447 2796.250693 4225.525965 2808.900693 4223.821858 C 2821.550694 4222.117752 2838.469099 4228.082125 2837.615418 4240.708005 " stroke="#2daa95" stroke-width="17.219999" stroke-opacity="1" stroke-miterlimit="10"/><path stroke-linecap="round" transform="matrix(0.0503335, 0, 0, -0.0504297, 42.40727, 329.330082)" fill="none" stroke-linejoin="round" d="M 2769.476152 3960.614853 C 2763.966029 3975.022299 2769.398545 3992.837959 2781.970938 4001.668329 C 2794.620938 4010.576159 2813.169098 4009.646647 2824.887811 3999.576926 C 2829.699467 3995.471578 2835.442412 3989.507205 2841.185357 3992.295743 C 2843.358363 3993.225256 2844.755296 3995.161741 2845.997014 3997.175685 C 2854.145787 4009.414268 2860.431984 4022.892202 2864.622781 4037.06727 C 2865.786892 4040.86278 2866.873395 4044.968128 2869.822475 4047.679207 C 2875.410205 4053.023905 2884.645481 4050.700123 2891.397322 4046.904613 C 2898.071556 4043.109103 2904.745789 4037.919324 2912.428918 4038.229161 C 2926.631066 4038.926296 2932.529226 4056.044821 2939.048244 4068.670701 C 2951.077386 4091.753599 2976.998246 4106.703261 3003.07432 4106.006127 " stroke="#2daa95" stroke-width="17.219999" stroke-opacity="1" stroke-miterlimit="10"/><path stroke-linecap="round" transform="matrix(0.0503335, 0, 0, -0.0504297, 42.40727, 329.330082)" fill="none" stroke-linejoin="round" d="M 2905.444255 3840.707718 C 2897.683519 3856.122137 2907.927691 3876.571415 2924.14763 3882.38087 C 2940.367569 3888.190324 2959.381374 3880.831682 2970.246405 3867.431207 C 2971.953767 3865.417263 2973.971558 3863.016022 2976.610209 3863.093482 C 2978.239963 3863.170941 2979.714503 3864.332832 2980.878614 3865.417263 C 2997.564197 3881.296438 2994.615117 3914.526516 3016.189965 3922.582293 C 3027.753462 3926.920019 3040.636285 3920.955646 3050.647635 3913.597004 C 3053.751929 3911.350681 3057.011439 3908.871981 3060.891807 3908.562143 C 3068.264507 3907.942468 3073.4642 3915.456029 3077.189354 3921.807699 C 3085.338127 3935.285633 3094.96144 3948.29881 3107.92187 3957.284099 C 3120.8823 3966.269388 3137.567883 3970.762033 3152.70132 3966.269388 " stroke="#2daa95" stroke-width="17.219999" stroke-opacity="1" stroke-miterlimit="10"/><path stroke-linecap="round" transform="matrix(0.0503335, 0, 0, -0.0504297, 42.40727, 329.330082)" fill="none" stroke-linejoin="round" d="M 2923.526771 3642.024384 C 2928.416035 3654.340427 2934.624624 3666.888848 2945.412048 3674.479868 C 2956.277079 3682.070889 2972.962663 3682.845482 2981.57708 3672.853221 C 2985.69027 3668.128198 2987.47524 3661.853988 2990.889964 3656.664209 C 2994.227081 3651.47443 3000.668492 3647.136704 3006.411437 3649.383026 C 3008.97248 3650.467458 3010.912664 3652.636321 3012.620026 3654.805183 C 3021.93291 3666.346632 3029.771254 3679.824566 3042.421254 3687.647965 C 3054.993647 3695.393904 3074.861133 3694.309472 3081.224937 3680.908998 C 3082.854691 3677.345866 3084.174016 3672.620843 3088.054385 3671.923709 C 3091.701931 3671.381493 3094.418189 3674.944625 3096.668802 3677.965541 C 3110.094876 3696.245957 3135.782914 3704.379193 3157.357761 3697.330388 C 3159.76359 3696.555794 3162.169418 3695.548822 3164.575246 3695.85866 C 3167.912363 3696.168497 3170.551014 3698.569738 3172.801627 3701.048439 C 3184.597947 3714.448913 3188.012671 3734.665814 3181.183223 3751.242123 " stroke="#2daa95" stroke-width="17.219999" stroke-opacity="1" stroke-miterlimit="10"/><path stroke-linecap="round" transform="matrix(0.0503335, 0, 0, -0.0504297, 42.40727, 329.330082)" fill="none" stroke-linejoin="round" d="M 3015.879535 3402.132655 C 3013.3961 3410.188432 3021.62248 3417.237236 3028.684751 3421.652421 C 3033.341192 3424.518419 3038.075242 3427.461875 3043.43015 3428.391388 C 3048.707451 3429.320901 3054.838433 3427.849172 3057.86512 3423.433987 C 3060.348555 3419.870855 3060.426163 3415.378211 3061.435059 3411.272863 C 3062.521562 3407.167515 3065.470642 3402.75233 3069.739047 3402.82979 C 3072.532912 3402.907249 3074.861133 3404.998652 3076.878924 3407.012597 C 3082.699477 3412.97697 3087.821563 3419.715936 3094.651011 3424.595878 C 3101.402851 3429.47582 3110.482913 3432.264358 3118.166042 3429.088523 C 3131.902546 3423.433987 3135.550092 3402.055196 3150.217884 3399.731414 C 3155.417577 3398.879361 3160.694878 3400.893305 3165.584142 3403.062168 C 3176.138744 3407.709731 3186.382916 3413.209348 3196.161444 3419.406099 C 3199.265739 3421.420043 3202.525248 3423.588906 3206.172794 3423.666365 C 3209.509911 3423.743825 3212.614205 3422.117178 3215.485678 3420.56799 C 3224.643347 3415.378211 3233.180157 3409.104 3241.018501 3402.055196 " stroke="#2daa95" stroke-width="17.219999" stroke-opacity="1" stroke-miterlimit="10"/><path stroke-linecap="round" transform="matrix(0.0503335, 0, 0, -0.0504297, 42.40727, 329.330082)" fill="none" stroke-linejoin="round" d="M 2879.833825 3163.480276 C 2887.439347 3172.852862 2895.665727 3181.528314 2904.435359 3189.506631 C 2909.790268 3194.464032 2915.688427 3199.266514 2922.595483 3200.118567 C 2931.442722 3201.202999 2940.134747 3195.238626 2945.489655 3187.337768 C 2950.922171 3179.43691 2953.716036 3169.677027 2956.509901 3160.226982 C 2969.625546 3166.346274 2982.741191 3172.465565 2995.934443 3178.584857 C 3002.608676 3181.683233 3010.757449 3184.704149 3016.578002 3179.824207 C 3022.010517 3175.176644 3022.786591 3165.184383 3028.99518 3161.931088 C 3031.711438 3160.536819 3034.89334 3160.769198 3037.920027 3161.311413 C 3049.01788 3163.480276 3059.262052 3169.522109 3070.204691 3172.233187 C 3081.224937 3175.021725 3094.340581 3173.627456 3101.402851 3163.712654 C 3103.80868 3160.226982 3105.826471 3155.656878 3109.706839 3154.727365 C 3112.112668 3154.185149 3114.518496 3155.34704 3116.76911 3156.508931 C 3124.297024 3160.614279 3131.669724 3165.649139 3139.896104 3166.733571 C 3148.200092 3167.818002 3157.901013 3163.480276 3160.074019 3154.417528 " stroke="#2daa95" stroke-width="17.219999" stroke-opacity="1" stroke-miterlimit="10"/><path stroke-linecap="round" transform="matrix(0.0503335, 0, 0, -0.0504297, 42.40727, 329.330082)" fill="none" stroke-linejoin="round" d="M 2731.448543 2948.917767 C 2733.931979 2962.860457 2749.22063 2973.085097 2763.112348 2970.064181 C 2776.926459 2967.043265 2786.549772 2951.396468 2782.979834 2937.608697 C 2790.662963 2953.64279 2807.736583 2964.719483 2825.508669 2965.10678 C 2843.280756 2965.494077 2860.897628 2955.269437 2869.279223 2939.622641 C 2873.392414 2955.424356 2888.991494 2967.353102 2905.28904 2967.120724 C 2921.586587 2966.965805 2936.952845 2954.572303 2940.600391 2938.770587 C 2951.775852 2950.466955 2963.804994 2962.705539 2979.559289 2966.34613 C 2993.683829 2969.676884 2998.96113 2961.388729 3010.291805 2957.51576 C 3015.646713 2955.734194 3013.706529 2950.931712 3020.225548 2950.157118 C 3026.123708 2949.382524 3039.472174 2957.748138 3046.224015 2958.987488 C 3048.862665 2959.529704 3051.578923 2959.839541 3054.139966 2959.142407 C 3056.933831 2958.367813 3059.184445 2956.508788 3061.435059 2954.649762 C 3072.843341 2945.044798 3085.338127 2933.270971 3084.639661 2918.398768 " stroke="#2daa95" stroke-width="17.219999" stroke-opacity="1" stroke-miterlimit="10"/><path stroke-linecap="round" transform="matrix(0.0503335, 0, 0, -0.0504297, 42.40727, 329.330082)" fill="none" stroke-linejoin="round" d="M 2619.461116 2730.637208 C 2617.598539 2750.311893 2638.164491 2767.12058 2657.876761 2765.726311 C 2677.511425 2764.409502 2694.119401 2749.150002 2702.345781 2731.179424 C 2714.45253 2744.115142 2727.41296 2756.121347 2741.227071 2767.12058 C 2744.79701 2769.986578 2748.754986 2772.852575 2753.33382 2773.084953 C 2757.291796 2773.239872 2761.016949 2771.225928 2764.354066 2769.134524 C 2779.021858 2759.916857 2790.818177 2746.206545 2797.80284 2730.32737 C 2811.694558 2746.438923 2826.983209 2763.40253 2847.704376 2768.359931 C 2868.425542 2773.239872 2894.656832 2758.754966 2893.027077 2737.608553 C 2906.065114 2748.995083 2921.353765 2758.909885 2938.5826 2760.691451 C 2955.733828 2762.473017 2974.902847 2754.184862 2981.189043 2738.150769 " stroke="#2daa95" stroke-width="17.219999" stroke-opacity="1" stroke-miterlimit="10"/><path stroke-linecap="round" transform="matrix(0.0503335, 0, 0, -0.0504297, 42.40727, 329.330082)" fill="none" stroke-linejoin="round" d="M 2540.223996 2497.871743 C 2532.385652 2510.730001 2543.94915 2528.932958 2558.849764 2530.946902 C 2573.672771 2533.038305 2588.10774 2522.503828 2595.014796 2509.258273 C 2596.644551 2506.159897 2598.42952 2502.519306 2601.844244 2501.667253 C 2606.345471 2500.505362 2610.148232 2504.920547 2613.019704 2508.483679 C 2621.323693 2519.018156 2633.120012 2527.616148 2646.390871 2528.545661 C 2659.739338 2529.397714 2674.096701 2520.567344 2676.114492 2507.399248 C 2688.53167 2520.567344 2702.190567 2533.580521 2719.264187 2539.622354 C 2736.337807 2545.586727 2757.835047 2542.720729 2768.855293 2528.390742 C 2772.735661 2523.355882 2776.3056 2516.461996 2782.591797 2516.229618 C 2786.549772 2515.99724 2790.042104 2518.630859 2793.146398 2521.0321 C 2806.960509 2531.566577 2822.714804 2540.784244 2840.098854 2541.868676 C 2857.405296 2542.953107 2876.341493 2533.503062 2881.385972 2516.926752 " stroke="#2daa95" stroke-width="17.219999" stroke-opacity="1" stroke-miterlimit="10"/><path stroke-linecap="round" transform="matrix(0.0503335, 0, 0, -0.0504297, 42.40727, 329.330082)" fill="none" stroke-linejoin="round" d="M 2543.095469 2259.451742 C 2538.594242 2272.852216 2552.020316 2287.337122 2566.144856 2287.724419 C 2580.269397 2288.034257 2592.919397 2278.041995 2600.292097 2266.03579 C 2607.509582 2286.794906 2637.543632 2294.928142 2654.306823 2280.753074 C 2658.575228 2277.112483 2662.688418 2272.077622 2668.353756 2272.310001 C 2673.631056 2272.619838 2677.278603 2277.654698 2681.158971 2281.21783 C 2692.489646 2291.829767 2710.261733 2292.526901 2724.696703 2287.182203 C 2739.20928 2281.837505 2751.083207 2271.380488 2762.646704 2261.155848 C 2771.571551 2278.66167 2785.928913 2299.03349 2805.253147 2295.780196 C 2816.118178 2293.92117 2824.111737 2284.780962 2834.123087 2280.133399 C 2844.134437 2275.485835 2860.043947 2279.126427 2859.811125 2290.12566 " stroke="#2daa95" stroke-width="17.219999" stroke-opacity="1" stroke-miterlimit="10"/><path stroke-linecap="round" transform="matrix(0.0503335, 0, 0, -0.0504297, 42.40727, 329.330082)" fill="none" stroke-linejoin="round" d="M 2626.368171 2049.459337 C 2619.693938 2052.402794 2619.228294 2062.549974 2623.651913 2068.436887 C 2628.153141 2074.246342 2635.603448 2076.725042 2642.588111 2079.048824 C 2652.677068 2082.302118 2663.23167 2085.555413 2673.863879 2084.470981 C 2684.41848 2083.464009 2695.283511 2076.725042 2697.68934 2066.345484 C 2705.527683 2073.626667 2711.969095 2082.379578 2716.703144 2091.984542 C 2718.488113 2095.547674 2720.117868 2099.420643 2723.610199 2101.357128 C 2733.543942 2107.011663 2743.089648 2091.519786 2754.420323 2090.048057 C 2773.046091 2087.646816 2780.884435 2121.651488 2799.354987 2118.86295 C 2805.641184 2117.855978 2810.375233 2112.666199 2816.428608 2110.884633 C 2825.663884 2108.173554 2835.20959 2114.060468 2842.116646 2120.721975 C 2849.023701 2127.538402 2855.154683 2135.594178 2864.07953 2139.234769 C 2874.711739 2143.495036 2887.982598 2139.699526 2894.734439 2130.404399 " stroke="#2daa95" stroke-width="17.219999" stroke-opacity="1" stroke-miterlimit="10"/><path stroke-linecap="round" transform="matrix(0.0503335, 0, 0, -0.0504297, 42.40727, 329.330082)" fill="none" stroke-linejoin="round" d="M 2668.50897 1833.502559 C 2666.724001 1843.727199 2673.165412 1854.106757 2682.090259 1859.606374 C 2691.015106 1864.951071 2701.880137 1866.190422 2712.279524 1865.880584 C 2730.129218 1865.493287 2748.832593 1860.613346 2761.482593 1847.910006 C 2767.225538 1859.916211 2773.278913 1872.232254 2783.135048 1881.062624 C 2793.146398 1889.892995 2808.12462 1894.463099 2820.076154 1888.498726 C 2823.878915 1886.562241 2827.216031 1883.696244 2831.174007 1882.301975 C 2849.411738 1875.795386 2866.019714 1901.279525 2885.111126 1898.258609 C 2895.665727 1896.554502 2907.694869 1886.71716 2915.222783 1894.30818 " stroke="#2daa95" stroke-width="17.219999" stroke-opacity="1" stroke-miterlimit="10"/><path stroke-linecap="round" transform="matrix(0.0503335, 0, 0, -0.0504297, 42.40727, 329.330082)" fill="none" stroke-linejoin="round" d="M 2781.039649 1638.149979 C 2770.640262 1647.212728 2771.338729 1665.9579 2782.358975 1674.323514 C 2793.456828 1682.611669 2811.616951 1678.119024 2817.515111 1665.570603 C 2823.102841 1677.886646 2828.923393 1690.512526 2838.624314 1699.962572 C 2848.325235 1709.412617 2862.993027 1715.067153 2875.720634 1710.497049 C 2882.860512 1707.86343 2890.00039 1702.131435 2897.295482 1704.455216 C 2901.331065 1705.849485 2904.202537 1709.412617 2906.76358 1712.820831 C 2913.515421 1721.72866 2920.267262 1730.63649 2927.019103 1739.621779 C 2930.04579 1743.572208 2933.382907 1747.755015 2938.194563 1749.071825 C 2943.782293 1750.543553 2949.447631 1747.677556 2954.569717 1744.966477 C 2961.631987 1741.016048 2968.694258 1737.220538 2975.834135 1733.347569 " stroke="#2daa95" stroke-width="17.219999" stroke-opacity="1" stroke-miterlimit="10"/><path stroke-linecap="round" transform="matrix(0.0503335, 0, 0, -0.0504297, 42.40727, 329.330082)" fill="none" stroke-linejoin="round" d="M 2842.349468 1470.915157 C 2838.857136 1479.513149 2838.624314 1489.427951 2841.728609 1498.180862 C 2842.815112 1501.434157 2844.522474 1504.609992 2847.238732 1506.778855 C 2853.602536 1511.581337 2862.837812 1508.715339 2869.744867 1504.84237 C 2876.72953 1500.9694 2884.024623 1496.011999 2891.940574 1497.096431 C 2907.694869 1499.420213 2910.255912 1521.805976 2922.517875 1532.030616 C 2936.099164 1543.262227 2957.208368 1535.981044 2970.246405 1524.207217 C 2972.574626 1522.115814 2975.290884 1519.792032 2978.317571 1520.566626 C 2980.335362 1521.031382 2981.654687 1522.812948 2982.818798 1524.594514 C 2988.794565 1533.269966 2993.606222 1542.87493 3000.590885 1550.698328 C 3007.653155 1558.521727 3017.664505 1564.795937 3028.141499 1563.943884 " stroke="#2daa95" stroke-width="17.219999" stroke-opacity="1" stroke-miterlimit="10"/><path stroke-linecap="round" transform="matrix(0.0503335, 0, 0, -0.0504297, 42.40727, 329.330082)" fill="none" stroke-linejoin="round" d="M 2880.221862 1313.982434 C 2874.789346 1319.094754 2872.849162 1327.460368 2875.410205 1334.431713 C 2877.971248 1341.480517 2884.955911 1346.592837 2892.328611 1346.980134 C 2897.838733 1347.289972 2903.193642 1345.198568 2908.082906 1342.719868 C 2914.058673 1339.466573 2919.646403 1335.438685 2924.535667 1330.713662 C 2925.854992 1329.396853 2927.329532 1328.080043 2929.192109 1328.080043 C 2930.977078 1328.080043 2932.529226 1329.474312 2933.770943 1330.791122 C 2940.522784 1337.994845 2947.274625 1345.121109 2954.026466 1352.324832 C 2962.71849 1361.619959 2973.273092 1371.61222 2985.923093 1370.837626 C 2999.116345 1370.063032 3008.351621 1358.056827 3017.664505 1348.606781 C 3019.527082 1346.747756 3021.93291 1344.733812 3024.493953 1345.276028 C 3025.890885 1345.663325 3026.977389 1346.515378 3027.986284 1347.44489 C 3033.962051 1353.021967 3039.00653 1359.838393 3045.991193 1364.176119 C 3052.975856 1368.513844 3062.987206 1369.675735 3068.807758 1363.94374 " stroke="#2daa95" stroke-width="17.219999" stroke-opacity="1" stroke-miterlimit="10"/><path stroke-linecap="round" transform="matrix(0.0503335, 0, 0, -0.0504297, 42.40727, 329.330082)" fill="none" stroke-linejoin="round" d="M 2900.943028 1193.300705 C 2902.883212 1202.90567 2912.66174 1209.489718 2922.440268 1210.186852 C 2932.218796 1210.806527 2941.764502 1206.62372 2949.990883 1201.356482 C 2955.112969 1198.025728 2961.011128 1193.99784 2966.831681 1195.856865 C 2969.082294 1196.554 2971.022479 1198.180647 2972.962663 1199.729835 C 2979.093644 1204.919614 2985.224626 1210.109393 2991.433215 1215.221713 C 2996.943338 1219.946735 3003.229535 1224.826677 3010.524627 1224.826677 C 3025.037204 1224.826677 3035.203769 1205.46183 3049.483524 1208.250368 C 3059.494874 1210.186852 3064.616961 1222.270517 3074.395488 1225.291433 C 3084.484446 1228.467268 3094.418189 1220.721329 3102.256532 1213.517606 " stroke="#2daa95" stroke-width="17.219999" stroke-opacity="1" stroke-miterlimit="10"/><path stroke-linecap="round" transform="matrix(0.0503335, 0, 0, -0.0504297, 42.40727, 329.330082)" fill="none" stroke-linejoin="round" d="M 2872.228303 1025.368749 C 2875.022168 1038.846683 2893.80315 1045.818028 2904.668182 1037.374955 C 2907.539654 1035.051173 2910.100697 1031.875338 2913.748243 1030.945825 C 2917.08536 1030.171231 2920.577691 1031.488041 2923.526771 1033.347066 C 2936.564809 1041.325383 2944.791189 1057.824233 2959.924625 1060.225474 C 2969.392724 1061.619743 2978.783215 1056.739802 2985.535056 1049.923376 C 2992.209289 1043.184409 2996.788124 1034.663876 3001.832602 1026.608099 C 3003.617572 1023.819561 3007.342725 1020.643726 3009.903768 1022.890049 C 3010.757449 1023.664643 3011.067879 1024.749074 3011.533523 1025.756046 C 3014.948247 1032.804851 3025.270027 1033.656904 3031.866653 1029.551556 C 3038.463279 1025.446209 3042.110825 1018.010107 3045.525549 1011.038762 " stroke="#2daa95" stroke-width="17.219999" stroke-opacity="1" stroke-miterlimit="10"/><path stroke-linecap="round" transform="matrix(0.0503335, 0, 0, -0.0504297, 42.40727, 329.330082)" fill="none" stroke-linejoin="round" d="M 2831.872473 916.770685 C 2874.866953 931.952725 2878.980144 898.41281 2904.202537 875.56229 C 2911.264808 881.216825 2917.162967 888.033252 2923.604379 894.53984 C 2926.010207 896.941081 2928.648857 899.342323 2931.908367 899.961998 C 2936.331986 900.814051 2940.600391 898.102972 2944.325545 895.624272 C 2958.527693 885.786929 2973.428307 875.097534 2980.024933 859.140899 C 2981.189043 856.352361 2982.197939 853.331445 2984.52616 851.317501 C 2988.716958 847.754369 2995.313584 849.535935 2999.659596 852.944148 C 3004.005609 856.429821 3007.187511 861.154844 3011.688738 864.330678 C 3024.105916 872.851211 3044.283831 862.549113 3044.671868 847.444532 C 3044.827082 840.318268 3041.722788 832.107572 3046.456837 826.762875 " stroke="#2daa95" stroke-width="17.219999" stroke-opacity="1" stroke-miterlimit="10"/><path stroke-linecap="round" transform="matrix(0.0503335, 0, 0, -0.0504297, 42.40727, 329.330082)" fill="none" stroke-linejoin="round" d="M 2778.400999 746.050191 C 2781.582901 751.16251 2788.722778 753.331373 2794.232901 750.852673 C 2799.665417 748.296513 2802.614497 741.402627 2800.75192 735.670633 C 2800.053454 733.579229 2798.966951 730.713232 2800.75192 729.473881 C 2801.450386 729.009125 2802.304067 728.931666 2803.157748 728.931666 C 2811.927381 729.086584 2819.920939 736.909983 2828.612964 735.283336 C 2834.899161 734.121445 2839.32278 728.234531 2841.030142 722.03778 C 2842.737504 715.918488 2842.349468 709.4119 2842.58229 702.98277 C 2842.659897 701.898339 2842.737504 700.658989 2843.435971 699.806935 C 2844.289652 698.645044 2845.764192 698.335207 2847.161124 698.257747 C 2854.456217 697.94791 2861.828916 701.898339 2868.813579 699.729476 C 2874.478917 697.870451 2878.048855 692.370834 2880.377076 686.871217 C 2885.111126 675.329768 2885.964807 662.239131 2882.705297 650.232926 " stroke="#2daa95" stroke-width="17.219999" stroke-opacity="1" stroke-miterlimit="10"/><path stroke-linecap="round" transform="matrix(0.0503335, 0, 0, -0.0504297, 42.40727, 329.330082)" fill="none" stroke-linejoin="round" d="M 2650.892099 631.642673 C 2656.867866 637.529586 2664.473387 641.712393 2672.622161 643.571419 C 2674.174308 643.881256 2675.804063 644.191094 2677.278603 643.571419 C 2678.83075 642.951743 2679.839646 641.480015 2680.615719 639.930827 C 2684.496088 632.804563 2685.660198 624.129112 2683.564799 616.228254 C 2683.25437 615.066363 2682.94394 613.827013 2683.409584 612.665122 C 2684.030443 611.115934 2686.048235 610.573719 2687.755597 610.34134 C 2696.2148 609.411828 2704.674002 611.580691 2713.210813 612.277825 C 2721.747623 612.8975 2731.138114 611.65815 2736.958666 605.461399 C 2743.32247 598.722432 2743.400077 588.110496 2740.839034 579.202666 C 2738.277991 570.294836 2733.466335 562.23906 2730.982899 553.25377 C 2728.577071 544.345941 2728.965108 533.656545 2735.639341 527.227416 C 2740.839034 522.192555 2748.677378 520.875746 2755.817256 522.115096 " stroke="#2daa95" stroke-width="17.219999" stroke-opacity="1" stroke-miterlimit="10"/><path stroke-linecap="round" transform="matrix(0.0503335, 0, 0, -0.0504297, 42.40727, 329.330082)" fill="none" stroke-linejoin="round" d="M 2532.230438 541.092646 C 2536.110806 543.18405 2540.534426 544.113562 2544.880438 544.4234 C 2550.157739 544.810697 2555.667862 544.113562 2560.169089 541.402484 C 2564.670316 538.536486 2567.852218 533.191789 2566.998537 528.002009 C 2566.222464 522.967149 2562.031666 518.087208 2564.049457 513.362185 C 2565.213568 510.651106 2568.240255 509.179378 2570.956513 508.017487 C 2577.242709 505.461327 2583.839335 503.215005 2589.039029 498.877279 C 2594.31633 494.617013 2597.886268 487.490749 2595.868477 480.98416 C 2593.850685 474.787409 2587.021237 469.830008 2588.262955 463.400879 C 2589.815102 455.112724 2603.629213 452.866402 2603.629213 444.423328 " stroke="#2daa95" stroke-width="17.219999" stroke-opacity="1" stroke-miterlimit="10"/><path stroke-linecap="round" transform="matrix(0.0503335, 0, 0, -0.0504297, 42.40727, 329.330082)" fill="none" stroke-linejoin="round" d="M 2410.23166 498.72236 C 2414.422458 497.947766 2418.76847 498.877279 2423.114483 498.877279 C 2427.382888 498.79982 2432.194544 497.328091 2434.057121 493.455122 C 2434.98841 491.596096 2435.066017 489.427234 2435.143624 487.413289 C 2435.376446 478.040703 2434.98841 467.04147 2427.460495 461.386935 C 2431.263256 455.809859 2438.092704 453.408617 2444.223686 450.54262 C 2450.354668 447.676623 2456.718472 442.87414 2457.028901 436.135174 C 2457.261723 429.318747 2451.363564 424.128968 2447.327981 418.629352 C 2446.4743 417.312542 2445.620619 415.918273 2445.465404 414.369085 C 2445.154974 411.967844 2446.4743 409.721522 2447.871232 407.785037 C 2451.285956 403.137474 2455.787183 399.109585 2458.270619 393.842347 C 2460.59884 388.497649 2460.055588 381.061548 2454.855895 378.350469 " stroke="#2daa95" stroke-width="17.219999" stroke-opacity="1" stroke-miterlimit="10"/><path stroke-linecap="round" transform="matrix(0.0503335, 0, 0, -0.0504297, 42.40727, 329.330082)" fill="none" stroke-linejoin="round" d="M 2298.011411 357.126596 C 2293.199754 354.18314 2286.137484 355.887246 2283.110797 360.612269 C 2280.084109 365.414751 2281.558649 372.463555 2286.215091 375.63939 C 2287.534416 376.413984 2288.931349 377.033659 2289.940245 378.118091 C 2294.053435 382.378357 2288.776134 389.349702 2283.266011 391.363646 C 2277.678281 393.222672 2270.848833 393.687428 2267.589324 398.644829 C 2265.33871 401.975583 2265.649139 406.468227 2266.81325 410.341197 C 2269.219078 418.242055 2275.117238 424.981022 2282.645152 428.466694 C 2284.274907 430.790476 2280.704968 433.114257 2278.221533 434.508526 C 2271.857729 438.071658 2269.219078 446.049975 2269.995152 453.176239 C 2270.693618 460.379962 2274.18595 466.964011 2277.600674 473.315681 " stroke="#2daa95" stroke-width="17.219999" stroke-opacity="1" stroke-miterlimit="10"/><path stroke-linecap="round" transform="matrix(0.0503335, 0, 0, -0.0504297, 42.40727, 329.330082)" fill="none" stroke-linejoin="round" d="M 2069.923365 385.78657 C 2064.956494 388.497649 2061.852199 394.229644 2062.240236 399.80672 C 2062.628273 405.461255 2066.586249 410.651034 2071.863549 412.664979 C 2075.045451 413.904329 2079.003427 414.136707 2081.254041 416.692867 C 2084.280728 420.178539 2082.650973 425.368318 2081.098826 429.628585 C 2078.61539 436.290092 2076.675206 444.036031 2080.167538 450.232782 C 2083.892691 456.584452 2092.041464 458.753315 2097.396372 463.788176 C 2103.139317 469.132874 2105.157109 477.575947 2104.691465 485.321886 C 2104.148213 493.145284 2101.431955 500.658845 2098.63809 507.940028 " stroke="#2daa95" stroke-width="17.219999" stroke-opacity="1" stroke-miterlimit="10"/><path stroke-linecap="round" transform="matrix(0.0503335, 0, 0, -0.0504297, 42.40727, 329.330082)" fill="none" stroke-linejoin="round" d="M 1928.910783 474.012815 C 1927.591458 486.638696 1938.14606 499.264576 1950.718453 500.271548 C 1958.634404 500.813764 1968.257717 498.102685 1973.224589 504.221977 C 1974.931951 506.468299 1975.630417 509.411756 1976.173669 512.122835 C 1977.260172 517.235154 1978.269067 522.502393 1977.570601 527.692172 C 1976.794528 532.804492 1973.845448 537.994271 1968.956184 539.930755 C 1976.484098 544.733238 1987.581951 540.860268 1994.644221 546.437344 C 2001.861706 552.246798 2000.154344 564.175544 2005.819682 571.456727 " stroke="#2daa95" stroke-width="17.219999" stroke-opacity="1" stroke-miterlimit="10"/><path stroke-linecap="round" transform="matrix(0.0503335, 0, 0, -0.0504297, 42.40727, 329.330082)" fill="none" stroke-linejoin="round" d="M 1799.461699 586.871145 C 1794.572435 591.053952 1792.709858 598.412594 1794.960472 604.454427 C 1797.211085 610.496259 1803.497282 614.833985 1809.938693 614.756526 C 1811.646055 614.756526 1813.431025 614.446688 1814.905564 615.143823 C 1816.380104 615.840957 1817.389 617.312686 1818.165074 618.784414 C 1821.114154 623.974193 1823.364767 629.551269 1824.916915 635.283264 C 1826.158632 639.62099 1826.934706 644.191094 1829.262927 648.064063 C 1831.668755 651.937033 1836.092375 655.035408 1840.515995 654.105896 C 1842.921823 653.641139 1845.017222 652.169411 1847.42305 651.859573 C 1853.786854 651.084979 1857.667223 658.443621 1859.685014 664.485454 " stroke="#2daa95" stroke-width="17.219999" stroke-opacity="1" stroke-miterlimit="10"/><path stroke-linecap="round" transform="matrix(0.0503335, 0, 0, -0.0504297, 42.40727, 329.330082)" fill="none" stroke-linejoin="round" d="M 1682.352185 757.824018 C 1681.964149 767.196604 1681.653719 777.188865 1686.154946 785.47702 C 1690.656173 793.765175 1701.676419 799.264791 1709.747585 794.539769 C 1710.911696 793.842634 1712.075806 792.913121 1713.472739 792.835662 C 1716.033782 792.680743 1717.741144 795.391822 1719.293291 797.560685 C 1723.173659 803.29268 1729.615071 807.320568 1736.599733 808.172621 C 1741.178568 808.869756 1746.067832 808.172621 1750.569059 809.721809 C 1757.243292 811.890672 1763.529489 818.939476 1769.9709 816.150938 " stroke="#2daa95" stroke-width="17.219999" stroke-opacity="1" stroke-miterlimit="10"/><path stroke-linecap="round" transform="matrix(0.0503335, 0, 0, -0.0504297, 42.40727, 329.330082)" fill="none" stroke-linejoin="round" d="M 1642.462 921.883005 C 1643.781325 931.952725 1651.154025 940.938015 1660.699731 944.423687 C 1662.407093 944.965903 1664.269669 945.430659 1665.899424 944.656065 C 1667.296357 944.03639 1668.227645 942.719581 1669.391755 941.790068 C 1674.048197 938.149477 1680.800038 941.48023 1685.611695 944.888444 C 1690.345744 948.374116 1696.63194 952.092167 1701.676419 948.993791 C 1704.159855 947.522063 1705.712002 944.578606 1708.42826 943.494174 C 1712.075806 942.099905 1715.956174 944.578606 1719.681328 945.895416 C 1723.406481 947.212225 1729.071819 945.895416 1728.838997 941.944987 " stroke="#2daa95" stroke-width="17.219999" stroke-opacity="1" stroke-miterlimit="10"/><path stroke-linecap="round" transform="matrix(0.0503335, 0, 0, -0.0504297, 42.40727, 329.330082)" fill="none" stroke-linejoin="round" d="M 1647.972123 1065.725091 C 1652.861387 1073.006274 1660.311694 1078.58335 1668.693289 1081.13951 C 1671.02151 1081.914103 1673.892983 1082.37886 1675.833167 1080.907131 C 1678.471817 1078.970647 1678.316602 1074.942758 1680.179179 1072.309139 C 1683.516296 1067.893954 1690.656173 1069.907898 1695.157401 1073.238652 C 1699.58102 1076.491946 1704.237462 1080.984591 1709.747585 1080.132537 C 1715.568137 1079.280484 1718.672432 1072.928814 1720.845438 1067.351738 C 1727.519672 1075.94973 1743.351574 1074.013246 1747.775194 1064.098444 " stroke="#2daa95" stroke-width="17.219999" stroke-opacity="1" stroke-miterlimit="10"/><path stroke-linecap="round" transform="matrix(0.0503335, 0, 0, -0.0504297, 42.40727, 329.330082)" fill="none" stroke-linejoin="round" d="M 1714.481634 1192.913409 C 1717.818751 1197.560972 1721.466297 1202.363454 1726.665991 1204.609776 C 1731.865684 1207.011017 1739.083169 1205.771667 1741.41139 1200.581888 C 1742.032249 1199.265078 1742.342678 1197.79335 1743.118752 1196.631459 C 1745.602188 1193.223246 1750.801881 1194.462596 1754.915071 1195.547028 C 1760.502802 1197.018756 1768.263538 1196.244162 1769.660471 1190.512167 C 1770.358937 1187.568711 1769.039612 1183.85066 1771.212618 1181.759256 C 1773.851268 1179.358015 1777.809244 1181.914175 1781.146361 1182.921147 C 1788.441453 1185.09001 1796.512619 1177.266612 1794.572435 1169.985429 " stroke="#2daa95" stroke-width="17.219999" stroke-opacity="1" stroke-miterlimit="10"/><path stroke-linecap="round" transform="matrix(0.0503335, 0, 0, -0.0504297, 42.40727, 329.330082)" fill="none" stroke-linejoin="round" d="M 1853.864462 1298.413097 C 1857.822437 1297.483584 1862.090842 1298.490556 1866.28164 1298.645475 C 1870.39483 1298.877853 1875.12888 1297.948341 1877.301886 1294.462668 C 1880.483788 1289.350348 1876.370597 1282.998678 1872.490229 1278.428574 C 1873.421518 1275.640036 1877.457101 1277.344143 1880.095751 1278.583493 C 1883.976119 1280.2876 1888.942991 1279.435547 1892.047285 1276.41463 C 1895.15158 1273.548633 1896.238083 1268.591232 1894.685936 1264.640803 C 1894.142684 1263.401453 1893.444218 1262.239562 1893.36661 1260.922752 C 1893.211396 1259.683402 1893.67704 1258.444052 1894.142684 1257.282161 C 1897.479801 1248.374331 1900.816917 1239.466502 1904.076427 1230.481212 " stroke="#2daa95" stroke-width="17.219999" stroke-opacity="1" stroke-miterlimit="10"/><path stroke-linecap="round" transform="matrix(0.0503335, 0, 0, -0.0504297, 42.40727, 329.330082)" fill="none" stroke-linejoin="round" d="M 1987.193914 1347.677269 C 1991.539927 1349.148997 1996.429191 1349.613753 2000.775203 1348.064566 C 2005.043608 1346.437918 2008.53594 1342.332571 2008.613547 1337.762467 C 2008.768762 1331.0235 2002.327351 1326.453396 1997.981338 1321.418536 C 1997.282872 1320.643942 1996.662013 1319.791888 1996.584406 1318.784916 C 1996.584406 1317.390647 1997.593301 1316.306216 1998.602197 1315.454163 C 2002.172136 1312.278328 2006.207719 1309.567249 2008.53594 1305.384442 C 2010.864161 1301.279094 2010.553731 1295.159803 2006.518148 1292.758562 C 2003.879498 1291.286833 1999.99913 1291.209374 1998.912627 1288.343376 C 1998.369375 1286.716729 1999.145449 1284.935163 1999.766308 1283.308516 C 2003.724283 1273.006417 2000.542381 1260.303077 1992.005571 1253.099354 " stroke="#2daa95" stroke-width="17.219999" stroke-opacity="1" stroke-miterlimit="10"/><path stroke-linecap="round" transform="matrix(0.0503335, 0, 0, -0.0504297, 42.40727, 329.330082)" fill="none" stroke-linejoin="round" d="M 2122.385944 1183.928119 C 2119.048827 1189.505195 2124.86938 1197.328594 2131.388398 1197.483513 C 2133.09576 1197.560972 2134.958337 1197.251134 2136.588092 1197.79335 C 2140.856497 1199.265078 2141.322141 1204.997073 2140.701282 1209.334799 C 2140.080423 1213.749984 2139.614779 1219.172142 2143.262325 1221.650842 C 2149.00527 1225.67873 2159.404657 1218.165169 2163.052203 1224.207002 C 2163.905884 1225.523811 2163.983492 1227.150459 2164.681958 1228.544728 C 2167.55343 1233.966885 2177.176744 1231.410725 2180.669075 1236.445585 " stroke="#2daa95" stroke-width="17.219999" stroke-opacity="1" stroke-miterlimit="10"/><path fill="#ffa29b" d="M 179.292969 153.488281 C 179.855469 155.339844 177.910156 157.574219 174.941406 158.480469 C 171.972656 159.386719 169.113281 158.621094 168.550781 156.773438 C 167.984375 154.921875 169.933594 152.6875 172.902344 151.78125 C 175.871094 150.875 178.730469 151.640625 179.292969 153.488281 " fill-opacity="1" fill-rule="nonzero"/><path fill="#ffffff" d="M 168.613281 141.742188 C 170.210938 145.796875 168.515625 150.265625 164.828125 151.722656 C 161.140625 153.179688 156.859375 151.074219 155.261719 147.019531 C 153.664062 142.964844 155.359375 138.496094 159.046875 137.039062 C 162.734375 135.582031 167.015625 137.6875 168.613281 141.742188 " fill-opacity="1" fill-rule="nonzero"/><path fill="#000000" d="M 164.421875 143.398438 C 165.496094 146.121094 164.359375 149.121094 161.878906 150.101562 C 159.40625 151.082031 156.527344 149.667969 155.457031 146.941406 C 154.382812 144.21875 155.523438 141.21875 157.996094 140.238281 C 160.476562 139.261719 163.351562 140.675781 164.421875 143.398438 " fill-opacity="1" fill-rule="nonzero"/><path fill="#ffffff" d="M 160.652344 143.71875 C 161.019531 144.644531 160.566406 145.691406 159.640625 146.058594 C 158.714844 146.425781 157.671875 145.96875 157.304688 145.042969 C 156.941406 144.117188 157.394531 143.070312 158.320312 142.703125 C 159.242188 142.339844 160.289062 142.792969 160.652344 143.71875 " fill-opacity="1" fill-rule="nonzero"/><path fill="#40ad9b" d="M 165.925781 131.242188 C 165.46875 132.097656 164.179688 132.585938 163.089844 132.546875 C 161.292969 132.480469 159.257812 132.515625 157.835938 133.765625 C 156.652344 134.804688 154.660156 135.527344 153.78125 133.5625 C 153.109375 132.0625 154.367188 130.183594 155.554688 129.351562 C 157.675781 127.867188 161.132812 127.589844 163.597656 128.1875 C 164.808594 128.480469 166.710938 129.765625 165.925781 131.242188 " fill-opacity="1" fill-rule="nonzero"/><g clip-path="url(#5a94083519)"><path fill="#ffdb6e" d="M 212.261719 236.988281 C 212.230469 235.871094 212.3125 234.746094 212.507812 233.636719 C 213.367188 228.796875 216.527344 224.417969 220.773438 222.027344 C 217.113281 219.785156 214.664062 215.578125 214.597656 211.25 C 214.546875 207.835938 215.9375 204.484375 218.222656 201.949219 C 217.207031 200.980469 216.402344 199.757812 215.867188 198.457031 C 214.898438 196.082031 214.707031 193.46875 214.726562 190.910156 C 214.761719 186.269531 215.496094 181.546875 217.417969 177.296875 C 217.578125 176.941406 217.742188 176.574219 217.902344 176.207031 C 215.644531 177.539062 213.507812 179.085938 211.59375 180.886719 C 207.304688 184.914062 204.089844 190.164062 202.875 195.929688 C 202.160156 199.324219 200.988281 202.847656 197.714844 204.640625 C 196.242188 205.445312 194.582031 205.820312 192.945312 206.183594 C 189.445312 206.964844 183.917969 207.09375 181.203125 209.632812 C 177.246094 213.335938 178.226562 221.316406 182.839844 224.027344 C 186.234375 226.015625 190.726562 225.152344 194.46875 225.535156 C 201.355469 226.238281 201.660156 231.675781 203.773438 237 C 204.921875 239.890625 207.027344 242.21875 209.609375 243.910156 C 211.34375 245.050781 213.238281 245.902344 215.207031 246.535156 C 213.40625 243.675781 212.347656 240.347656 212.261719 236.988281 " fill-opacity="1" fill-rule="nonzero"/></g><path stroke-linecap="round" transform="matrix(0.0503335, 0, 0, -0.0504297, 42.40727, 329.330082)" fill="none" stroke-linejoin="round" d="M 2931.52033 2196.167421 C 3084.872483 2222.735991 3245.209298 2202.054334 3389.48139 2137.143366 " stroke="#f9c758" stroke-width="34.439999" stroke-opacity="1" stroke-miterlimit="10"/><path stroke-linecap="round" transform="matrix(0.0503335, 0, 0, -0.0504297, 42.40727, 329.330082)" fill="none" stroke-linejoin="round" d="M 2915.222783 2297.174465 C 3086.812667 2299.110949 3264.145496 2367.430131 3371.166052 2513.286161 " stroke="#f9c758" stroke-width="34.439999" stroke-opacity="1" stroke-miterlimit="10"/><path fill="#83ddd2" d="M 158.480469 253.605469 C 159.878906 250.246094 162.269531 247.246094 165.269531 245.1875 C 168.632812 242.882812 172.652344 241.792969 176.714844 241.921875 C 177.96875 241.960938 177.96875 240.007812 176.714844 239.96875 C 172.273438 239.828125 167.773438 241.050781 164.121094 243.613281 C 160.742188 245.984375 158.183594 249.28125 156.601562 253.085938 C 156.398438 253.574219 156.820312 254.160156 157.28125 254.285156 C 157.84375 254.441406 158.277344 254.09375 158.480469 253.605469 " fill-opacity="1" fill-rule="nonzero"/><path fill="#83ddd2" d="M 149.023438 241.722656 C 152.734375 236.144531 158.605469 232.203125 165.3125 231.382812 C 167.527344 231.113281 169.789062 231.160156 171.992188 231.527344 C 172.507812 231.613281 173.039062 231.390625 173.191406 230.84375 C 173.320312 230.375 173.03125 229.730469 172.507812 229.644531 C 164.757812 228.347656 156.859375 230.675781 151.148438 236.109375 C 149.6875 237.496094 148.453125 239.066406 147.339844 240.738281 C 146.640625 241.789062 148.328125 242.765625 149.023438 241.722656 " fill-opacity="1" fill-rule="nonzero"/><path fill="#83ddd2" d="M 142.398438 221.652344 C 148.59375 217.992188 156.121094 216.773438 163.179688 218.117188 C 165.210938 218.503906 167.191406 219.097656 169.105469 219.882812 C 169.589844 220.082031 170.175781 219.664062 170.304688 219.199219 C 170.457031 218.640625 170.113281 218.199219 169.625 217.996094 C 162.585938 215.113281 154.476562 214.867188 147.269531 217.289062 C 145.234375 217.976562 143.265625 218.871094 141.414062 219.960938 C 140.332031 220.601562 141.3125 222.292969 142.398438 221.652344 " fill-opacity="1" fill-rule="nonzero"/><path fill="#83ddd2" d="M 146.65625 201.074219 C 150.503906 199.859375 154.507812 199.683594 158.480469 200.335938 C 162.097656 200.925781 165.816406 202.113281 168.734375 204.410156 C 169.152344 204.734375 169.707031 204.808594 170.113281 204.410156 C 170.453125 204.070312 170.527344 203.351562 170.113281 203.027344 C 166.910156 200.511719 162.988281 199.101562 159 198.453125 C 154.675781 197.742188 150.332031 197.867188 146.136719 199.1875 C 144.945312 199.5625 145.453125 201.453125 146.65625 201.074219 " fill-opacity="1" fill-rule="nonzero"/><path fill="#83ddd2" d="M 156.5625 184.730469 C 159.605469 184.304688 162.769531 184.257812 165.726562 185.195312 C 168.375 186.035156 170.625 187.722656 172.332031 189.898438 C 172.660156 190.316406 173.367188 190.234375 173.710938 189.898438 C 174.125 189.492188 174.035156 188.925781 173.710938 188.515625 C 171.796875 186.082031 169.195312 184.246094 166.246094 183.3125 C 162.941406 182.265625 159.4375 182.371094 156.042969 182.847656 C 155.519531 182.917969 155.234375 183.585938 155.359375 184.046875 C 155.515625 184.609375 156.035156 184.800781 156.5625 184.730469 " fill-opacity="1" fill-rule="nonzero"/><path fill="#83ddd2" d="M 167.667969 262.523438 C 169.957031 256.90625 175.355469 253.160156 181.382812 252.863281 C 182.636719 252.800781 182.640625 250.847656 181.382812 250.910156 C 177.917969 251.082031 174.5 252.199219 171.699219 254.28125 C 169.027344 256.261719 167.039062 258.925781 165.789062 262.003906 C 165.589844 262.492188 166.003906 263.078125 166.46875 263.207031 C 167.027344 263.359375 167.46875 263.011719 167.667969 262.523438 " fill-opacity="1" fill-rule="nonzero"/><path fill="#83ddd2" d="M 173.960938 271.5 C 176.957031 268.855469 181.007812 268.164062 184.878906 268.164062 C 186.132812 268.167969 186.136719 266.210938 184.878906 266.210938 C 180.457031 266.207031 175.984375 267.117188 172.585938 270.117188 C 171.640625 270.949219 173.023438 272.328125 173.960938 271.5 " fill-opacity="1" fill-rule="nonzero"/><path fill="#83ddd2" d="M 174.761719 282.625 C 177.214844 281.625 179.847656 281.585938 182.417969 282.101562 C 182.933594 282.207031 183.472656 281.953125 183.617188 281.421875 C 183.75 280.9375 183.457031 280.324219 182.9375 280.21875 C 180.042969 279.636719 177.011719 279.613281 174.242188 280.738281 C 173.757812 280.9375 173.410156 281.390625 173.5625 281.941406 C 173.6875 282.402344 174.269531 282.824219 174.761719 282.625 " fill-opacity="1" fill-rule="nonzero"/></svg>