<svg width="294" height="823" viewBox="0 0 294 823" fill="none" xmlns="http://www.w3.org/2000/svg">
<g filter="url(#filter0_d_13_78)">
<mask id="mask0_13_78" style="mask-type:luminance" maskUnits="userSpaceOnUse" x="185" y="517" width="465" height="296">
<path d="M185.28 548.932L630.823 517.892L649.206 781.768L203.663 812.808L185.28 548.932Z" fill="white"/>
</mask>
<g mask="url(#mask0_13_78)">
<path d="M627.04 671.969L333.131 799.693C321.994 804.521 307.519 802.473 300.805 795.092L197.907 682.017C191.194 674.636 194.783 664.732 205.92 659.889L357.297 594.105L372.381 587.552L497.786 533.047L499.829 532.165C502.203 531.146 504.656 530.435 507.2 530.016C516.716 528.429 526.857 530.936 532.155 536.766L635.067 649.84C641.766 657.222 638.177 667.126 627.04 671.969Z" fill="url(#paint0_linear_13_78)"/>
</g>
</g>
<g filter="url(#filter1_d_13_78)">
<path d="M611.074 311.98C611.103 314.845 610.468 317.558 609.17 320.119L501.374 544.767L496.624 554.667L493.201 561.791L491.948 564.405L478.964 591.474C474.028 601.756 461.03 609.05 449.934 607.764L376.108 599.179L279.876 587.996C275.953 587.545 272.797 586.075 270.574 583.93C266.492 579.97 265.529 573.691 268.715 567.038L316.475 467.514L320.642 458.833L367.345 361.47L370.074 355.8L398.921 295.683C403.857 285.402 416.841 278.109 427.952 279.393L598.009 299.161C606.057 300.106 610.892 305.291 611.074 311.98Z" fill="url(#paint1_linear_13_78)" shape-rendering="crispEdges"/>
</g>
<g filter="url(#filter2_d_13_78)">
<mask id="mask1_13_78" style="mask-type:luminance" maskUnits="userSpaceOnUse" x="21" y="153" width="384" height="342">
<path d="M21.198 179.085L383.018 153.878L404.973 469.018L43.153 494.226L21.198 179.085Z" fill="white"/>
</mask>
<g mask="url(#mask1_13_78)">
<path d="M386.648 427.427L325.74 445.22L316.472 447.913L205.983 480.18C200.029 481.86 194.097 481.819 188.174 480.07C182.44 478.379 177.48 475.142 174.73 470.769L30.5493 242.7C25.0862 234.081 30.2169 224.254 42.006 220.817L181.201 180.18L192.266 176.95L222.7 168.076C232.176 165.311 243.091 167.494 249.826 172.94C251.451 174.22 252.822 175.731 253.938 177.473L302.148 253.737L306.129 260.057L363.253 350.401L367.775 357.551L398.118 405.528C403.57 414.191 398.437 423.989 386.648 427.427Z" fill="url(#paint2_linear_13_78)"/>
</g>
</g>
<g filter="url(#filter3_d_13_78)">
<path d="M426.846 159.099C425.945 160.227 424.906 161.223 423.745 162.085L305.492 249.603L301.183 252.787L289.486 261.443C280.721 267.934 266.822 265.167 258.492 255.292L196.505 182.036L191.428 176.04L37.8741 -5.44501C34.0519 -9.95169 32.041 -15.167 31.8235 -20.1236C31.5542 -26.0284 33.8251 -31.5562 38.593 -35.0846L172.85 -134.456C181.604 -140.919 195.515 -138.18 203.845 -128.292L424.465 132.46C431.678 140.992 432.421 152.062 426.846 159.099Z" fill="url(#paint3_linear_13_78)" shape-rendering="crispEdges"/>
</g>
<defs>
<filter id="filter0_d_13_78" x="190.524" y="529.549" width="451.916" height="280.758" filterUnits="userSpaceOnUse" color-interpolation-filters="sRGB">
<feFlood flood-opacity="0" result="BackgroundImageFix"/>
<feColorMatrix in="SourceAlpha" type="matrix" values="0 0 0 0 0 0 0 0 0 0 0 0 0 0 0 0 0 0 127 0" result="hardAlpha"/>
<feOffset dy="4"/>
<feGaussianBlur stdDeviation="2"/>
<feComposite in2="hardAlpha" operator="out"/>
<feColorMatrix type="matrix" values="0 0 0 0 0 0 0 0 0 0 0 0 0 0 0 0 0 0 0.25 0"/>
<feBlend mode="normal" in2="BackgroundImageFix" result="effect1_dropShadow_13_78"/>
<feBlend mode="normal" in="SourceGraphic" in2="effect1_dropShadow_13_78" result="shape"/>
</filter>
<filter id="filter1_d_13_78" x="262.817" y="279.246" width="352.258" height="336.665" filterUnits="userSpaceOnUse" color-interpolation-filters="sRGB">
<feFlood flood-opacity="0" result="BackgroundImageFix"/>
<feColorMatrix in="SourceAlpha" type="matrix" values="0 0 0 0 0 0 0 0 0 0 0 0 0 0 0 0 0 0 127 0" result="hardAlpha"/>
<feOffset dy="4"/>
<feGaussianBlur stdDeviation="2"/>
<feComposite in2="hardAlpha" operator="out"/>
<feColorMatrix type="matrix" values="0 0 0 0 0 0 0 0 0 0 0 0 0 0 0 0 0 0 0.25 0"/>
<feBlend mode="normal" in2="BackgroundImageFix" result="effect1_dropShadow_13_78"/>
<feBlend mode="normal" in="SourceGraphic" in2="effect1_dropShadow_13_78" result="shape"/>
</filter>
<filter id="filter2_d_13_78" x="24.3635" y="166.877" width="379.933" height="322.534" filterUnits="userSpaceOnUse" color-interpolation-filters="sRGB">
<feFlood flood-opacity="0" result="BackgroundImageFix"/>
<feColorMatrix in="SourceAlpha" type="matrix" values="0 0 0 0 0 0 0 0 0 0 0 0 0 0 0 0 0 0 127 0" result="hardAlpha"/>
<feOffset dy="4"/>
<feGaussianBlur stdDeviation="2"/>
<feComposite in2="hardAlpha" operator="out"/>
<feColorMatrix type="matrix" values="0 0 0 0 0 0 0 0 0 0 0 0 0 0 0 0 0 0 0.25 0"/>
<feBlend mode="normal" in2="BackgroundImageFix" result="effect1_dropShadow_13_78"/>
<feBlend mode="normal" in="SourceGraphic" in2="effect1_dropShadow_13_78" result="shape"/>
</filter>
<filter id="filter3_d_13_78" x="27.8021" y="-137.955" width="406.72" height="410.91" filterUnits="userSpaceOnUse" color-interpolation-filters="sRGB">
<feFlood flood-opacity="0" result="BackgroundImageFix"/>
<feColorMatrix in="SourceAlpha" type="matrix" values="0 0 0 0 0 0 0 0 0 0 0 0 0 0 0 0 0 0 127 0" result="hardAlpha"/>
<feOffset dy="4"/>
<feGaussianBlur stdDeviation="2"/>
<feComposite in2="hardAlpha" operator="out"/>
<feColorMatrix type="matrix" values="0 0 0 0 0 0 0 0 0 0 0 0 0 0 0 0 0 0 0.25 0"/>
<feBlend mode="normal" in2="BackgroundImageFix" result="effect1_dropShadow_13_78"/>
<feBlend mode="normal" in="SourceGraphic" in2="effect1_dropShadow_13_78" result="shape"/>
</filter>
<linearGradient id="paint0_linear_13_78" x1="186.023" y1="552.235" x2="648.698" y2="775.988" gradientUnits="userSpaceOnUse">
<stop stop-color="white" stop-opacity="0.22"/>
<stop offset="1" stop-color="white" stop-opacity="0.29"/>
</linearGradient>
<linearGradient id="paint1_linear_13_78" x1="247.054" y1="291.61" x2="682.327" y2="417.418" gradientUnits="userSpaceOnUse">
<stop stop-color="white" stop-opacity="0.22"/>
<stop offset="1" stop-color="white" stop-opacity="0.29"/>
</linearGradient>
<linearGradient id="paint2_linear_13_78" x1="24.5472" y1="181.202" x2="451.617" y2="312.119" gradientUnits="userSpaceOnUse">
<stop stop-color="white" stop-opacity="0.22"/>
<stop offset="1" stop-color="white" stop-opacity="0.29"/>
</linearGradient>
<linearGradient id="paint3_linear_13_78" x1="24.3787" y1="-126.886" x2="501.901" y2="-12.0429" gradientUnits="userSpaceOnUse">
<stop stop-color="white" stop-opacity="0.22"/>
<stop offset="1" stop-color="white" stop-opacity="0.29"/>
</linearGradient>
</defs>
</svg>
