<svg width="584" height="824" viewBox="0 0 584 824" fill="none" xmlns="http://www.w3.org/2000/svg">
<path d="M234.627 244.712C230.214 247.357 225.786 249.963 221.109 252.121C220.6 252.355 221.383 252.379 221.606 252.277C226.283 250.119 230.711 247.513 235.124 244.868C235.607 244.577 234.845 244.58 234.627 244.712Z" fill="#C2000B"/>
<path d="M233.684 249.585C231.848 250.504 230.05 251.458 228.392 252.676C228.232 252.793 228.995 252.706 229.149 252.593C230.769 251.403 232.529 250.479 234.323 249.582C234.674 249.407 233.825 249.515 233.684 249.585Z" fill="#C2000B"/>
<path d="M356.86 249.584C362.966 246.507 368.809 242.956 374.739 239.56C375.086 239.36 374.241 239.479 374.101 239.56C368.171 242.956 362.328 246.507 356.222 249.584C355.868 249.762 356.718 249.655 356.86 249.584Z" fill="#C2000B"/>
<path d="M372.42 245.993C369.7 247.805 366.967 249.59 364.135 251.223C363.643 251.506 364.397 251.575 364.646 251.431C367.479 249.799 370.212 248.013 372.931 246.201C373.405 245.886 372.663 245.829 372.42 245.993Z" fill="#C2000B"/>
<path d="M302.958 239.326C304.609 238.883 306.105 238.027 307.755 237.583C308.259 237.448 308.15 237.042 307.646 237.178C305.995 237.621 304.499 238.477 302.849 238.921C302.345 239.056 302.453 239.461 302.958 239.326Z" fill="#C2000B"/>
<path d="M311.621 238.651C309.961 239.481 308.299 240.31 306.498 240.791C305.983 240.928 306.122 241.448 306.637 241.31C308.513 240.809 310.249 239.956 311.979 239.092C312.497 238.833 312.029 238.448 311.621 238.651Z" fill="#C2000B"/>
<path d="M377.209 225.574C377.882 225.569 378.553 225.563 379.226 225.556C379.653 225.552 380.121 225.403 380.501 225.214C380.619 225.156 381.29 224.767 380.949 224.561C380.384 224.22 379.805 223.93 379.154 223.834C379.109 223.628 378.63 223.579 378.428 223.599C377.509 223.695 376.412 224.012 376.028 224.946C375.923 225.2 376.232 225.27 376.486 225.286C376.452 225.535 377.003 225.576 377.209 225.574Z" fill="black"/>
<path d="M370.057 235.954C370.076 236.122 370.161 236.282 370.35 236.405C370.952 236.801 371.611 237.122 372.307 237.314C372.996 237.503 374.546 237.146 374.303 236.134C374.109 235.33 374.009 234.485 373.661 233.727C373.431 233.227 372.951 233.098 372.464 233.169C371.997 233.083 371.477 233.253 371.097 233.505C370.624 233.818 369.848 234.186 369.335 234.686C369.096 234.92 369.024 235.326 369.233 235.601C369.422 235.85 369.739 235.942 370.057 235.954Z" fill="black"/>
<path d="M360.259 240.73C360.655 240.948 361.154 240.867 361.572 240.755C361.95 240.654 362.516 240.468 362.696 240.078C363.031 239.352 363.296 238.603 363.451 237.818C363.526 237.432 362.98 237.422 362.725 237.433C362.144 237.459 361.466 237.649 361.042 238.068C360.843 238.264 360.865 238.24 360.628 238.328C360.549 238.358 360.472 238.389 360.393 238.419C359.667 238.535 358.849 238.912 358.926 239.34C358.971 239.578 359.206 239.812 359.357 239.989C359.612 240.285 359.917 240.542 360.259 240.73Z" fill="black"/>
<path d="M351.398 140.919C345.957 139.886 335.613 139.166 331.759 144.193C329.826 146.716 333.858 150.189 335.446 151.486C339.255 154.598 344.211 156.149 349.091 156.115C353.303 156.362 361.078 156.862 363.924 152.912C368.602 146.417 355.545 141.706 351.398 140.919ZM361.87 152.307C360.479 155.291 353.275 154.718 350.321 154.532C350.237 154.52 350.141 154.513 350.028 154.514C344.431 154.553 336.188 151.782 334.014 145.906C332.115 140.778 348.625 142.188 350.925 142.624C354.418 143.288 364.354 146.978 361.87 152.307Z" fill="black"/>
<path d="M257.966 156.663C264.165 156.554 275.155 153.137 276.253 145.849C277.236 139.318 260.211 140.931 257.099 141.443C252.217 142.248 241.403 146 243.117 152.883C244.317 157.694 254.427 156.9 257.966 156.663ZM254.086 143.683C259.062 142.115 264.815 142.048 269.884 143.198C274.392 144.221 274.232 147.03 271.478 149.87C268.193 153.257 263.26 155.063 258.613 155.067C258.595 155.067 258.574 155.071 258.554 155.072C258.473 155.068 258.387 155.068 258.291 155.074C254.734 155.311 250.716 155.406 247.404 153.914C240.78 150.933 251.283 144.567 254.086 143.683Z" fill="black"/>
<path d="M300.355 294.11C314.175 295.353 324.631 284.744 328.062 272.139C328.18 271.816 328.258 271.51 328.297 271.219C328.318 271.13 328.343 271.042 328.364 270.953C328.381 270.885 328.363 270.83 328.331 270.783C328.369 266.114 318.228 265.787 314.688 265.19C310.455 264.477 306.156 264.048 301.888 263.604C296.674 263.062 291.416 262.605 286.17 262.712C284.562 262.744 279.991 262.7 279.342 264.791C279.323 264.853 279.338 264.904 279.37 264.948C278.946 265.688 278.591 266.454 278.325 267.266C278.314 267.302 278.314 267.333 278.323 267.362C274.063 280.11 288.186 293.014 300.355 294.11ZM281.413 265.434C281.425 265.406 281.427 265.383 281.425 265.359C281.597 264.999 281.777 264.643 281.985 264.297C282.026 264.229 282.02 264.18 281.995 264.137C283.876 262.173 300.681 264.752 302.922 264.998C306.011 265.338 309.097 265.723 312.174 266.165C314.824 266.546 317.464 267.014 320.076 267.604C322.71 268.198 326.074 268.911 325.798 271.591C325.698 272 325.582 272.405 325.463 272.808C325.446 272.848 325.438 272.885 325.42 272.926C325.406 272.957 325.402 272.984 325.408 273.01C324.008 277.649 321.442 281.925 318.635 285.852C313.657 292.819 304.118 294.306 296.543 291.338C286.443 287.383 276.223 276.898 281.413 265.434Z" fill="black"/>
<path d="M227.136 226.835C227.808 226.838 228.48 226.842 229.152 226.845C229.632 226.847 230.204 226.719 230.578 226.377C230.991 226.196 231.528 225.84 231.351 225.416C231.322 225.348 231.283 225.297 231.251 225.235C231.251 225.235 231.253 225.234 231.254 225.234C231.252 225.232 231.249 225.23 231.246 225.226C230.972 224.718 230.554 224.43 229.939 224.369C229.535 224.329 229.03 224.456 228.66 224.713C227.99 224.904 227.336 225.245 226.798 225.572C226.089 226.003 226.288 226.83 227.136 226.835Z" fill="black"/>
<path d="M234.493 237.939C235.412 237.684 236.265 237.295 237.06 236.769C237.219 236.663 237.301 236.551 237.316 236.449C237.366 236.431 237.42 236.417 237.468 236.399C237.676 236.32 238.557 235.941 238.198 235.592C237.747 235.156 237.168 234.957 236.653 234.618C236.452 234.486 236.185 234.466 235.915 234.49C235.579 234.423 235.116 234.537 234.877 234.602C234.509 234.7 233.926 234.883 233.75 235.269C233.405 236.028 233.308 236.872 233.117 237.678C232.979 238.262 234.255 238.006 234.493 237.939Z" fill="black"/>
<path d="M246.55 242.029C247.325 241.599 248.342 240.811 248.509 239.874C248.601 239.357 248.101 239.081 247.646 239.007C247.121 238.773 246.615 238.652 246.184 238.228C245.813 237.864 245.051 237.99 244.644 238.19C244.215 238.402 243.853 238.815 243.953 239.32C244.109 240.105 244.378 240.853 244.715 241.577C245.033 242.259 245.913 242.381 246.55 242.029ZM245.405 240.446C245.406 240.446 245.406 240.446 245.405 240.446C245.333 240.5 245.347 240.49 245.405 240.446Z" fill="black"/>
<path d="M276.025 688.999C275.268 688.804 273.053 689.952 274.462 690.315C281.882 692.223 288.665 694.827 294.864 699.412C295.556 699.924 297.862 698.922 297.216 698.445C290.8 693.698 283.706 690.975 276.025 688.999Z" fill="black"/>
<path d="M303.996 702.343C303.005 702.519 302.236 702.32 301.526 701.582C300.897 700.928 298.495 701.867 299.182 702.581C300.366 703.812 302.029 704.07 303.66 703.779C304.144 703.693 304.959 703.483 305.092 702.908C305.223 702.352 304.338 702.283 303.996 702.343Z" fill="black"/>
<path d="M324.28 698.16C320.193 700.836 315.544 701.831 310.857 702.921C309.275 703.289 309.755 705.014 311.32 704.65C316.489 703.448 321.463 702.254 325.956 699.311C327.389 698.373 325.307 697.487 324.28 698.16Z" fill="black"/>
<path d="M364.402 684.53C352.667 684.896 341.344 689.069 331.023 694.432C329.487 695.229 330.877 696.455 332.114 695.813C342.05 690.65 352.85 686.622 364.148 686.271C365.544 686.228 366.128 684.476 364.402 684.53Z" fill="black"/>
<path d="M47.2449 624.637C44.6668 625.577 42.5126 627.389 40.6191 629.331C40.2607 629.698 41.084 629.748 41.3073 629.519C43.1117 627.669 45.1386 625.945 47.5955 625.05C48.145 624.849 47.6504 624.489 47.2449 624.637Z" fill="black"/>
<path d="M548.261 323.702C548.451 315.235 549.421 306.826 551.44 298.594C551.495 298.37 550.661 298.5 550.605 298.73C548.58 306.991 547.609 315.431 547.42 323.927C547.415 324.097 548.256 323.972 548.261 323.702Z" fill="black"/>
<path d="M526.211 322.107C525.745 322.111 525.552 322.691 526.126 322.686C536.734 322.59 546.523 327.917 555.29 333.36C555.585 333.543 556.336 333.137 555.945 332.894C546.984 327.331 537.042 322.008 526.211 322.107Z" fill="black"/>
<path d="M514.996 340.313C514.733 340.19 513.964 340.565 514.33 340.735C517.443 342.191 519.383 345.727 521.266 348.457C523.979 352.39 526.288 356.585 527.367 361.269C527.438 361.581 528.283 361.363 528.208 361.044C527.173 356.545 525 352.553 522.464 348.735C520.493 345.769 518.343 341.878 514.996 340.313Z" fill="black"/>
<path d="M534.518 356.45C535.148 360.945 535.509 365.436 535.141 369.97C535.109 370.376 535.963 370.236 535.992 369.891C536.363 365.304 535.998 360.771 535.361 356.224C535.312 355.872 534.466 356.077 534.518 356.45Z" fill="black"/>
<path d="M583.152 307.516C582.546 303.83 579.079 304.642 576.785 306.391C574.342 308.254 564.883 325.412 562.353 326.112C561.567 321.069 562.262 316.172 562.867 311.133C563.451 306.264 563.726 301.358 564.205 296.478C564.759 290.826 567.472 281.595 563.183 276.787C561.865 275.309 560.497 275.307 559.181 276.165C559.535 273.481 559.498 269.119 556.597 268.052C553.37 266.864 550.367 270.43 548.584 272.536C544.838 276.965 542.405 282.435 540.453 287.834C539.236 291.198 538.222 294.68 537.629 298.206C537.039 301.71 535.83 305.16 535.435 308.661C535.419 308.797 535.439 308.911 535.475 309.013C535.166 310.677 534.862 312.336 534.404 313.971C534.2 314.7 533.97 315.547 533.572 316.249C533.427 315.978 533.38 315.656 533.321 315.361C533.187 314.69 533.173 313.959 533.241 313.25C533.336 313.112 533.394 312.959 533.385 312.794C533.378 312.646 533.379 312.498 533.373 312.35C533.384 312.303 533.389 312.253 533.398 312.206C533.434 312.052 533.414 311.927 533.359 311.824C533.049 300.887 536.548 290.828 537.718 280.083C538.036 277.169 539.025 270.042 535.247 269.429C535.077 269.307 534.806 269.248 534.405 269.309C530.235 269.932 528.596 273.385 526.829 276.834C523.728 282.894 521.07 289.375 519.103 295.893C516.941 303.055 515.785 310.274 515.162 317.717C515.006 319.58 514.511 337.072 510.559 336.172C510.31 336.115 510.012 336.162 509.722 336.265C506.979 334.305 505.049 330.487 503.662 327.4C503.732 327.252 503.731 327.094 503.624 326.933C503.454 326.679 503.285 326.425 503.117 326.171C503.095 326.118 503.069 326.062 503.047 326.01C503.022 325.954 502.977 325.913 502.923 325.879C499.75 321.101 496.797 316.758 490.606 315.935C487.232 315.486 481.725 315.715 479.76 318.986C479.577 319.291 479.68 319.48 479.923 319.577C479.965 324.278 484.589 327.542 486.967 331.245C490.688 337.039 492.765 344.605 494.698 351.173C497.585 360.983 499.663 370.5 509.42 375.269C509.439 375.297 509.45 375.325 509.475 375.354C510.786 376.861 512.122 378.346 513.346 379.92C513.878 381.282 514.314 382.669 514.668 384.082C515.216 390.173 515.685 396.04 515.123 402.23C512.704 418.108 505.945 433.112 497.708 446.808C495.942 449.744 494.029 452.846 492.323 456.052C485.238 448.274 477.578 441.052 470.433 433.332C465.82 428.346 460.947 423.625 456.418 418.591C456.669 418.467 456.838 418.318 456.836 418.147C456.698 411.448 455.799 404.918 453.754 398.545C453.831 398.33 453.863 398.098 453.836 397.868C457.28 397.979 460.779 397.29 463.672 395.472C464.238 395.354 464.71 394.974 464.83 394.646C464.982 394.526 465.136 394.412 465.283 394.286C465.614 394.001 464.804 394.003 464.044 394.14C463.991 394.144 463.944 394.145 463.884 394.152C457.307 394.939 451.591 390.096 452.205 383.632C461.728 330.259 422.196 285.113 420.647 232.839C421.086 232.95 421.632 232.883 422.005 232.547C422.609 232.001 423.13 231.422 423.612 230.83C423.805 230.753 423.974 230.646 424.088 230.507C436.021 216.002 440.794 198.561 438.928 179.958C438.057 171.277 435.675 162.658 432.761 154.452C432.715 154.325 432.668 154.198 432.623 154.071C438.232 150.148 444.901 147.628 449.011 141.972C449.099 141.885 449.177 141.796 449.242 141.701C449.312 141.644 449.389 141.593 449.442 141.525C449.827 141.022 450.215 140.393 449.916 139.756C449.646 139.177 449.02 138.803 448.588 138.358C448.512 138.28 448.399 138.233 448.265 138.208C446.988 137.391 445.748 136.523 444.552 135.59C444.503 135.552 444.442 135.537 444.388 135.508C438.554 130.168 433.628 123.854 427.64 118.65C426.238 117.431 424.753 116.388 423.213 115.465C423.208 115.461 423.207 115.455 423.201 115.449C413.622 107.49 407.241 96.4198 397.432 88.715C393.559 61.8718 378.843 38.1335 355.851 21.7399C332.454 5.05693 303.267 -2.0385 273.664 1.75502L273.669 1.79861C245.272 3.39552 218.974 14.7194 199.271 33.9277C178.772 53.9117 167.83 80.0602 168.423 107.597C168.142 107.986 167.873 108.386 167.629 108.811C167.369 109.264 167.579 109.535 167.968 109.648C165.057 118.047 161.909 126.364 159.402 134.897C159.38 134.971 159.394 135.031 159.427 135.082C159.295 135.151 159.16 135.239 159.133 135.337C158.9 136.193 158.416 136.935 158.043 137.734C158.01 137.805 158.028 137.852 158.065 137.89C157.338 139.018 156.662 140.139 156.089 140.83C153.044 144.506 150.006 148.174 147.029 151.905C140.78 159.734 134.868 167.826 128.822 175.81C128.472 176.14 128.113 176.458 127.772 176.801C127.394 177.182 127.315 177.511 127.426 177.772C127.259 177.863 127.105 177.969 127.007 178.113C126.949 178.198 126.919 178.294 126.903 178.393C126.837 178.585 126.786 178.78 126.77 178.988C126.762 179.091 126.994 179.136 127.317 179.129C127.173 179.291 127.188 179.428 127.46 179.5C131.444 180.558 135.345 181.873 139.321 182.916C145.292 184.919 151.196 187.141 157.356 188.54C157.513 188.576 157.669 188.579 157.82 188.558C158.332 219.543 167.261 249.995 170.296 280.884C170.375 282.216 170.457 283.548 170.527 284.881C170.428 284.987 170.368 285.101 170.378 285.224C172.294 309.179 159.36 330.156 152.36 352.234C152.356 352.248 152.359 352.26 152.358 352.274C151.43 354.699 150.528 357.131 149.965 359.691C148.829 364.868 149.235 370.303 148.424 375.536C148.42 375.567 148.424 375.591 148.424 375.619C148.21 377.045 147.936 378.462 147.571 379.868C147.543 379.975 147.542 380.066 147.552 380.151C146.876 382.194 145.886 384.106 144.515 385.863C141.818 388.865 137.953 390.292 133.535 389.293C132.854 389.139 131.378 389.924 131.523 390.421C131.204 390.657 131.033 390.968 131.224 391.298C134.759 397.422 141.437 402.011 148.578 402.412C149.549 419.631 154.198 436.212 161.124 451.956C161.185 452.095 161.37 452.154 161.612 452.157C161.52 452.241 161.431 452.336 161.355 452.458C159.937 454.736 161.65 457.006 164.454 459.016C166.715 463.536 169.131 467.968 171.695 472.323C171.861 472.607 172.256 472.691 172.678 472.643C170.453 483.816 168.191 494.983 166.725 506.287C165.968 507.889 164.839 509.192 163.662 510.506C156.549 514.106 150.662 518.806 144.724 524.255C137.438 530.941 130.377 537.868 123.622 545.091C110.758 558.845 99.3708 573.958 90.3597 590.508C90.3056 590.559 90.2585 590.611 90.2271 590.668C88.5003 593.809 85.7704 596.185 83.5403 598.949C83.4322 599.082 83.4069 599.189 83.4304 599.276C77.2905 603.109 71.359 607.223 64.7986 610.344C57.599 613.769 50.15 616.619 43.0463 620.254C32.399 625.701 22.1111 632.919 15.9781 643.421C15.8726 643.602 15.863 643.743 15.9119 643.855C15.7182 644.048 15.5368 644.263 15.3964 644.494C11.1961 646.296 7.01939 648.154 2.69351 649.591C2.06992 649.798 1.68875 650.113 1.51868 650.424C1.25878 650.536 1.01459 650.667 0.836675 650.847C-1.94113 653.645 2.88449 657.32 5.32477 658.231C5.41984 658.267 5.52623 658.286 5.63612 658.297C5.8873 658.409 6.13849 658.519 6.39228 658.618C5.6841 659.541 4.97677 660.463 4.28952 661.401C4.17003 661.565 4.1744 661.681 4.24155 661.766C4.10899 662.055 4.19707 662.354 4.70291 662.557C10.0675 664.716 16.17 663.326 19.9839 659.138C24.9046 658.171 29.8218 656.432 34.2628 655.312C34.5637 655.236 34.8035 655.124 34.9963 654.993C36.0559 654.762 37.1051 654.454 38.1578 654.129C39.8786 653.599 41.5845 653.064 43.2879 652.518C43.5905 652.621 43.9829 652.621 44.4609 652.451C53.0821 649.371 62.5991 645.073 71.4191 649.87C71.5648 649.95 71.7331 649.994 71.9119 650.015C72.1596 650.216 72.4003 650.423 72.6445 650.628C73.2315 651.35 73.7303 652.105 74.1594 652.891C74.715 654.024 75.1772 655.223 75.6848 656.381C75.8017 656.706 75.9168 657.033 76.0294 657.364C76.0616 658.095 76.2169 658.805 76.4654 659.486C76.4489 659.538 76.4419 659.589 76.4585 659.641C76.6791 660.32 76.9155 660.989 77.1631 661.647C77.2015 661.816 77.2408 661.981 77.2827 662.136C77.2957 662.185 77.3376 662.218 77.3925 662.245C79.4438 667.447 82.485 671.824 88.0633 673.957C91.2545 675.178 96.7665 676.239 98.7655 672.534C98.8047 672.461 98.7734 672.407 98.701 672.365C98.8946 672.237 99.0088 672.099 98.9713 671.97C98.6137 670.741 97.8733 669.895 97.1808 668.837C96.3095 667.506 95.9859 665.586 95.4967 664.086C94.6611 661.522 93.9233 659.019 93.632 656.386C93.659 649.932 98.0181 643.063 100.036 636.922C101.754 631.697 102.885 626.333 103.264 620.876C105.27 616.397 109.331 613.276 113.535 610.743C113.686 610.706 113.829 610.65 113.956 610.57C114.483 610.236 115.014 609.907 115.542 609.575C115.985 609.326 116.427 609.08 116.864 608.84C117.1 608.71 117.259 608.573 117.367 608.438C132.402 599.148 148.066 590.865 162.425 580.515C169.942 575.095 177.039 568.971 183.399 562.231C190.528 554.677 196.401 546.004 202.638 537.731C202.799 537.518 202.86 537.334 202.856 537.174C207.014 531.976 210.556 526.383 213.921 520.673C217.031 524.822 219.593 529.305 220.062 534.556C219.714 534.858 219.312 535.123 218.846 535.346C217.322 536.077 219.639 536.275 220.368 535.925C221.063 535.591 221.642 535.188 222.14 534.74C222.364 534.615 222.534 534.466 222.592 534.295C224.033 532.722 224.543 530.636 224.593 528.429C226.403 530.221 228.339 531.865 230.5 533.257C230.625 533.338 230.806 533.37 231.009 533.366C233.074 535.568 233.653 538.848 235.311 541.334C237.014 543.888 230.092 551.464 228.64 552.992C225.566 556.228 228.899 559.448 232.019 561.763C231.988 561.802 231.963 561.843 231.948 561.884C230.941 564.694 230.913 567.598 230.99 570.524C230.798 570.684 230.664 570.88 230.645 571.11C230.577 571.96 230.701 572.756 230.961 573.5C230.635 573.654 230.377 573.868 230.312 574.129C230.209 574.545 230.093 574.956 229.973 575.367C229.738 575.489 229.561 575.639 229.508 575.812C228.1 580.381 224.47 583.816 222.673 588.244C220.572 593.423 220.121 599.017 217.625 604.081C215.242 608.918 211.96 613.167 209.912 618.185C207.969 622.944 207.155 627.994 205.175 632.721C205.046 632.815 204.938 632.928 204.865 633.062C204.812 633.157 204.757 633.251 204.705 633.346C204.436 633.487 204.224 633.672 204.143 633.893C203.967 634.377 203.78 634.856 203.588 635.331C203.504 635.478 203.423 635.626 203.339 635.774C201.772 638.09 200.415 640.535 199.082 642.994C199.047 643.059 199.053 643.114 199.094 643.157C194.389 651.651 190.344 660.43 189.789 670.292C189.783 670.402 189.804 670.494 189.835 670.58C187.098 681.11 188.123 692.12 185.774 702.717C184.375 709.029 182.433 715.202 182.209 721.709C182.042 726.536 183.822 730.992 185.536 735.409C185.383 735.579 185.301 735.777 185.348 735.993C188.964 752.785 182.272 769.893 183.947 786.859C184.738 794.868 188.664 802.963 191.381 810.468C193.973 817.625 196.379 824.834 197.975 832.277C197.759 832.415 197.607 832.581 197.587 832.765C197.051 837.738 202.374 839.928 206.481 840.784C214.889 842.539 223.719 841.737 232.239 841.812C241.161 841.892 250.387 840.353 259.291 839.688C268.178 839.025 277.068 838.436 285.964 837.909C286.082 837.97 286.339 837.982 286.782 837.911C286.961 837.882 287.141 837.855 287.321 837.826C288.485 837.758 289.648 837.678 290.813 837.613C291.144 837.594 291.611 837.381 291.971 837.129C298.804 836.043 305.345 834.276 307.568 826.553C307.587 826.486 307.561 826.435 307.503 826.395C309.035 822.656 309.138 818.527 309.809 814.501C309.885 814.423 309.936 814.34 309.952 814.253C310.811 809.362 312.08 804.56 312.998 799.699C313.386 802.025 313.858 804.341 314.349 806.644C314.267 806.753 314.23 806.867 314.267 806.982C316.505 813.88 314.145 821.274 316.414 828.105C316.401 828.183 316.399 828.263 316.423 828.345C317.033 830.495 317.98 832.597 319.814 833.964C319.982 834.089 320.23 834.128 320.498 834.111C326.698 837.971 334.848 838.037 341.906 838.481C352.387 839.14 362.823 840.218 373.299 840.898C383.264 841.545 393.139 840.665 402.958 838.945C411.943 837.371 420.642 833.761 429.597 832.179C429.823 832.399 430.232 832.531 430.789 832.425C436.002 831.44 440.069 828.642 442.94 824.198C443.131 823.904 443.076 823.7 442.893 823.571C445.471 817.853 444.292 811.112 443.537 805.034C442.213 794.371 441.921 783.353 442.607 772.641C442.625 772.366 442.477 772.191 442.245 772.097C442.06 754.073 442.102 736.049 442.689 718.034C442.946 717.871 443.123 717.666 443.125 717.428C443.264 699.974 439.667 682.816 432.653 666.864C432.79 666.76 432.864 666.66 432.826 666.577C427.757 655.416 424.692 644.203 422.648 632.111C422.626 631.978 422.416 631.925 422.13 631.928C419.832 622.804 416.159 614.116 410.403 606.634C408.417 602.796 406.869 598.823 406.148 594.552C406.199 594.477 406.228 594.397 406.22 594.315C405.831 590.209 405.486 586.074 403.117 582.566C401.379 579.991 398.469 578.348 396.13 576.295C396.136 576.236 396.141 576.178 396.134 576.117C396.038 575.258 396.189 574.404 396.457 573.588C396.597 573.494 396.702 573.388 396.743 573.271C398.697 567.562 396.104 561.709 393.667 556.564C393.664 556.556 393.657 556.551 393.653 556.545C395.768 555.399 397.61 553.984 398.416 551.227C399.989 545.845 394.67 540.117 392.903 535.474C392.855 535.347 392.789 535.239 392.718 535.141C393.432 534.234 394.152 533.334 395.074 532.606C395.635 532.163 395.535 531.215 395.074 530.757C392.474 528.163 390.705 524.93 389.496 521.435C395.763 518.561 400.828 514.153 405.414 509.115C406.505 511.472 408.191 513.613 409.963 515.43C410.393 515.872 412.686 514.937 412.349 514.591C412.24 514.479 412.134 514.359 412.025 514.245C412.16 514.054 412.231 513.831 412.201 513.582C411.425 507.175 413.74 501.123 416.511 495.462C418.819 490.744 421.535 484.756 426.243 482.008C426.322 481.996 426.399 481.969 426.472 481.905C426.528 481.854 426.589 481.811 426.646 481.763C426.791 481.674 426.911 481.581 426.998 481.483C427.43 481.164 427.888 480.88 428.329 480.57C438.387 488 448.692 495.086 459.448 501.512C459.545 501.571 459.668 501.603 459.806 501.616C468.044 506.54 476.832 510.442 485.154 515.216C491.48 518.843 497.036 523.571 503.956 525.951C503.975 526.019 504.034 526.082 504.154 526.135C508.458 528.025 514.245 527.708 518.431 525.196C518.665 525.109 518.889 524.998 519.068 524.849C519.21 524.73 519.349 524.61 519.49 524.49C519.946 524.15 520.372 523.776 520.772 523.374C520.908 523.321 521.026 523.26 521.105 523.19C526.855 518.055 534.152 514.832 538.61 508.327C538.797 508.053 538.699 507.888 538.461 507.805C544.486 499.486 548.9 490.749 551.153 480.375C553.729 468.509 553.763 456.313 553.844 444.18C554.048 444.008 554.187 443.786 554.189 443.518C554.212 440.014 554.144 436.516 554.009 433.019C554.021 432.655 554.028 432.292 554.04 431.929C554.045 431.791 554.009 431.678 553.944 431.586C553.901 430.615 553.86 429.644 553.809 428.672C553.7 411.919 554.397 395.197 556.638 378.582C556.684 378.529 556.725 378.474 556.771 378.422C557.133 378.317 557.449 378.155 557.579 377.958C560.539 373.428 563.082 368.737 565.154 363.739C567.7 357.6 568.475 351.178 569.944 344.775C570.06 344.673 570.143 344.56 570.165 344.438C571.956 334.705 578.004 326.663 581.106 317.401C582.211 314.409 583.67 310.673 583.152 307.516ZM454.207 416.07C452.685 414.284 451.21 412.455 449.824 410.544C449.748 410.44 449.603 410.381 449.422 410.36C450.463 407.654 451.345 404.871 452.046 402.004C453.278 406.61 453.956 411.297 454.207 416.07ZM450.005 382.374C449.96 382.437 449.924 382.502 449.908 382.57C449.749 383.26 449.661 383.927 449.625 384.574C449.577 384.832 449.536 385.089 449.487 385.348C449.469 385.443 449.519 385.511 449.612 385.559C449.838 391.591 455.336 395.449 461.396 395.599C458.792 397.025 455.718 397.091 452.768 396.583C450.936 395.313 448.974 394.246 447.115 393.02C447.109 393.017 447.107 393.012 447.102 393.009C440.47 388.182 435.404 381.677 429.488 376.064C429.432 375.967 429.364 375.87 429.274 375.778C422.82 369.216 417.231 361.644 407.886 359.296C425.265 322.963 419.876 280.034 407.52 242.417C407.469 242.264 407.356 242.158 407.211 242.086C408.961 240.872 410.649 239.547 412.271 238.113C414.622 236.035 416.513 233.7 418.079 231.19C418.486 283.794 458.503 329.077 450.005 382.374ZM401.194 344.694C401.171 344.64 401.139 344.593 401.103 344.551C401.672 343.336 399.197 343.271 398.645 344.281C394.361 352.09 387.778 358.053 380.552 363.109C372.717 368.591 363.117 373.541 353.35 371.817C360.333 365.479 365.466 358.13 369.191 350.131C369.518 349.903 369.656 349.541 369.646 349.168C379.791 326.562 379.021 298.975 377.34 274.547C377.329 274.385 377.281 274.25 377.211 274.134C381.484 267.232 384.697 259.558 386.335 251.125L385 250.867C385.576 250.776 386.147 250.674 386.714 250.565C393.294 249.393 399.487 246.986 405.11 243.464C418.208 283.519 423.436 329.589 401.277 367.154C401.45 366.489 401.597 365.82 401.72 365.147C402.099 363.691 402.349 362.22 402.52 360.739C402.638 360.622 402.716 360.492 402.722 360.352C402.963 355.135 403.311 349.594 401.194 344.694ZM400.345 354.067C400.344 354.074 400.339 354.081 400.339 354.087C400.339 354.806 400.33 355.522 400.317 356.239C398.649 355.462 397.025 354.606 395.465 353.623C395.243 353.483 395.024 353.426 394.817 353.422C396.485 351.54 398.022 349.541 399.397 347.411C400.032 349.566 400.281 351.807 400.345 354.067ZM344.207 350.484C337.74 348.098 330.365 348.838 324.428 352.32C322.718 351.317 321.419 349.889 320.457 348.149C320.293 347.851 320.069 347.672 319.823 347.58C317.59 337.322 316.238 326.918 316.686 316.361C320.732 315.336 324.781 314.059 328.762 312.53C345.098 306.252 363.214 294.444 374.961 277.57C376.463 300.614 376.965 326.506 367.696 347.881C363.679 348.726 359.718 349.809 355.698 350.629C355.417 350.312 354.987 350.14 354.448 350.309C351.805 351.138 349.155 351.941 346.473 352.632C346.479 352.547 346.488 352.462 346.492 352.376C346.516 352.252 346.517 352.127 346.502 352.005C346.507 351.788 346.514 351.571 346.509 351.351C346.481 350.04 344.894 349.754 344.207 350.484ZM297.131 419.352C297.078 419.182 296.987 419.013 296.851 418.854C295.914 417.762 295.022 416.561 294.194 415.288C294.159 415.226 294.121 415.168 294.077 415.112C291.799 411.56 290.058 407.439 289.402 403.385C289.531 403.29 289.652 403.167 289.752 403.004C290.943 401.087 292.927 399.97 295.067 399.322C295.248 399.361 295.449 399.36 295.669 399.303C295.931 399.347 296.218 399.293 296.512 399.088C298.292 398.653 300.092 398.381 301.882 398.327C302.072 398.377 302.287 398.379 302.523 398.314C304.112 398.313 305.689 398.492 307.231 398.895C307.467 399.24 307.873 399.448 308.326 399.494C308.671 399.53 309.014 399.57 309.356 399.613C309.861 399.821 310.361 400.049 310.855 400.313C310.966 400.373 311.075 400.41 311.183 400.437C311.01 401.141 311.477 401.633 312.077 401.78C312.944 407.446 312.241 412.955 309.766 418.178C309.547 418.273 309.345 418.434 309.185 418.682C307.77 420.895 306.026 422.82 303.236 422.882C300.824 422.936 298.684 420.962 297.131 419.352ZM301.38 425.181C301.453 437.943 299.945 450.568 296.191 462.796C296.184 462.819 296.183 462.839 296.178 462.862C289.591 465.232 280.013 469.779 273.612 466.014C281.393 450.707 286.085 434.095 293.282 418.53C293.802 419.238 294.34 419.92 294.895 420.572C294.948 420.766 295.048 420.958 295.22 421.137C296.981 422.971 298.997 424.545 301.38 425.181ZM219.149 359.483C220.023 360.12 220.921 360.719 221.844 361.284C221.893 361.315 221.961 361.316 222.02 361.333C223.118 362.035 224.237 362.684 225.384 363.271C221.631 364.214 217.945 365.356 214.352 366.817C212.899 362.386 212.128 357.519 211.998 352.92C213.882 355.455 216.367 357.499 219.067 359.251C219.077 359.263 219.087 359.274 219.098 359.286C219.061 359.354 219.065 359.422 219.149 359.483ZM223.651 359.534C223.488 359.42 223.327 359.375 223.178 359.379C218.455 356.62 214.068 353.114 212.124 347.833C212.165 347.349 212.208 346.868 212.264 346.398C212.384 345.391 209.839 345.863 209.737 346.716C209.689 347.114 209.655 347.522 209.619 347.929C209.518 348.051 209.473 348.182 209.519 348.312C209.534 348.355 209.553 348.395 209.569 348.437C208.911 356.859 210.566 366.895 214.803 374.229C203.074 365.457 197.942 350.8 195.094 336.903C193.445 328.854 192.587 320.675 192.142 312.465C192.386 312.334 192.546 312.176 192.531 312.005C192.003 305.997 191.729 299.992 191.678 293.994C191.678 293.968 191.678 293.943 191.678 293.919C191.467 267.897 195.471 242.003 201.238 216.61C202.946 209.092 204.8 201.632 206.893 194.266C209.459 195.878 211.956 197.655 214.582 199.164C214.539 199.284 214.59 199.395 214.791 199.478C215.27 199.676 215.745 199.881 216.217 200.092C217.434 200.952 218.674 201.776 219.935 202.573C219.855 202.826 220.003 203.059 220.374 203.129C220.53 203.159 220.699 203.165 220.868 203.153C221.096 203.294 221.322 203.439 221.552 203.577C221.729 203.685 221.961 203.722 222.206 203.709C222.356 203.752 222.538 203.76 222.737 203.739C223.172 203.821 223.693 203.76 224.05 203.5C224.682 203.039 225.317 202.591 225.957 202.157C221.854 209.403 219.119 217.308 217.865 225.96C216.866 232.844 216.623 239.804 216.852 246.769C216.789 246.816 216.722 246.858 216.659 246.905C216.442 247.069 216.628 247.134 216.865 247.133C217.092 253.581 217.725 260.03 218.563 266.423C218.418 266.569 218.332 266.735 218.347 266.918C220.198 289.369 229.442 311.394 239.624 331.288C245.735 343.227 255.346 359.448 270.082 360.896C262.224 364.502 253.776 366.377 245.271 366.127C245.099 366.088 244.924 366.082 244.753 366.108C242.101 366.003 239.445 365.695 236.8 365.161C232.214 363.725 227.634 362.328 223.651 359.534ZM204.814 192.912C204.838 192.96 204.876 193.007 204.925 193.053C202.632 200.957 200.611 208.975 198.748 217.064C196.768 225.665 195.013 234.336 193.552 243.055C179.356 238.516 172.591 223.141 174.538 208.918C176.447 194.976 192.37 181.516 205.557 190.879C205.45 191.238 205.35 191.598 205.244 191.957C204.626 192.27 204.508 192.704 204.814 192.912ZM244.659 193.764C239.8 197.702 236.597 203.875 236.48 210.791C236.378 216.745 238.525 222.263 242.522 226.326C246.169 230.034 250.985 232.077 256.084 232.077H256.193C267.251 232.013 276.412 222.371 276.612 210.582C276.685 206.317 275.6 202.279 273.512 198.836C276.751 200.789 279.659 203.176 281.948 206.085C282.111 206.292 282.384 206.388 282.692 206.4C283.262 206.925 285.223 206.342 285.071 205.457C284.923 204.586 284.664 203.765 284.32 202.986C285.206 203.304 286.877 202.502 286.267 201.642C286.2 201.547 286.121 201.464 286.052 201.37C286.238 201.182 286.32 200.954 286.22 200.715C283.876 195.065 278.287 190.481 272.242 187.625C272.859 186.321 273.225 184.944 273.572 183.553C276.139 185.432 278.354 187.712 280.029 190.431C280.492 191.182 282.878 190.275 282.556 189.754C280.517 186.446 277.458 183.809 274.046 181.704C274.091 181.54 274.134 181.375 274.182 181.211C274.57 179.871 272.743 179.875 272.002 180.528C269.829 179.355 267.572 178.371 265.382 177.553C261.398 176.065 257.184 175.369 252.95 175.291C259.837 169.553 267.136 164.249 274.423 159.175C282.863 153.298 291.847 146.907 296.859 137.773C296.904 139.309 296.999 140.84 297.175 142.367C296.858 149.009 295.699 155.328 292.377 161.105C290.011 163.643 287.185 165.87 283.796 167.677C282.292 168.478 284.522 168.948 285.381 168.491C287.459 167.383 289.34 166.127 291.041 164.744C291.667 164.742 292.488 164.52 292.74 164.18C293.4 163.29 293.993 162.383 294.539 161.463C302.146 153.246 305.126 141.915 306.025 130.395C308.278 137.713 313.142 143.783 318.961 149.106C327.945 157.322 338.571 163.739 348.192 171.168C349.498 172.176 350.798 173.211 352.088 174.269C348.748 174.585 345.45 175.308 342.28 176.506C339.993 177.37 337.642 178.414 335.385 179.661C334.861 179.166 332.729 179.675 332.975 180.515C333.024 180.68 333.067 180.847 333.113 181.012C329.757 183.163 326.762 185.827 324.741 189.131C324.019 190.311 326.595 190.294 327.148 189.387C328.731 186.798 331.026 184.671 333.604 182.899C333.984 184.396 334.395 185.874 335.114 187.258C329.018 190.174 323.399 194.77 321.069 200.444C321.01 200.588 321.16 200.669 321.406 200.702C321.265 200.888 321.111 201.061 320.976 201.253C320.216 202.333 322.795 202.29 323.373 201.47C323.782 200.888 324.228 200.35 324.696 199.833C323.45 201.402 322.55 203.161 322.222 205.125C322.056 206.12 324.53 205.709 324.739 204.852C325.043 204.766 325.301 204.649 325.426 204.488C327.151 202.279 329.24 200.374 331.555 198.729C329.628 202.1 328.596 205.979 328.633 210.031C328.736 221.708 337.694 231.209 348.602 231.209L348.769 231.208C354.103 231.161 359.098 228.891 362.831 224.817C366.556 220.752 368.581 215.375 368.529 209.678C368.469 202.745 365.286 196.58 360.427 192.715C361.114 192.74 361.8 192.77 362.484 192.811C366.075 193.676 369.548 194.94 372.898 196.542C380 207.468 383.643 220.009 380.275 234.196C380.226 234.402 380.262 234.562 380.349 234.687C378.945 239.592 376.548 244.135 372.771 248.02C372.601 248.196 372.52 248.354 372.497 248.497C372.007 248.734 371.682 249.027 371.93 249.178C372.467 249.507 373.02 249.784 373.583 250.026C373.777 250.032 373.974 250.076 374.178 250.177C374.248 250.212 374.301 250.262 374.345 250.317C377.291 251.385 380.51 251.435 383.673 251.049C377.631 281.062 350.908 301.218 327.823 310.089C323.754 311.653 319.613 312.94 315.481 313.962C315.303 313.937 315.107 313.937 314.882 313.988C308.585 315.427 302.282 316.223 295.819 315.896C295.644 315.887 295.468 315.92 295.297 315.976C295.061 315.962 294.826 315.955 294.59 315.939C293.507 315.788 292.412 315.686 291.323 315.649C284.476 314.909 277.611 313.309 270.891 310.927C270.728 310.86 270.572 310.783 270.407 310.719C270.356 310.7 270.294 310.69 270.225 310.685C268.643 310.112 267.068 309.5 265.505 308.84C265.504 308.829 265.502 308.82 265.5 308.809C265.453 308.446 265 308.332 264.491 308.388C264.457 308.331 264.427 308.272 264.393 308.215C264.247 307.973 263.877 307.905 263.47 307.949C247.993 301.02 233.653 289.971 222.563 275.897C221.026 266.078 219.816 256.186 219.523 246.276L219.521 246.275C219.037 245.792 219.169 245.078 219.359 244.489C219.386 244.407 219.424 244.339 219.47 244.283C219.366 238.112 219.632 231.937 220.426 225.77C221.689 215.966 225.175 207.312 230.263 199.48C234.846 196.87 239.63 194.936 244.659 193.764ZM243.513 183.76C246.026 181.325 248.629 178.971 251.308 176.69C258.002 176.827 265.046 178.444 270.831 181.772C269.391 183.22 267.505 184.72 265.562 185.223C264.636 184.993 263.719 184.798 262.83 184.665C256.548 183.726 250.01 183.422 243.513 183.76ZM354.052 175.908C356.698 178.155 359.276 180.51 361.73 182.972C356.116 182.872 350.504 183.248 345.075 184.08C344.998 184.092 344.917 184.11 344.839 184.122C344.683 184.125 344.539 184.144 344.429 184.171C344.353 184.19 344.283 184.218 344.208 184.238C343.595 184.351 342.974 184.485 342.345 184.64C340.272 184.161 338.226 182.559 336.664 181.013C338.424 180.039 340.234 179.197 341.984 178.457C345.829 176.836 349.923 176.052 354.052 175.908ZM316.157 360.911C315.202 362.384 314.308 363.892 313.485 365.445C313.298 365.551 313.129 365.718 313.005 365.969C312.933 366.112 312.861 366.254 312.789 366.397C312.623 366.416 312.448 366.468 312.273 366.567C309.929 367.882 307.857 369.61 305.514 370.925C304.042 371.75 305.361 374.01 306.834 373.183C308.134 372.455 309.351 371.6 310.577 370.758C306.561 378.579 302.459 386.35 299.898 394.806C299.831 395.028 299.825 395.229 299.857 395.412C299.32 395.403 298.786 395.426 298.251 395.523C298.243 395.41 298.238 395.3 298.222 395.182C297.984 393.515 296.684 392.194 296.097 390.665C295.959 390.305 295.716 390.07 295.434 389.932C292.182 384.147 288.738 378.464 284.853 373.118C287.192 373.91 289.566 374.6 291.871 375.494C293.446 376.105 294.122 373.577 292.567 372.972C289.264 371.691 285.812 370.84 282.537 369.486C282.35 369.408 282.176 369.379 282.017 369.385C280.229 367.135 278.347 364.96 276.347 362.881C276.475 362.478 276.423 362.016 276.065 361.615C275.637 361.137 275.178 360.665 274.7 360.202C275.008 359.865 274.998 359.554 274.183 359.59C274.135 359.591 274.088 359.589 274.04 359.591C273.562 359.159 273.063 358.742 272.545 358.341C271.014 350.418 270.691 342.453 269.841 334.449C269.241 328.805 268.044 323.25 266.977 317.673C272.036 326.603 280.356 333.88 289.789 337.577C295.25 339.719 301.663 342.364 307.676 341.237C310.073 340.787 313.488 339.865 315.399 337.894C316.324 344.148 317.678 350.349 319.273 356.506C318.222 357.613 317.246 358.787 316.369 360.05C316.16 360.35 316.109 360.644 316.157 360.911ZM260.458 354.33C260.151 354.369 259.902 354.493 259.708 354.665C250.857 347.941 244.632 335.752 240.353 327.017C233.184 312.388 226.529 296.747 223.058 280.621C234.101 293.643 247.912 303.9 262.741 310.477C262.931 310.853 263.11 311.234 263.276 311.619C264.357 318.947 266.064 326.165 267.108 333.501C268.193 341.119 268.357 348.77 269.55 356.366C266.743 354.819 263.612 353.926 260.458 354.33ZM269.137 359.162C267.065 358.722 265.102 357.966 263.242 356.956C265.317 357.221 267.315 358.038 269.137 359.162ZM271.541 361.815C281.011 370.696 287.878 381.684 294.143 392.98C294.314 393.289 294.549 393.47 294.805 393.558C295.423 394.661 295.928 395.836 295.469 396.537C293.601 396.979 291.8 397.679 290.269 398.764C290.186 398.714 290.096 398.67 289.996 398.635C272.934 392.66 257.58 382.286 246.817 367.672C255.317 367.549 263.747 365.475 271.541 361.815ZM310.548 421.297C310.896 421.26 311.228 421.068 311.446 420.656C311.972 419.661 312.431 418.656 312.839 417.643C314.49 420.719 316.837 423.578 318.747 426.393C322.173 431.445 325.768 436.381 329.356 441.317C335.459 449.715 341.712 458.063 348.082 466.268C348.049 466.299 348.016 466.324 347.985 466.359C345.979 468.666 336.653 464.615 334.313 463.824C330.065 462.39 321.389 461.668 320.082 456.912C320.039 456.754 319.972 456.626 319.895 456.511C315.873 445.667 310.508 435.302 307.964 423.962C308.947 423.225 309.807 422.286 310.548 421.297ZM312.561 397.98C312.419 397.701 312.159 397.475 311.755 397.379C311.183 397.243 310.603 397.147 310.019 397.07C307.821 396.22 305.539 395.805 303.23 395.731C303.07 395.654 302.893 395.599 302.685 395.589C302.587 395.585 302.49 395.576 302.391 395.571C302.4 395.546 302.412 395.527 302.42 395.501C305.215 386.272 309.902 377.883 314.24 369.325C314.428 369.217 314.595 369.048 314.717 368.791C316.247 365.565 318.103 362.55 320.168 359.638C320.286 359.472 320.355 359.306 320.387 359.147C320.663 358.831 320.949 358.524 321.24 358.221C321.808 358.037 322.29 357.699 322.193 357.333L322.18 357.283C322.481 356.996 322.782 356.71 323.095 356.433C323.186 356.353 323.257 356.269 323.316 356.183C323.38 356.149 323.443 356.115 323.507 356.066C329.224 351.727 337.107 350.348 343.802 353.114C343.246 357.767 340.265 362.194 338.067 366.207C335.458 370.969 332.336 375.433 329.082 379.772C325.612 384.398 322.581 390.014 317.922 393.552C315.969 395.034 313.988 396.192 312.561 397.98ZM321.128 353.17C321.427 353.436 321.743 353.681 322.068 353.918C321.947 354.031 321.852 354.156 321.784 354.289C321.669 354.321 321.555 354.372 321.444 354.441C321.336 354.017 321.232 353.593 321.128 353.17ZM420.607 231.155C420.596 230.358 420.592 229.56 420.599 228.761C420.601 228.569 420.087 228.539 419.524 228.629C421.769 224.302 423.235 219.562 424.454 214.736C425.148 220.642 425.045 226.898 420.607 231.155ZM436.238 179.235C438.317 194.74 435.116 209.954 426.984 222.935C427.676 218.384 426.941 213.43 426.233 208.81C426.204 208.62 426.105 208.483 425.969 208.385C426.111 207.777 426.251 207.169 426.393 206.564C426.574 205.795 424.057 206.2 423.882 206.943C421.662 216.387 419.879 226.086 413.906 234.012C407.973 241.883 398.22 247.1 388.467 249.142C388.312 249.142 388.14 249.16 387.943 249.202C386.945 249.418 385.917 249.611 384.873 249.759C384.25 249.839 383.628 249.909 383.01 249.962C380.262 250.166 377.499 249.914 375.048 248.666C381.928 241.493 384.449 232.092 384.571 222.331C384.576 221.943 384.368 221.696 384.074 221.563C383.76 213.415 381.236 205.834 377.278 198.855C379.112 199.922 380.904 201.091 382.659 202.344C382.656 202.355 382.655 202.366 382.652 202.376C382.643 202.414 382.643 202.447 382.654 202.476C382.295 202.862 383.05 202.937 383.287 202.921C383.676 202.897 384.126 202.798 384.508 202.611C384.538 202.598 384.568 202.586 384.598 202.572C384.606 202.568 384.614 202.564 384.621 202.56C384.719 202.511 384.811 202.456 384.894 202.397C385.12 202.448 385.401 202.431 385.685 202.372C386.577 202.521 388.327 201.805 387.707 201.266C387.602 201.174 387.497 201.085 387.392 200.994C388.176 200.49 388.951 199.972 389.719 199.446C394.035 197.381 397.869 194.338 401.997 191.928C402.48 191.647 402.572 191.376 402.45 191.156C402.689 190.989 402.771 190.833 402.517 190.754C394.956 188.39 387.49 185.749 379.752 184.009C380.923 180.851 381.458 177.591 381.981 174.177C382.177 172.907 379.893 173.53 379.507 174.181C377.654 177.305 374.532 179.029 371.492 180.812C370.104 181.626 368.574 182.542 366.974 183.209C366.414 183.169 365.853 183.135 365.29 183.104C362.9 180.611 360.379 178.223 357.777 175.947C359.972 176.067 362.157 176.347 364.303 176.77C365.51 177.008 366.875 175.321 365.192 174.99C362.034 174.368 358.808 174.052 355.591 174.088C346.025 166.065 335.508 159.308 325.675 151.635C316.814 144.72 308.973 136.145 307.473 124.751C327.557 123.883 347.743 124.047 367.718 125.46C381.471 126.432 395.566 127.955 408.967 131.295C409.453 131.417 409.943 131.531 410.43 131.649C413.447 133.342 416.446 135.112 419.149 137.25C419.128 137.433 419.206 137.62 419.442 137.792C425.361 142.106 428.273 149.607 430.638 156.267C433.273 163.685 435.192 171.439 436.238 179.235ZM201.1 35.8018C221.2 16.2065 248.336 5.00201 277.51 4.25324L277.502 3.95949C305.237 1.22069 332.398 8.22895 354.332 23.8703C376.422 39.6206 390.678 62.3155 394.685 87.9976C378.363 80.9606 360.753 79.1719 343.099 77.7642C320.891 75.9929 299.233 75.8265 277.031 78.0187C254.968 80.197 233.116 83.4318 211.727 89.354C202.254 91.9768 192.952 95.1009 183.737 98.5066C179.418 100.103 174.604 101.785 171.022 104.82C171.199 79.0159 181.803 54.6125 201.1 35.8018ZM170.935 107.944L171.046 107.942C171.043 107.821 171.044 107.703 171.042 107.582C174.911 102.678 182.178 100.931 187.742 98.7881C197.259 95.1227 207.165 92.2715 217.014 89.6538C237.129 84.3061 257.802 81.6309 278.482 79.5886C299.324 77.5306 319.794 77.7162 340.642 79.3776C359.233 80.8595 377.945 82.4991 395.035 90.4453C395.04 90.4898 395.048 90.5342 395.053 90.5787L395.263 90.5516C395.73 90.7704 396.199 90.9744 396.663 91.2028C396.782 91.2603 396.921 91.29 397.073 91.2969C404.265 97.5547 409.718 105.52 416.416 112.278C410.37 110.082 403.821 109.039 397.479 107.739C373.199 102.763 348.407 100.368 323.634 100.205C284.947 99.95 246.174 105.586 209.045 116.389C194.838 120.522 180.792 125.429 167.27 131.448C165.537 132.219 163.812 133.018 162.109 133.859C164.718 125.109 167.973 116.577 170.935 107.944ZM145.662 164.912C141.858 166.801 138.149 168.787 134.689 171.14C141.77 161.704 148.793 152.204 156.42 143.207C158.965 140.205 160.875 135.843 164.326 134.197C171.064 130.984 178.012 128.203 185.005 125.599C216.734 113.788 250.204 106.546 283.875 103.299C313.371 100.455 343.181 101.094 372.54 105.072C380.372 106.134 388.163 107.491 395.913 109.045C403.416 110.55 411.783 111.678 418.688 115.074C419.289 115.369 419.869 115.694 420.445 116.026C420.576 116.137 420.702 116.254 420.834 116.364C420.927 116.44 421.065 116.479 421.225 116.491C429.36 121.482 435.107 129.816 442.09 136.43C442.108 136.489 442.143 136.547 442.211 136.6C442.322 136.688 442.439 136.767 442.551 136.853C442.842 137.124 443.132 137.398 443.429 137.661C435.506 134.46 426.938 132.675 418.684 130.756C406.036 127.815 393.427 125.38 380.506 123.948C353.292 120.931 325.519 121.205 298.215 122.689C271.343 124.15 244.527 127.532 218.512 134.567C205.793 138.006 193.363 142.458 181.227 147.57C169.025 152.707 157.498 159.036 145.662 164.912ZM151.101 401.642C151.094 401.522 150.882 401.474 150.587 401.476C150.701 401.201 150.548 400.966 149.888 400.942C143.41 400.7 137.442 396.432 134.033 391.045C138.816 391.514 143.375 389.811 146.532 386.401C146.584 386.361 146.629 386.32 146.665 386.275C146.708 386.222 146.744 386.166 146.786 386.113C147.78 384.982 148.633 383.685 149.287 382.218C149.352 382.071 149.369 381.946 149.348 381.844C150.232 379.829 150.797 377.68 151.085 375.433C151.099 375.324 151.08 375.234 151.045 375.155C151.253 373.705 151.4 372.246 151.504 370.777C151.511 370.683 151.503 370.599 151.486 370.52C151.779 366.812 151.894 363.089 152.504 359.408C152.934 356.816 153.851 354.362 154.821 351.922C154.839 351.893 154.857 351.864 154.868 351.833C154.884 351.781 154.902 351.731 154.917 351.679C155.81 349.439 156.736 347.208 157.358 344.89C157.386 344.785 157.378 344.699 157.35 344.623C164.071 326.318 173.311 308.474 173.092 288.721C173.171 288.594 173.219 288.449 173.219 288.288C173.207 286.707 173.129 285.129 173.035 283.55C173.089 283.465 173.12 283.377 173.111 283.282C173.033 282.353 172.942 281.425 172.852 280.496C172.829 280.091 172.803 279.686 172.782 279.281C172.776 279.155 172.743 279.049 172.699 278.951C168.909 242.347 157.053 206.312 161.18 169.277C161.234 169.188 161.277 169.095 161.294 168.992C161.824 165.602 162.249 162.199 162.981 158.845C163.272 158.698 163.559 158.548 163.85 158.403C176.174 152.248 188.868 146.842 201.886 142.334C228.121 133.251 255.562 128.612 283.165 126.296C290.015 125.72 296.891 125.26 303.782 124.918C303.559 134.441 302.253 144.297 298.186 152.578C299.172 148.776 299.6 144.812 299.744 140.738C299.812 140.675 299.851 140.596 299.836 140.51C299.812 140.366 299.788 140.222 299.764 140.078C299.785 139.279 299.802 138.476 299.805 137.669C299.806 137.534 299.724 137.44 299.594 137.378C299.535 136.74 299.464 136.106 299.384 135.491C299.333 135.101 299.129 134.042 298.72 133.746C298.771 133.615 298.83 133.49 298.879 133.359C299.383 131.986 296.85 132.012 296.462 133.068C291.777 145.838 279.437 153.318 268.814 160.76C262.34 165.295 255.944 170.149 249.86 175.339C247.43 175.463 245.01 175.777 242.64 176.253C241.54 176.474 240.492 177.805 242.243 177.454C244.14 177.072 246.151 176.832 248.222 176.732C245.536 179.075 242.918 181.486 240.393 183.972C240.305 183.979 240.217 183.986 240.13 183.994C238.685 183.329 237.301 182.5 236.019 181.771C232.798 179.938 229.595 178.071 227.647 174.816C227.214 174.093 225.075 174.784 225.213 175.659C225.732 178.971 226.251 182.134 227.38 185.199C221.055 186.71 214.903 188.789 208.723 190.796C208.762 190.604 208.698 190.404 208.462 190.215C208.356 190.13 208.246 190.058 208.139 189.976C213.951 170.551 221.62 151.868 233.067 134.729C233.232 134.482 230.984 134.573 230.577 135.183C219.458 151.829 211.967 169.892 206.226 188.677C201.56 185.932 196.262 185.59 191.263 186.935C191.892 173.535 195.107 160.46 200.308 148.107C200.826 146.877 198.293 147.088 197.928 147.956C192.592 160.632 189.26 174.019 188.691 187.784C181.815 190.486 175.866 196.309 173.496 203.274C167.869 219.812 175.522 240.182 193.238 244.941C190.768 260.152 189.254 275.506 189.156 290.893C189.134 290.959 189.12 291.027 189.12 291.099C189.126 306.649 189.574 322.271 192.566 337.576C194.854 349.284 199.032 361.499 207.12 370.42C207.11 370.426 207.1 370.429 207.089 370.436C195.073 378.063 188.244 390.83 186.604 404.734C184.679 409.256 181.327 412.815 178.761 417.012C175.751 421.934 176.367 427.666 173.963 432.684C171.419 436.018 170.387 440.185 168.472 443.869C167.155 446.403 164.876 448.113 163.261 450.364C156.543 434.867 152.042 418.565 151.101 401.642ZM168.59 461.488C170.579 462.511 172.636 463.401 174.352 464.112C173.983 466.04 173.608 467.967 173.226 469.892C171.623 467.123 170.071 464.325 168.59 461.488ZM6.72632 661.161C7.21123 660.504 7.70835 659.856 8.20286 659.207C10.9554 659.936 13.844 659.983 16.7674 659.648C13.9879 661.905 10.2376 662.389 6.72632 661.161ZM200.83 536.772C200.715 536.843 200.613 536.927 200.536 537.029C194.897 544.51 189.5 552.177 183.351 559.257C176.732 566.88 168.887 573.457 160.764 579.415C145.42 590.671 128.344 599.301 112.295 609.47C112.128 609.576 112.013 609.68 111.933 609.781C108.793 611.678 105.72 613.875 103.415 616.657C103.415 616.638 103.416 616.617 103.416 616.598C103.41 615.501 100.88 616.035 100.885 616.899C100.893 618.295 100.828 619.675 100.73 621.048C100.681 621.194 100.674 621.32 100.703 621.424C100.243 627.336 98.8728 633.066 97.0029 638.757C95.3083 643.914 92.1511 649.139 91.3138 654.526C91.1062 654.651 90.9684 654.797 90.9702 654.964C90.9772 655.677 91.0295 656.377 91.1054 657.071C91.1054 657.166 91.0975 657.262 91.0993 657.357C91.1002 657.425 91.1228 657.481 91.1542 657.531C91.4734 659.997 92.1729 662.361 92.9709 664.766C93.5029 666.369 93.9896 667.962 94.655 669.518C95.1513 670.678 96.0775 671.388 96.4456 672.651C96.4526 672.675 96.47 672.695 96.4848 672.714C96.3863 672.783 96.3095 672.86 96.2642 672.944C94.5678 676.089 87.1135 671.548 85.569 670.351C82.6525 668.091 80.9684 664.56 79.7177 661.091C78.808 657.366 78.5743 651.502 75.4153 649.131C75.1249 648.857 74.8066 648.609 74.4621 648.384C74.401 648.22 74.2667 648.065 74.0181 647.93C64.2413 642.612 54.1715 646.442 44.4705 649.922C43.1998 650.245 41.936 650.589 40.6758 650.946C39.5202 651.181 38.3724 651.557 37.2307 651.968C35.7725 652.419 34.3195 652.891 32.8717 653.382C24.1834 655.714 13.4611 660.597 5.35533 654.771C5.17828 654.644 4.95324 654.581 4.70904 654.561C3.67902 653.489 2.99876 652.246 3.48193 651.182C9.77277 649.055 15.6859 645.979 21.9236 643.694C29.4904 640.922 37.1322 638.408 44.4391 634.979C46.5611 633.982 44.6118 632.867 43.103 633.576C36.7799 636.543 30.2082 638.861 23.6339 641.198C21.9306 641.803 20.2491 642.468 18.5771 643.158C25.509 631.569 37.4645 624.392 49.3999 618.775C55.7928 615.768 62.3897 613.221 68.7154 610.068C72.4038 608.231 75.8889 606.018 79.3487 603.769C79.5668 603.73 79.7665 603.668 79.9069 603.583C82.3202 602.128 84.9619 601.11 87.3473 599.607C88.3023 599.006 87.6368 598.741 86.8702 598.763C86.8807 598.721 86.8833 598.682 86.8754 598.645C87.9639 597.681 88.9825 596.636 90.037 595.614C90.5777 595.09 90.1312 594.9 89.5163 594.909C90.296 594.021 91.0417 593.11 91.7063 592.135C91.9217 592.025 92.0979 591.884 92.1903 591.712C100.758 575.748 111.546 561.253 123.708 547.853C129.671 541.282 135.98 535.031 142.424 528.934C149.997 521.767 157.358 515.089 166.943 510.714C167.011 510.684 167.066 510.651 167.124 510.619C167.396 510.517 167.645 510.38 167.789 510.178C167.939 509.966 168.058 509.743 168.17 509.516C168.361 509.376 168.504 509.205 168.557 509.007C168.891 507.774 169.204 506.536 169.538 505.302C169.604 505.057 169.526 504.886 169.367 504.775C171.149 491.418 174.024 478.249 176.583 465.025C177.096 465.233 177.522 465.408 177.831 465.548C184.728 468.637 191.314 472.037 198.49 474.5C206.465 477.237 214.938 481.064 223.451 481.63C224.715 485.797 226.247 489.886 227.994 493.855C217.969 507.549 211.377 523.434 200.83 536.772ZM230.795 530.814C228.626 529.179 226.682 527.281 224.853 525.264C224.747 525.148 224.581 525.083 224.389 525.056C224.379 524.984 224.371 524.911 224.362 524.839C224.266 524.127 221.722 524.686 221.835 525.516C222.049 527.094 222.217 528.885 221.998 530.543C220.887 526.368 218.524 522.663 215.864 519.192C215.712 518.992 215.311 518.968 214.88 519.047C219.424 511.241 223.731 503.278 228.907 495.87C228.918 495.892 228.926 495.914 228.937 495.936C228.929 496.06 228.933 496.188 228.963 496.326C230.295 502.397 230.741 508.594 233.135 514.316C233.109 514.558 233.157 514.82 233.31 515.088C233.668 515.715 234.024 516.345 234.375 516.976C234.254 517.154 234.17 517.367 234.149 517.625C233.774 522.255 232.428 526.521 230.795 530.814ZM211.94 619.195C213.571 614.058 216.798 609.643 219.444 605.002C222.239 600.096 223.085 594.624 224.695 589.287C226.05 584.796 229.435 581.46 231.314 577.295C231.544 577.17 231.723 576.999 231.86 576.794C231.86 576.798 231.86 576.801 231.859 576.805C231.863 576.796 231.866 576.787 231.87 576.779C231.975 576.62 232.049 576.441 232.098 576.245C232.159 576.094 232.216 575.94 232.271 575.788C232.588 576.183 232.933 576.562 233.304 576.919C233.469 577.079 233.707 577.155 233.968 577.176C237.338 579.653 241.353 580.765 245.547 581.316C245.565 581.349 245.579 581.384 245.597 581.417C245.848 581.885 246.709 581.834 247.332 581.52C251.364 581.91 255.49 581.911 259.298 582.221C260.643 582.33 261.986 582.445 263.329 582.56C263.314 583.477 263.285 584.404 263.486 585.302C263.506 585.395 263.559 585.461 263.612 585.525C262.405 599.71 257.748 613.113 254.053 626.789C252.654 631.968 251.256 637.377 248.131 641.821C243.679 648.157 234.56 645.063 227.923 642.816C227.842 642.74 227.724 642.671 227.553 642.615C220.601 640.284 212.847 639.042 207.304 633.877C207.237 633.815 207.151 633.771 207.057 633.737C209.3 629.093 210.384 624.095 211.94 619.195ZM233.969 563.144C234.39 563.435 234.772 563.701 235.087 563.935C235.708 564.396 236.315 564.166 236.666 563.69C238.395 564.203 240.142 564.553 241.902 564.798C239.651 568.685 240.954 574.512 242.149 578.722C239.357 577.985 236.744 576.756 234.536 574.64C233.981 573.94 233.531 573.175 233.32 572.327C233.481 572.21 233.581 572.076 233.578 571.928C233.499 568.97 233.32 566.016 233.969 563.144ZM243.686 574.133C243.04 570.993 242.786 567.564 244.051 565.055C244.378 565.088 244.706 565.121 245.034 565.15C244.094 568.026 243.553 571.11 243.686 574.133ZM261.971 580.661C258.315 580.347 254.656 580.072 250.988 579.875C249.85 579.814 248.706 579.74 247.568 579.63C245.528 575.198 245.993 569.952 247.434 565.335C250.707 565.558 253.993 565.707 257.243 566.225C257.523 566.461 257.894 566.599 258.335 566.537C258.492 566.515 258.643 566.518 258.799 566.504C259.286 566.602 259.772 566.707 260.256 566.827C260.689 566.933 261.053 566.833 261.328 566.625C261.685 566.686 262.039 566.761 262.389 566.851C259.645 570.916 260.169 576.199 261.971 580.661ZM264.926 580.921C264.914 580.92 264.902 580.918 264.89 580.917C264.884 580.9 264.883 580.883 264.875 580.866C263.01 576.742 261.984 571.479 264.572 567.529C264.881 567.64 265.19 567.749 265.498 567.862C263.805 571.919 263.625 576.713 264.926 580.921ZM205.869 635.685C211.577 640.429 219.129 641.764 226.027 644.075C226.253 644.151 226.562 644.122 226.87 644.028C232.224 645.716 237.624 647.211 243.279 645.953C249.086 644.661 251.889 640.103 253.91 634.89C256.627 627.88 258.27 620.267 260.348 613.047C263.102 603.481 265.479 593.842 266.208 583.893C266.266 583.603 266.314 583.312 266.344 583.016C266.571 583.004 266.823 582.957 267.067 582.884C267.593 582.931 268.12 582.976 268.647 583.024C268.641 583.047 268.629 583.07 268.625 583.093C268.516 583.718 268.524 584.367 268.605 585C266.315 604.759 261.196 623.968 255.082 642.853C254.894 642.99 254.767 643.152 254.76 643.339C254.752 643.569 254.726 643.795 254.702 644.021C254.503 644.631 254.307 645.24 254.106 645.849C254.058 645.997 254.086 646.111 254.16 646.198C253.605 647.503 252.636 648.556 251.127 649.059C234.916 653.094 215.936 652.858 204.313 639.222C204.299 639.206 204.279 639.198 204.264 639.184C204.837 638.036 205.375 636.872 205.869 635.685ZM379.429 563.166C380.115 562.931 380.798 562.689 381.474 562.429C384.183 566.269 386.361 571.128 385.489 575.811C385.145 575.869 384.809 575.959 384.477 576.067C385.127 571.104 383.482 566.232 379.429 563.166ZM381.907 577.018L381.9 577.021C381.76 577.081 381.602 577.186 381.467 577.315C375.465 578.346 369.491 579.319 363.527 580.19C363.726 580.078 363.868 579.94 363.89 579.774C364.606 574.506 365.181 568.598 360.348 565.202C363.108 564.452 365.77 563.997 368.628 564.643C370.324 565.026 371.695 565.211 373.404 564.845C374.574 564.595 375.77 564.288 376.969 563.942C381.101 567.033 382.651 572.018 381.907 577.018ZM361.362 580.451C361.359 580.468 361.367 580.482 361.382 580.495C361.366 580.498 361.35 580.501 361.333 580.503C360.859 575.712 361.629 570.096 357.879 566.521C357.156 565.831 354.765 566.818 355.546 567.562C359.061 570.916 358.4 576.296 358.78 580.862C341.442 583.233 324.132 584.65 306.364 584.021C293.799 583.575 281.257 582.515 268.749 581.284C268.424 581.251 268.098 581.222 267.773 581.191C266.29 577.205 266.21 572.627 267.575 568.584C270.062 569.36 272.886 569.537 275.465 569.815C280.997 570.412 286.674 570.872 292.236 570.966C297.707 571.058 302.732 569.759 308.023 568.56C314.285 567.141 321.103 567.343 327.496 567.106C333.383 566.886 339.29 566.34 345.176 566.68C349.672 566.938 353.528 566.787 357.714 565.862C357.718 565.866 357.717 565.873 357.724 565.878C362.762 569.197 362.075 575.213 361.362 580.451ZM325.558 629.818C325.476 629.872 325.39 629.921 325.319 629.984C324.447 630.748 323.313 629.97 322.612 629.308C322.61 629.305 322.606 629.304 322.604 629.301C322.741 619.965 322.879 610.629 323.016 601.294C323.016 601.29 323.015 601.288 323.015 601.285C323.038 599.723 323.061 598.162 323.084 596.6C324.107 596.435 325.085 596.154 326.03 595.679C325.865 607.024 325.698 618.367 325.53 629.713C325.528 629.753 325.539 629.788 325.558 629.818ZM325.92 593.847C323.271 596.097 318.649 595.233 315.451 595.075C312.018 594.907 308.702 594.282 305.496 593.053C304.689 590.672 304.402 588.212 304.366 585.706C311.859 586.013 319.36 586.083 326.853 585.84C326.84 585.883 326.83 585.927 326.829 585.971C326.799 588.043 326.75 590.119 326.429 592.159C326.219 592.305 326.078 592.481 326.076 592.683C326.07 593.04 326.065 593.396 326.059 593.754C326.008 593.782 325.96 593.813 325.92 593.847ZM422.15 642.904C423.9 650.446 426.203 657.724 429.307 664.951C429.166 665.091 429.099 665.24 429.165 665.383C435.849 679.843 439.689 695.344 440.458 711.192C440.425 711.262 440.402 711.333 440.398 711.409C439.53 732.83 439.489 754.266 439.741 775.701C439.743 775.881 439.811 776.017 439.917 776.123C439.566 784.856 440.026 793.573 440.66 802.294C441.216 809.933 443.95 818.7 439.359 825.608C439.33 825.652 439.314 825.692 439.297 825.732C437.757 827.597 435.935 828.987 433.772 829.908C433.647 829.893 433.509 829.889 433.344 829.906C425.125 830.806 417.327 834.103 409.29 835.943C398.886 838.325 388.167 839.621 377.49 839.3C367.569 839.002 357.709 837.53 347.799 836.995C339.21 836.533 328.055 837.182 320.912 831.634C320.846 831.581 320.768 831.546 320.686 831.516C320.093 830.734 319.668 829.816 319.338 828.883C319.395 828.789 319.416 828.694 319.377 828.601C316.928 822.757 318.338 816.446 317.643 810.352C317.723 810.246 317.765 810.134 317.74 810.016C316.408 803.615 315.035 797.252 314.659 790.709C314.611 789.87 314.592 789.031 314.593 788.192C314.682 787.526 314.749 786.857 314.767 786.179C314.769 786.122 314.723 786.078 314.647 786.048C314.866 780.697 315.788 775.346 316.083 770.018C316.341 765.364 316.012 760.732 315.478 756.107C315.701 755.921 315.836 755.692 315.802 755.435C314.43 745.338 314.373 735.179 314.513 725.007C314.517 724.775 314.409 724.616 314.241 724.511C314.22 722.561 314.368 720.628 314.65 718.696C314.689 718.435 314.619 718.238 314.485 718.095C315.004 715.916 315.493 713.876 314.308 711.626C313.831 710.722 311.401 711.592 311.983 712.698C313.353 715.296 311.859 717.976 311.457 720.621C311.423 720.846 311.487 721.014 311.614 721.133C311.614 721.14 311.609 721.147 311.609 721.154C311.536 725.152 311.33 729.137 310.905 733.105C310.572 733.274 310.333 733.502 310.342 733.77C310.374 734.691 310.424 735.609 310.484 736.528C310.393 737.166 310.298 737.805 310.195 738.442C310.152 738.704 310.356 738.844 310.661 738.892C311.659 750.48 314.277 761.908 313.354 773.609C312.971 778.473 312.305 783.279 312.154 788.141C312.057 789.091 311.882 790.027 311.663 790.958C311.625 791.027 311.596 791.098 311.593 791.175C311.593 791.205 311.59 791.234 311.589 791.265C311.543 791.45 311.502 791.638 311.453 791.823C311.43 791.911 311.471 791.975 311.549 792.022C311.167 798.925 309.241 805.553 307.888 812.303C307.847 812.357 307.814 812.41 307.799 812.467C306.402 818.061 307.097 824.304 303.721 829.258C303.538 829.527 303.69 829.666 303.985 829.713C301.546 834.229 297.049 835.465 292.122 836.257C292.035 836.25 291.938 836.247 291.818 836.254C276.046 837.138 260.292 838.291 244.545 839.537C235.988 840.214 227.502 840.601 218.916 840.472C214.648 840.409 202.291 840.463 200.343 834.716C200.746 834.506 201.034 834.189 200.964 833.817C199.395 825.581 196.745 817.668 193.911 809.792C191.153 802.125 187.641 794.29 186.477 786.184C184.066 769.4 191.365 752.594 187.98 735.837C188.197 735.614 188.298 735.331 188.173 735.009C186.449 730.56 184.849 726.385 184.781 721.549C184.698 715.693 186.602 709.789 187.971 704.155C190.72 692.842 189.345 680.96 192.584 669.742C192.687 669.386 192.611 669.114 192.436 668.924C193.119 660.824 196.15 653.465 199.884 646.367C200.14 646.261 200.356 646.12 200.463 645.945C201.386 644.452 202.273 642.946 203.109 641.413C215.133 654.116 234.134 654.09 250.298 650.223C250.647 650.274 251.116 650.173 251.293 650.119C251.733 649.983 252.149 649.826 252.545 649.653C252.93 649.551 253.315 649.45 253.696 649.345C254.622 649.088 254.873 648.64 254.567 648.444C255.926 647.359 256.816 645.902 257.147 644.013C263.361 624.988 268.607 605.637 271.013 585.733C271.139 585.592 271.231 585.427 271.261 585.233C271.361 584.578 271.378 583.923 271.341 583.268C280.991 584.137 290.636 585.026 300.324 585.528C300.828 585.554 301.333 585.572 301.837 585.596C301.839 588.566 302.099 591.473 303.155 594.283C303.284 594.628 303.758 594.715 304.262 594.648C309.028 596.416 313.981 596.717 319.036 596.813C319.569 596.824 320.084 596.822 320.589 596.812C320.571 596.852 320.561 596.893 320.56 596.936C320.537 598.491 320.514 600.046 320.491 601.603C320.491 601.607 320.489 601.611 320.489 601.615C320.35 611.039 320.211 620.461 320.073 629.884C320.071 630.004 320.106 630.101 320.163 630.182C320.186 630.235 320.22 630.286 320.274 630.338C322.315 632.271 325.24 632.371 327.37 630.502C327.666 630.242 327.663 629.921 327.458 629.709C327.802 629.544 328.053 629.315 328.057 629.041C328.232 617.242 328.405 605.443 328.579 593.644C329.228 591.063 329.307 588.409 329.349 585.758C332.908 585.609 336.465 585.392 340.016 585.086C345.296 584.632 350.555 583.987 355.802 583.234C355.69 583.369 355.623 583.525 355.631 583.698C356.619 605.292 360.957 626.572 366.337 647.459L366.338 647.461C366.213 647.609 366.172 647.768 366.345 647.902C366.55 648.062 366.726 648.239 366.897 648.419C366.659 648.582 366.549 648.735 366.689 648.813C375.846 653.883 387.452 654.743 397.683 653.732C405.6 652.95 414.398 650.437 419.87 644.412C420.259 644.408 420.67 644.292 420.951 644.068C421.385 643.715 421.783 643.323 422.15 642.904ZM401.183 584.116C402.833 586.56 403.236 589.8 403.503 592.811C403.39 592.908 403.323 593.014 403.334 593.125C403.787 597.57 405.155 601.677 407.035 605.623C406.858 605.865 406.824 606.149 407.057 606.433C407.415 606.872 407.763 607.317 408.106 607.764C408.457 608.43 408.821 609.092 409.196 609.751C409.276 609.892 409.465 609.948 409.701 609.952C414.596 617.012 417.762 625.014 419.795 633.389C419.774 633.421 419.748 633.451 419.733 633.485C419.424 634.238 419.022 634.944 418.651 635.665C418.622 635.691 418.594 635.717 418.572 635.745C417.493 637.163 416.473 638.621 415.401 640.044C412.567 643.804 408.184 643.561 404.005 643.59C400.659 643.613 397.524 644.365 394.293 645.152C389.241 646.382 383.928 647.424 378.971 645.295C375.504 643.806 373.805 640.259 372.562 636.943C370.027 630.175 369.125 622.582 367.598 615.534C365.227 604.591 363.078 593.63 363.127 582.388C363.128 582.016 360.602 582.364 360.6 583.065C360.545 596.183 363.268 609.28 366.339 621.985C368.118 629.343 368.378 638.618 373.952 644.344C379.621 650.168 390.059 646.967 396.746 645.337C401.69 644.131 407.488 645.61 412.279 643.702C415.485 642.425 417.383 640.202 419.287 637.666C419.786 637.614 420.292 637.394 420.504 637.039C420.625 636.944 420.722 636.835 420.781 636.712C420.795 636.684 420.806 636.654 420.82 636.625C421.034 637.744 421.264 638.852 421.499 639.958C421.165 640.136 420.857 640.435 420.866 640.78C420.444 640.89 420.068 641.065 419.935 641.3C414.918 650.112 403.969 652.43 394.6 652.863C386.644 653.231 377.772 652.213 370.488 648.647C370.537 648.501 370.498 648.358 370.262 648.265C370.133 648.223 370.026 648.153 369.918 648.085C369.254 647.648 369.128 646.912 368.799 646.157C368.769 646.089 368.72 646.037 368.664 645.991C363.416 625.515 359.149 604.633 358.18 583.471C358.169 583.221 358.06 583.039 357.896 582.914C358.372 582.842 358.849 582.771 359.326 582.699C359.749 582.856 360.422 582.744 360.904 582.463C367.863 581.379 374.801 580.148 381.732 578.954C382.091 578.893 382.398 578.714 382.624 578.494C382.752 578.461 382.876 578.42 382.982 578.375C383.162 578.296 383.348 578.231 383.536 578.173C384.425 577.996 385.327 577.9 386.22 577.75C386.233 577.751 386.245 577.75 386.259 577.751C386.622 577.765 387.03 577.684 387.37 577.5C387.421 577.487 387.473 577.48 387.523 577.466C387.576 577.45 387.633 577.43 387.691 577.408C387.923 577.63 388.436 577.66 388.686 577.618C390.178 577.366 391.637 577.035 393.023 576.497C395.69 579.134 399.05 580.956 401.183 584.116ZM394.731 571.692C394.675 571.757 394.624 571.826 394.588 571.903C394.253 572.616 393.983 573.346 393.803 574.094C393.708 574.11 393.619 574.127 393.551 574.149C391.81 574.689 389.886 575.597 388.025 575.29C388.901 570.401 386.648 565.449 383.809 561.464C384.352 561.225 384.885 560.979 385.409 560.724C385.676 560.77 385.956 560.735 386.221 560.62C386.556 560.657 386.912 560.565 387.228 560.28C388.464 559.172 389.913 558.413 391.359 557.7C393.402 562.032 395.514 566.888 394.731 571.692ZM392.304 531.607C390.982 532.974 390.023 534.629 388.54 535.875C387.247 536.962 389.108 538.802 390.39 537.724C390.554 537.587 390.705 537.439 390.856 537.293C392.462 540.953 394.833 544.238 395.826 548.164C397.166 553.461 390.703 555.054 386.831 557.387C386.642 557.401 386.458 557.455 386.298 557.572C386.129 557.695 385.952 557.801 385.775 557.906C385.52 557.863 385.24 557.898 384.953 558.045C382.533 559.282 380.01 560.05 377.416 560.818C375.054 561.517 372.806 562.771 370.245 562.339C365.688 561.568 362.381 561.911 357.871 563.175C352.07 564.801 346.55 563.949 340.639 563.911C334.62 563.872 328.515 564.439 322.497 564.686C317.427 564.893 312.316 565.051 307.33 566.04C301.167 567.261 295.576 568.522 289.229 568.267C283.267 568.027 277.114 567.558 271.217 566.649C270.286 566.505 269.382 566.288 268.493 566.039C268.44 566.01 268.368 565.989 268.277 565.976C265.213 565.096 262.318 563.867 259.106 563.912C254.798 563.095 250.408 563.022 246.061 562.656C246.24 562.229 244.911 562.246 244.171 562.474C241.494 562.179 238.84 561.713 236.242 560.821C235.852 560.688 235.518 560.738 235.257 560.896C233.347 559.669 231.228 558.485 230.658 556.16C230.222 554.383 232.617 552.481 233.767 551.021C235.764 548.485 238.247 544.481 238.01 541.113C237.925 539.909 236.724 538.64 236.224 537.553C235.35 535.65 234.629 533.731 233.374 532.036C232.798 531.26 235.089 526.535 235.428 525.402C235.869 523.934 236.166 522.441 236.388 520.934C236.426 521.02 236.47 521.104 236.508 521.191C237.184 522.733 239.438 521.4 238.768 519.871C238.114 518.38 237.353 516.944 236.561 515.525C236.534 515.429 236.498 515.332 236.445 515.234C234.235 511.061 233.408 506.516 232.639 501.941C233.492 501.904 234.35 500.977 233.825 499.968C230.571 493.723 227.863 487.179 225.892 480.439C225.894 480.164 225.819 479.889 225.672 479.658C223.399 471.628 222.176 463.324 222.368 454.905C222.705 440.172 231.846 427.529 233.567 413.026C233.594 412.794 233.565 412.599 233.497 412.431C233.613 410.171 233.12 407.998 232.08 405.829C231.352 404.308 229.096 405.635 229.82 407.148C230.957 409.52 231.228 411.871 230.561 414.422C230.476 414.746 230.51 415.03 230.618 415.27C229.381 422.516 226.471 429.304 223.903 436.173C221.241 443.293 219.724 450.251 219.715 457.859C219.705 464.966 220.803 472.05 222.678 478.945C216.026 478.268 209.94 475.311 203.574 473.356C196.442 471.167 189.598 468.44 182.899 465.154C180.644 464.047 165.091 457.438 163.648 454.494C163.975 454.367 164.259 454.11 164.401 453.688C165.655 449.983 169.454 447.651 171.26 444.177C172.853 441.112 173.731 437.751 175.628 434.862C175.788 434.756 175.933 434.604 176.043 434.387C176.109 434.26 176.164 434.131 176.226 434.003C176.239 433.986 176.248 433.969 176.262 433.951C176.403 433.768 176.477 433.587 176.506 433.412C178.632 428.537 178.392 423.167 181.02 418.337C183.258 414.223 186.4 410.933 188.489 406.834C188.802 406.628 189.041 406.297 189.087 405.835C189.1 405.706 189.121 405.578 189.134 405.45C189.334 404.979 189.526 404.5 189.694 404.004C189.858 403.519 189.737 403.119 189.479 402.84C191.412 390.624 197.773 379.452 208.409 372.701C208.618 372.568 208.761 372.405 208.86 372.228C210.514 373.845 212.301 375.348 214.268 376.676C214.682 376.956 215.421 376.82 215.947 376.518C216.16 376.528 216.376 376.507 216.558 376.46C217.03 376.336 217.422 376.132 217.77 375.79C217.994 375.569 218.044 375.265 218.195 375.005C218.468 374.538 218.072 374.186 217.655 374.065C216.739 372.587 215.937 370.972 215.247 369.259C219.726 367.455 224.347 366.139 229.063 365.082C229.144 365.064 229.214 365.037 229.285 365.009C231.369 365.799 233.534 366.416 235.788 366.851C235.956 366.883 236.103 366.86 236.238 366.817C236.505 366.9 236.773 366.984 237.041 367.069C237.26 367.137 237.444 367.108 237.604 367.037C239.606 367.354 241.615 367.541 243.626 367.629C243.665 367.747 243.717 367.866 243.804 367.987C254.569 383.102 269.878 393.901 287.141 400.364C286.77 400.551 286.508 400.919 286.549 401.476C286.919 406.474 288.85 411.591 291.582 416.011C283.824 432.424 279.046 450.089 270.593 466.192C270.002 467.317 271.142 468.345 272.075 468.139C272.102 468.158 272.123 468.18 272.153 468.198C279.717 472.821 290.371 467.587 297.799 465.061C298.522 464.816 298.77 464.161 298.681 463.569C298.691 463.543 298.705 463.521 298.714 463.493C302.506 451.144 304.048 438.364 303.997 425.477C304.546 425.454 305.07 425.361 305.571 425.21C308.302 436.928 313.987 447.624 317.995 458.917C318.078 459.15 318.205 459.327 318.357 459.465C321.069 464.054 328.095 464.418 332.826 466.076C336.405 467.33 346.547 471.992 349.835 468.211C349.891 468.145 349.936 468.077 349.978 468.009C350.871 467.954 351.683 466.682 350.925 465.708C344.347 457.268 337.911 448.652 331.615 440C328.675 435.959 325.753 431.907 322.89 427.811C320.025 423.71 315.939 419.139 314.194 414.421C314.15 414.301 314.09 414.198 314.026 414.104C315.254 409.485 315.336 404.698 314.379 399.812C315.56 398.072 317.549 396.991 319.242 395.813C321.127 394.499 322.636 392.758 324.09 391C327.315 387.101 330.134 382.761 333.131 378.683C336.354 374.3 339.217 369.682 341.754 364.872C343.376 361.798 345.169 358.753 346.016 355.438C346.069 355.431 346.118 355.428 346.173 355.415C348.056 354.953 349.92 354.423 351.776 353.867C351.921 353.894 352.073 353.905 352.238 353.881C357.008 353.207 361.645 351.928 366.332 350.858C362.593 358.531 357.489 365.551 350.58 371.553C350.014 372.045 350.077 372.511 350.411 372.808C350.452 373.104 350.689 373.37 351.212 373.494C360.932 375.804 370.645 371.768 378.775 366.626C384.124 363.243 389.209 359.382 393.538 354.822C393.54 355.217 393.717 355.612 394.146 355.883C396.054 357.086 398.053 358.104 400.117 359.012C400.149 359.026 400.181 359.031 400.213 359.043C400.14 360.227 400.02 361.404 399.846 362.575C399.669 362.702 399.55 362.852 399.54 363.024C399.481 364.042 399.327 365.034 399.123 366.017C399.025 366.374 398.931 366.731 398.817 367.087C398.804 367.124 398.823 367.154 398.854 367.179C398.656 367.97 398.438 368.757 398.197 369.545C397.955 370.337 397.743 371.147 397.399 371.901C397.288 372.147 397.033 372.559 397.126 372.844C397.317 373.438 398.52 373.04 399.171 372.693C399.751 372.648 400.403 372.431 400.625 372.098C402.896 368.697 404.915 365.215 406.723 361.669C406.806 361.709 406.899 361.742 407 361.766C414.886 363.675 419.94 369.656 425.221 375.319C425.249 375.579 425.373 375.839 425.635 376.069C432.164 381.792 437.482 388.734 444.306 394.113C444.397 394.27 444.524 394.417 444.695 394.541C446.463 395.832 448.395 396.866 450.243 398.033C446.994 415.101 437.023 429.076 426.077 442.129C425.937 442.202 425.804 442.309 425.68 442.463C421.316 447.928 416.568 452.99 411.327 457.623C409.117 459.575 406.801 461.414 404.397 463.121C403.872 463.492 401.57 465.353 400.346 466.089C403.26 455.308 403.01 443.902 399.435 433.173C399.439 433.033 399.425 432.885 399.376 432.726C396.997 425.22 392.919 418.622 388.488 412.168C384.856 406.88 376.986 402.087 378.444 394.777C378.773 393.13 376.25 392.428 375.921 394.081C374.698 400.207 378.33 404.58 382.318 408.661C387.893 414.367 392.638 422.217 395.606 429.89C395.578 430.078 395.597 430.285 395.69 430.515C401.584 445.1 401.043 461.294 394.077 475.417C393.878 475.82 393.899 476.207 394.042 476.533C392.377 481.157 390.696 485.776 389.045 490.404C386.968 496.225 384.394 501.778 384.191 508.052C384.178 508.482 384.338 508.8 384.584 509.011C385.119 516.987 386.946 525.566 392.304 531.607ZM426.156 479.611C425.737 479.809 425.357 480.062 425.079 480.405C420.007 483.329 417.366 488.914 414.698 493.905C411.846 499.242 409.576 505.09 409.516 511.15C408.435 509.574 407.552 507.863 407.082 506.061C406.949 505.552 404.419 506.221 404.555 506.739C404.609 506.951 404.685 507.158 404.753 507.369C400.278 512.539 395.37 517.412 389.172 520.427C387.764 515.902 387.234 511.005 387.068 506.509C387.061 506.332 387.021 506.177 386.964 506.038C387.574 500.827 389.77 496.015 391.569 491.096C393.816 484.957 396.028 478.803 398.213 472.642C398.258 472.519 398.276 472.403 398.285 472.291C398.715 471.202 399.115 470.107 399.477 469C401.689 469.104 405.105 466.197 407.271 464.346C407.289 464.364 407.299 464.383 407.322 464.401C413.674 469.449 420.077 474.435 426.581 479.278C426.436 479.379 426.295 479.491 426.156 479.611ZM580.225 311.899C579.852 313.791 579.223 315.639 578.563 317.449C578.491 317.647 578.486 317.813 578.524 317.955C575.511 326.809 569.857 334.566 567.865 343.778C567.757 343.877 567.679 343.985 567.65 344.103C566.258 349.86 565.635 355.718 563.676 361.334C561.969 366.228 559.62 370.84 556.923 375.25C556.538 375.35 556.197 375.503 556.062 375.683C555.815 376.015 555.567 376.322 555.314 376.61C554.823 376.752 554.396 376.992 554.357 377.267C554.342 377.377 554.33 377.488 554.315 377.598C552.811 378.918 551.098 379.622 548.792 379.875C547.647 380.001 546.626 381.264 548.392 381.07C549.976 380.897 551.429 380.56 552.763 380.028C552.723 380.089 552.677 380.145 552.637 380.206C552.031 381.149 552.947 381.687 553.8 381.592C552.093 395.219 551.383 408.915 551.287 422.641C551.046 422.819 550.89 423.065 550.911 423.364C551.058 425.468 551.179 427.573 551.286 429.678C551.291 430.269 551.287 430.859 551.293 431.451C551.294 431.507 551.327 431.552 551.375 431.59C551.406 432.287 551.443 432.985 551.469 433.681C551.05 448.254 551.624 462.864 549.26 477.309C547.043 490.852 541.008 501.872 532.485 512.426C532.388 512.548 532.35 512.649 532.356 512.735C528.897 515.874 524.785 518.281 521.085 521.192C520.851 521.272 520.661 521.365 520.574 521.465C520.439 521.62 520.301 521.759 520.164 521.905C519.932 521.99 519.716 522.098 519.563 522.25C518.919 522.888 518.233 523.479 517.538 524.062C516.363 524.766 515.051 525.25 513.502 525.542C511.825 525.856 510.106 525.784 508.445 525.441C508.603 525.473 508.157 525.304 507.73 525.21C507.647 525.123 507.515 525.047 507.31 524.992C499.242 522.809 492.874 517.166 485.746 513.078C477.842 508.546 469.477 504.888 461.656 500.199C461.538 500.129 461.387 500.095 461.223 500.085C443.079 489.223 426.194 476.523 409.658 463.38C409.419 463.189 409.013 463.165 408.598 463.238C411.69 460.798 414.621 458.205 417.419 455.479C417.746 455.51 418.089 455.395 418.382 455.06C429.687 442.041 441.699 428.671 448.453 412.772C454.319 420.524 461.401 427.209 468.073 434.256C475.523 442.125 483.357 449.64 490.618 457.689C490.761 457.848 491.062 457.885 491.403 457.847C487.333 466.019 485.015 474.803 490.196 483.301C490.62 483.999 493.081 483.201 492.544 482.321C484.267 468.742 495.864 454.333 502.478 442.74C509.522 430.395 515.2 416.93 517.5 402.853C517.533 402.802 517.558 402.751 517.564 402.697C517.582 402.526 517.589 402.358 517.606 402.188C517.822 400.795 518.017 399.399 518.166 397.995C518.189 397.767 518.072 397.62 517.882 397.534C517.967 393.826 517.759 390.179 517.46 386.487C517.66 386.277 517.771 386.014 517.715 385.718C517.567 384.937 517.39 384.166 517.197 383.399C517.169 383.067 517.14 382.733 517.109 382.401C517.487 382.137 517.695 381.763 517.449 381.366C517.294 381.114 517.116 380.881 516.953 380.636C516.942 380.514 516.931 380.394 516.921 380.272C516.907 380.122 516.751 380.038 516.524 380.006C516.283 379.665 516.037 379.326 515.782 378.995C515.742 378.895 515.709 378.793 515.667 378.692C515.572 378.46 515.389 378.308 515.169 378.217C514.323 377.172 513.441 376.156 512.551 375.145C512.809 374.894 512.854 374.629 512.446 374.453C501.725 369.83 499.888 359.535 496.91 349.414C495.271 343.84 493.258 338.146 490.773 332.896C488.633 328.374 482.026 323.843 482.481 318.61C482.482 318.596 482.479 318.586 482.479 318.573C485.168 315.437 492.67 317.892 495.009 319.689C497.379 321.508 498.997 324.35 500.613 326.894C502.362 330.871 505.023 336.58 509.331 338.188C509.556 338.272 510.038 338.183 510.496 338.026C512.965 338.094 514.573 336.622 515.485 333.977C517.416 328.379 517.37 321.755 517.858 315.927C518.562 307.512 520.266 299.394 523.116 291.44C524.342 288.018 525.749 284.649 527.226 281.331C528.421 278.648 530.69 271.635 534.174 271.115C534.316 271.094 534.448 271.051 534.572 270.998C536.424 271.931 534.531 284.338 534.203 285.804C532.228 294.613 530.52 303.516 530.831 312.572C530.445 314.36 530.423 316.938 532.022 318.108C533.202 318.97 534.872 318.079 535.583 317.055C537.431 314.394 537.666 310.611 538.266 307.514C538.299 307.342 538.267 307.208 538.195 307.1C538.75 303.631 539.856 300.052 540.439 296.592C541.333 291.28 543.52 285.897 545.826 281.052C547.29 277.972 549.187 275.123 551.387 272.525C553.126 270.47 555.713 268.903 556.551 272.363C556.899 273.801 556.783 275.391 556.55 276.841C556.453 277.446 556.958 277.699 557.545 277.684C554.415 281.387 551.878 288.865 551.52 290.68C551.264 291.984 553.855 291.689 554.087 290.511C554.67 287.548 556.027 284.623 557.378 281.946C557.703 281.304 559.902 276.829 561.273 278.366C563.314 280.654 562.802 284.94 562.619 287.724C562.21 293.967 561.318 300.205 560.784 306.443C560.205 313.211 558.767 319.927 559.807 326.695C559.659 326.947 559.675 327.223 559.954 327.469C560.09 327.788 560.42 327.936 560.798 327.947C565.353 329.738 570.201 319.997 571.796 317.296C573.541 314.34 575.037 311.381 577.278 308.753C578.232 307.634 580.531 306.182 580.641 308.652C580.688 309.732 580.433 310.846 580.225 311.899Z" fill="black"/>
<path d="M369.569 253.914C370.404 253.091 371.281 252.317 372.191 251.586C372.082 251.494 372.006 251.359 371.974 251.211C370.866 252.066 369.804 252.983 368.804 253.97C368.617 254.154 369.422 254.06 369.569 253.914Z" fill="#C2000B"/>
<path d="M229.915 239.831C227.323 241.108 224.667 242.255 222.108 243.577C222.072 243.765 222.034 243.953 221.989 244.14C224.682 242.71 227.502 241.51 230.243 240.16C230.768 239.9 230.282 239.65 229.915 239.831Z" fill="#C2000B"/>
<path d="M226.4 199.749C226.672 199.577 226.943 199.405 227.213 199.231C227.232 199.228 227.25 199.223 227.269 199.22C226.981 199.397 226.688 199.567 226.4 199.749Z" fill="black"/>
<path d="M353.863 184.277C353.849 184.28 353.838 184.285 353.825 184.288C353.824 184.285 353.823 184.282 353.821 184.279C353.835 184.278 353.848 184.277 353.863 184.277Z" fill="black"/>
<path d="M376.232 179.993C376.303 179.946 376.371 179.894 376.442 179.846C376.392 179.883 376.347 179.924 376.308 179.966C376.291 179.986 376.272 180.002 376.254 180.021C376.247 180.012 376.241 180.002 376.232 179.993Z" fill="black"/>
<path d="M376.477 179.821C376.615 179.728 376.75 179.629 376.887 179.534C376.874 179.566 376.863 179.6 376.85 179.632C376.712 179.681 376.585 179.745 376.477 179.821Z" fill="black"/>
<path d="M225.772 200.16C225.785 200.149 225.796 200.137 225.809 200.124C225.999 200.006 226.187 199.882 226.376 199.763C226.173 199.892 225.973 200.03 225.772 200.16Z" fill="black"/>
<path d="M377.247 196.378C377.286 196.395 377.326 196.41 377.366 196.427C377.369 196.434 377.373 196.442 377.376 196.448C377.333 196.425 377.29 196.401 377.247 196.378Z" fill="black"/>
<path d="M335.9 202.445C335.882 202.443 335.864 202.441 335.845 202.439C336.213 202.538 336.579 202.637 336.946 202.736C336.938 202.731 336.93 202.725 336.923 202.718C337.282 203.346 337.642 203.973 338.001 204.6C338.002 204.592 338.003 204.582 338.004 204.573C337.905 204.939 337.805 205.306 337.707 205.673C337.399 206.04 337.324 206.144 337.478 205.982C337.537 205.922 337.593 205.862 337.646 205.796C337.927 205.449 338.221 205.082 338.294 204.621C338.476 203.449 338.014 202.283 336.771 201.941C335.725 201.653 334.271 202.287 334.088 203.463C334.177 203.203 334.317 202.976 334.508 202.781C334.472 202.822 334.433 202.862 334.394 202.902C334.085 203.214 333.838 203.566 333.72 203.995C333.512 204.751 333.722 205.585 334.279 206.142C334.739 206.601 335.268 206.736 335.9 206.803C337.084 206.929 338.081 205.717 338.081 204.624C338.081 203.342 337.081 202.571 335.9 202.445Z" fill="#FAF5E1"/>
<path d="M246.136 201.717C245.93 203.232 243.558 203.032 244.615 203.026C245.804 203.02 246.795 202.04 246.795 200.847C246.795 199.664 245.804 198.662 244.615 198.668C243.472 198.674 242.106 199.275 241.93 200.559C241.847 201.17 241.824 201.681 242.15 202.238C242.436 202.725 242.908 203.089 243.453 203.239C244.482 203.522 245.975 202.896 246.136 201.717Z" fill="#FAF5E1"/>
<path d="M363.3 220.242C363.863 220.242 363.863 219.37 363.3 219.37C362.737 219.37 362.737 220.242 363.3 220.242Z" fill="#FAF5E1"/>
<path d="M361.992 223.293C361.992 223.221 361.992 223.147 361.992 223.075C361.992 222.513 361.12 222.513 361.12 223.075C361.12 223.147 361.12 223.221 361.12 223.293C361.12 223.855 361.992 223.855 361.992 223.293Z" fill="#FAF5E1"/>
<path d="M270.634 223.075C271.196 223.075 271.196 222.203 270.634 222.203C270.071 222.203 270.071 223.075 270.634 223.075Z" fill="#FAF5E1"/>
<path d="M267.799 225.254C267.799 225.182 267.799 225.108 267.799 225.036C267.799 224.474 266.927 224.474 266.927 225.036C266.927 225.108 266.927 225.182 266.927 225.254C266.927 225.816 267.799 225.816 267.799 225.254Z" fill="#FAF5E1"/>
</svg>
