<svg width="530" height="165" viewBox="0 0 530 165" fill="none" xmlns="http://www.w3.org/2000/svg">
<path d="M22.68 79.68V90.03H42.93V103.44H22.68V114.87H45.63V129H5.04V65.55H45.63V79.68H22.68ZM52.1866 97.14C52.1866 90.9 53.4766 85.35 56.0566 80.49C58.6966 75.57 62.4166 71.76 67.2166 69.06C72.0166 66.3 77.5366 64.92 83.7766 64.92C91.6966 64.92 98.3566 67.05 103.757 71.31C109.157 75.51 112.637 81.24 114.197 88.5H95.2066C94.0666 86.1 92.4766 84.27 90.4366 83.01C88.4566 81.75 86.1466 81.12 83.5066 81.12C79.4266 81.12 76.1566 82.59 73.6966 85.53C71.2966 88.41 70.0966 92.28 70.0966 97.14C70.0966 102.06 71.2966 105.99 73.6966 108.93C76.1566 111.81 79.4266 113.25 83.5066 113.25C86.1466 113.25 88.4566 112.62 90.4366 111.36C92.4766 110.1 94.0666 108.27 95.2066 105.87H114.197C112.637 113.13 109.157 118.89 103.757 123.15C98.3566 127.35 91.6966 129.45 83.7766 129.45C77.5366 129.45 72.0166 128.1 67.2166 125.4C62.4166 122.64 58.6966 118.83 56.0566 113.97C53.4766 109.05 52.1866 103.44 52.1866 97.14ZM152.97 129.63C147.03 129.63 141.57 128.25 136.59 125.49C131.61 122.67 127.65 118.8 124.71 113.88C121.83 108.9 120.39 103.29 120.39 97.05C120.39 90.81 121.83 85.23 124.71 80.31C127.65 75.33 131.61 71.46 136.59 68.7C141.57 65.94 147.03 64.56 152.97 64.56C158.97 64.56 164.43 65.94 169.35 68.7C174.33 71.46 178.26 75.33 181.14 80.31C184.02 85.23 185.46 90.81 185.46 97.05C185.46 103.29 184.02 108.9 181.14 113.88C178.26 118.8 174.33 122.67 169.35 125.49C164.37 128.25 158.91 129.63 152.97 129.63ZM152.97 113.25C157.47 113.25 161.01 111.78 163.59 108.84C166.23 105.9 167.55 101.97 167.55 97.05C167.55 92.01 166.23 88.05 163.59 85.17C161.01 82.23 157.47 80.76 152.97 80.76C148.41 80.76 144.84 82.23 142.26 85.17C139.68 88.05 138.39 92.01 138.39 97.05C138.39 102.03 139.68 105.99 142.26 108.93C144.84 111.81 148.41 113.25 152.97 113.25ZM267.46 65.55V129H249.82V93.99L237.85 129H223.09L211.03 93.72V129H193.39V65.55H214.72L230.65 106.77L246.22 65.55H267.46ZM317.641 118.65H295.141L291.721 129H273.181L296.311 65.55H316.651L339.691 129H321.061L317.641 118.65ZM313.231 105.15L306.391 84.63L299.641 105.15H313.231ZM393.23 65.55V79.59H376.31V129H358.67V79.59H341.93V65.55H393.23ZM397.597 97.14C397.597 90.9 398.887 85.35 401.467 80.49C404.107 75.57 407.827 71.76 412.627 69.06C417.427 66.3 422.947 64.92 429.187 64.92C437.107 64.92 443.767 67.05 449.167 71.31C454.567 75.51 458.047 81.24 459.607 88.5H440.617C439.477 86.1 437.887 84.27 435.847 83.01C433.867 81.75 431.557 81.12 428.917 81.12C424.837 81.12 421.567 82.59 419.107 85.53C416.707 88.41 415.507 92.28 415.507 97.14C415.507 102.06 416.707 105.99 419.107 108.93C421.567 111.81 424.837 113.25 428.917 113.25C431.557 113.25 433.867 112.62 435.847 111.36C437.887 110.1 439.477 108.27 440.617 105.87H459.607C458.047 113.13 454.567 118.89 449.167 123.15C443.767 127.35 437.107 129.45 429.187 129.45C422.947 129.45 417.427 128.1 412.627 125.4C407.827 122.64 404.107 118.83 401.467 113.97C398.887 109.05 397.597 103.44 397.597 97.14ZM524.75 65.55V129H507.11V103.53H485.6V129H467.96V65.55H485.6V89.4H507.11V65.55H524.75Z" fill="white"/>
<path d="M161.6 29.68C163.173 29.9733 164.467 30.76 165.48 32.04C166.493 33.32 167 34.7867 167 36.44C167 37.9333 166.627 39.2533 165.88 40.4C165.16 41.52 164.107 42.4 162.72 43.04C161.333 43.68 159.693 44 157.8 44H145.76V16.08H157.28C159.173 16.08 160.8 16.3867 162.16 17C163.547 17.6133 164.587 18.4667 165.28 19.56C166 20.6533 166.36 21.8933 166.36 23.28C166.36 24.9067 165.92 26.2667 165.04 27.36C164.187 28.4533 163.04 29.2267 161.6 29.68ZM151.36 27.6H156.48C157.813 27.6 158.84 27.3067 159.56 26.72C160.28 26.1067 160.64 25.24 160.64 24.12C160.64 23 160.28 22.1333 159.56 21.52C158.84 20.9067 157.813 20.6 156.48 20.6H151.36V27.6ZM157 39.44C158.36 39.44 159.413 39.12 160.16 38.48C160.933 37.84 161.32 36.9333 161.32 35.76C161.32 34.56 160.92 33.6267 160.12 32.96C159.32 32.2667 158.24 31.92 156.88 31.92H151.36V39.44H157ZM192.063 32.44C192.063 33.24 192.01 33.96 191.903 34.6H175.703C175.836 36.2 176.396 37.4533 177.383 38.36C178.37 39.2667 179.583 39.72 181.023 39.72C183.103 39.72 184.583 38.8267 185.463 37.04H191.503C190.863 39.1733 189.636 40.9333 187.823 42.32C186.01 43.68 183.783 44.36 181.143 44.36C179.01 44.36 177.09 43.8933 175.383 42.96C173.703 42 172.383 40.6533 171.423 38.92C170.49 37.1867 170.023 35.1867 170.023 32.92C170.023 30.6267 170.49 28.6133 171.423 26.88C172.356 25.1467 173.663 23.8133 175.343 22.88C177.023 21.9467 178.956 21.48 181.143 21.48C183.25 21.48 185.13 21.9333 186.783 22.84C188.463 23.7467 189.756 25.04 190.663 26.72C191.596 28.3733 192.063 30.28 192.063 32.44ZM186.263 30.84C186.236 29.4 185.716 28.2533 184.703 27.4C183.69 26.52 182.45 26.08 180.983 26.08C179.596 26.08 178.423 26.5067 177.463 27.36C176.53 28.1867 175.956 29.3467 175.743 30.84H186.263ZM223.671 21.52C226.391 21.52 228.577 22.36 230.231 24.04C231.911 25.6933 232.751 28.0133 232.751 31V44H227.151V31.76C227.151 30.0267 226.711 28.7067 225.831 27.8C224.951 26.8667 223.751 26.4 222.231 26.4C220.711 26.4 219.497 26.8667 218.591 27.8C217.711 28.7067 217.271 30.0267 217.271 31.76V44H211.671V31.76C211.671 30.0267 211.231 28.7067 210.351 27.8C209.471 26.8667 208.271 26.4 206.751 26.4C205.204 26.4 203.977 26.8667 203.071 27.8C202.191 28.7067 201.751 30.0267 201.751 31.76V44H196.151V21.84H201.751V24.52C202.471 23.5867 203.391 22.8533 204.511 22.32C205.657 21.7867 206.911 21.52 208.271 21.52C210.004 21.52 211.551 21.8933 212.911 22.64C214.271 23.36 215.324 24.4 216.071 25.76C216.791 24.48 217.831 23.4533 219.191 22.68C220.577 21.9067 222.071 21.52 223.671 21.52ZM255.105 27.36V32.08H238.145V27.36H255.105ZM286.465 16.08L276.225 44H269.425L259.185 16.08H265.185L272.865 38.28L280.505 16.08H286.465ZM292.663 19.2C291.676 19.2 290.849 18.8933 290.183 18.28C289.543 17.64 289.223 16.8533 289.223 15.92C289.223 14.9867 289.543 14.2133 290.183 13.6C290.849 12.96 291.676 12.64 292.663 12.64C293.649 12.64 294.463 12.96 295.103 13.6C295.769 14.2133 296.103 14.9867 296.103 15.92C296.103 16.8533 295.769 17.64 295.103 18.28C294.463 18.8933 293.649 19.2 292.663 19.2ZM295.423 21.84V44H289.823V21.84H295.423ZM313.235 21.52C315.875 21.52 318.009 22.36 319.635 24.04C321.262 25.6933 322.075 28.0133 322.075 31V44H316.475V31.76C316.475 30 316.035 28.6533 315.155 27.72C314.275 26.76 313.075 26.28 311.555 26.28C310.009 26.28 308.782 26.76 307.875 27.72C306.995 28.6533 306.555 30 306.555 31.76V44H300.955V21.84H306.555V24.6C307.302 23.64 308.249 22.8933 309.395 22.36C310.569 21.8 311.849 21.52 313.235 21.52ZM325.961 32.84C325.961 30.6 326.401 28.6133 327.281 26.88C328.187 25.1467 329.414 23.8133 330.961 22.88C332.507 21.9467 334.227 21.48 336.121 21.48C337.561 21.48 338.934 21.8 340.241 22.44C341.547 23.0533 342.587 23.88 343.361 24.92V14.4H349.041V44H343.361V40.72C342.667 41.8133 341.694 42.6933 340.441 43.36C339.187 44.0267 337.734 44.36 336.081 44.36C334.214 44.36 332.507 43.88 330.961 42.92C329.414 41.96 328.187 40.6133 327.281 38.88C326.401 37.12 325.961 35.1067 325.961 32.84ZM343.401 32.92C343.401 31.56 343.134 30.4 342.601 29.44C342.067 28.4533 341.347 27.7067 340.441 27.2C339.534 26.6667 338.561 26.4 337.521 26.4C336.481 26.4 335.521 26.6533 334.641 27.16C333.761 27.6667 333.041 28.4133 332.481 29.4C331.947 30.36 331.681 31.5067 331.681 32.84C331.681 34.1733 331.947 35.3467 332.481 36.36C333.041 37.3467 333.761 38.1067 334.641 38.64C335.547 39.1733 336.507 39.44 337.521 39.44C338.561 39.44 339.534 39.1867 340.441 38.68C341.347 38.1467 342.067 37.4 342.601 36.44C343.134 35.4533 343.401 34.28 343.401 32.92ZM364.35 44.36C362.217 44.36 360.297 43.8933 358.59 42.96C356.883 42 355.537 40.6533 354.55 38.92C353.59 37.1867 353.11 35.1867 353.11 32.92C353.11 30.6533 353.603 28.6533 354.59 26.92C355.603 25.1867 356.977 23.8533 358.71 22.92C360.443 21.96 362.377 21.48 364.51 21.48C366.643 21.48 368.577 21.96 370.31 22.92C372.043 23.8533 373.403 25.1867 374.39 26.92C375.403 28.6533 375.91 30.6533 375.91 32.92C375.91 35.1867 375.39 37.1867 374.35 38.92C373.337 40.6533 371.95 42 370.19 42.96C368.457 43.8933 366.51 44.36 364.35 44.36ZM364.35 39.48C365.363 39.48 366.31 39.24 367.19 38.76C368.097 38.2533 368.817 37.5067 369.35 36.52C369.883 35.5333 370.15 34.3333 370.15 32.92C370.15 30.8133 369.59 29.2 368.47 28.08C367.377 26.9333 366.03 26.36 364.43 26.36C362.83 26.36 361.483 26.9333 360.39 28.08C359.323 29.2 358.79 30.8133 358.79 32.92C358.79 35.0267 359.31 36.6533 360.35 37.8C361.417 38.92 362.75 39.48 364.35 39.48Z" fill="white"/>
</svg>
