<svg width="1440" height="1024" viewBox="0 0 1440 1024" fill="none" xmlns="http://www.w3.org/2000/svg">
<path d="M1325.45 94.2949C1328.42 56.2745 1301.93 22.8889 1266.28 19.7263C1230.63 16.5636 1199.33 44.8215 1196.37 82.8419C1193.4 120.862 1219.9 154.248 1255.54 157.411C1291.19 160.573 1322.49 132.315 1325.45 94.2949Z" fill="#FFDF85"/>
<path d="M173.61 342.078C173.61 342.078 157.389 342.078 111.814 342.078C66.2394 342.078 127.263 326.423 155.844 326.423C184.424 326.423 171.293 258.039 227.681 258.039C284.07 258.039 279.041 304.178 279.041 304.178C279.041 304.178 323.464 304.178 334.278 320.656C345.092 337.134 391.439 334.662 398.392 342.078H173.61Z" fill="white"/>
<path d="M574.18 57.852C574.18 57.852 588.049 57.852 627.015 57.852C665.979 57.852 613.807 44.4684 589.372 44.4684C564.935 44.4684 576.164 -14 527.953 -14C500.062 -14 489.745 -0.796536 486.003 10.3323C482.99 19.2923 475.373 25.5448 466.527 26.8044C455.26 28.4079 441.822 31.9059 436.814 39.5368C427.569 53.625 387.943 51.5114 382 57.852H574.18Z" fill="white"/>
<path d="M1385 169.852C1385 169.852 1398.87 169.852 1437.84 169.852C1476.8 169.852 1424.63 156.468 1400.19 156.468C1375.76 156.468 1386.99 98 1338.77 98C1310.88 98 1300.57 111.203 1296.82 122.332C1293.81 131.292 1286.2 137.545 1277.35 138.804C1266.08 140.408 1252.64 143.906 1247.64 151.537C1238.39 165.625 1198.76 163.511 1192.82 169.852H1385Z" fill="white"/>
<path d="M488.138 266.755C488.138 266.755 496.39 266.755 519.575 266.755C542.76 266.755 511.716 258.79 497.178 258.79C482.639 258.79 489.319 224.001 460.633 224.001C431.947 224.001 434.504 247.473 434.504 247.473C434.504 247.473 411.905 247.473 406.404 255.856C400.903 264.238 377.324 262.981 373.788 266.753L488.138 266.755Z" fill="white"/>
<path d="M1520.28 1014.11C1515.76 1016.32 1511.02 1016.88 1511.02 1016.88C1510.17 1002.49 1508.9 988.671 1507.3 975.428C1507.26 975.17 1507.22 974.914 1507.2 974.677C1504.55 953.16 1500.94 933.17 1496.66 914.629C1496.32 913.075 1495.96 911.535 1495.58 910.011C1491.84 894.346 1487.59 879.758 1483.02 866.19C1482.87 865.703 1482.7 865.231 1482.55 864.744C1475.98 845.458 1468.75 828.255 1461.31 813.01C1460.99 812.34 1460.67 811.67 1460.35 811.037C1460.15 810.597 1459.92 810.173 1459.71 809.735C1458.99 808.313 1458.27 806.911 1457.57 805.528C1449.33 789.482 1440.95 775.781 1433.01 764.296L1432.99 764.275C1431.92 762.723 1430.85 761.205 1429.79 759.743C1428.9 758.463 1427.99 757.255 1427.09 756.046C1409.03 731.532 1394.31 718.974 1390.98 716.266C1390.81 716.119 1390.62 715.99 1390.44 715.859C1390.39 715.799 1390.33 715.756 1390.26 715.711C1390.21 715.398 1390.19 715.125 1390.18 714.871C1389.91 710.153 1394.99 715.093 1394.99 715.093C1396.55 716.489 1398.06 717.896 1399.56 719.34C1408.96 728.226 1417.7 737.735 1425.8 747.691C1427.46 749.747 1429.09 751.819 1430.72 753.908C1440.36 766.375 1449.06 779.449 1456.89 792.833C1458.54 795.645 1460.15 798.452 1461.72 801.293C1470.16 816.497 1477.55 832.009 1483.99 847.332C1485.19 850.162 1486.33 852.984 1487.46 855.809C1494.22 872.668 1499.85 889.226 1504.5 904.856C1505.12 906.859 1505.7 908.823 1506.27 910.802C1510.18 924.322 1513.35 937.034 1515.96 948.579C1516.87 952.599 1517.71 956.486 1518.48 960.201C1524.57 989.867 1526.39 1009.17 1526.39 1009.17C1524.88 1011.36 1522.61 1012.97 1520.28 1014.11Z" fill="#00B759"/>
<path d="M1400.15 720.849C1400.15 720.849 1396.28 718.633 1390.19 714.869C1389.83 714.627 1389.44 714.4 1389.05 714.154C1372.55 703.851 1341.79 683.389 1326.26 664.822C1315.63 652.129 1315.88 640.191 1322.41 635.519C1329.32 630.588 1343.24 633.82 1358.74 652.833C1384.94 685.036 1396.89 712.704 1399.57 719.336C1399.97 720.323 1400.15 720.849 1400.15 720.849Z" fill="#00B759"/>
<path d="M1433.01 764.296C1433.01 764.296 1431.72 763.777 1429.35 762.934C1429.06 762.827 1428.74 762.714 1428.39 762.583C1417.27 758.661 1387.72 749.376 1358.86 749.869C1322.31 750.517 1306.23 742.931 1315.99 725.545C1325.36 708.871 1385.25 723.626 1427.77 759.677C1428.39 760.185 1429 760.709 1429.6 761.232C1430.74 762.235 1431.87 763.255 1432.99 764.273L1433.01 764.296Z" fill="#00B759"/>
<path d="M1464.69 813.76C1464.48 813.717 1463.29 813.428 1461.31 813.009C1460.66 812.875 1459.9 812.712 1459.08 812.542C1458.76 812.486 1458.47 812.413 1458.12 812.353C1443.67 809.382 1408.5 803.02 1383.89 805.507C1360.74 807.846 1330.99 803.944 1337.66 783.771C1345.49 760.189 1410.87 781.392 1457.86 809.529C1458.43 809.851 1458.99 810.188 1459.53 810.541C1459.82 810.684 1460.08 810.879 1460.35 811.036C1461.83 811.917 1463.27 812.83 1464.69 813.76Z" fill="#00B759"/>
<path d="M1485.82 866.816C1485.68 866.779 1485.06 866.652 1484.06 866.405C1483.96 866.392 1483.86 866.38 1483.74 866.349C1483.53 866.304 1483.27 866.237 1483.02 866.19C1472.1 863.843 1432.16 855.841 1405.02 858.563C1381.87 860.902 1352.11 857.015 1358.79 836.827C1366.84 812.639 1435.38 835.56 1482.55 864.746C1482.94 864.992 1483.34 865.239 1483.72 865.465C1483.9 865.575 1484.07 865.688 1484.24 865.798C1484.78 866.149 1485.32 866.468 1485.82 866.816Z" fill="#00B759"/>
<path d="M1508.95 975.807C1508.9 975.782 1508.79 975.751 1508.62 975.731C1508.57 975.706 1508.54 975.702 1508.49 975.68C1508.19 975.643 1507.81 975.545 1507.3 975.428C1498.43 973.472 1456.34 964.709 1428.12 967.57C1405 969.892 1375.22 965.987 1381.9 945.834C1390.02 921.385 1459.97 945.052 1507.19 974.676C1507.65 974.967 1508.08 975.252 1508.52 975.522C1508.57 975.547 1508.63 975.59 1508.68 975.614C1508.76 975.676 1508.87 975.743 1508.95 975.807Z" fill="#00B759"/>
<path d="M1506.63 916.716C1506.45 916.675 1505.64 916.489 1504.3 916.2C1504.17 916.149 1504.04 916.132 1503.89 916.095C1503.25 915.962 1502.49 915.799 1501.63 915.624C1500.24 915.313 1498.57 914.983 1496.66 914.627C1480.66 911.485 1448.69 906.161 1425.82 908.461C1402.68 910.799 1372.93 906.898 1379.6 886.725C1387.21 863.818 1448.99 883.145 1495.58 910.009C1497.43 911.061 1499.23 912.126 1501.01 913.206C1501.99 913.794 1502.96 914.398 1503.92 915C1504.15 915.135 1504.37 915.27 1504.59 915.405C1505.28 915.85 1505.96 916.276 1506.63 916.716Z" fill="#00B759"/>
<path d="M1429.04 765.526C1428.83 764.545 1428.59 763.579 1428.39 762.581C1428.19 761.619 1427.98 760.638 1427.77 759.677C1427.54 758.477 1427.32 757.244 1427.1 756.044C1426.78 754.24 1426.48 752.419 1426.22 750.603C1426.07 749.63 1425.93 748.676 1425.8 747.686C1418.57 693.967 1432.63 637.989 1449.68 636.718C1468.63 635.315 1467.69 654.054 1450.59 688.52C1439.03 711.814 1433.25 738.837 1430.72 753.904C1430.6 754.557 1430.51 755.213 1430.41 755.85C1430.17 757.281 1429.97 758.59 1429.79 759.741C1429.72 760.29 1429.65 760.769 1429.6 761.232C1429.5 761.869 1429.42 762.418 1429.35 762.932C1429.14 764.603 1429.04 765.526 1429.04 765.526Z" fill="#00B759"/>
<path opacity="0.57" d="M1389.05 714.156C1372.55 703.853 1341.79 683.391 1326.26 664.824C1315.63 652.13 1315.88 640.192 1322.41 635.521C1344.8 657.979 1381.89 705.018 1389.05 714.156Z" fill="#003E43"/>
<path opacity="0.57" d="M1520.28 1014.11C1515.76 1016.32 1511.02 1016.88 1511.02 1016.88C1510.17 1002.49 1508.9 988.67 1507.3 975.428C1498.43 973.472 1456.34 964.709 1428.12 967.57C1405 969.892 1375.22 965.987 1381.9 945.834C1390.03 921.385 1459.97 945.052 1507.19 974.676C1504.55 953.16 1500.94 933.17 1496.66 914.629C1480.65 911.487 1448.69 906.163 1425.82 908.463C1402.68 910.801 1372.93 906.9 1379.6 886.727C1387.21 863.82 1448.99 883.147 1495.58 910.011C1491.84 894.346 1487.59 879.758 1483.02 866.19C1472.1 863.843 1432.16 855.841 1405.02 858.563C1381.87 860.902 1352.11 857.015 1358.79 836.828C1366.84 812.639 1435.38 835.56 1482.55 864.746C1475.98 845.46 1468.75 828.257 1461.31 813.011C1460.66 812.878 1459.9 812.715 1459.08 812.545C1458.68 814.244 1458.48 815.285 1458.43 815.494C1458.32 814.453 1458.21 813.413 1458.12 812.356C1443.67 809.384 1408.5 803.023 1383.89 805.51C1360.74 807.849 1330.99 803.947 1337.66 783.774C1345.49 760.192 1410.87 781.394 1457.86 809.532C1457.75 808.203 1457.67 806.878 1457.57 805.532C1449.33 789.486 1440.95 775.785 1433.01 764.3C1433.01 764.3 1431.71 763.782 1429.35 762.938C1429.14 764.607 1429.04 765.533 1429.04 765.533C1428.83 764.552 1428.59 763.585 1428.39 762.588C1417.27 758.666 1387.72 749.38 1358.86 749.874C1322.31 750.521 1306.23 742.935 1315.98 725.55C1325.36 708.875 1385.25 723.631 1427.77 759.682C1427.54 758.481 1427.32 757.249 1427.09 756.048C1409.03 731.534 1394.31 718.976 1390.98 716.268C1403.95 726.037 1415.66 737.653 1426.22 750.609C1427.64 752.35 1429.02 754.084 1430.41 755.856C1440.29 768.639 1449.16 782.599 1457.09 797.236C1458.38 799.665 1459.68 802.092 1460.92 804.531C1469.66 821.521 1477.2 839.336 1483.71 857.283C1484.3 858.852 1484.86 860.451 1485.41 862.049C1491.51 879.242 1496.66 896.5 1501 913.21C1501.2 914.009 1501.42 914.828 1501.62 915.629C1505.78 931.847 1509.2 947.491 1511.99 961.995C1512.38 964.152 1512.78 966.274 1513.17 968.375C1516.4 985.865 1518.68 1001.48 1520.28 1014.11Z" fill="#003E43"/>
<path d="M107.143 755.481C107.143 755.481 144.669 782.492 173.353 781.263C173.353 781.263 163.453 818.096 134.976 845.107C134.976 845.107 110.113 830.374 95.6319 819.323C95.6319 819.323 105.347 841.669 118.008 858.12C118.008 858.12 96.1138 889.305 74.2441 906.494C74.2441 906.494 37.4324 877.028 13.2606 847.561C13.2606 847.561 21.1118 889.305 54.6075 924.91C54.6075 924.91 44.3389 944.554 16.7129 962.972C16.7129 962.972 -3.38456 948.484 -20.9513 917.054C-20.9513 917.054 -13.4458 956.834 2.20862 980.161C2.20862 980.161 -58.1087 1056.28 -111.059 1098.03C-111.059 1098.03 -116.767 1026.4 -100.055 945.832C-88.2212 888.888 -65.1765 827.45 -20.9513 783.717C31.0309 732.297 71.8498 709.141 106.175 695.317C142.319 680.805 171.281 676.68 198.492 660.939C198.492 660.939 202.037 714.961 179.015 756.705C179.017 756.71 137.693 761.621 107.143 755.481Z" fill="#77CC21"/>
<path d="M-111.055 1098.03C-111.527 1085.84 -111.205 1073.6 -110.483 1061.41C-109.778 1049.21 -108.674 1037.02 -107.192 1024.88C-104.118 1000.62 -99.4536 976.54 -92.9196 952.988C-92.1497 950.028 -91.2895 947.098 -90.3947 944.179C-89.5057 941.259 -88.6647 938.318 -87.7335 935.412C-85.7808 929.63 -83.9241 923.806 -81.7217 918.118C-77.5859 906.631 -72.6974 895.459 -67.5573 884.423C-64.8078 879.002 -62.2349 873.472 -59.1858 868.225L-54.7523 860.269L-49.9963 852.519L-47.6173 848.644C-46.8071 847.364 -45.9315 846.133 -45.0905 844.876L-39.9966 837.368C-38.2838 834.875 -36.4002 832.52 -34.6088 830.091C-32.7579 827.714 -31.0663 825.192 -29.0809 822.931C-25.1716 818.362 -21.4371 813.617 -17.2244 809.351L-11.0572 802.802L-4.55386 796.627C-0.266327 792.406 4.24777 788.675 8.68507 784.783C13.1531 780.941 17.5462 777.001 22.0834 773.247C40.2934 758.323 58.9469 743.922 78.6546 731.236C83.6161 728.125 88.4854 724.861 93.5793 721.996L101.146 717.574C103.669 716.102 106.277 714.799 108.838 713.409C119.097 707.863 129.615 702.933 140.08 698.028C150.567 693.178 161.062 688.433 170.899 682.353C180.751 676.311 189.915 669.03 198.492 660.943C194.36 665.145 190.405 669.604 185.881 673.384L182.556 676.309C181.442 677.28 180.229 678.103 179.071 679.008L175.549 681.669L173.787 683L171.953 684.208C162.282 690.901 151.902 696.265 141.66 701.671C121.01 712.159 100.937 723.52 81.8227 736.662C62.7429 749.828 44.3812 764.181 26.5936 779.332L13.395 790.893C9.02109 794.767 4.51083 798.542 0.417221 802.626L-5.86143 808.647L-11.8137 815.038C-15.8861 819.192 -19.4767 823.839 -23.2669 828.281C-38.1091 846.387 -50.4648 866.732 -61.1193 887.988C-71.6567 909.341 -80.2394 931.815 -87.2093 954.862C-94.1427 977.926 -99.5535 1001.56 -103.49 1025.5C-107.562 1049.42 -110.172 1073.66 -111.055 1098.03Z" fill="#00842E"/>
<path opacity="0.38" d="M107.143 755.481C107.143 755.481 128.531 770.902 151.368 777.9C158.781 780.184 166.331 781.558 173.355 781.265C173.355 781.265 163.455 818.098 134.978 845.109C134.978 845.109 125.101 839.264 114.166 832.168C107.767 827.994 100.999 823.403 95.6338 819.325C95.6338 819.325 99.9617 829.295 106.638 840.811C109.931 846.533 113.798 852.646 118.01 858.122C118.01 858.122 96.1158 889.307 74.2461 906.496C74.2461 906.496 67.4778 901.093 57.8544 892.574C45.0321 881.255 27.0736 864.408 13.2606 847.563C13.2606 847.563 18.9709 877.914 41.4396 908.927C45.3067 914.281 49.6806 919.659 54.6075 924.912C54.6075 924.912 44.339 944.556 16.7129 962.974C16.7129 962.974 9.94463 958.087 0.828102 947.847C-5.75584 940.456 -13.584 930.241 -20.9494 917.056C-20.9494 917.056 -17.1515 937.191 -9.3003 957.229C-6.14561 965.333 -2.30162 973.435 2.21056 980.165C2.21056 980.165 -58.1067 1056.29 -111.057 1098.03C-111.057 1098.03 -112.921 1074.75 -111.402 1039.81C-110.275 1013.46 -107.236 980.484 -100.053 945.836C-95.5175 943.626 -90.4984 940.9 -85.0416 937.56C-66.486 926.192 -42.7039 907.651 -14.089 877.447C-5.13374 867.994 3.70631 857.631 12.2718 846.68C41.5549 809.405 68.146 765.524 88.5199 728.519C95.1039 716.585 101.022 705.362 106.177 695.319C130.902 685.398 152.243 680.34 171.995 673.096C181.112 669.731 189.883 665.926 198.492 660.941C198.492 660.941 202.037 714.963 179.015 756.707C179.015 756.707 170.405 757.74 158.157 758.254C143.563 758.895 123.763 758.821 107.143 755.481Z" fill="#00791D"/>
<path opacity="0.31" d="M-9.30225 957.229C-6.14756 965.333 -2.30357 973.435 2.20861 980.165C2.20861 980.165 -58.1087 1056.29 -111.059 1098.03C-111.059 1098.03 -112.923 1074.75 -111.404 1039.81C-97.0613 1033.92 -55.3687 999.612 -9.30225 957.229Z" fill="#00791D"/>
<path opacity="0.31" d="M41.4377 908.929C45.3047 914.282 49.6787 919.66 54.6056 924.913C54.6056 924.913 44.337 944.558 16.711 962.975C16.711 962.975 9.9427 958.089 0.826172 947.849C14.3186 935.276 28.0394 922.14 41.4377 908.929Z" fill="#00791D"/>
<path opacity="0.31" d="M106.636 840.813C109.929 846.535 113.796 852.648 118.008 858.125C118.008 858.125 96.1138 889.31 74.2441 906.498C74.2441 906.498 67.4758 901.096 57.8524 892.576C75.6477 874.625 92.385 856.945 106.636 840.813Z" fill="#00791D"/>
<path opacity="0.31" d="M173.353 781.265C173.353 781.265 163.453 818.098 134.976 845.109C134.976 845.109 125.099 839.264 114.164 832.168C131.384 812.081 144.024 794.941 149.043 783.475C149.849 781.633 150.631 779.792 151.368 777.9C158.779 780.183 166.331 781.56 173.353 781.265Z" fill="#00791D"/>
<path opacity="0.31" d="M179.017 756.709C179.017 756.709 170.407 757.742 158.159 758.256C167.483 726.8 170.799 693.748 171.995 673.098C181.112 669.733 189.883 665.928 198.492 660.943C198.492 660.943 202.037 714.965 179.017 756.709Z" fill="#00791D"/>
<path d="M258.566 1179.58C289.947 1029.89 377.102 898.462 388.879 898.03C389.386 898.003 389.918 898.192 390.525 898.57C403.695 906.783 436.925 1010.95 434.013 1147.76C430.973 1289.19 340.071 1357.75 306.46 1375.45C306.105 1375.64 305.777 1375.83 305.446 1375.99C305.446 1375.99 227.186 1329.28 258.566 1179.58Z" fill="#77CC21"/>
<path d="M305.437 1375.99C316.039 1336.9 325.793 1297.63 334.923 1258.21C339.334 1238.46 343.896 1218.76 347.893 1198.91L351.027 1184.07L353.946 1169.17C355.835 1159.23 357.972 1149.34 359.619 1139.35L365.028 1109.48L369.823 1079.49C370.612 1074.49 371.531 1069.51 372.211 1064.49L374.285 1049.44L376.366 1034.39C377.098 1029.38 377.837 1024.37 378.352 1019.33L381.831 989.127C382.503 984.099 382.918 979.049 383.34 973.997L384.653 958.839L386.045 943.678C386.316 941.153 386.452 938.619 386.573 936.086L387.002 928.486C387.572 918.348 388.205 908.205 388.883 898.044C389.016 908.209 389.104 918.385 389.129 928.57L389.148 936.211C389.16 938.759 389.154 941.306 389.018 943.846L388.417 959.108L387.737 974.373C387.52 979.465 387.309 984.558 386.844 989.627L384.306 1020.08C380.212 1060.59 374.642 1100.97 367.15 1140.93C365.435 1150.96 363.233 1160.87 361.276 1170.84L358.258 1185.78C357.2 1190.75 356.088 1195.7 354.959 1200.65C350.539 1220.47 345.808 1240.2 340.697 1259.82C338.049 1269.6 335.572 1279.44 332.788 1289.17C329.954 1298.9 327.303 1308.67 324.319 1318.35C318.48 1337.73 312.318 1357.01 305.437 1375.99Z" fill="#00842E"/>
<path opacity="0.57" d="M258.566 1179.58C289.947 1029.89 377.102 898.462 388.879 898.03C389.386 898.003 389.918 898.192 390.525 898.57C389.943 906.08 389.233 915.077 388.346 925.262C382.165 996.393 368.742 1125.5 346.225 1216.84C330.294 1281.52 318.491 1328.42 310.563 1359.46C309.043 1365.35 307.675 1370.69 306.46 1375.45C306.105 1375.64 305.777 1375.83 305.446 1375.99C305.446 1375.99 227.186 1329.28 258.566 1179.58Z" fill="#003E43"/>
<path opacity="0.53" d="M421.442 1147.22C423.001 1102.18 424.551 1056.91 419.495 1012.16C419.03 1008.05 418.437 1003.74 416.116 1000.42C413.792 997.104 409.161 995.246 405.905 997.503C402.37 999.955 402.355 1005.36 402.61 1009.84C406.847 1084.3 376.601 1156.01 370.458 1230.31C369.957 1236.36 369.633 1242.58 371.268 1248.4C372.902 1254.21 376.879 1259.63 382.388 1261.16C398.224 1265.57 410.211 1227.35 413.441 1215.74C419.604 1193.59 420.649 1170.17 421.442 1147.22Z" fill="#D2F36D"/>
<path d="M303.853 993.809C303.853 993.809 312.439 895.865 278.093 846.148C278.093 846.148 277.724 846.175 277.014 846.279C267.569 847.299 198.191 855.28 155.725 872.315C155.725 872.315 161.784 897.174 150.646 901.1C139.484 905.026 136.049 881.003 136.049 881.003C136.049 881.003 94.0247 901.256 79.3784 918.109C79.3784 918.109 92.1853 947.338 80.8761 955.632C69.5668 963.902 63.7528 942.967 65.4444 929.885C65.4444 929.885 22.955 952.126 3.94051 987.452C3.94051 987.452 23.2968 1003.15 37.8452 1017.54C52.3936 1031.93 35.8099 1047.63 15.2747 1030.63C-5.25858 1013.62 -7.76044 997.917 -7.76044 997.917C-7.76044 997.917 -45.344 1041.09 -56.5803 1097.35C-56.5803 1097.35 -39.4801 1107.82 -14.3847 1114.36C10.6877 1120.9 9.46073 1132.68 -5.25858 1140.53C-19.9779 1148.38 -56.5803 1133.99 -56.5803 1133.99C-56.5803 1133.99 -59.2051 1160.81 -27.3375 1183.7C-16.2971 1191.63 -9.08529 1191.84 -3.81084 1188.88C4.35909 1184.36 7.89203 1172.24 13.7291 1169.49C15.029 1168.87 16.4517 1168.71 18.0473 1169.18C20.1824 1169.83 21.8491 1170.93 23.1739 1172.43C35.2186 1185.9 20.4993 1230.93 75.6976 1255.66C137.029 1283.14 189.652 1234.73 189.652 1234.73C189.652 1234.73 103.911 1226.88 100.23 1191.55C96.5497 1156.23 175.423 1226.88 220.637 1212.49C220.637 1212.49 268.475 1152.64 278.093 1099.97C278.093 1099.97 240.068 1126.13 198.362 1114.36C156.656 1102.58 160.924 1073.8 182.709 1077.72C204.494 1081.65 251.989 1088.79 286.507 1077.36C286.507 1077.36 298.945 1051.56 298.945 1018.85C298.945 1018.85 234.204 1029.31 231.627 1005.76C229.029 982.217 271.96 1006.71 303.853 993.809ZM125.821 1136.03C121.553 1143.61 111.812 1144.71 104.871 1149.5C99.0323 1153.51 95.2555 1160.1 90.5206 1165.54C85.7857 1170.96 78.8926 1175.51 72.1954 1173.52C66.4064 1171.77 62.7755 1165.75 60.2237 1159.92C56.9615 1152.48 54.5077 1144.37 54.8513 1136.16C55.195 1127.94 58.728 1119.54 65.2774 1115.2C69.3979 1112.45 74.3056 1111.48 79.0885 1110.57C96.5554 1107.24 123.886 1094.97 127.615 1123.97C128.127 1128.07 127.809 1132.47 125.821 1136.03ZM159.209 1052.92C155.529 1055.88 150.771 1056.77 146.182 1057.21C140.466 1057.73 134.7 1057.73 128.984 1057.16C124.642 1056.71 120.226 1055.9 116.497 1053.52C112.769 1051.11 109.848 1046.82 109.996 1042.19C110.144 1038.34 112.277 1034.92 114.658 1032.04C118.191 1027.8 122.532 1024.19 127.563 1022.3C141.915 1016.94 149.863 1025.31 159.528 1035.2C160.951 1036.64 162.374 1038.11 163.184 1039.99C165.121 1044.44 162.89 1049.99 159.209 1052.92ZM205.796 981.379C203.074 985.985 200.938 991.376 201.676 996.793C202.092 999.932 203.467 1002.81 204.276 1005.87C205.086 1008.94 205.232 1012.47 203.465 1015.03C200.89 1018.67 195.345 1018.46 191.935 1015.69C188.55 1012.91 186.832 1008.41 185.557 1004.07C183.765 997.944 182.49 991.56 182.711 985.148C182.859 981.433 183.496 977.769 184.109 974.105C185.728 964.764 196.351 922.686 212.91 935.168C226.429 945.374 211.316 971.959 205.796 981.379Z" fill="#00B759"/>
<path d="M276.574 847.063C261.486 856.273 138.726 933.755 71.4331 1057.86C47.244 1102.48 32.3039 1141 23.1778 1172.42C5.14633 1234.26 9.46458 1268.74 9.46458 1268.74C9.46458 1268.74 -0.37389 1271.07 -8.37101 1267.96C-12.3456 1266.42 -15.8785 1263.51 -17.5221 1258.28C-17.5221 1258.28 -16.0264 1231.17 -3.80891 1188.88C20.3553 1105.36 86.4961 962.697 266.098 853.32C269.533 851.198 273.041 849.131 276.574 847.063Z" fill="#77CC21"/>
<path d="M54.6977 1007.1C52.3284 1006.66 49.6364 1005.99 48.5132 1003.72C47.0654 1000.8 49.1775 997.339 51.3626 994.992C56.6197 989.344 63.0097 984.902 69.9758 982.051C71.4504 981.449 73.0249 980.906 74.584 981.174C77.8404 981.731 79.653 985.395 80.9644 988.623C82.2566 991.801 83.5757 995.236 82.919 998.63C82.2969 1001.84 79.9487 1004.44 77.2414 1006C69.6551 1010.39 62.7352 1008.57 54.6977 1007.1Z" fill="#006839"/>
<path d="M117.302 944.411C123.876 936.491 130.451 928.573 137.025 920.654C138.584 918.778 140.197 916.855 142.307 915.751C144.417 914.649 147.171 914.557 148.945 916.201C150.481 917.625 150.942 920.041 150.573 922.175C150.204 924.309 149.129 926.222 147.994 928.025C145.352 932.221 142.276 936.106 138.841 939.586C135.074 943.403 130.84 946.778 127.78 951.259C125.253 954.96 121.371 962.238 116.06 959.164C110.123 955.732 114.316 948.007 117.302 944.411Z" fill="#006839"/>
<path opacity="0.41" d="M255.058 995.85C269.408 997.395 288.004 1000.22 303.853 993.811C303.853 993.811 312.439 895.867 278.093 846.15C278.093 846.15 277.724 846.177 277.014 846.281C273.506 848.505 269.85 850.86 266.096 853.32C266.071 853.32 266.071 853.347 266.046 853.347C266.021 853.373 265.973 853.4 265.948 853.424C209.523 890.346 126.921 953.879 75.208 1036.31C45.8923 1083.04 26.511 1129.17 13.729 1169.5C0.899093 1209.85 -5.33348 1244.41 -8.37488 1267.96C-0.377759 1271.08 9.46071 1268.75 9.46071 1268.75C9.46071 1268.75 5.14246 1234.26 23.1739 1172.42C24.18 1173.55 25.0133 1174.91 25.6758 1176.46C33.2313 1193.33 25.1362 1233 75.6976 1255.66C137.029 1283.14 189.652 1234.73 189.652 1234.73C189.652 1234.73 140.93 1230.28 115.368 1212.93C107.027 1207.28 101.139 1200.24 100.232 1191.56C98.2201 1172.3 120.791 1184.54 149.052 1197.34C172.579 1208.02 200.08 1219.03 220.638 1212.49C220.638 1212.49 268.477 1152.65 278.095 1099.97C278.095 1099.97 250.423 1119.02 216.37 1117.29C210.506 1117 204.471 1116.09 198.364 1114.36C156.658 1102.59 160.926 1073.8 182.711 1077.73C193.702 1079.72 211.267 1082.52 230.377 1083.33C249.144 1084.14 269.408 1083.01 286.507 1077.36C286.507 1077.36 298.945 1051.56 298.945 1018.85C298.945 1018.85 269.506 1023.61 249.536 1019.48C239.895 1017.49 232.46 1013.44 231.627 1005.77C230.329 993.913 240.534 994.228 255.058 995.85ZM125.821 1136.03C121.553 1143.61 111.812 1144.71 104.871 1149.5C99.0323 1153.51 95.2555 1160.1 90.5206 1165.54C85.7857 1170.96 78.8926 1175.51 72.1954 1173.52C66.4064 1171.77 62.7755 1165.75 60.2237 1159.92C56.9615 1152.48 54.5076 1144.37 54.8513 1136.16C55.195 1127.94 58.728 1119.54 65.2773 1115.2C69.3978 1112.45 74.3055 1111.48 79.0885 1110.57C96.5554 1107.24 123.886 1094.97 127.615 1123.97C128.127 1128.07 127.808 1132.47 125.821 1136.03ZM146.184 1057.21C140.468 1057.73 134.702 1057.73 128.985 1057.16C124.644 1056.71 120.228 1055.9 116.499 1053.52C112.77 1051.11 109.85 1046.82 109.998 1042.19C110.146 1038.34 112.279 1034.92 114.66 1032.04C118.193 1027.8 122.534 1024.19 127.565 1022.3C141.917 1016.94 149.864 1025.31 159.53 1035.2C160.953 1036.64 162.376 1038.11 163.186 1039.99C165.123 1044.44 162.892 1049.99 159.211 1052.92C155.531 1055.88 150.771 1056.77 146.184 1057.21ZM205.796 981.379C203.074 985.985 200.938 991.376 201.676 996.793C202.092 999.932 203.467 1002.81 204.276 1005.87C205.086 1008.94 205.232 1012.47 203.465 1015.03C200.89 1018.67 195.345 1018.46 191.935 1015.69C188.55 1012.91 186.832 1008.41 185.557 1004.07C183.765 997.944 182.49 991.56 182.711 985.148C182.859 981.433 183.496 977.769 184.109 974.105C185.728 964.764 196.351 922.686 212.91 935.168C226.429 945.373 211.316 971.959 205.796 981.379Z" fill="#005177"/>
<path opacity="0.41" d="M303.853 993.809C288.004 1000.22 269.408 997.393 255.058 995.849C272.279 917.218 277.014 846.277 277.014 846.277C277.726 846.173 278.093 846.146 278.093 846.146C312.439 895.865 303.853 993.809 303.853 993.809Z" fill="#005177"/>
<path opacity="0.41" d="M298.947 1018.85C298.947 1051.56 286.509 1077.36 286.509 1077.36C269.408 1083.01 249.146 1084.14 230.379 1083.33C237.837 1062.81 244.19 1041.09 249.539 1019.48C269.508 1023.61 298.947 1018.85 298.947 1018.85Z" fill="#005177"/>
<path d="M1459 1183.41C1458.97 1183.4 1458.97 1183.4 1458.97 1183.4C1454.97 1185.67 1450.53 1187.8 1445.61 1189.76C1441.95 1191.21 1438.03 1192.56 1433.84 1193.81C1397.16 1204.7 1349.12 1150.75 1338.89 1118.63L1369.63 1086.16L1328.02 1096.6C1328.02 1096.6 1307.4 1069.1 1299.65 1047.28L1326.82 1032.79L1289.57 1034.31C1289.57 1034.31 1279.78 1017.84 1271.06 1001.35L1297.97 984.434L1260.79 991.068C1260.79 991.068 1231.45 964.356 1218.24 934.365L1254.86 925.182L1211.69 923.447C1211.69 923.447 1196.74 877.406 1218.39 852.977C1218.41 852.928 1218.44 852.914 1218.46 852.863C1218.68 852.639 1218.89 852.381 1219.11 852.158C1222.01 849.076 1225.49 846.372 1229.7 844.195C1267.12 824.752 1337.15 883.202 1337.15 883.202C1337.15 883.202 1316.83 895.912 1307.4 904.622C1307.4 904.622 1331.91 897.001 1348.26 893.851C1348.26 893.851 1406.59 948.297 1416.41 965.273L1397.12 979.372L1423.88 974.293C1423.88 974.293 1451.83 1010.77 1456.72 1023.27L1439.35 1037.48L1462.72 1032.81C1462.72 1032.81 1478.53 1061.63 1483.72 1078.88C1483.72 1078.88 1463.75 1094.23 1452.57 1100.82C1452.57 1100.82 1479.85 1094.42 1487.67 1090.97C1487.67 1090.97 1515.48 1151.46 1459 1183.41Z" fill="#77CC21"/>
<path d="M1479.93 1247.98L1463.29 1258.11C1460.27 1243.04 1456.76 1228.34 1452.79 1214.03C1450.54 1205.82 1448.12 1197.71 1445.6 1189.76C1381.65 988.34 1236.78 867.68 1218.39 852.976C1217.14 851.958 1216.46 851.454 1216.46 851.454L1218.46 852.863C1221.36 854.93 1224.23 856.984 1227.07 859.079C1358 955.689 1427.7 1100.36 1458.96 1183.3C1458.95 1183.33 1458.97 1183.34 1458.97 1183.4C1458.97 1183.4 1458.97 1183.4 1459 1183.41C1458.99 1183.43 1459.01 1183.45 1459.02 1183.48C1462.54 1192.86 1465.58 1201.45 1468.19 1209.08C1476.37 1233.32 1479.93 1247.98 1479.93 1247.98Z" fill="#00842E"/>
<path opacity="0.57" d="M1469.02 1208.78C1469.02 1208.78 1468.73 1208.88 1468.19 1209.08C1466.17 1209.83 1460.59 1211.79 1452.79 1214.03C1450.54 1205.82 1448.12 1197.71 1445.61 1189.76C1441.95 1191.22 1438.03 1192.56 1433.84 1193.81C1397.16 1204.7 1349.12 1150.75 1338.89 1118.63L1369.63 1086.16L1328.02 1096.6C1328.02 1096.6 1307.4 1069.11 1299.65 1047.28L1326.82 1032.79L1289.57 1034.31C1289.57 1034.31 1279.78 1017.84 1271.06 1001.35L1297.97 984.435L1260.79 991.068C1260.79 991.068 1231.45 964.356 1218.24 934.365L1254.86 925.182L1211.69 923.447C1211.69 923.447 1196.74 877.406 1218.39 852.978C1217.14 851.96 1216.46 851.456 1216.46 851.456L1218.46 852.865C1218.68 852.642 1218.89 852.384 1219.11 852.161C1221.54 854.252 1224.18 856.556 1227.07 859.081C1260.44 888.476 1322.62 946.924 1366.67 1010.19C1410.87 1073.63 1443.46 1145.88 1458.96 1183.31C1458.95 1183.33 1458.97 1183.34 1458.97 1183.4C1458.97 1183.4 1458.97 1183.4 1459 1183.41C1458.99 1183.44 1459.01 1183.45 1459.02 1183.48C1465.55 1199.24 1469.02 1208.78 1469.02 1208.78Z" fill="#003E43"/>
<path opacity="0.53" d="M1466.94 1065.34C1430.07 986.472 1371.92 919.089 1301.29 873.373C1304.83 912.398 1333.34 942.661 1358.74 970.995C1385.52 1000.86 1410.77 1032.84 1430.06 1068.83C1439.76 1086.91 1447.67 1105.89 1453.6 1125.74C1455.85 1133.29 1457.93 1148.71 1466.97 1150.56C1477.26 1152.66 1481.02 1139.41 1482.14 1131.38C1485.32 1108.51 1476.29 1085.35 1466.94 1065.34Z" fill="#D2F36D"/>
<path d="M960.162 1265.02C960.141 1265.01 960.141 1265.01 960.141 1265.01C955.821 1266.47 951.087 1267.71 945.917 1268.69C942.071 1269.42 937.989 1269.99 933.661 1270.42C895.739 1274.06 857.618 1211.75 852.991 1178.19L888.714 1152.17L846.023 1154.43C846.023 1154.43 830.39 1123.41 826.461 1100.46L855.637 1091.44L818.742 1085.76C818.742 1085.76 811.897 1067.68 806.116 1049.78L835.439 1038.32L797.752 1037.69C797.752 1037.69 773.415 1005.77 765.487 973.724L803.067 971.741L760.898 961.725C760.898 961.725 753.98 913.562 779.406 893.7C779.433 893.655 779.469 893.647 779.496 893.602C779.753 893.426 780.003 893.213 780.26 893.035C783.626 890.561 787.51 888.572 792.023 887.241C832.118 875.319 891.102 946.289 891.102 946.289C891.102 946.289 868.966 954.88 858.221 961.632C858.221 961.632 883.622 958.855 900.23 958.904C900.23 958.904 948.399 1023.68 955.181 1042.27L933.82 1052.42L961.005 1052.58C961.005 1052.58 982.319 1093.83 985.015 1107.07L965.528 1117.71L989.309 1117.61C989.309 1117.61 999.98 1149.01 1002.17 1166.97C1002.17 1166.97 979.929 1178.22 967.815 1182.55C967.815 1182.55 995.727 1181.51 1004.01 1179.62C1004.01 1179.62 1021.12 1244.47 960.162 1265.02Z" fill="#77CC21"/>
<path d="M969.825 1332.56L951.754 1339.32C951.333 1323.92 950.36 1308.78 948.879 1293.94C948.058 1285.43 947.046 1276.99 945.917 1268.69C917.085 1058.27 795.014 911.704 779.408 893.7C778.35 892.459 777.766 891.83 777.766 891.83L779.498 893.602C782 896.192 784.482 898.767 786.913 901.374C899.355 1021.6 943.432 1177.32 960.139 1264.91C960.125 1264.93 960.146 1264.95 960.141 1265.01C960.141 1265.01 960.141 1265.01 960.162 1265.02C960.148 1265.04 960.169 1265.06 960.177 1265.09C962.053 1275 963.585 1284.03 964.856 1292.04C968.806 1317.46 969.825 1332.56 969.825 1332.56Z" fill="#00842E"/>
<path opacity="0.57" d="M965.726 1291.9C965.726 1291.9 965.425 1291.95 964.856 1292.04C962.746 1292.39 956.926 1293.24 948.879 1293.94C948.058 1285.43 947.046 1276.99 945.917 1268.69C942.071 1269.42 937.989 1269.99 933.661 1270.42C895.739 1274.06 857.618 1211.75 852.991 1178.19L888.714 1152.17L846.023 1154.43C846.023 1154.43 830.39 1123.41 826.461 1100.46L855.637 1091.44L818.742 1085.76C818.742 1085.76 811.897 1067.68 806.116 1049.78L835.439 1038.32L797.752 1037.69C797.752 1037.69 773.415 1005.77 765.487 973.723L803.067 971.741L760.898 961.724C760.898 961.724 753.98 913.561 779.406 893.7C778.348 892.459 777.764 891.83 777.764 891.83L779.496 893.602C779.753 893.425 780.003 893.213 780.26 893.034C782.292 895.557 784.502 898.332 786.911 901.374C814.76 936.708 866.038 1006.17 898.658 1076.87C931.393 1147.78 951.23 1225.12 960.137 1264.91C960.123 1264.93 960.145 1264.95 960.139 1265.01C960.139 1265.01 960.139 1265.01 960.16 1265.02C960.146 1265.04 960.168 1265.06 960.175 1265.09C963.933 1281.86 965.726 1291.9 965.726 1291.9Z" fill="#003E43"/>
<path opacity="0.53" d="M987.945 1150.42C965.027 1065.75 919.235 988.28 857.495 929.722C854.373 968.787 877.293 1004.04 897.489 1036.8C918.775 1071.33 938.198 1107.64 951.086 1146.75C957.562 1166.41 962.134 1186.59 964.607 1207.26C965.55 1215.13 964.981 1230.69 973.562 1234.25C983.326 1238.29 989.27 1225.99 991.728 1218.3C998.727 1196.42 993.761 1171.9 987.945 1150.42Z" fill="#D2F36D"/>
<path d="M499.71 887.386C500.935 886.466 502.166 885.667 503.422 884.94C504.887 884.047 506.369 883.31 507.853 882.696L507.876 882.706C546.412 866.529 583.487 934.912 561.329 969.339C537.589 1006.18 554.33 995.203 576.319 977.514C600.412 958.085 630.836 985.421 599.147 1016.04C567.435 1046.64 570.396 1068.57 583.896 1062.47C598.168 1056.06 620.22 1039.53 631.308 1069.82C640.605 1095.23 616.808 1114.36 587.997 1137.62C565.91 1155.47 574.67 1172.41 599.068 1161.61C623.432 1150.83 653.909 1153.65 644.25 1205.32C634.876 1255.45 587.15 1303.49 548.872 1308.28C547.699 1308.43 546.545 1308.52 545.402 1308.59C543.231 1308.73 541.032 1308.73 538.862 1308.6C537.182 1308.56 535.546 1308.42 533.874 1308.23C478.608 1301.95 423.994 1231.85 442.828 1198.95C462.952 1163.75 492.301 1207.15 504.983 1183.03C517.644 1158.89 421.154 1140.79 436.417 1092.76C445.598 1063.86 484.822 1098.03 495.085 1069.53C505.322 1041.03 431.76 1034.34 442.012 994.627C451.109 959.455 487.024 1000.1 491.676 974.848C496.329 949.594 458.557 918.018 499.71 887.386Z" fill="#00B759"/>
<path d="M503.283 885.199C503.326 885.1 503.356 885.027 503.422 884.938C504.076 883.595 505.403 882.634 506.922 882.598C507.262 882.583 507.557 882.608 507.855 882.694L507.878 882.704C509.501 883.075 510.808 884.449 511.098 886.251C527.549 989.18 543.918 1231.09 548.876 1308.28C549.88 1323.57 550.406 1332.4 550.406 1332.4C545.308 1336.01 541.739 1337.67 539.244 1338.3C535.18 1339.36 534.045 1337.77 534.045 1337.77C534.051 1327.95 533.985 1318.1 533.876 1308.23C531.564 1117.74 506.835 919.996 502.947 887.556C502.838 886.704 502.98 885.913 503.283 885.199Z" fill="#77CC21"/>
<path opacity="0.29" d="M579.779 1187.08C569.225 1180.56 565.661 1165.34 568.645 1152.73C571.63 1140.12 579.745 1129.66 588.183 1120.27C593.462 1114.4 599.139 1108.46 601.568 1100.75C603.997 1093.04 601.872 1082.98 594.888 1079.71C585.545 1075.34 574.829 1085.23 564.962 1082.47C557.431 1080.36 553.167 1071.07 554.027 1062.82C554.887 1054.57 559.693 1047.37 565.119 1041.42C569.539 1036.57 574.724 1031.81 576.093 1025.21C577.462 1018.6 572.028 1010.26 566.024 1012.43C564.085 1013.13 562.573 1014.74 560.805 1015.85C551.765 1021.48 540.08 1011.14 538.851 1000.05C537.622 988.964 542.845 978.401 546.871 968.089C550.895 957.78 553.672 945.369 548.085 935.923C545.646 931.803 540.919 928.555 536.608 930.166C532.436 931.727 530.648 936.876 529.592 941.453C523.984 965.757 524.285 991.584 530.458 1015.73C531.868 1021.25 533.659 1026.83 537.171 1031.15C540.681 1035.47 546.282 1038.28 551.466 1036.83C548.004 1045.17 544.5 1053.67 543.578 1062.74C542.656 1071.8 544.719 1081.69 550.961 1087.91C556.817 1093.76 565.834 1096.04 569.787 1103.48C573.677 1110.8 570.976 1120.1 567.053 1127.4C563.128 1134.7 557.94 1141.6 556.709 1149.91C553.259 1173.21 581.816 1191.39 578.911 1214.78C578.189 1220.6 575.497 1226.52 577.264 1232.07C580.163 1241.2 593.562 1241.1 599.441 1235.42C607.478 1227.66 608.938 1213.97 605.658 1203.41C601.232 1189.14 590.416 1193.64 579.779 1187.08Z" fill="#D2F36D"/>
<path opacity="0.57" d="M499.71 887.386C500.935 886.466 502.166 885.667 503.422 884.94C504.076 883.597 505.403 882.636 506.922 882.6C507.262 882.585 507.557 882.61 507.855 882.696L507.878 882.706C526.585 966.672 532.849 1168.27 535.65 1205.88C537.355 1229.13 538.348 1273.67 538.866 1308.6C539.035 1319.84 539.158 1330.07 539.244 1338.3C535.18 1339.36 534.045 1337.77 534.045 1337.77C534.051 1327.96 533.985 1318.1 533.876 1308.23C478.61 1301.95 423.996 1231.84 442.83 1198.95C462.954 1163.75 492.302 1207.15 504.985 1183.02C517.645 1158.89 421.156 1140.78 436.419 1092.76C445.6 1063.85 484.824 1098.03 495.087 1069.53C505.324 1041.02 431.762 1034.34 442.014 994.625C451.111 959.453 487.026 1000.1 491.678 974.846C496.329 949.594 458.557 918.018 499.71 887.386Z" fill="#003E43"/>
<path d="M1040.39 1031.86C1037.88 1054.82 974.752 1044.62 974.752 1044.62C974.752 1076.51 986.88 1101.67 986.88 1101.67C1020.54 1112.82 1066.85 1105.85 1088.09 1102.03C1109.34 1098.2 1113.5 1126.27 1072.83 1137.75C1032.16 1149.23 995.084 1123.71 995.084 1123.71C1004.46 1175.08 1051.11 1233.43 1051.11 1233.43C1095.2 1247.46 1172.1 1178.57 1168.52 1213.02C1164.93 1247.46 1081.32 1255.12 1081.32 1255.12C1081.32 1255.12 1132.63 1302.32 1192.44 1275.53C1246.26 1251.42 1231.91 1207.51 1243.65 1194.37C1244.95 1192.91 1246.57 1191.84 1248.65 1191.2C1250.21 1190.74 1251.59 1190.9 1252.86 1191.51C1258.56 1194.19 1262 1206 1269.97 1210.41C1275.11 1213.3 1282.14 1213.09 1292.91 1205.36C1323.98 1183.04 1321.42 1156.88 1321.42 1156.88C1321.42 1156.88 1285.73 1170.92 1271.38 1163.26C1257.03 1155.61 1255.83 1144.13 1280.28 1137.75C1304.75 1131.37 1321.42 1121.16 1321.42 1121.16C1310.47 1066.3 1273.82 1024.2 1273.82 1024.2C1273.82 1024.2 1271.38 1039.51 1251.36 1056.1C1231.33 1072.68 1215.16 1057.37 1229.35 1043.34C1243.53 1029.31 1262.41 1014 1262.41 1014C1243.87 979.55 1202.44 957.862 1202.44 957.862C1204.09 970.619 1198.42 991.031 1187.39 982.968C1176.36 974.88 1188.85 946.378 1188.85 946.378C1174.57 929.947 1133.59 910.198 1133.59 910.198C1133.59 910.198 1130.24 933.621 1119.36 929.794C1108.5 925.966 1114.41 901.726 1114.41 901.726C1073 885.115 1005.35 877.334 996.138 876.339C995.445 876.237 995.086 876.212 995.086 876.212C961.596 924.692 969.968 1020.19 969.968 1020.19C1001.07 1032.78 1042.93 1008.9 1040.39 1031.86ZM1141.82 1147.11C1145.46 1118.84 1172.11 1130.81 1189.14 1134.05C1193.8 1134.94 1198.59 1135.89 1202.61 1138.56C1208.99 1142.8 1212.44 1150.99 1212.77 1159C1213.11 1167.01 1210.72 1174.92 1207.53 1182.17C1205.05 1187.86 1201.51 1193.73 1195.86 1195.44C1189.33 1197.38 1182.61 1192.94 1177.99 1187.66C1173.37 1182.35 1169.69 1175.92 1164 1172.01C1157.23 1167.35 1147.73 1166.27 1143.57 1158.87C1141.63 1155.41 1141.32 1151.12 1141.82 1147.11ZM1107.14 1065.23C1107.93 1063.4 1109.31 1061.97 1110.7 1060.56C1120.13 1050.92 1127.87 1042.76 1141.87 1047.99C1146.77 1049.82 1151.01 1053.34 1154.45 1057.48C1156.77 1060.28 1158.85 1063.63 1159 1067.38C1159.14 1071.89 1156.29 1076.08 1152.66 1078.43C1149.02 1080.75 1144.72 1081.54 1140.48 1081.97C1134.91 1082.54 1129.29 1082.54 1123.71 1082.03C1119.24 1081.59 1114.6 1080.73 1111.01 1077.84C1107.42 1074.98 1105.24 1069.57 1107.14 1065.23ZM1058.65 963.02C1074.79 950.849 1085.15 991.879 1086.73 1000.99C1087.33 1004.56 1087.95 1008.13 1088.09 1011.76C1088.31 1018.01 1087.06 1024.23 1085.32 1030.21C1084.07 1034.44 1082.4 1038.83 1079.1 1041.53C1075.77 1044.24 1070.37 1044.44 1067.86 1040.9C1066.13 1038.4 1066.28 1034.95 1067.07 1031.97C1067.86 1028.98 1069.2 1026.17 1069.6 1023.11C1070.32 1017.83 1068.24 1012.57 1065.58 1008.08C1060.2 998.895 1045.47 972.972 1058.65 963.02Z" fill="#00B759"/>
<path d="M996.57 877.111C1011.28 886.091 1130.99 961.644 1196.6 1082.66C1220.19 1126.17 1234.76 1163.72 1243.66 1194.37C1261.24 1254.66 1257.03 1288.29 1257.03 1288.29C1257.03 1288.29 1266.62 1290.56 1274.42 1287.52C1278.29 1286.02 1281.74 1283.19 1283.34 1278.08C1283.34 1278.08 1281.88 1251.65 1269.97 1210.42C1246.41 1128.97 1181.92 989.861 1006.79 883.208C1003.43 881.141 1000.01 879.126 996.57 877.111Z" fill="#77CC21"/>
<path d="M1212.92 1033.16C1215.23 1032.73 1217.86 1032.08 1218.95 1029.87C1220.36 1027.01 1218.3 1023.64 1216.17 1021.35C1211.05 1015.85 1204.82 1011.52 1198.02 1008.74C1196.58 1008.15 1195.05 1007.62 1193.53 1007.88C1190.35 1008.42 1188.59 1012 1187.31 1015.14C1186.05 1018.24 1184.76 1021.59 1185.4 1024.9C1186.01 1028.03 1188.3 1030.56 1190.94 1032.09C1198.33 1036.36 1205.08 1034.59 1212.92 1033.16Z" fill="#006839"/>
<path d="M1151.88 972.032C1145.46 964.311 1139.05 956.59 1132.64 948.867C1131.13 947.038 1129.55 945.162 1127.49 944.087C1125.43 943.011 1122.75 942.921 1121.02 944.525C1119.52 945.913 1119.07 948.269 1119.43 950.349C1119.79 952.43 1120.84 954.296 1121.95 956.053C1124.52 960.145 1127.52 963.932 1130.87 967.327C1134.55 971.05 1138.68 974.342 1141.66 978.712C1144.12 982.321 1147.91 989.417 1153.09 986.421C1158.87 983.072 1154.79 975.54 1151.88 972.032Z" fill="#006839"/>
<path opacity="0.41" d="M1040.39 1031.86C1039.58 1039.33 1032.33 1043.29 1022.93 1045.23C1003.46 1049.26 974.752 1044.62 974.752 1044.62C974.752 1076.51 986.88 1101.67 986.88 1101.67C1003.55 1107.18 1023.31 1108.28 1041.61 1107.49C1060.25 1106.7 1077.37 1103.97 1088.09 1102.03C1109.33 1098.2 1113.5 1126.27 1072.83 1137.75C1066.87 1139.43 1060.99 1140.33 1055.27 1140.61C1022.07 1142.29 995.082 1123.71 995.082 1123.71C1004.46 1175.08 1051.11 1233.43 1051.11 1233.43C1071.15 1239.81 1097.97 1229.07 1120.91 1218.66C1148.47 1206.18 1170.47 1194.24 1168.51 1213.02C1167.63 1221.49 1161.89 1228.35 1153.75 1233.86C1128.83 1250.78 1081.32 1255.12 1081.32 1255.12C1081.32 1255.12 1132.63 1302.32 1192.44 1275.53C1241.74 1253.43 1233.84 1214.75 1241.21 1198.3C1241.86 1196.79 1242.67 1195.46 1243.65 1194.37C1261.23 1254.66 1257.02 1288.29 1257.02 1288.29C1257.02 1288.29 1266.62 1290.56 1274.41 1287.52C1271.45 1264.56 1265.37 1230.85 1252.86 1191.51C1240.4 1152.19 1221.5 1107.21 1192.91 1061.63C1142.49 981.26 1061.94 919.308 1006.92 883.306C1006.9 883.281 1006.85 883.255 1006.83 883.23C1006.8 883.23 1006.8 883.206 1006.78 883.206C1003.12 880.807 999.554 878.512 996.134 876.343C995.441 876.24 995.082 876.216 995.082 876.216C961.592 924.696 969.964 1020.2 969.964 1020.2C985.417 1026.45 1003.55 1023.69 1017.54 1022.19C1031.71 1020.61 1041.66 1020.3 1040.39 1031.86ZM1141.82 1147.11C1145.46 1118.84 1172.11 1130.81 1189.14 1134.05C1193.8 1134.94 1198.59 1135.89 1202.61 1138.56C1208.99 1142.8 1212.44 1150.99 1212.77 1159C1213.11 1167.01 1210.72 1174.92 1207.53 1182.17C1205.05 1187.86 1201.51 1193.73 1195.86 1195.44C1189.33 1197.38 1182.61 1192.94 1177.99 1187.66C1173.37 1182.35 1169.69 1175.92 1164 1172.01C1157.23 1167.35 1147.73 1166.27 1143.57 1158.87C1141.63 1155.41 1141.32 1151.12 1141.82 1147.11ZM1111.01 1077.84C1107.42 1074.98 1105.24 1069.57 1107.14 1065.23C1107.93 1063.4 1109.31 1061.97 1110.7 1060.56C1120.13 1050.92 1127.87 1042.76 1141.87 1047.99C1146.77 1049.82 1151.01 1053.34 1154.45 1057.48C1156.77 1060.28 1158.85 1063.63 1159 1067.38C1159.14 1071.89 1156.29 1076.08 1152.66 1078.43C1149.02 1080.75 1144.72 1081.54 1140.48 1081.97C1134.91 1082.54 1129.29 1082.54 1123.71 1082.03C1119.24 1081.59 1114.6 1080.72 1111.01 1077.84ZM1058.65 963.02C1074.79 950.849 1085.15 991.879 1086.73 1000.99C1087.33 1004.56 1087.95 1008.13 1088.09 1011.76C1088.31 1018.01 1087.06 1024.23 1085.32 1030.2C1084.07 1034.44 1082.4 1038.83 1079.1 1041.53C1075.77 1044.24 1070.37 1044.44 1067.86 1040.9C1066.13 1038.4 1066.28 1034.95 1067.07 1031.97C1067.86 1028.98 1069.2 1026.17 1069.6 1023.11C1070.32 1017.83 1068.24 1012.57 1065.58 1008.08C1060.2 998.895 1045.47 972.971 1058.65 963.02Z" fill="#005177"/>
<path opacity="0.41" d="M969.97 1020.2C985.422 1026.45 1003.56 1023.7 1017.55 1022.19C1000.76 945.518 996.138 876.345 996.138 876.345C995.445 876.242 995.086 876.218 995.086 876.218C961.596 924.696 969.97 1020.2 969.97 1020.2Z" fill="#005177"/>
<path d="M826.409 1349.39C826.309 1348.84 826.221 1348.27 826.077 1347.7C806.36 1242.06 700.59 1248.3 641.665 1100.58C587.723 965.332 700.523 839.456 721.095 818.061C721.106 818.036 721.106 818.036 721.106 818.036C723.13 815.941 724.244 814.862 724.244 814.862C714.763 908.455 715.488 1024.69 818.664 1136.97C921.839 1249.24 826.409 1349.39 826.409 1349.39Z" fill="#00B759"/>
<path d="M724.25 814.858C711.763 835.758 702.426 858.62 695.629 882.165C688.747 905.695 684.752 930.154 684.028 954.695C683.617 966.965 684.139 979.249 685.405 991.426C685.911 997.533 686.973 1003.56 687.87 1009.61C689.074 1015.6 690.116 1021.63 691.702 1027.52C697.326 1051.3 706.696 1073.88 717.854 1095.35C723.551 1106 729.618 1116.45 736.373 1126.39C743.12 1136.34 750.382 1145.88 757.995 1155.13C765.597 1164.39 773.607 1173.29 781.719 1182.14C789.832 1190.99 798.027 1199.83 805.684 1209.3C813.337 1218.74 820.476 1228.85 825.943 1240.04C831.49 1251.17 834.95 1263.48 836.24 1275.96C837.507 1288.46 836.764 1301.03 834.952 1313.31C833.066 1325.6 829.936 1337.58 826.407 1349.38L828.542 1340.37C828.89 1338.87 829.27 1337.38 829.591 1335.87L830.453 1331.32C830.996 1328.29 831.724 1325.29 832.133 1322.23L833.441 1313.08C834.811 1300.84 835.098 1288.44 833.439 1276.34C831.878 1264.24 828.325 1252.48 822.73 1241.86C817.224 1231.18 810.089 1221.53 802.368 1212.43C786.773 1194.35 769.485 1177.62 753.919 1158.99C746.11 1149.71 738.731 1139.99 731.811 1129.91C724.899 1119.81 718.664 1109.19 712.831 1098.35C701.579 1076.47 692.008 1053.34 686.434 1028.96C684.88 1022.91 683.874 1016.74 682.714 1010.6C681.862 1004.4 680.85 998.228 680.397 991.981C679.725 985.759 679.518 979.499 679.28 973.248L679.287 963.864C679.299 960.737 679.516 957.616 679.621 954.493C682.221 904.605 697.697 855.568 724.25 814.858Z" fill="#CAE200"/>
<path d="M644.856 933.587C650.88 939.442 656.957 945.039 663.249 950.266C669.549 955.47 676.061 960.281 682.931 964.26L680.355 964.18C684.026 962.208 687.833 959.938 691.48 957.6C695.187 955.308 698.784 952.809 702.368 950.274C705.934 947.714 709.492 945.105 712.954 942.336C716.498 939.661 719.845 936.722 723.382 933.906C720.805 937.709 717.936 941.291 714.87 944.673C713.342 946.371 711.729 947.972 710.129 949.602C708.482 951.165 706.821 952.725 705.106 954.212C701.712 957.239 698.089 959.957 694.415 962.599C690.677 965.181 686.935 967.58 682.786 969.699L681.438 970.387L680.209 969.619C676.611 967.371 673.028 965.095 669.771 962.365C666.492 959.678 663.303 956.883 660.382 953.795C657.406 950.774 654.635 947.542 652.009 944.2C649.426 940.814 646.949 937.337 644.856 933.587Z" fill="#CAE200"/>
<path d="M627.27 1020.17C632.706 1025.33 638.537 1029.87 644.528 1034.12C646.001 1035.22 647.533 1036.23 649.052 1037.25C650.555 1038.3 652.105 1039.27 653.656 1040.24C656.701 1042.26 659.873 1044.06 663.005 1045.91C669.351 1049.47 675.773 1052.86 682.365 1055.85C685.606 1057.48 688.991 1058.75 692.294 1060.22L702.376 1064.19L699.179 1065.25C702.743 1060.08 706.162 1054.65 709.574 1049.28C712.94 1043.86 716.218 1038.37 719.436 1032.84C722.608 1027.28 725.701 1021.67 728.652 1015.96C731.604 1010.24 734.332 1004.41 736.991 998.467C735.413 1004.82 733.366 1011.06 731.026 1017.17C728.616 1023.24 726.054 1029.26 723.153 1035.08C720.302 1040.94 717.241 1046.67 714 1052.29C710.794 1057.95 707.38 1063.4 703.745 1068.85L702.526 1070.67L700.548 1069.92C697.098 1068.59 693.617 1067.35 690.214 1065.88C686.845 1064.33 683.4 1062.97 680.096 1061.26C676.747 1059.66 673.462 1057.91 670.236 1056.04C666.972 1054.26 663.811 1052.26 660.659 1050.26C657.573 1048.14 654.461 1046.07 651.483 1043.79C649.977 1042.67 648.501 1041.52 647.061 1040.31C645.609 1039.11 644.148 1037.94 642.748 1036.68C637.145 1031.67 631.721 1026.35 627.27 1020.17Z" fill="#CAE200"/>
<path opacity="0.57" d="M826.077 1347.7C806.36 1242.06 700.59 1248.3 641.665 1100.58C587.723 965.333 700.523 839.456 721.095 818.061C705.17 848.132 674.172 917.36 681.503 989.898C691.276 1086.61 736.388 1118.61 777.875 1177.72C819.363 1236.84 832.943 1243.49 838.212 1299.49C840.097 1319.48 834.322 1335.46 826.077 1347.7Z" fill="#003E43"/>
<path d="M237.155 725.396C218.83 693.656 213.872 630.736 213.872 630.736C216.084 626.936 218.461 627.295 220.153 628.389C221.56 629.302 222.514 630.736 222.514 630.736C239.617 706.292 260.572 721.22 267.054 733.605C267.64 734.717 268.109 735.808 268.445 736.92C272.53 750.414 255.463 757.152 237.155 725.396Z" fill="#FF133A"/>
<path opacity="0.55" d="M237.155 725.396C218.83 693.656 213.872 630.736 213.872 630.736C216.084 626.936 218.461 627.295 220.153 628.389C220.153 628.728 220.135 628.925 220.135 628.925C220.135 628.925 227.305 705.594 247.088 730.057C257.406 742.8 263.537 739.591 267.054 733.607C267.64 734.719 268.109 735.81 268.445 736.922C272.53 750.415 255.463 757.152 237.155 725.396Z" fill="#92003D"/>
<path d="M308.144 722.619C302.215 732.941 266.217 718.462 227.825 625.681L231.896 621.989L232.097 621.811C232.097 621.811 247.306 655.144 275.13 680.557C294.494 698.228 305.784 706.688 308.831 713.659C310.187 716.723 309.953 719.482 308.144 722.619Z" fill="#FF133A"/>
<path opacity="0.55" d="M308.144 722.619C302.215 732.941 266.217 718.461 227.825 625.681L231.896 621.988C234.811 630.107 249.92 670.018 274.057 693.549C296.184 715.127 303.371 716.041 308.831 713.657C310.187 716.723 309.953 719.481 308.144 722.619Z" fill="#92003D"/>
<path d="M292.933 746.042C285.143 755.971 266.937 740.468 245.06 698.801C223.185 657.132 220.955 620.608 220.955 620.608L230.487 627.633C230.487 627.633 231.291 629.568 232.731 632.866C238.274 645.571 253.351 678.493 269.063 699.606C279.95 714.231 288.427 723.801 292.565 731.112C295.965 737.099 296.434 741.58 292.933 746.042Z" fill="#FF4F74"/>
<path opacity="0.55" d="M292.933 746.042C285.143 755.971 266.937 740.468 245.06 698.801C223.185 657.132 220.955 620.608 220.955 620.608L230.487 627.633C230.487 627.633 231.291 629.568 232.731 632.866C230.487 636.288 230.135 646.288 237.186 666.164C246.398 692.08 262.446 720.932 276.432 730.789C282.713 735.214 288.308 733.908 292.563 731.112C295.965 737.099 296.434 741.58 292.933 746.042Z" fill="#92003D"/>
<path d="M257.254 521.414C256.552 525.661 255.613 530.105 254.474 534.605C253.687 537.74 252.832 540.663 251.978 543.368C248.41 554.481 244.457 561.827 241.827 564.927C240.536 566.469 239.565 566.969 239.146 566.361C237.94 564.641 236.884 554.139 237.22 538.887C237.287 535.393 237.422 531.664 237.656 527.721C237.89 523.67 238.376 519.656 239.064 515.839C241.894 499.637 247.975 486.716 251.995 488.025C255.246 489.082 257.204 492.578 258.126 497.667C259.215 503.762 258.796 512.148 257.254 521.414Z" fill="#FFC600"/>
<path d="M258.126 497.667C256.87 498.062 255.63 499.209 254.441 501.734C252.984 504.782 252.85 508.329 252.65 511.735C251.611 529.925 247.944 547.919 241.828 564.925C240.538 566.468 239.567 566.967 239.148 566.359C237.942 564.639 236.886 554.137 237.222 538.885C237.289 535.391 237.424 531.662 237.658 527.719C237.892 523.668 238.378 519.654 239.065 515.837C241.896 499.635 247.977 486.714 251.997 488.023C255.246 489.084 257.204 492.578 258.126 497.667Z" fill="#FF7D00"/>
<path d="M257.254 521.413C256.552 525.661 255.613 530.105 254.474 534.605C253.687 537.74 252.832 540.663 251.978 543.368C250.922 544.318 249.666 545.053 248.326 544.91C248.142 544.892 247.975 544.857 247.806 544.785C246.331 544.374 245.227 542.887 244.791 541.291C244.305 539.518 244.49 537.617 244.691 535.788C243.82 537.904 242.547 540.359 240.386 540.519C238.946 540.519 237.925 539.909 237.22 538.889C237.287 535.395 237.422 531.666 237.656 527.723C237.89 523.672 238.376 519.658 239.064 515.841C241.894 499.639 247.975 486.718 251.995 488.027C255.246 489.084 257.204 492.58 258.126 497.669C259.215 503.762 258.796 512.148 257.254 521.413Z" fill="#FF6D00"/>
<path opacity="0.37" d="M258.126 497.667C256.87 498.062 255.63 499.209 254.441 501.734C252.984 504.782 252.85 508.329 252.65 511.735C252.013 522.882 250.388 533.958 247.81 544.781C246.335 544.37 245.231 542.883 244.795 541.287C244.309 539.514 244.494 537.613 244.695 535.784C243.823 537.9 242.55 540.356 240.39 540.515C238.95 540.515 237.929 539.905 237.224 538.885C237.291 535.391 237.426 531.662 237.66 527.719C237.894 523.668 238.38 519.654 239.067 515.837C241.898 499.635 247.978 486.714 251.999 488.023C255.246 489.084 257.204 492.578 258.126 497.667Z" fill="#C11046"/>
<path d="M257.254 521.413C256.953 521.862 256.602 522.274 256.198 522.669C254.925 523.924 253.134 524.694 251.458 524.569C250.805 524.516 250.167 524.317 249.564 523.978C247.873 522.956 246.968 520.805 246.851 518.726C246.734 516.648 247.253 514.587 247.756 512.578C247.153 514.37 246.5 516.234 245.227 517.543C242.564 520.32 239.883 518.726 239.064 515.841C241.894 499.639 247.975 486.718 251.995 488.027C255.246 489.084 257.204 492.58 258.126 497.669C259.215 503.762 258.796 512.148 257.254 521.413Z" fill="#FF4B36"/>
<path d="M258.126 497.667C256.87 498.062 255.63 499.209 254.441 501.734C252.984 504.782 252.85 508.329 252.65 511.735C252.398 516.035 252.013 520.32 251.461 524.567C250.809 524.514 250.171 524.316 249.568 523.976C247.877 522.954 246.972 520.803 246.855 518.724C246.738 516.646 247.257 514.585 247.76 512.576C247.157 514.368 246.504 516.232 245.231 517.541C242.568 520.318 239.887 518.724 239.067 515.839C241.898 499.637 247.978 486.716 251.999 488.025C255.246 489.084 257.204 492.578 258.126 497.667Z" fill="#C71945"/>
<path d="M256.2 433.777C256.2 433.777 253.739 448.867 252.498 481.411C251.258 513.956 241.861 545.194 235.546 575.087C233.269 585.839 232.564 594.424 232.531 601.289C232.447 613.511 234.492 620.215 233.705 623.78C232.466 629.336 216.386 634.641 208.713 628.278C201.058 621.933 139.719 592.292 139.467 525.873C139.216 460.495 162.952 435.872 163.689 435.118C161.629 436.069 159.686 436.874 157.86 437.555C142.633 443.29 135.145 440.763 132.734 436.804C131.862 435.352 131.677 433.703 132.046 432.198C133.521 426.105 141.695 431.93 148.864 432.198C150.892 432.27 153.052 432.091 155.095 431.805C160.254 431.035 164.693 429.546 164.693 429.546C160.824 430.048 157.289 430.191 154.091 430.048C152.633 429.994 151.226 429.869 149.903 429.689C145.197 429.079 141.326 427.807 138.211 426.124C138.194 426.124 138.194 426.105 138.179 426.105C125.633 419.312 125.18 406.051 130.558 403.882C138.48 400.691 135.75 408.9 147.879 417.108C150.475 418.865 153.038 420.047 155.485 420.801C163.693 423.363 170.409 421.249 171.465 420.872C170.795 421.034 167.713 421.464 160.409 418.757C158.384 418.003 156.037 417 153.324 415.693C152.385 415.245 151.399 414.743 150.36 414.206C144.279 411.034 140.729 405.873 138.953 400.46C135.953 391.357 137.948 381.625 141.197 379.796C146.389 376.892 153.559 376.085 154.565 390.388C155.402 402.432 159.037 407.145 168.032 407.681C169.707 407.788 171.567 407.735 173.61 407.575C186.709 406.518 194.13 395.944 212.186 394.617C230.243 393.292 248.551 405.73 252.254 411.015C255.966 416.322 255.463 425.048 256.2 433.777Z" fill="#FF133A"/>
<path opacity="0.55" d="M233.705 623.783C232.466 629.339 216.386 634.643 208.713 628.28C201.058 621.936 139.719 592.295 139.467 525.876C139.216 460.498 162.952 435.875 163.689 435.121C161.629 436.071 159.686 436.876 157.86 437.558C142.633 443.293 135.145 440.765 132.734 436.807C134.627 436.411 136.553 436.125 138.446 435.856C148.68 434.369 158.916 432.881 169.132 431.375C171.796 430.998 174.962 430.802 176.686 433.005C178.412 435.209 177.625 438.668 175.983 440.927C174.324 443.186 171.98 444.763 170.238 446.948C165.431 452.988 166.419 462.701 171.093 468.866C175.784 475.012 183.253 478.041 190.624 478.975C195.833 479.638 201.209 479.387 206.236 481.054C211.261 482.702 216.069 486.931 216.453 492.541C216.804 497.397 213.772 501.843 210.155 504.8C206.553 507.757 202.298 509.693 198.613 512.542C191.745 517.827 187.223 526.089 185.011 534.818C182.801 543.546 182.75 552.756 183.571 561.753C184.493 571.915 186.638 582.309 192.348 590.464C197.759 598.205 206.284 603.385 215.28 604.407C220.706 605.015 227.541 604.407 232.531 601.288C232.447 613.512 234.492 620.215 233.705 623.783Z" fill="#92003D"/>
<path d="M230.98 462.568C229.736 465.538 228.238 468.509 225.85 470.529C223.517 472.501 220.55 473.381 217.634 474C210.781 475.452 203.707 475.702 196.78 474.739C193.652 474.305 190.468 473.588 187.819 471.755C185.541 470.18 183.785 467.856 182.446 465.335C178.842 458.548 178.155 450.21 179.937 442.639C181.719 435.069 185.843 428.26 191.106 422.853C196.459 417.354 203.479 413.088 210.89 413.459C217.42 413.787 223.496 417.76 227.603 423.203C231.842 428.821 234.342 436.05 235.367 443.145C236.31 449.672 233.44 456.694 230.98 462.568Z" fill="#FFFDF8"/>
<path d="M248.044 486.177C248.762 486.507 258.927 488.295 268.078 472.417C277.229 456.538 268.326 437.222 261.647 431.663C254.969 426.105 245.818 427.694 238.397 434.045C230.978 440.396 231.719 453.825 227.514 457.431C223.309 461.038 218.116 463.156 215.395 461.302C212.674 459.449 213.169 471.888 222.568 477.973C231.967 484.059 242.602 474.796 246.312 474.004C250.021 473.209 253.485 479.296 251.258 481.149C249.034 483.003 244.582 484.59 248.044 486.177Z" fill="#FFC600"/>
<path d="M213.957 460.773C213.957 460.773 209.953 470.037 219.352 483.267C228.751 496.499 253.485 485.118 256.454 481.149C259.422 477.18 252.744 466.065 242.109 471.093C231.473 476.121 219.444 483.795 213.957 460.773Z" fill="#FF9400"/>
<path d="M195.361 448.336C195.912 443.771 197.171 439.401 199.013 435.204C199.925 433.091 201.013 431.045 202.517 429.087C203.281 428.11 204.151 427.164 205.362 426.322C205.977 425.917 206.676 425.53 207.569 425.333C208.423 425.102 209.464 425.138 210.395 425.423C212.246 426.105 213.311 427.367 214.11 428.645C214.859 429.941 215.28 431.229 215.564 432.483C216.109 434.993 216.178 437.381 216.036 439.722C215.771 444.382 214.815 448.865 213.104 453.094C212.716 448.531 212.53 444.099 212.056 439.849C211.764 437.746 211.474 435.659 210.902 433.869C210.414 432.065 209.362 430.697 208.895 430.621C208.82 430.576 208.561 430.564 207.966 430.91C207.394 431.233 206.745 431.848 206.111 432.522C204.831 433.892 203.638 435.61 202.438 437.332C200.098 440.857 197.868 444.613 195.361 448.336Z" fill="#410700"/>
<path d="M168.025 407.683C165.513 412.611 161.978 416.948 160.486 418.669C160.454 418.706 160.419 418.722 160.402 418.759C158.376 418.005 156.03 417.002 153.317 415.695C152.378 415.247 151.391 414.745 150.352 414.208C144.271 411.036 140.721 405.875 138.945 400.462C135.946 391.359 137.941 381.627 141.19 379.798C143.3 378.614 145.729 377.791 147.956 378.167C151.189 378.741 153.952 381.895 154.555 390.39C155.396 402.432 159.031 407.145 168.025 407.683Z" fill="#00D8AB"/>
<path d="M154.089 430.05C153.62 430.031 153.15 429.996 152.699 429.96H152.681C126.399 428.168 123.586 406.68 130.554 403.884C131.023 403.688 131.459 403.544 131.862 403.436C138.21 401.662 136.468 409.385 147.875 417.11C150.471 418.868 153.035 420.049 155.481 420.803C154.507 422.54 153.117 425.964 154.089 430.05Z" fill="#FFC600"/>
<path d="M157.858 437.557C157.574 437.666 157.305 437.772 157.021 437.862C136.869 445.192 130.689 437.719 132.046 432.2C132.23 431.43 132.532 430.838 132.918 430.408C135.598 427.504 142.616 431.966 148.864 432.2C150.892 432.271 153.052 432.093 155.095 431.806C155.212 433.041 155.748 435.425 157.858 437.557Z" fill="#00D8AB"/>
<path d="M410.538 557.831L409.801 559.121L408.695 561.075C372.697 545.985 349.7 548.762 317.053 551.576C284.406 554.372 281.81 559.086 201.292 598.781C120.789 638.477 1.40796 746.956 1.40796 746.956V692.188C1.40796 692.188 5.91438 688.891 13.2164 683.621C39.7154 664.481 102.965 619.337 120.42 611.882C142.681 602.346 177.204 579.712 220.957 562.472C264.725 545.232 295.531 540.034 302.95 535.661C310.371 531.307 317.791 527.328 324.474 521.379C331.158 515.429 335.597 511.001 335.597 511.001L338.948 514.495C338.948 514.495 328.176 526.144 321.51 531.701C314.826 537.257 320.755 536.862 348.594 537.257C376.418 537.65 410.538 557.831 410.538 557.831Z" fill="#6E2000"/>
<path opacity="0.28" d="M409.803 559.121L408.697 561.075C372.699 545.985 349.702 548.762 317.055 551.576C284.408 554.372 281.812 559.086 201.294 598.781C120.789 638.477 1.40796 746.955 1.40796 746.955V692.188C1.40796 692.188 5.91438 688.891 13.2164 683.621C14.8907 695.145 20.7873 704.214 20.7873 704.214C20.7873 704.214 96.3327 644.445 176.936 597.599C257.556 550.734 321.66 546.649 346.417 543.941C367.809 541.594 396.318 552.938 409.803 559.121Z" fill="#430018"/>
<path d="M370.971 544.924C358.517 541.487 367.509 506.843 398.178 508.42C398.178 508.42 395.21 516.301 391.748 526.646C388.286 536.986 386.307 549.155 370.971 544.924Z" fill="#00842E"/>
<path d="M367.014 547.044C356.614 546.849 342.279 573.506 370.971 599.97C370.971 599.97 395.21 547.572 367.014 547.044Z" fill="#00842E"/>
<path d="M188.544 614.515C186.818 619.102 157.12 610.249 140.135 581.235C140.135 581.216 140.135 581.216 140.118 581.216C136.451 574.943 133.384 567.704 131.307 559.477C129.917 553.957 128.945 548.669 128.36 543.633C123.938 506.536 139.617 483.901 155.294 487.934C156.249 488.186 157.153 488.454 158.008 488.794C174.29 494.69 173.988 512.504 174.539 544.279C174.624 548.239 174.691 552.415 174.824 556.825C174.941 560.642 175.158 564.208 175.476 567.523C177.168 585.374 181.456 596.216 184.706 603.224C187.423 609.067 189.399 612.221 188.544 614.515Z" fill="#FFDF00"/>
<path d="M188.544 614.515C186.818 619.102 157.12 610.249 140.135 581.235C140.135 581.216 140.135 581.216 140.118 581.216C136.451 574.943 133.384 567.704 131.307 559.477C129.917 553.957 128.945 548.669 128.36 543.633C123.938 506.536 139.617 483.901 155.294 487.934C156.249 488.186 157.153 488.454 158.008 488.794C154.373 490.639 151.107 493.382 148.526 496.644C142.463 504.314 139.817 514.511 139.179 524.53C138.995 527.362 138.995 530.373 140.285 532.863C141.576 535.353 144.59 537.02 146.984 535.783C146.583 538.292 146.197 540.819 145.878 543.328C145.024 549.779 144.456 556.268 144.137 562.772C144.02 565.103 143.97 567.575 145.024 569.637C147.201 573.866 154.154 573.508 155.945 569.063C156.214 569.96 156.498 570.855 156.783 571.752C158.977 578.796 161.423 585.804 165.559 591.716C170.116 598.223 177.151 603.294 184.704 603.222C187.423 609.067 189.399 612.221 188.544 614.515Z" fill="#FF7D00"/>
<path d="M131.61 569.371C131.628 569.389 131.628 569.424 131.628 569.461C131.61 569.408 131.595 569.354 131.578 569.317C131.593 569.336 131.593 569.352 131.61 569.371Z" fill="#FF6D00"/>
<path d="M175.48 567.526C175.012 570.717 174.86 573.995 173.789 577.006C172.516 580.537 169.417 583.762 165.916 583.297C162.902 582.886 160.757 580.019 159.25 577.205C158.328 575.447 157.491 573.621 156.786 571.757C156.652 571.433 156.535 571.112 156.418 570.788C156.854 573.207 156.921 575.699 156.585 578.136C156.351 579.857 155.882 581.63 154.741 582.867C153.518 584.194 151.71 584.696 149.951 584.768C146.433 584.911 143 583.478 140.135 581.237C140.135 581.219 140.135 581.219 140.118 581.219C136.451 574.946 133.384 567.706 131.307 559.479C129.917 553.96 128.945 548.672 128.36 543.636C123.938 506.538 139.617 483.904 155.294 487.936C156.249 488.188 157.153 488.457 158.008 488.797C174.29 494.693 173.988 512.506 174.539 544.281C174.624 548.242 174.691 552.418 174.824 556.827C174.945 560.642 175.162 564.21 175.48 567.526Z" fill="#FF6D00"/>
<path opacity="0.37" d="M156.418 570.786C156.854 573.204 156.921 575.697 156.585 578.134C156.351 579.854 155.882 581.628 154.741 582.865C153.518 584.192 151.71 584.694 149.951 584.765C146.433 584.909 143 583.475 140.135 581.235C140.135 581.216 140.135 581.216 140.118 581.216C136.451 574.943 133.384 567.704 131.307 559.477C129.917 553.957 128.945 548.669 128.36 543.633C123.938 506.536 139.617 483.901 155.294 487.934C156.249 488.186 157.153 488.454 158.008 488.794C154.373 490.639 151.107 493.382 148.526 496.644C142.463 504.314 139.817 514.511 139.179 524.53C138.995 527.362 138.995 530.373 140.285 532.863C141.576 535.353 144.59 537.02 146.984 535.783C146.583 538.292 146.197 540.819 145.878 543.328C145.024 549.779 144.456 556.268 144.137 562.772C144.02 565.103 143.97 567.575 145.024 569.637C147.201 573.866 154.154 573.508 155.945 569.063C156.214 569.96 156.498 570.855 156.783 571.752C156.652 571.431 156.535 571.109 156.418 570.786Z" fill="#C11046"/>
<path d="M174.541 544.281C172.75 546.198 170.069 547.363 167.69 546.449C165.715 545.696 164.357 543.635 163.837 541.45C163.318 539.263 163.518 536.969 163.837 534.747C163.937 533.993 163.737 532.865 163.032 533.008C162.898 536.629 162.714 540.41 161.122 543.617C159.547 546.824 156.097 549.298 152.814 548.385C150.419 547.721 148.661 545.427 147.821 542.953C147.301 541.411 147.084 539.781 146.984 538.132C146.9 539.924 146.548 541.698 145.878 543.33C145.308 544.782 144.488 546.126 143.432 547.254C140.517 550.318 135.627 551.322 132.192 548.975C130.199 547.613 129.06 545.749 128.356 543.633C123.934 506.536 139.613 483.901 155.291 487.934C156.245 488.186 157.149 488.454 158.004 488.794C174.29 494.692 173.988 512.506 174.541 544.281Z" fill="#FF4B36"/>
<path d="M158.009 488.796C154.375 490.641 151.109 493.384 148.528 496.646C142.464 504.316 139.819 514.513 139.181 524.532C138.997 527.364 138.997 530.375 140.287 532.865C141.577 535.355 144.592 537.022 146.986 535.785C146.585 538.294 146.199 540.821 145.88 543.33C145.31 544.782 144.49 546.126 143.434 547.254C140.519 550.318 135.629 551.322 132.194 548.975C130.201 547.613 129.062 545.749 128.358 543.633C123.936 506.536 139.615 483.901 155.293 487.934C156.251 488.186 157.155 488.456 158.009 488.796Z" fill="#C71945"/>
<path d="M189.683 577.848C189.75 578.655 189.583 579.425 189.349 580.195C189.115 581.037 188.763 581.881 188.562 582.741C187.857 585.536 188.477 588.494 188.445 591.398C188.445 591.647 188.427 591.918 188.395 592.168C188.295 593.153 187.993 594.121 187.206 594.605C187.122 594.658 187.056 594.695 186.972 594.73H186.955C186.62 594.873 186.267 594.91 185.933 594.838C184.994 594.695 184.074 593.925 183.472 593.083C181.311 590.001 181.177 585.807 181.379 581.954C181.496 579.767 181.747 577.42 183.155 575.843C184.226 574.659 186.187 574.338 187.41 575.126C187.527 575.198 187.627 575.288 187.728 575.378C188.583 575.612 189.387 576.488 189.622 577.494C189.65 577.615 189.668 577.723 189.683 577.848Z" fill="#FFC600"/>
<g opacity="0.5">
<path d="M186.836 592.436C187.087 592.848 187.237 593.278 187.237 593.779C187.237 594.119 187.137 594.443 186.968 594.73H186.951C186.766 595.053 186.5 595.322 186.196 595.5C186.096 595.285 185.995 595.07 185.927 594.836C184.988 594.693 184.069 593.923 183.466 593.081C181.306 589.999 181.171 585.805 181.373 581.952C181.49 579.765 181.742 577.418 183.149 575.841C184.22 574.657 186.181 574.336 187.404 575.124C187.237 575.196 187.053 575.286 186.884 575.393C186.749 575.483 186.632 575.573 186.515 575.716C186.465 575.735 186.43 575.788 186.398 575.825C185.561 576.828 185.225 578.19 184.923 579.462C184.455 581.379 184.069 583.351 184.086 585.321C184.119 587.31 184.606 589.335 185.728 590.912C186.083 591.416 186.534 591.899 186.836 592.436Z" fill="#FF7D00"/>
</g>
<path d="M197.271 589.21C197.121 591.557 195.512 594.139 193.519 594.283C193.185 594.317 192.832 594.283 192.481 594.158C190.655 593.531 189.984 591.182 189.718 589.158C189.249 585.736 189.165 582.259 189.449 578.818C189.718 575.556 191.409 570.395 195.495 571.202C195.545 571.22 195.58 571.22 195.629 571.236C200.572 572.293 197.807 577.653 197.104 580.985C196.551 583.672 197.455 586.451 197.271 589.21Z" fill="#FFC600"/>
<g opacity="0.5">
<path d="M195.629 571.235C195.345 571.45 195.076 571.665 194.909 571.917C194.274 572.83 193.921 573.924 193.636 575.036C192.396 580.053 192.692 585.155 194.351 590.048C194.702 591.088 196.762 592.09 195.355 593.273C195.04 593.538 193.903 594.16 193.519 594.285C193.185 594.32 192.832 594.285 192.481 594.16C190.655 593.533 189.984 591.184 189.718 589.161C189.249 585.739 189.165 582.261 189.449 578.821C189.718 575.558 191.409 570.397 195.495 571.204C195.547 571.218 195.58 571.218 195.629 571.235Z" fill="#FF7D00"/>
</g>
<path d="M204.944 582.454C205.145 584.068 205.564 585.661 205.464 587.275C205.43 587.938 205.263 588.618 204.978 589.229C204.627 590.107 204.007 590.842 203.17 591.164C200.858 592.043 198.698 589.478 197.759 587.06C195.833 582.024 194.861 569.783 201.645 567.991C202.265 567.829 202.801 567.739 203.269 567.723C209.717 567.329 204.441 578.44 204.944 582.454Z" fill="#FFC600"/>
<g opacity="0.5">
<path d="M204.976 589.228C204.625 590.107 204.005 590.842 203.168 591.164C200.856 592.042 198.696 589.478 197.757 587.059C195.831 582.023 194.86 569.782 201.643 567.99C202.263 567.829 202.799 567.739 203.268 567.722C202.565 568.314 202.079 569.174 201.726 570.069C200.336 573.581 200.771 577.596 201.357 581.36C201.609 582.865 201.875 584.424 202.697 585.679C203.166 586.396 203.803 586.988 204.304 587.686C204.625 588.135 204.894 588.673 204.976 589.228Z" fill="#FF7D00"/>
</g>
<path d="M188.612 592.813C188.427 593.421 188.226 594.031 188.176 594.677C188.143 595.16 188.193 595.645 188.243 596.129C188.31 596.882 188.377 597.634 188.544 598.369C188.562 598.478 188.562 598.619 188.46 598.637C188.41 598.637 188.36 598.601 188.326 598.566C187.623 597.886 187.003 597.079 186.534 596.2C186.417 595.967 186.3 595.733 186.2 595.502C186.1 595.287 185.998 595.072 185.931 594.838C185.864 594.713 185.814 594.57 185.764 594.427C185.597 593.943 185.346 593.513 185.747 593.083C185.964 592.831 186.25 592.672 186.551 592.545C186.651 592.51 186.736 592.454 186.836 592.436C187.221 592.274 187.605 592.186 188.009 592.149C188.143 592.131 188.278 592.131 188.395 592.168C188.512 592.205 188.629 592.311 188.663 592.436C188.696 592.563 188.646 592.688 188.612 592.813Z" fill="#FF6D00"/>
<path d="M193.139 594.683C193.617 595.567 194.224 596.37 194.934 597.054C194.973 597.091 195.017 597.13 195.067 597.122C195.169 597.109 195.172 596.952 195.149 596.845C194.99 596.114 194.917 595.363 194.844 594.615C194.798 594.13 194.75 593.642 194.787 593.157C194.836 592.518 195.03 591.903 195.221 591.295C195.259 591.174 195.297 591.043 195.265 590.92C195.23 590.789 195.119 590.693 194.998 590.652C194.877 590.609 194.746 590.613 194.62 590.626C194.115 590.671 193.621 590.822 193.154 591.031C192.861 591.16 192.571 591.318 192.35 591.561C191.954 592 192.21 592.426 192.373 592.905C192.582 593.521 192.834 594.117 193.139 594.683Z" fill="#FF6D00"/>
<path d="M201.887 592.143C202.365 593.028 202.972 593.831 203.682 594.515C203.721 594.552 203.765 594.591 203.815 594.585C203.917 594.572 203.92 594.415 203.897 594.308C203.738 593.577 203.665 592.825 203.592 592.078C203.546 591.593 203.498 591.105 203.534 590.62C203.584 589.981 203.778 589.366 203.968 588.758C204.007 588.637 204.045 588.506 204.013 588.383C203.978 588.252 203.867 588.156 203.746 588.115C203.625 588.074 203.494 588.078 203.367 588.088C202.862 588.133 202.369 588.285 201.9 588.494C201.607 588.623 201.317 588.781 201.096 589.024C200.7 589.463 200.956 589.889 201.119 590.368C201.33 590.982 201.582 591.578 201.887 592.143Z" fill="#FF6D00"/>
<path d="M246.552 566.254C246.552 566.289 246.552 566.344 246.535 566.379C246.383 567.903 245.58 569.623 244.156 569.676C243.017 569.73 242.128 568.673 241.51 567.651C240.035 565.232 239.081 562.381 237.105 560.411C235.949 559.246 234.442 558.404 233.722 556.899C233.219 555.877 233.453 554.443 234.14 553.692C234.375 552.795 235.112 552.078 236.016 551.685C236.719 551.379 237.524 551.289 238.244 551.488C240.219 552.027 241.61 553.853 242.783 555.627C244.876 558.781 246.853 562.4 246.552 566.254Z" fill="#FFC600"/>
<g opacity="0.5">
<path d="M246.535 566.379C246.383 567.903 245.58 569.623 244.156 569.676C243.017 569.73 242.128 568.673 241.51 567.651C240.035 565.232 239.081 562.381 237.105 560.411C235.949 559.246 234.442 558.404 233.722 556.899C233.219 555.877 233.453 554.443 234.14 553.692C234.375 552.795 235.112 552.078 236.016 551.685C235.999 551.738 235.999 551.775 235.999 551.81C235.949 552.489 236.216 553.19 236.518 553.782C237.506 555.645 239.181 556.954 240.723 558.334C242.264 559.715 243.754 561.363 244.123 563.479C244.24 564.177 244.223 564.913 244.474 565.576C244.709 566.24 245.346 566.832 245.999 566.651C246.2 566.594 246.368 566.485 246.535 566.379Z" fill="#FF7D00"/>
</g>
<path d="M242.13 572.366C240.69 574.641 237.205 573.656 235.496 571.612C233.77 569.552 232.883 566.756 230.907 564.999C228.446 562.796 223.102 560.375 226.57 556.217C226.921 555.787 227.307 555.464 227.708 555.249C230.421 553.653 233.906 556.18 235.715 558.259C237.91 560.786 239.835 563.6 241.444 566.611C241.729 567.15 241.997 567.723 242.197 568.313C242.698 569.712 242.883 571.182 242.13 572.366Z" fill="#FFC600"/>
<g opacity="0.5">
<path d="M242.13 572.366C240.69 574.641 237.205 573.656 235.496 571.612C233.77 569.552 232.883 566.756 230.907 564.999C228.446 562.795 223.102 560.375 226.57 556.217C226.921 555.787 227.307 555.464 227.708 555.249C227.691 555.302 227.674 555.373 227.674 555.445C227.589 556.449 228.192 557.399 228.964 557.991C229.719 558.601 230.623 558.941 231.477 559.39C233.739 560.555 235.665 562.453 236.955 564.766C237.408 565.573 237.792 566.451 238.345 567.168C238.898 567.903 239.686 568.511 240.573 568.53C241.126 568.548 241.661 568.333 242.197 568.315C242.698 569.712 242.883 571.182 242.13 572.366Z" fill="#FF7D00"/>
</g>
<path d="M232.33 576.828C232.213 576.918 232.096 576.971 231.961 577.006C230.521 577.526 228.929 576.666 227.923 575.464C226.919 574.245 226.332 572.703 225.562 571.306C223.501 567.542 211.509 561.701 219.884 557.722C220.051 557.632 220.235 557.56 220.404 557.507C226.62 555.232 232.549 565.123 233.872 570.231C234.492 572.597 234.308 575.822 232.33 576.828Z" fill="#FFC600"/>
<g opacity="0.5">
<path d="M232.33 576.828C232.213 576.918 232.096 576.972 231.961 577.006C230.521 577.527 228.929 576.666 227.923 575.464C226.919 574.246 226.332 572.703 225.562 571.307C223.501 567.543 211.509 561.702 219.884 557.722C220.051 557.632 220.235 557.561 220.404 557.507C220.372 557.597 220.354 557.685 220.337 557.794C220.203 558.763 220.656 559.748 221.309 560.465C221.944 561.163 222.749 561.683 223.519 562.238C227.455 565.087 230.302 569.621 231.308 574.604C231.458 575.339 231.593 576.146 232.113 576.664C232.18 576.738 232.247 576.791 232.33 576.828Z" fill="#FF7D00"/>
</g>
<path d="M246.329 569.461C246.425 570.211 246.412 570.977 246.287 571.722C246.281 571.761 246.27 571.806 246.239 571.827C246.174 571.87 246.104 571.78 246.074 571.706C245.857 571.2 245.58 570.725 245.306 570.254C245.127 569.947 244.947 569.639 244.718 569.373C244.419 569.023 244.044 568.757 243.674 568.495C243.599 568.441 243.522 568.384 243.489 568.296C243.453 568.202 243.478 568.093 243.532 568.009C243.585 567.925 243.662 567.866 243.741 567.811C244.054 567.591 244.409 567.44 244.77 567.335C244.997 567.27 245.233 567.219 245.467 567.256C245.886 567.319 245.916 567.694 246.024 568.054C246.16 568.511 246.268 568.982 246.329 569.461Z" fill="#FF6D00"/>
<path d="M241.9 573.218C242.03 574.229 242.011 575.264 241.842 576.269C241.832 576.323 241.819 576.382 241.777 576.411C241.688 576.468 241.596 576.347 241.552 576.247C241.258 575.565 240.886 574.924 240.515 574.285C240.273 573.871 240.031 573.455 239.724 573.095C239.319 572.622 238.814 572.263 238.315 571.909C238.215 571.837 238.111 571.762 238.065 571.643C238.017 571.516 238.052 571.368 238.123 571.256C238.194 571.143 238.299 571.061 238.405 570.985C238.829 570.688 239.306 570.486 239.795 570.342C240.1 570.252 240.421 570.185 240.734 570.234C241.299 570.32 241.339 570.826 241.487 571.311C241.673 571.934 241.817 572.571 241.9 573.218Z" fill="#FF6D00"/>
<path d="M233.536 576.951C233.666 577.963 233.647 578.997 233.478 580.003C233.468 580.056 233.455 580.115 233.413 580.144C233.324 580.201 233.232 580.08 233.188 579.98C232.894 579.298 232.522 578.657 232.151 578.018C231.911 577.604 231.667 577.189 231.36 576.83C230.955 576.357 230.45 575.999 229.951 575.644C229.851 575.573 229.745 575.495 229.701 575.378C229.653 575.253 229.686 575.104 229.759 574.991C229.83 574.878 229.936 574.797 230.041 574.721C230.465 574.424 230.942 574.221 231.431 574.078C231.737 573.988 232.057 573.92 232.37 573.969C232.935 574.055 232.975 574.559 233.123 575.046C233.307 575.669 233.451 576.306 233.536 576.951Z" fill="#FF6D00"/>
<path opacity="0.22" d="M158.384 520.879C158.656 524.025 160.511 527.441 163.455 527.697C165.467 527.873 167.376 526.454 168.434 524.614C169.491 522.775 169.841 520.578 170.044 518.429C170.789 510.545 169.48 501.777 163.975 496.475C162.307 494.867 160.223 493.622 157.981 493.507C152.063 493.204 150.986 499.367 154.071 503.36C155.671 505.429 157.462 506.402 158.288 509.211C159.401 512.996 158.05 517.018 158.384 520.879Z" fill="#FFC1B0"/>
<path opacity="0.22" d="M224.63 407.149C226.464 408.109 228.086 409.498 229.475 411.101C232.04 414.063 234.281 418.052 238.019 418.605C240.079 418.908 242.12 418.41 244.019 417.507C247.091 416.047 246.715 413.049 246.066 410.935C245.137 407.904 240.939 404.931 238.299 403.448C233.925 400.99 226.568 396.812 221.366 397.47C219.281 397.734 218.041 398.035 217.81 400.503C217.436 404.505 222.105 405.825 224.63 407.149Z" fill="#FFABA1"/>
<path d="M252.848 435.127C252.27 436.667 252.892 438.463 253.904 439.721C254.916 440.978 256.273 441.846 257.494 442.868C261.77 446.442 264.437 452.125 264.564 457.929C264.585 458.892 264.547 459.891 264.915 460.77C265.284 461.648 266.223 462.347 267.07 462.025C267.867 461.722 268.199 460.725 268.387 459.842C269.84 453.039 268.748 445.684 265.574 439.608C263.842 436.292 255.759 427.369 252.848 435.127Z" fill="#FFEC91"/>
<path opacity="0.22" d="M216.034 517.542C214.707 520.718 213.905 524.452 215.22 527.632C216.535 530.815 220.686 532.709 223.215 530.522C224.025 529.822 224.569 528.82 225.385 528.128C227.295 526.506 230.068 527.008 232.395 527.79C234.722 528.572 237.232 529.558 239.522 528.661C241.235 527.991 242.468 526.375 243.397 524.696C246.202 519.631 246.93 513.172 244.831 507.728C242.735 502.284 237.675 498.141 232.176 497.928C221.497 497.51 219.448 509.362 216.034 517.542Z" fill="#FFABA1"/>
<path d="M160.488 418.669C160.456 418.706 160.421 418.722 160.404 418.759C158.378 418.005 156.032 417.002 153.319 415.695C152.38 415.247 151.393 414.745 150.354 414.208C144.273 411.036 140.723 405.875 138.947 400.462C135.948 391.359 137.943 381.627 141.191 379.798C143.302 378.614 145.731 377.791 147.958 378.167C141.274 386.984 155.78 414.96 158.662 417.219C159.382 417.774 159.985 418.257 160.488 418.669Z" fill="#00A98A"/>
<path opacity="0.5" d="M152.681 429.96C126.399 428.168 123.586 406.681 130.554 403.885C131.023 403.688 131.459 403.545 131.862 403.437C129.769 408.473 132.012 413.687 137.709 420.767C142.482 426.716 149.131 429.082 152.681 429.96Z" fill="#FF7D00"/>
<path d="M157.021 437.863C136.869 445.193 130.689 437.72 132.046 432.2C132.23 431.43 132.532 430.838 132.918 430.408C133.319 433.83 136.301 435.911 142.683 437.558C148.01 438.938 154.106 438.293 157.021 437.863Z" fill="#00A98A"/>
<path d="M1441.66 773.878V836.809C1441.66 836.809 1361.62 807.285 1348.36 799.976C1335.11 792.681 1303.67 778.058 1295.72 777.239C1287.77 776.436 1268.07 776.027 1257.48 778.878C1246.87 781.714 1206.73 795.106 1206.73 795.106L1205.46 792.679C1205.46 792.679 1231.73 782.515 1236.27 780.09C1240.81 777.647 1257.1 773.991 1257.1 773.991L1231.94 765.877V763.04C1231.94 763.04 1255.46 768.318 1261.58 768.318C1267.71 768.318 1301.41 768.318 1303.3 766.286C1305.18 764.255 1273.81 744.729 1271.1 742.337C1268.4 739.927 1250.66 726.092 1250.66 726.092C1250.66 726.092 1214.68 711.879 1208.24 709.438C1201.81 707.011 1186.29 700.111 1182.5 698.881C1182.36 698.831 1182.24 698.799 1182.08 698.766C1178 697.668 1168.15 697.701 1158.64 698.487C1148.8 699.29 1129.1 697.668 1122.28 697.668C1115.46 697.668 1111.91 696.865 1111.91 696.865V692.8C1111.91 692.8 1131.38 691.981 1135.16 691.588C1137.57 691.326 1149.06 691.719 1158.17 691.833C1160.9 691.866 1163.43 691.883 1165.43 691.833C1167.24 691.801 1168.61 691.719 1169.36 691.588C1173.78 690.769 1190.55 692.8 1190.55 692.8C1190.55 692.8 1210.22 701.865 1240.66 713.749C1245.51 715.633 1250.61 717.601 1255.96 719.602C1294.97 734.209 1321.47 735.831 1345.7 743.552C1369.95 751.256 1441.66 773.878 1441.66 773.878Z" fill="#6E2000"/>
<path d="M1143.11 667.628L1145.76 665.193L1167.35 694.424H1159.77L1143.11 667.628Z" fill="#6E2000"/>
<path opacity="0.28" d="M1441.66 802.549V836.81C1441.66 836.81 1361.62 807.286 1348.36 799.977C1335.11 792.682 1303.67 778.059 1295.72 777.24C1287.77 776.437 1268.07 776.027 1257.48 778.878C1246.87 781.715 1206.73 795.106 1206.73 795.106L1205.46 792.68C1205.46 792.68 1231.73 782.515 1236.27 780.09C1240.81 777.647 1257.1 773.992 1257.1 773.992L1231.94 765.877V763.041C1231.94 763.041 1255.46 768.319 1261.58 768.319C1267.71 768.319 1301.41 768.319 1303.3 766.287C1305.18 764.255 1273.81 744.73 1271.1 742.338C1268.4 739.927 1250.66 726.093 1250.66 726.093C1250.66 726.093 1214.68 711.88 1208.24 709.439C1201.81 707.012 1186.29 700.112 1182.5 698.881C1182.36 698.832 1182.24 698.799 1182.08 698.766C1178 697.669 1168.15 697.701 1158.64 698.488C1148.8 699.291 1129.1 697.669 1122.28 697.669C1115.46 697.669 1111.91 696.866 1111.91 696.866V695.078C1128.93 695.045 1162.8 694.931 1167.34 694.423C1170.92 694.029 1176.44 695.324 1182.5 697.177C1186.79 698.488 1191.35 700.079 1195.66 701.537C1202.8 703.948 1223.88 711.358 1239.39 717.454C1246.44 720.225 1252.32 722.732 1255.21 724.373C1264.51 729.65 1267.23 730.242 1286.91 747.224C1302.91 761.058 1403.5 792.303 1441.66 802.549Z" fill="#430018"/>
<path d="M1156.74 683.056C1162.35 691.803 1179.47 679.402 1172.27 660.321C1172.27 660.321 1144.25 663.569 1156.74 683.056Z" fill="#00842E"/>
<path d="M1150.31 676.967C1155.15 685.89 1143.11 696.456 1127.97 684.274C1127.97 684.274 1140.84 659.508 1150.31 676.967Z" fill="#00842E"/>
<path d="M1230.21 784.554C1217.47 787.741 1225.29 809.319 1239.3 813.38C1239.3 813.38 1252.93 778.869 1230.21 784.554Z" fill="#00842E"/>
<path d="M1227.51 783.922C1213.87 790.291 1216.32 762.631 1216.32 762.631C1216.32 762.631 1227.21 763.036 1231.74 771.562C1236.27 780.088 1229.73 782.884 1227.51 783.922Z" fill="#00842E"/>
<path d="M1245.22 697.313C1245.22 697.313 1252.93 705.434 1242.26 707.058C1231.59 708.682 1221.37 702.999 1214.55 707.058C1207.73 711.117 1211.52 717.208 1211.52 717.208C1211.52 717.208 1202.43 713.96 1207.73 705.839C1207.73 705.839 1200.54 708.682 1203.95 715.584C1203.95 715.584 1193.35 712.741 1201.3 704.621C1201.3 704.621 1195.62 705.434 1196.75 711.522C1196.75 711.522 1189.8 699.748 1205.96 698.124C1222.12 696.5 1245.22 697.313 1245.22 697.313Z" fill="#EF4F00"/>
<path d="M1255.58 702.542C1255.58 702.542 1263.28 710.663 1252.62 712.287C1241.95 713.911 1231.73 708.228 1224.91 712.287C1218.09 716.346 1221.88 722.437 1221.88 722.437C1221.88 722.437 1212.79 719.188 1218.09 711.068C1218.09 711.068 1210.9 713.911 1214.31 720.813C1214.31 720.813 1203.7 717.972 1211.66 709.852C1211.66 709.852 1205.98 710.665 1207.11 716.753C1207.11 716.753 1200.16 704.979 1216.32 703.355C1232.48 701.731 1255.58 702.542 1255.58 702.542Z" fill="#FF6D00"/>
<path d="M1225.66 571.003C1225.83 571.528 1225.49 572.331 1224.73 573.217C1222.2 576.07 1214.97 579.824 1204.44 577.987C1203.46 577.823 1202.44 577.594 1201.38 577.315C1201.03 577.233 1200.66 577.135 1200.29 577.02C1198.11 576.381 1195.78 575.775 1193.35 575.251C1192.48 575.054 1191.59 574.89 1190.71 574.71C1187.77 574.17 1184.7 573.744 1181.52 573.498C1168.24 572.449 1153.34 574.481 1140.08 583.597C1133.44 588.17 1129.12 594.744 1126.32 601.482C1120.65 615.121 1121.15 629.464 1121.15 629.464C1117.54 629.922 1112.25 617.088 1111.93 600.794C1111.67 588.041 1114.44 573.156 1123.41 560.862C1138.87 539.7 1161.45 527.322 1193.12 525.011H1193.13C1195.84 524.798 1198.61 524.684 1201.45 524.635C1202.17 524.618 1202.9 524.602 1203.64 524.602H1203.65C1206.96 524.585 1210.34 524.684 1213.84 524.848C1215.06 524.913 1216.3 524.995 1217.55 525.093C1220.57 525.29 1223.65 525.585 1226.8 525.945C1226.8 525.945 1216.96 532.438 1213.55 565.73C1212.22 578.642 1224.91 568.56 1225.66 571.003Z" fill="#FFC600"/>
<path d="M1225.66 571.003C1225.36 571.839 1225.05 572.56 1224.73 573.217C1221.39 579.889 1217.01 577.856 1213.55 581.561C1209.76 585.626 1210.9 599.018 1208.25 599.823C1207.79 599.97 1206.72 599.79 1205.11 599.429C1204.01 599.184 1202.67 598.856 1201.1 598.496C1198.98 598.004 1196.44 597.431 1193.57 596.906C1192.8 596.759 1192.01 596.628 1191.2 596.497C1188.58 596.071 1185.74 595.71 1182.68 595.464C1174.67 594.826 1165.28 595.039 1155.23 597.4C1127.59 603.892 1124.94 629.873 1121.15 629.463C1121.15 629.463 1118.49 608.367 1131.38 590.088C1140.89 576.598 1163.24 569.516 1181.75 569.713C1184.96 569.729 1188.06 569.975 1190.95 570.45C1191.87 570.598 1192.77 570.778 1193.66 570.991C1195.61 571.417 1197.46 571.958 1199.16 572.629C1200.02 572.973 1200.86 573.285 1201.68 573.547C1202.68 573.874 1203.64 574.169 1204.57 574.399C1219.27 578.181 1225.66 571.003 1225.66 571.003Z" fill="#FFAF00"/>
<path d="M1323.93 808.713C1320.84 809.893 1316.91 810.892 1312 811.762C1289.28 815.811 1268.84 817.04 1264.94 809.319C1261.04 801.598 1270.35 731.372 1269.59 718.783C1268.84 706.194 1262.4 707.161 1262.4 707.161C1262.37 707.046 1262.34 706.931 1262.33 706.817C1257.69 687.064 1276.03 688.686 1283.93 693.392C1286.52 694.916 1288 696.786 1287.2 698.342C1286.85 699.03 1286.56 699.636 1286.35 700.21C1284.42 704.898 1286.58 706.342 1295.34 717.571C1305.18 730.16 1323.75 767.913 1330.18 784.551C1335.23 797.615 1335.15 804.418 1323.93 808.713Z" fill="#002330"/>
<path d="M1317.31 553.544C1317.08 553.626 1316.19 553.462 1314.89 553.118C1309.79 551.84 1298.23 547.988 1294.4 546.331L1294.42 546.348C1295.81 547.281 1303.41 553.954 1304.44 590.083C1305.52 628.327 1292.28 685.325 1287.2 698.34C1287 698.864 1286.82 699.323 1286.64 699.7C1286.56 699.864 1286.47 700.044 1286.35 700.208C1285.55 701.387 1283.95 702.422 1281.71 703.306C1277.23 705.092 1270.23 706.274 1262.33 706.814C1243.57 708.092 1219.64 705.815 1211.66 699.7C1203.86 693.732 1201.08 682.849 1201.3 669.586C1201.46 660.339 1203.08 649.898 1205.46 639.21C1211.27 613.227 1207.86 605.096 1207.86 605.096C1207.86 605.096 1198.55 564.114 1220.46 533.541C1221.67 531.854 1222.97 530.197 1224.38 528.591C1225.16 527.69 1225.97 526.806 1226.81 525.935C1226.81 525.935 1244.61 527.557 1262.02 532.016C1279.44 536.49 1280.95 540.556 1286.64 537.293C1292.31 534.047 1307.47 517.819 1311.62 518.212C1315 518.54 1314.91 527.375 1313.12 532.884C1312.71 534.195 1312.2 535.311 1311.62 536.081C1308.6 540.146 1292.69 542.573 1292.69 542.573C1292.69 542.573 1315.8 542.573 1318.82 543.392C1321.85 544.201 1318.44 553.135 1317.31 553.544Z" fill="#002330"/>
<path d="M1201.3 669.588C1201.46 660.342 1203.08 649.901 1205.46 639.212C1211.27 613.229 1207.86 605.099 1207.86 605.099C1207.86 605.099 1198.55 564.116 1220.46 533.544C1221.29 533.363 1222.14 533.265 1223.01 533.249C1223.01 533.249 1263.92 525.544 1272.62 561.673C1281.09 596.772 1207.78 623.443 1201.3 669.588Z" fill="#FFFDF8"/>
<path d="M1205.11 599.427C1204.01 599.182 1202.66 598.854 1201.1 598.493C1198.98 598.002 1196.44 597.429 1193.56 596.904C1192.8 596.757 1192.01 596.626 1191.2 596.495C1190.52 588.725 1190.42 581.446 1190.71 574.708C1190.77 573.266 1190.84 571.839 1190.95 570.446C1192.51 547.726 1198.4 531.645 1201.45 524.628C1202.17 524.612 1202.91 524.596 1203.64 524.596H1203.66C1206.96 524.579 1210.34 524.677 1213.84 524.841C1215.06 524.907 1216.3 524.989 1217.56 525.087C1208.55 540.414 1205.38 558.906 1204.57 574.397C1204.51 575.609 1204.47 576.807 1204.44 577.987C1204.18 586.724 1204.64 594.281 1205.11 599.427Z" fill="#EE4B3A"/>
<path d="M1225.66 571.003C1225.83 571.527 1225.49 572.33 1224.73 573.217C1221.39 579.889 1217.01 577.855 1213.55 581.56C1209.76 585.625 1210.9 599.017 1208.25 599.822C1207.79 599.97 1206.72 599.789 1205.11 599.429C1204.01 599.183 1202.67 598.855 1201.1 598.495C1200.74 591.003 1200.89 583.921 1201.38 577.317C1201.47 576.039 1201.58 574.791 1201.68 573.546C1203.98 549.253 1210.72 531.826 1213.84 524.843C1215.06 524.908 1216.3 524.99 1217.56 525.089C1220.57 525.285 1223.66 525.58 1226.81 525.941C1226.81 525.941 1216.96 532.433 1213.55 565.725C1212.22 578.642 1224.91 568.559 1225.66 571.003Z" fill="#FF6D00"/>
<path d="M1136.29 607.378C1125.88 617.198 1123.8 629.738 1121.15 629.459C1117.54 629.918 1112.25 617.083 1111.93 600.789C1114.07 600.33 1119.36 599.511 1125.37 601.199C1125.69 601.281 1126.01 601.379 1126.32 601.477C1129.61 602.526 1133.06 604.345 1136.29 607.378Z" fill="#002330"/>
<path d="M1235.16 572.694C1235.15 568.523 1235.8 564.414 1237.04 560.406C1237.65 558.391 1238.44 556.413 1239.6 554.498C1240.19 553.542 1240.87 552.608 1241.79 551.75C1242.7 550.914 1243.93 550.128 1245.45 549.929C1248.61 549.634 1250.92 551.801 1252.08 553.966C1253.26 556.163 1253.64 558.391 1253.81 560.548C1254.14 564.857 1253.59 569.029 1252.33 572.977C1251.83 568.867 1251.4 564.847 1250.52 561.142C1250.04 559.327 1249.5 557.523 1248.64 556.257L1247.99 555.424C1247.76 555.196 1247.51 555.063 1247.29 554.85C1247.03 554.734 1246.78 554.658 1246.54 554.512C1246.31 554.457 1246.12 554.451 1245.92 554.463C1245.15 554.496 1243.9 555.563 1242.91 556.99C1241.88 558.397 1240.98 560.083 1240.1 561.793C1238.39 565.268 1236.86 568.963 1235.16 572.694Z" fill="#410700"/>
<path d="M1256.72 620.534C1273.59 600.846 1280.2 596.58 1283.23 611.603C1286.26 626.625 1284.36 658.696 1274.52 678.996C1264.67 699.296 1257.1 699.296 1259.37 689.957C1261.64 680.62 1253.69 665.193 1247.25 654.635C1240.81 644.08 1252.19 625.822 1256.72 620.534Z" fill="#005F79"/>
<path d="M1193.35 575.249C1192.66 585.577 1193.02 592.378 1193.56 596.904C1192.8 596.757 1192.01 596.626 1191.2 596.495C1188.58 596.069 1185.74 595.708 1182.68 595.463C1181.88 590.545 1181.1 582.988 1181.52 573.496C1181.58 572.267 1181.65 571.003 1181.74 569.709C1182.68 557.218 1185.71 541.858 1193.12 525.005H1193.14C1195.84 524.792 1198.61 524.678 1201.45 524.628C1202.17 524.612 1202.91 524.596 1203.64 524.596C1200.9 531.252 1195.75 546.464 1193.66 570.987C1193.58 571.986 1193.5 573.002 1193.43 574.036C1193.4 574.444 1193.37 574.856 1193.35 575.249Z" fill="#00D8AB"/>
<g opacity="0.29">
<path d="M1225.66 571.003C1225.36 571.839 1225.05 572.56 1224.73 573.217C1221.39 579.889 1217.01 577.856 1213.55 581.561C1209.76 585.626 1210.9 599.018 1208.25 599.823C1207.79 599.97 1206.72 599.79 1205.11 599.429C1204.01 599.184 1202.67 598.856 1201.1 598.495C1198.98 598.004 1196.44 597.431 1193.57 596.906C1192.8 596.759 1192.01 596.628 1191.2 596.497C1188.58 596.071 1185.74 595.71 1182.68 595.464C1174.67 594.825 1165.28 595.038 1155.23 597.4C1146.87 599.366 1140.8 603.103 1136.29 607.384C1125.88 617.204 1123.8 629.744 1121.15 629.465C1121.15 629.465 1119.46 615.957 1125.37 601.205C1126.84 597.517 1128.8 593.746 1131.38 590.09C1140.89 576.6 1163.25 569.518 1181.75 569.715C1184.96 569.731 1188.06 569.977 1190.95 570.452C1191.87 570.6 1192.77 570.78 1193.66 570.993C1195.61 571.419 1197.47 571.96 1199.16 572.631C1200.02 572.975 1200.86 573.287 1201.69 573.549C1202.68 573.876 1203.64 574.171 1204.58 574.401C1219.27 578.181 1225.66 571.003 1225.66 571.003Z" fill="#680010"/>
</g>
<path opacity="0.22" d="M1284.19 541.987C1284.19 541.987 1270.87 540.003 1255.71 533.693C1244.93 529.218 1231.36 528.579 1224.38 528.595C1225.16 527.694 1225.97 526.809 1226.81 525.939C1226.81 525.939 1244.6 527.561 1262.02 532.02C1279.44 536.494 1280.95 540.56 1286.64 537.297C1292.31 534.051 1307.46 517.823 1311.62 518.216C1315 518.544 1314.91 527.379 1313.12 532.888C1312.17 529.085 1312.45 524.184 1306.18 527.381C1299.05 531.037 1284.19 541.987 1284.19 541.987Z" fill="#009BC4"/>
<path opacity="0.22" d="M1323.93 808.712C1325.35 802.894 1326.33 792.894 1322.9 778.386C1317.02 753.486 1281.1 708.324 1281.71 703.341C1281.71 703.324 1281.71 703.324 1281.71 703.308C1281.88 702.03 1282.71 698.489 1283.93 693.39C1287.55 678.308 1294.74 649.491 1299.37 623.999C1305.57 589.804 1294.31 546.282 1294.31 546.282C1294.31 546.282 1294.34 546.298 1294.4 546.331L1294.42 546.347C1295.81 547.281 1303.41 553.954 1304.44 590.082C1305.52 628.327 1292.28 685.325 1287.2 698.34C1287 698.864 1286.82 699.323 1286.64 699.699C1286.56 699.863 1286.47 700.044 1286.35 700.207C1284.42 704.895 1286.58 706.339 1295.34 717.568C1305.18 730.157 1323.75 767.91 1330.18 784.548C1335.23 797.614 1335.15 804.418 1323.93 808.712Z" fill="#009BC4"/>
<path opacity="0.22" d="M1292.69 542.577C1292.69 542.577 1315.8 542.577 1318.82 543.396C1321.85 544.199 1318.44 553.135 1317.31 553.544C1317.08 553.626 1316.19 553.462 1314.89 553.118C1315.09 551.283 1315.15 548.611 1314.24 546.642C1312.68 543.314 1292.69 542.577 1292.69 542.577Z" fill="#009BC4"/>
<path opacity="0.41" d="M1132.34 561.372C1131.59 562.846 1130.94 564.44 1130.93 566.115C1130.92 567.79 1131.7 569.568 1133.14 570.227C1135.25 571.2 1137.53 569.498 1139.39 568.04C1145.2 563.475 1152.05 560.423 1159.17 559.223C1163.25 558.533 1167.54 558.41 1171.24 556.444C1174.95 554.476 1177.9 549.856 1176.5 545.682C1175 541.197 1169.66 539.87 1165.22 540.097C1152.61 540.748 1138.43 549.284 1132.34 561.372Z" fill="#FFEAA0"/>
</svg>
