<svg width="32" height="32" viewBox="0 0 32 32" fill="none" xmlns="http://www.w3.org/2000/svg">
<path d="M11.1894 30.0513V25.1444C11.1894 23.9009 12.2538 22.8907 13.5721 22.8829H18.4128C19.7371 22.8829 20.8106 23.8954 20.8106 25.1444V30.0371C20.8105 31.1156 21.7331 31.9921 22.8765 31.9999H26.1791C27.7215 32.0037 29.2021 31.4284 30.2942 30.4011C31.3863 29.3737 32 27.9788 32 26.524V12.5853C32 11.4102 31.4477 10.2955 30.492 9.54158L19.2724 1.07883C17.3112 -0.401403 14.5101 -0.353586 12.607 1.19261L1.62865 9.54158C0.627774 10.2733 0.0295618 11.3913 0 12.5853V26.5098C0 29.5419 2.60612 31.9999 5.82092 31.9999H9.04807C9.59861 32.0037 10.128 31.8001 10.5187 31.4342C10.9094 31.0684 11.1291 30.5706 11.1291 30.0513H11.1894Z" fill="url(#paint0_linear_473_878)"/>
<defs>
<linearGradient id="paint0_linear_473_878" x1="2.68531" y1="-5.59891e-06" x2="33.0207" y2="2.33742" gradientUnits="userSpaceOnUse">
<stop stop-color="#7FCB28" stop-opacity="0.91"/>
<stop offset="1" stop-color="#5C9E32"/>
</linearGradient>
</defs>
</svg>
