<svg width="36" height="36" viewBox="0 0 36 36" fill="none" xmlns="http://www.w3.org/2000/svg">
<path d="M36 16.65C36.001 17.0614 35.8942 17.466 35.6899 17.8245C35.4856 18.183 35.1907 18.4832 34.8341 18.6959L12.7309 32.0434C12.3583 32.2687 11.9314 32.3916 11.4946 32.3996C11.0577 32.4076 10.6265 32.3003 10.2457 32.0888C9.86846 31.8806 9.55423 31.577 9.3353 31.2092C9.11636 30.8414 9.00063 30.4226 9 29.996V3.30405C9.00063 2.87744 9.11636 2.45869 9.3353 2.09086C9.55423 1.72304 9.86846 1.41942 10.2457 1.21122C10.6265 0.999741 11.0577 0.892453 11.4946 0.90044C11.9314 0.908426 12.3583 1.0314 12.7309 1.25665L34.8341 14.6041C35.1907 14.8169 35.4856 15.1171 35.6899 15.4756C35.8942 15.8341 36.001 16.2387 36 16.65Z" fill="url(#paint0_linear_479_160)"/>
<defs>
<linearGradient id="paint0_linear_479_160" x1="11.2657" y1="0.900019" x2="36.9014" y2="2.59313" gradientUnits="userSpaceOnUse">
<stop stop-color="#7FCB28" stop-opacity="0.91"/>
<stop offset="1" stop-color="#5C9E32"/>
</linearGradient>
</defs>
</svg>
